<svg xmlns="http://www.w3.org/2000/svg" xmlns:xlink="http://www.w3.org/1999/xlink" width="854.17" height="248.995" viewBox="0 0 854.17 248.995">
  <defs>
    <linearGradient id="linear-gradient" x1="0.117" y1="0.5" x2="1.117" y2="0.5" gradientUnits="objectBoundingBox">
      <stop offset="0" stop-color="#faeb61"/>
      <stop offset="0.522" stop-color="#f37c21"/>
      <stop offset="0.908" stop-color="#faeb61"/>
    </linearGradient>
    <linearGradient id="linear-gradient-2" x1="0.268" y1="0.164" x2="0.75" y2="0.982" gradientUnits="objectBoundingBox">
      <stop offset="0" stop-color="#f9ae1d"/>
      <stop offset="0.524" stop-color="#f37b20"/>
      <stop offset="0.543" stop-color="#f37d1f"/>
      <stop offset="0.839" stop-color="#f7a01d"/>
      <stop offset="0.997" stop-color="#f9ae1d"/>
    </linearGradient>
    <linearGradient id="linear-gradient-3" x1="0.877" y1="-0.787" x2="0.66" y2="-0.261" gradientUnits="objectBoundingBox">
      <stop offset="0" stop-color="#f37b20"/>
      <stop offset="1" stop-color="#f9ae1d"/>
    </linearGradient>
    <linearGradient id="linear-gradient-4" x1="0.522" y1="0.587" x2="0.243" y2="0.822" gradientUnits="objectBoundingBox">
      <stop offset="0" stop-color="#f9ae1d"/>
      <stop offset="1" stop-color="#f37b20"/>
    </linearGradient>
    <linearGradient id="linear-gradient-5" x1="0.211" y1="0.684" x2="0.57" y2="0.313" xlink:href="#linear-gradient-3"/>
    <linearGradient id="linear-gradient-6" x1="0.823" y1="0.698" x2="0.357" y2="0.437" xlink:href="#linear-gradient-3"/>
    <linearGradient id="linear-gradient-7" x1="0.573" y1="0.373" x2="0.362" y2="0.605" xlink:href="#linear-gradient-4"/>
    <linearGradient id="linear-gradient-8" x1="0.041" y1="0.366" x2="0.532" y2="0.662" xlink:href="#linear-gradient-4"/>
    <linearGradient id="linear-gradient-9" x1="0.31" y1="0.724" x2="0.646" y2="0.479" xlink:href="#linear-gradient-3"/>
  </defs>
  <g id="Group_60" data-name="Group 60" transform="translate(-815.435 -112.756)">
    <g id="Group_55" data-name="Group 55">
      <path id="Path_210" data-name="Path 210" d="M1256.066,204.221h-8.137v-5.753h23.284v5.753h-8.271v24.543h-6.876Z" fill="#fff"/>
      <path id="Path_211" data-name="Path 211" d="M1281.726,198.468V210.11h11.282V198.468h6.832v30.3h-6.832V216.088h-11.282v12.676h-6.878v-30.3Z" fill="#fff"/>
      <path id="Path_212" data-name="Path 212" d="M1312.869,220.988l-2.158,7.776h-7.1l9.26-30.3h8.99l9.4,30.3h-7.372l-2.338-7.776Zm4.046-29.667,3.775,5.439h-5.483l-5.484-5.439Zm3.641,24.543-1.888-6.428c-.539-1.8-1.079-4.046-1.529-5.844h-.09c-.449,1.8-.9,4.091-1.394,5.844l-1.8,6.428Z" fill="#fff"/>
      <path id="Path_213" data-name="Path 213" d="M1335.292,228.764v-30.3h8l6.294,11.1a87.738,87.738,0,0,1,4.944,10.383h.136a112.3,112.3,0,0,1-.585-12.631v-8.855h6.293v30.3h-7.192l-6.473-11.687a112.387,112.387,0,0,1-5.258-10.7l-.136.045c.181,4,.27,8.271.27,13.216v9.124Z" fill="#fff"/>
      <path id="Path_214" data-name="Path 214" d="M1373.179,198.468V210.11h11.282V198.468h6.832v30.3h-6.832V216.088h-11.282v12.676H1366.3v-30.3Z" fill="#fff"/>
      <path id="Path_215" data-name="Path 215" d="M1406.343,198.468h6.877v24.543h12.046v5.753h-18.923Z" fill="#fff"/>
      <path id="Path_216" data-name="Path 216" d="M1436.632,220.988l-2.157,7.776h-7.1l9.259-30.3h8.99l9.4,30.3h-7.372l-2.337-7.776Zm7.192-29.667,4.585,5.529h-4.854l-2.248-2.787h-.09l-2.247,2.787H1434.2l4.495-5.529Zm.495,24.543-1.888-6.428c-.54-1.8-1.079-4.046-1.529-5.844h-.088c-.45,1.8-.9,4.091-1.4,5.844l-1.8,6.428Zm-6.518,19.6a3.063,3.063,0,0,1,3.147-3.1,3.006,3.006,0,0,1,3.012,3.1,3.051,3.051,0,0,1-3.012,3.057A3.11,3.11,0,0,1,1437.8,235.462Z" fill="#fff"/>
      <path id="Path_217" data-name="Path 217" d="M1459.056,198.872a56.151,56.151,0,0,1,9.259-.629c4.225,0,7.238.809,9.26,2.427a8.858,8.858,0,0,1,3.236,7.013,9.681,9.681,0,0,1-2.786,7.192c-2.337,2.2-5.8,3.192-9.845,3.192a17.216,17.216,0,0,1-2.337-.136v10.833h-6.787Zm6.787,13.755a10.453,10.453,0,0,0,2.292.18c3.641,0,5.889-1.843,5.889-4.945,0-2.786-1.932-4.449-5.349-4.449a11.614,11.614,0,0,0-2.832.27Z" fill="#fff"/>
      <path id="Path_218" data-name="Path 218" d="M1516.495,227.911a19.558,19.558,0,0,1-7.777,1.3c-10.473,0-15.867-6.518-15.867-15.148,0-10.339,7.372-16.093,16.542-16.093a17.864,17.864,0,0,1,7.461,1.349l-1.393,5.439a14.8,14.8,0,0,0-5.753-1.124c-5.44,0-9.665,3.282-9.665,10.024,0,6.068,3.6,9.889,9.71,9.889a17.1,17.1,0,0,0,5.708-.989Z" fill="#fff"/>
      <path id="Path_219" data-name="Path 219" d="M1547.37,213.3c0,9.934-6.025,15.957-14.879,15.957-8.99,0-14.249-6.788-14.249-15.418,0-9.08,5.8-15.868,14.744-15.868C1542.29,197.973,1547.37,204.94,1547.37,213.3Zm-21.891.4c0,5.934,2.787,10.114,7.371,10.114,4.63,0,7.283-4.405,7.283-10.294,0-5.439-2.608-10.113-7.328-10.113C1528.176,203.413,1525.479,207.817,1525.479,213.706Zm9.889-22.385,4.539,5.484H1535.1l-2.248-2.787h-.09l-2.246,2.787h-4.81l4.539-5.484Z" fill="#fff"/>
      <path id="Path_220" data-name="Path 220" d="M1551.857,228.764v-30.3h8l6.294,11.1a87.738,87.738,0,0,1,4.944,10.383h.135a112.554,112.554,0,0,1-.585-12.631v-8.855h6.294v30.3h-7.192l-6.473-11.687a112.627,112.627,0,0,1-5.259-10.7l-.135.045c.181,4,.269,8.271.269,13.216v9.124Z" fill="#fff"/>
      <path id="Path_221" data-name="Path 221" d="M1608.172,227.371a33.9,33.9,0,0,1-10.112,1.708c-5.53,0-9.531-1.393-12.317-4.09a14.659,14.659,0,0,1-4.27-11.013c.045-10.069,7.371-15.823,17.306-15.823a20.852,20.852,0,0,1,8.4,1.484l-1.439,5.484a16.783,16.783,0,0,0-7.056-1.3c-5.709,0-10.024,3.237-10.024,9.8,0,6.249,3.91,9.934,9.529,9.934a9.193,9.193,0,0,0,3.371-.449v-6.338h-4.675v-5.35h11.282Z" fill="#fff"/>
      <path id="Path_222" data-name="Path 222" d="M1626.684,204.221h-8.137v-5.753h23.284v5.753h-8.271v24.543h-6.876Z" fill="#fff"/>
      <path id="Path_223" data-name="Path 223" d="M1652.792,228.764V216.358l-9.574-17.89h7.821l3.1,7.282c.945,2.2,1.574,3.821,2.339,5.8h.09c.674-1.889,1.393-3.641,2.291-5.8l3.058-7.282h7.687l-9.98,17.665v12.631Z" fill="#fff"/>
      <path id="Path_224" data-name="Path 224" d="M1254.718,259.543h-.091l-5.574,2.652-1.124-5.124,7.732-3.6h5.664v29.218h-6.607Z" fill="#fff"/>
      <path id="Path_225" data-name="Path 225" d="M1273.1,277.748a16.064,16.064,0,0,0,2.966,0,11.735,11.735,0,0,0,5.753-1.8,9.076,9.076,0,0,0,3.686-5.394l-.134-.045a7.714,7.714,0,0,1-5.843,2.113,8.8,8.8,0,0,1-9.126-9.125c0-5.708,4.586-10.519,11.014-10.519,7.506,0,11.057,5.754,11.057,12.586,0,6.069-1.933,10.519-5.124,13.441a17.272,17.272,0,0,1-11.148,4.09,23.534,23.534,0,0,1-3.1,0Zm4.135-14.654c0,2.518,1.349,4.675,4.136,4.675a4.3,4.3,0,0,0,3.775-1.933,3.212,3.212,0,0,0,.359-1.708c0-3.1-1.167-6.158-4.27-6.158C1278.9,257.97,1277.186,260.038,1277.232,263.094Z" fill="#fff"/>
      <path id="Path_226" data-name="Path 226" d="M1298.038,277.748a16.056,16.056,0,0,0,2.965,0,11.735,11.735,0,0,0,5.754-1.8,9.076,9.076,0,0,0,3.686-5.394l-.134-.045a7.714,7.714,0,0,1-5.844,2.113,8.8,8.8,0,0,1-9.125-9.125c0-5.708,4.586-10.519,11.014-10.519,7.506,0,11.057,5.754,11.057,12.586,0,6.069-1.933,10.519-5.125,13.441a17.267,17.267,0,0,1-11.147,4.09,23.536,23.536,0,0,1-3.1,0Zm4.134-14.654c0,2.518,1.35,4.675,4.137,4.675a4.3,4.3,0,0,0,3.775-1.933,3.213,3.213,0,0,0,.359-1.708c0-3.1-1.167-6.158-4.27-6.158C1303.836,257.97,1302.127,260.038,1302.172,263.094Z" fill="#fff"/>
      <path id="Path_227" data-name="Path 227" d="M1320.372,275.051c0-3.506,2.023-5.934,5.214-7.327v-.135a7.088,7.088,0,0,1-4.225-6.383c0-4.944,4.451-8.226,10.3-8.226,6.832,0,9.664,3.956,9.664,7.507a7.121,7.121,0,0,1-4.227,6.428v.135a7.733,7.733,0,0,1,5.351,7.282c0,5.3-4.451,8.855-11.238,8.855C1323.789,283.187,1320.372,279.007,1320.372,275.051Zm15.1-.224c0-2.563-1.889-4.091-4.585-4.81a4.431,4.431,0,0,0-3.551,4.36,4,4,0,0,0,4.135,4.09A3.67,3.67,0,0,0,1335.476,274.827Zm-7.687-13.845c0,1.978,1.8,3.236,4.136,3.955a4,4,0,0,0,2.967-3.731,3.351,3.351,0,0,0-3.552-3.6A3.258,3.258,0,0,0,1327.789,260.982Z" fill="#fff"/>
      <path id="Path_228" data-name="Path 228" d="M1362.8,268.623v4.54h-11.777v-4.54Z" fill="#fff"/>
      <path id="Path_229" data-name="Path 229" d="M1369.4,282.693v-4.136l3.775-3.416c6.382-5.708,9.485-8.99,9.575-12.406,0-2.383-1.438-4.27-4.81-4.27a10.591,10.591,0,0,0-6.249,2.427l-1.932-4.9a16.171,16.171,0,0,1,9.574-3.013c6.608,0,10.25,3.866,10.25,9.17,0,4.9-3.553,8.81-7.778,12.586l-2.7,2.248v.09h11.012v5.619Z" fill="#fff"/>
      <path id="Path_230" data-name="Path 230" d="M1415.915,267.949c0,9.035-3.641,15.238-11.1,15.238-7.552,0-10.879-6.787-10.924-15.058,0-8.451,3.6-15.149,11.148-15.149C1412.858,252.98,1415.915,259.948,1415.915,267.949Zm-15.148.18c-.045,6.7,1.573,9.889,4.225,9.889s4.091-3.326,4.091-9.979c0-6.473-1.394-9.889-4.136-9.889C1402.429,258.15,1400.722,261.341,1400.767,268.129Z" fill="#fff"/>
      <path id="Path_231" data-name="Path 231" d="M1419.28,282.693v-4.136l3.775-3.416c6.384-5.708,9.485-8.99,9.575-12.406,0-2.383-1.438-4.27-4.81-4.27a10.59,10.59,0,0,0-6.249,2.427l-1.932-4.9a16.171,16.171,0,0,1,9.574-3.013c6.608,0,10.25,3.866,10.25,9.17,0,4.9-3.551,8.81-7.778,12.586l-2.7,2.248v.09H1440v5.619Z" fill="#fff"/>
      <path id="Path_232" data-name="Path 232" d="M1443.772,275.051c0-3.506,2.022-5.934,5.215-7.327v-.135a7.088,7.088,0,0,1-4.226-6.383c0-4.944,4.45-8.226,10.294-8.226,6.833,0,9.664,3.956,9.664,7.507a7.119,7.119,0,0,1-4.225,6.428v.135a7.733,7.733,0,0,1,5.349,7.282c0,5.3-4.45,8.855-11.238,8.855C1447.188,283.187,1443.772,279.007,1443.772,275.051Zm15.1-.224c0-2.563-1.888-4.091-4.584-4.81a4.431,4.431,0,0,0-3.551,4.36,4,4,0,0,0,4.135,4.09A3.67,3.67,0,0,0,1458.875,274.827Zm-7.687-13.845c0,1.978,1.8,3.236,4.137,3.955a4,4,0,0,0,2.967-3.731,3.351,3.351,0,0,0-3.551-3.6A3.259,3.259,0,0,0,1451.188,260.982Z" fill="#fff"/>
    </g>
    <g id="Group_59" data-name="Group 59">
      <g id="Group_56" data-name="Group 56">
        <path id="Path_233" data-name="Path 233" d="M1211.839,245.453c-3.478,28.382-18.947,46.836-24.647,53.459-16.78,19.488-35.956,27.382-44.78,30.9-25.175,10.018-46.815,8.915-61.791,7.984-18.537-1.152-36.748-4.86-53.82-12.344-21.529-9.449-40.06-24.911-57.423-40.483-14.657-13.157-29.6-26.473-48.093-33.957-8.532-3.458-21-8.352-37.491-7.637-9.1.4-27.84,1.2-38.879,14.927-1.847,2.291-6.846,8.657-7.151,17.961-.493,14.767,11.969,25.112,12.351,25.424a34.012,34.012,0,0,1-14.226-14.226c-7.56-14.947.056-30.569,1.736-34.019,9.963-20.44,33.027-26.41,40.962-28.465,19.745-5.11,40.553-1.965,58.854,6.623,18.877,8.852,33.992,23.9,48.988,38.018,16.746,15.767,33.658,31.882,53.765,43.351a121.115,121.115,0,0,0,59.714,15.76,112.518,112.518,0,0,0,56.736-14.538c37.873-21.793,59.861-70.761,49.627-110.216a76.189,76.189,0,0,0-7.97-19.266l.541-.375C1206.049,196.944,1215.116,218.709,1211.839,245.453Z" fill="url(#linear-gradient)"/>
        <path id="Path_234" data-name="Path 234" d="M840.749,270.794a28.989,28.989,0,0,1,5.4-9.457,40.19,40.19,0,0,1,8.215-7.309,67.387,67.387,0,0,1,9.705-5.236l2.585-.989,1.3-.495c.435-.153.883-.27,1.324-.407l2.662-.793c.9-.225,1.809-.4,2.714-.606l1.361-.294c.456-.083.918-.131,1.377-.2l2.762-.372,2.782-.173c.464-.024.929-.065,1.393-.074l1.394.013a60.43,60.43,0,0,1,11.092,1.042l2.73.561c.913.18,1.8.459,2.7.69,1.807.443,3.549,1.075,5.316,1.64a97.612,97.612,0,0,1,10.221,4.3,135.826,135.826,0,0,1,18.932,11.324c6.011,4.214,11.746,8.768,17.363,13.43s11.028,9.538,16.461,14.337c1.353,1.213,2.72,2.385,4.091,3.544l4.107,3.5c1.367,1.168,2.808,2.244,4.208,3.371,1.415,1.106,2.8,2.247,4.241,3.326a210.825,210.825,0,0,0,36.576,22.546c1.587.837,3.249,1.505,4.887,2.229l4.926,2.146,5.033,1.875c1.68.617,3.342,1.293,5.066,1.78,3.423,1.041,6.818,2.2,10.315,2.977l5.211,1.31,5.279.995c3.507.765,7.08,1.076,10.635,1.548,1.776.273,3.569.323,5.359.441l5.372.344c1.794.034,3.589.011,5.385.02l2.7,0,1.348,0c.449-.01.9-.053,1.345-.077l5.383-.345,2.7-.173,2.7-.263a133.635,133.635,0,0,0,21.193-4.143c3.494-.938,6.964-1.981,10.42-3.078,3.462-1.08,6.908-2.225,10.353-3.372-3.359,1.376-6.721,2.751-10.11,4.065s-6.817,2.534-10.277,3.676a129.869,129.869,0,0,1-21.285,5.22c-.9.135-1.8.263-2.709.374l-2.731.275-5.467.549c-.456.042-.911.1-1.368.128l-1.373.049-2.747.1c-1.832.058-3.666.146-5.5.178l-5.5-.169c-1.834-.073-3.675-.079-5.5-.308-3.651-.386-7.328-.614-10.942-1.3l-5.445-.881-5.382-1.2c-3.611-.725-7.109-1.87-10.646-2.882-1.779-.475-3.495-1.139-5.23-1.745l-5.2-1.846-5.09-2.121c-1.693-.716-3.411-1.378-5.051-2.208a211.248,211.248,0,0,1-37.562-22.847c-1.459-1.108-2.87-2.277-4.308-3.413-1.421-1.156-2.884-2.262-4.27-3.458l-4.162-3.583c-1.394-1.192-2.776-2.389-4.119-3.6-5.408-4.853-10.809-9.665-16.274-14.381-10.933-9.388-22.37-18.251-35.024-24.879a94.1,94.1,0,0,0-9.723-4.4c-1.676-.581-3.333-1.234-5.043-1.7-.853-.239-1.692-.538-2.554-.74l-2.581-.628a57.522,57.522,0,0,0-10.513-1.372l-1.327-.061c-.442-.008-.884.017-1.326.024l-2.656.067-2.644.262c-.441.048-.885.076-1.323.14l-1.311.224c-.873.154-1.753.283-2.624.459l-2.588.644c-.431.112-.868.2-1.294.333l-1.268.42-2.542.839-2.475,1.028a25.442,25.442,0,0,0-2.449,1.1c-1.593.817-3.235,1.561-4.754,2.5a39.442,39.442,0,0,0-8.392,6.667A28.619,28.619,0,0,0,840.749,270.794Z" fill="url(#linear-gradient-2)"/>
        <path id="Path_235" data-name="Path 235" d="M977.3,337.789a169.549,169.549,0,0,1-25.081,10.371,165.311,165.311,0,0,1-26.569,6.092c-2.25.388-4.52.587-6.79.828l-3.409.351-3.439.248c-4.585.3-9.178.458-13.768.446a138.736,138.736,0,0,1-27.353-2.562,84.9,84.9,0,0,1-25.748-9.394,63.632,63.632,0,0,1-20.366-18.528,64.517,64.517,0,0,0,19.451,20,87.528,87.528,0,0,0,25.864,11.3,143.107,143.107,0,0,0,27.973,4.387c4.713.306,9.435.434,14.152.421l3.538-.035,3.554-.142c2.372-.1,4.751-.166,7.114-.422a172.883,172.883,0,0,0,28.175-4.645,178.955,178.955,0,0,0,27.131-9.292,182.873,182.873,0,0,0,26.41-14.163q-5.79-3.151-11.553-6.769A171.311,171.311,0,0,1,977.3,337.789Z" fill="url(#linear-gradient-3)"/>
        <path id="Path_236" data-name="Path 236" d="M1024.385,255.867c0-42.688-41.291-54.148-41.309-54.154,1.631.453,4.862-.761,6.45-1.076a126.573,126.573,0,0,0,15.905-4.231c13.53-4.57,27.292-11.715,35.84-23.538,7.782-10.764,9.113-25.991.334-36.614-7.139-8.639-18.534-12.583-29.929-14.492-1.23-.206-2.458-.385-3.683-.547l3.548,1.351c19.015,9.729,29.187,27.756,13.887,45.9-17.226,20.43-46.911,32.071-72.206,38.8,0,0,15.439-2.86,28.521,6.676a37.591,37.591,0,0,1,12.094,15.193c5.9,12.932,2.881,25.375,1.736,30.2a47.743,47.743,0,0,1-2.912,8.514c7.74,7.287,15.62,14.66,23.866,21.538C1026.892,270.566,1024.385,255.867,1024.385,255.867Z" fill="url(#linear-gradient-4)"/>
        <path id="Path_237" data-name="Path 237" d="M1041.541,287.956a84.7,84.7,0,0,0,2.711-16.115,79.534,79.534,0,0,0-.761-16.227,67.292,67.292,0,0,0-11.876-29.445,53.48,53.48,0,0,0-11.078-11.181,54.035,54.035,0,0,0-13.625-7.373,53.14,53.14,0,0,1,12.511,8.7,50.858,50.858,0,0,1,9.292,11.759,62.1,62.1,0,0,1,7.871,28.258,71.739,71.739,0,0,1-.954,14.5,75.151,75.151,0,0,1-3.988,13.879,80.84,80.84,0,0,1-5.926,11.984c3.259,2.454,6.585,4.8,9.988,7.015A92.857,92.857,0,0,0,1041.541,287.956Z" fill="url(#linear-gradient-5)"/>
        <path id="Path_238" data-name="Path 238" d="M938.989,205.185A133.735,133.735,0,0,0,978.367,189c10.079-6.293,20.882-13.344,26.793-24,9.943-17.92-10.509-26.856-25.394-26.688a93.933,93.933,0,0,0-46.271,13.37,130.731,130.731,0,0,0-16.819,12.144c-1.26,1.069-5.74,3.867-6.152,5.6,6.6-27.768-14.923-48.248-14.927-48.251,4.6,4.374,13.532,3.9,19.414,4.167,14.119.639,27.989-.945,41.969-2.679,13.837-1.715,27.878-3.991,41.577-.407,14.529,3.8,27.207,13.059,28.258,29.119,2.43,37.144-106.918,59.361-106.918,59.361Z" fill="url(#linear-gradient-6)"/>
        <path id="Path_239" data-name="Path 239" d="M1199.692,211.3c-9.092-45.649-54.234-78.491-100.546-69.821-21.626,4.049-41.909,17.531-52.353,37.36a61.008,61.008,0,0,0-6.784,35.634c-.909-7.319,6.58-19.247,10.573-25.113a71.416,71.416,0,0,1,19.5-19.218c29.3-19.461,68.263-14.142,92.807,10.746,26.774,27.15,30.359,75.921,3.116,104.039-21.257,21.94-56.541,28.114-85.388,20.931a96.441,96.441,0,0,1-33.85-15.983,98.572,98.572,0,0,1-5.461,14.952c.823.463,1.657.923,2.515,1.378a116.949,116.949,0,0,0,90.189,7.589C1177.028,299.734,1208.885,257.455,1199.692,211.3Z" fill="url(#linear-gradient-7)"/>
        <path id="Path_240" data-name="Path 240" d="M977.11,312.555q-.739-.594-1.482-1.184l-.075-.06q-.717-.582-1.443-1.153c-.972-.77-1.976-1.567-2.985-2.438l-4.154-3.575c-1.252-1.07-2.752-2.363-4.253-3.723l-.308-.277a162.439,162.439,0,0,1-26.2,13.694c-27.915,11.743-54.525,11.9-73.264,9.681a59.559,59.559,0,0,1-19.421-8.987,53.849,53.849,0,0,1-21.178-34.377,51.666,51.666,0,0,1,2.3-25.884,47.9,47.9,0,0,1,18.181-23.052,45.415,45.415,0,0,0-18.517,15.7c-10.79,15.581-9.109,32.584-8.213,40.879a62.328,62.328,0,0,0,24.705,43.214c15.75,11.576,38.109,16.185,57.22,17.536,16.285,1.151,32.5-1.71,47.151-6.219,2.666-.82,5.278-1.7,7.83-2.612a173.548,173.548,0,0,0,34.865-19.2q-3.921-2.718-7.808-5.639C979.025,314.094,978.051,313.312,977.11,312.555Z" fill="url(#linear-gradient-8)"/>
        <path id="Path_241" data-name="Path 241" d="M1168.294,195.14a68.818,68.818,0,0,0-28.69-26.953,60.794,60.794,0,0,0-9.955-3.885c-34.1-9.864-76.676,10.1-86.139,45.749,1.6-6.037,7.257-12.385,11.233-16.865a75.13,75.13,0,0,1,39.929-23.437c27.711-6.142,59.113,4.444,74.718,29.192l2.123,3.437Z" fill="url(#linear-gradient-9)"/>
      </g>
      <g id="Group_57" data-name="Group 57">
        <path id="Path_242" data-name="Path 242" d="M1049.218,225.633a2.621,2.621,0,0,1-1.184-.255,2.251,2.251,0,0,1-1.313-1.954q0-1.632,2.193-3.6a26.154,26.154,0,0,1,5.843-3.777,49.417,49.417,0,0,1,8.005-3.09,38.3,38.3,0,0,1,8.356-1.537,8.181,8.181,0,0,1,6,2.225,9.308,9.308,0,0,1,2.513,6.292,12.222,12.222,0,0,1-.816,4.21,26.133,26.133,0,0,1-2.129,4.418,49.629,49.629,0,0,1-2.753,4.13q-1.442,1.938-3.555,4.626-2.464,3.14-3.457,4.579a1.533,1.533,0,0,0-.32.736c0,.086.063.128.192.128a1.815,1.815,0,0,0,.72-.336,5.675,5.675,0,0,0,.976-.784q9.894-10.214,17.242-15.032t11.8-4.818a5.184,5.184,0,0,1,4.259,1.76,7.319,7.319,0,0,1,1.441,4.771,20.075,20.075,0,0,1-1.088,6.115q-1.185,3.522-3.427,9.765-2.082,5.7-2.978,8.549a15.977,15.977,0,0,0-.9,4.418,2.162,2.162,0,0,0,.257,1.184,1.816,1.816,0,0,1,.351.929q0,.992-1.568.993a8.319,8.319,0,0,1-1.665-.193,8.9,8.9,0,0,1-5.3-3.057,8.774,8.774,0,0,1-1.648-5.427,19.1,19.1,0,0,1,.592-4.514,37.688,37.688,0,0,1,1.584-4.947q.993-2.513,1.906-4.514t2.481-5.363q1.759-3.522,2.3-4.835a5.137,5.137,0,0,0,.513-1.921q0-.831-.865-.832-1.57,0-5.859,3.17a112.282,112.282,0,0,0-9.7,8.228q-5.412,5.06-10.518,10.694a107.3,107.3,0,0,0-8.276,10.149,4.333,4.333,0,0,0-.448,1.121c-.128.618-.321.928-.576.928a1.6,1.6,0,0,1-.737-.256,10.264,10.264,0,0,1-3.473-3.3,7.457,7.457,0,0,1-1.106-3.938,11.074,11.074,0,0,1,1.377-5.091,67.694,67.694,0,0,1,4.019-6.483q2.383-3.441,5.938-8.212,4.866-6.5,7.156-10.07t2.289-5.619q0-2.144-2.945-2.145a18.339,18.339,0,0,0-3.81.512q-12.775,2.947-16.777,9.7a1.339,1.339,0,0,0-.224.608q0,.384.48.384a2.541,2.541,0,0,0,.784-.128q.4-.128.593-.192l-.128.064A6.231,6.231,0,0,1,1049.218,225.633Z" fill="#fff"/>
        <path id="Path_243" data-name="Path 243" d="M1122.057,232.069a3.39,3.39,0,0,1,2.432,1.121,12.246,12.246,0,0,1,2.241,3.681,1.154,1.154,0,0,1,.193.577q0,.448-.481.448a1.1,1.1,0,0,1-.832-.448,1.768,1.768,0,0,0-1.441-.577,9.565,9.565,0,0,0-3.938,1.2,31.311,31.311,0,0,0-5.026,3.17,39.544,39.544,0,0,0-4.691,4.162,16.7,16.7,0,0,0-3.026,4.114,2.21,2.21,0,0,0-.255.993q0,.832.671.832a2.519,2.519,0,0,0,1.377-.7q1.25-.993,3.651-3.106,3.617-3.074,5.779-4.771a15.335,15.335,0,0,1,3.217-2.113,3.69,3.69,0,0,1,1.313-.256,2.751,2.751,0,0,1,2.289,1.089,3.815,3.815,0,0,1,.849,2.4,3.217,3.217,0,0,1-.129.9,7.174,7.174,0,0,1-.784,1.745q-.592,1.01-1.649,2.8-1.089,1.889-1.68,3.009a18.313,18.313,0,0,0-.913,1.954,2.08,2.08,0,0,0-.16.736q0,.768.544.768a1.11,1.11,0,0,0,.64-.32q.864-.641,2.178-1.825t2.721-2.529q1.409-1.346,2.753-2.722t2.114-2.305q.607-.7,1.056-.7c.17,0,.256.107.256.32a1.146,1.146,0,0,1-.192.576,23.3,23.3,0,0,1-1.729,2.081q-1.217,1.345-2.817,2.946t-3.074,2.945q-1.473,1.346-2.53,2.21a3.409,3.409,0,0,1-2.176.864,3.044,3.044,0,0,1-2.417-1.152,4.908,4.908,0,0,1-.977-3.266q0-3.2,2.625-7.524a1.888,1.888,0,0,0,.32-.8.227.227,0,0,0-.255-.256,1.268,1.268,0,0,0-.481.128,14.727,14.727,0,0,0-3.266,2.626q-1.632,1.7-4.129,4.642a52.271,52.271,0,0,1-5.636,6.051,3.142,3.142,0,0,1-2.049.769,4,4,0,0,1-3.1-1.729,5.851,5.851,0,0,1-1.41-3.778,4.536,4.536,0,0,1,.321-1.7,25.3,25.3,0,0,1,3.778-6.26,42.019,42.019,0,0,1,5.314-5.506,56.356,56.356,0,0,1,5.475-4.195,35.632,35.632,0,0,1,4.259-2.513A7.042,7.042,0,0,1,1122.057,232.069Zm10.885-9.573a.215.215,0,0,1,.161-.064c.34,0,.49.107.448.32a.735.735,0,0,1-.289.32,45.2,45.2,0,0,1-6.8,5.187,10.081,10.081,0,0,1-4.562,1.729,4.213,4.213,0,0,1-3.25-1.649q-1.426-1.648-1.233-6.035c.021-.342.17-.512.448-.512.17,0,.363.191.577.576a4.956,4.956,0,0,0,2.081,3.329,5.136,5.136,0,0,0,2.993.8,11.928,11.928,0,0,0,3.234-.721,39.938,39.938,0,0,0,6.066-3.281Z" fill="#fff"/>
        <path id="Path_244" data-name="Path 244" d="M1138.258,232.581q0-.384.8-.384a1.967,1.967,0,0,1,1.649.912,4.119,4.119,0,0,1,.656,2.45,10.689,10.689,0,0,1-1.6,5.218,3.113,3.113,0,0,0-.384.929c0,.086.021.128.064.128q.384,0,3.618-2.881a12.5,12.5,0,0,1,3.2-2.194,7.155,7.155,0,0,1,2.945-.752,2.92,2.92,0,0,1,2.161.785,3.29,3.29,0,0,1,.784,2.417,11.326,11.326,0,0,1-.639,3.361,2.473,2.473,0,0,0-.129.321,5.063,5.063,0,0,0-.128.7c0,.064.021.1.064.1q.128,0,.641-.481a47.3,47.3,0,0,1,7.748-6.035,11.467,11.467,0,0,1,5.379-1.9,2.99,2.99,0,0,1,2.545,1.12,4.875,4.875,0,0,1,.848,3.01,13.331,13.331,0,0,1-1.569,5.859q-1.824,3.649-2.7,5.987a11.148,11.148,0,0,0-.881,3.458q0,.9.641.9a5.3,5.3,0,0,0,2.754-1.537,58.948,58.948,0,0,0,4.45-4.29q2.047-2.241,2.689-2.241c.149,0,.224.043.224.128q0,.736-1.921,2.69c-.171.191-.427.48-.769.864a63.537,63.537,0,0,1-5.3,5.155,5.578,5.578,0,0,1-3.506,1.408,5.462,5.462,0,0,1-1.376-.192,6.371,6.371,0,0,1-3.282-1.889,4.411,4.411,0,0,1-.977-2.849,9.57,9.57,0,0,1,1.057-4.05q1.056-2.226,3.2-5.779l.384-.641a9.342,9.342,0,0,0,1.6-3.81q0-.735-.672-.736-1.056,0-3.473,1.745a42.481,42.481,0,0,0-5.236,4.594,53.782,53.782,0,0,0-5.251,6.2,29.071,29.071,0,0,0-3.617,6.355.659.659,0,0,1-.64.448,2.3,2.3,0,0,1-1.3-.48,3.357,3.357,0,0,1-1.073-1.217,6,6,0,0,1-.8-3.074,10.653,10.653,0,0,1,1.184-4.626,28.586,28.586,0,0,1,3.17-5.011,15.973,15.973,0,0,0,1.489-2.337,4.331,4.331,0,0,0,.592-1.729q0-.512-.448-.512a2.185,2.185,0,0,0-.736.192,13.13,13.13,0,0,0-3.762,2.866q-2.322,2.289-4.915,5.346t-4.5,5.78a26.648,26.648,0,0,0-2.417,3.905c-.129.257-.214.385-.257.385a1.321,1.321,0,0,1-.48-.192l-.256-.193a3.616,3.616,0,0,1-1.505-3.169,9.14,9.14,0,0,1,.688-3.234,28.422,28.422,0,0,1,1.778-3.73q1.087-1.937,2.256-3.714t2.674-3.922q1.537-2.177,2.289-3.394a4.229,4.229,0,0,0,.752-1.665l-.063-.128v-.064A.871.871,0,0,1,1138.258,232.581Z" fill="#fff"/>
      </g>
      <g id="Group_58" data-name="Group 58">
        <path id="Path_245" data-name="Path 245" d="M1062.844,129.782l2.873,5.541,5.37-2.784L1068.214,127l3.251-1.686,7.478,14.418-3.252,1.686-3.128-6.032-5.37,2.784,3.128,6.033-3.273,1.7-7.476-14.419Z" fill="#fff"/>
        <path id="Path_246" data-name="Path 246" d="M1090.615,115.776a5.119,5.119,0,0,1,1.165,1.986,2.483,2.483,0,0,1-1.692,3.267l-.377.166,2.1,6.839c1.472,4.789-.244,7.812-4.3,9.058-3.914,1.2-6.882-.252-8.4-5.2l-2.663-8.658,3.524-1.083,2.747,8.934c.821,2.671,2.252,3.718,4.048,3.166,1.842-.566,2.458-2.167,1.616-4.908l-2.747-8.933,2.671-.822c.944-.29,1.1-.667.921-1.266a3.152,3.152,0,0,0-.958-1.394Z" fill="#fff"/>
        <path id="Path_247" data-name="Path 247" d="M1110.639,113.973a5.427,5.427,0,0,1,.864,2.372,2.419,2.419,0,0,1-2.2,2.93,9.186,9.186,0,0,1,1.925,4.769c.627,5.288-2.2,8.874-6.912,9.434-4.786.567-8.013-2.713-8.558-7.307-.573-4.833,2.084-8.812,6.846-9.377a9.482,9.482,0,0,1,3,.129,9.474,9.474,0,0,0,2.468.557c.6-.071.848-.416.772-1.062a3.588,3.588,0,0,0-.734-1.684Zm-3.249,10.648c-.344-2.9-2.027-5.219-4.539-4.921-2.489.3-3.608,2.927-3.253,5.918.337,3.042,2.1,5.234,4.565,4.942S1107.762,127.755,1107.39,124.621Zm-1.02-11.865-2.569,3.289-2.919.347,1.66-3.181Z" fill="#fff"/>
        <path id="Path_248" data-name="Path 248" d="M1113.947,132.314l.885-16.208,4.28.233,3.043,6.124a47.184,47.184,0,0,1,2.342,5.7l.072,0a60.288,60.288,0,0,1,.056-6.774l.259-4.738,3.367.184-.885,16.208-3.847-.21-3.122-6.441a60.228,60.228,0,0,1-2.5-5.877l-.074.02c-.02,2.146-.1,4.433-.241,7.078l-.266,4.882Z" fill="#fff"/>
        <path id="Path_249" data-name="Path 249" d="M1143.274,135.656a18.159,18.159,0,0,1-5.488-.3c-2.89-.65-4.817-1.848-5.958-3.585a7.859,7.859,0,0,1-.938-6.259c1.206-5.258,5.712-7.4,10.905-6.239a11.2,11.2,0,0,1,4.22,1.763l-1.4,2.7a8.98,8.98,0,0,0-3.536-1.51c-2.984-.671-5.621.514-6.392,3.945-.733,3.266.878,5.653,3.816,6.312a4.9,4.9,0,0,0,1.814.161l.745-3.313-2.444-.549.628-2.8,5.9,1.325Z" fill="#fff"/>
        <path id="Path_250" data-name="Path 250" d="M1152.337,129.167l1.555.714,2.654-5.78a32.441,32.441,0,0,1,4.662,1.743c2.78,1.277,4.4,2.6,5.329,4.33a7.313,7.313,0,0,1-.11,6.763,8.323,8.323,0,0,1-5.2,4.928c-2.149.577-4.805.126-7.7-1.2a31.919,31.919,0,0,1-3.687-1.958l2.856-6.219-1.554-.714Zm6.62,6.2-2.934-1.347-1.729,3.766a10.638,10.638,0,0,0,1.139.576c3.066,1.408,5.759.682,7.418-2.93,1.468-3.2.389-5.522-2.5-6.85a8.016,8.016,0,0,0-1.571-.562l-1.558,3.394,2.934,1.347Z" fill="#fff"/>
        <path id="Path_251" data-name="Path 251" d="M1176.287,145.219l-5.029-3.228-2.082,3.245,5.617,3.605-1.627,2.535-8.72-5.6,8.773-13.668,8.435,5.415-1.627,2.535-5.333-3.423-1.822,2.839,5.029,3.228Zm4.354-12.9.245,3.679-2.007-1.289-.074-1.85-.04-.026-1.711.705-1.968-1.263,3.406-1.336Zm6.077,1.552-4.2.568-1.48-.95,3.025-1.323Z" fill="#fff"/>
        <path id="Path_252" data-name="Path 252" d="M1174.791,152.48l10.531-12.352,3.262,2.782-1.294,6.713a46.983,46.983,0,0,1-1.594,5.953l.056.046a60.236,60.236,0,0,1,4.152-5.352l3.078-3.61,2.566,2.187L1185.016,161.2l-2.932-2.5,1.424-7.015a60.2,60.2,0,0,1,1.574-6.19l-.071-.028c-1.317,1.693-2.764,3.466-4.483,5.481l-3.172,3.72Z" fill="#fff"/>
      </g>
    </g>
  </g>
</svg>
