<svg xmlns="http://www.w3.org/2000/svg" xmlns:xlink="http://www.w3.org/1999/xlink" width="957.742" height="244.267" viewBox="0 0 957.742 244.267">
  <defs>
    <linearGradient id="linear-gradient" x1="0.117" y1="0.5" x2="1.117" y2="0.5" gradientUnits="objectBoundingBox">
      <stop offset="0" stop-color="#6e6e6f"/>
      <stop offset="0.522" stop-color="#fff"/>
      <stop offset="0.908" stop-color="#6e6e6f"/>
    </linearGradient>
    <linearGradient id="linear-gradient-2" x1="0.268" y1="0.164" x2="0.75" y2="0.982" gradientUnits="objectBoundingBox">
      <stop offset="0" stop-color="#fff"/>
      <stop offset="0.524" stop-color="#6e6e6f"/>
      <stop offset="0.632" stop-color="#959596"/>
      <stop offset="0.803" stop-color="#cecece"/>
      <stop offset="0.929" stop-color="#f1f1f1"/>
      <stop offset="0.997" stop-color="#fff"/>
    </linearGradient>
    <linearGradient id="linear-gradient-3" x1="0.877" y1="-0.787" x2="0.66" y2="-0.261" gradientUnits="objectBoundingBox">
      <stop offset="0" stop-color="#6e6e6f"/>
      <stop offset="1" stop-color="#fff"/>
    </linearGradient>
    <linearGradient id="linear-gradient-4" x1="0.522" y1="0.587" x2="0.243" y2="0.822" gradientUnits="objectBoundingBox">
      <stop offset="0" stop-color="#fff"/>
      <stop offset="1" stop-color="#6e6e6f"/>
    </linearGradient>
    <linearGradient id="linear-gradient-5" x1="0.211" y1="0.684" x2="0.57" y2="0.313" xlink:href="#linear-gradient-3"/>
    <linearGradient id="linear-gradient-6" x1="0.823" y1="0.698" x2="0.357" y2="0.437" xlink:href="#linear-gradient-3"/>
    <linearGradient id="linear-gradient-7" x1="0.573" y1="0.373" x2="0.362" y2="0.605" xlink:href="#linear-gradient-4"/>
    <linearGradient id="linear-gradient-8" x1="0.041" y1="0.366" x2="0.532" y2="0.662" xlink:href="#linear-gradient-4"/>
    <linearGradient id="linear-gradient-9" x1="0.31" y1="0.724" x2="0.646" y2="0.479" xlink:href="#linear-gradient-3"/>
  </defs>
  <g id="Group_82" data-name="Group 82" transform="translate(-819.782 -1473.994)">
    <g id="Group_80" data-name="Group 80">
      <g id="Group_78" data-name="Group 78">
        <g id="Group_76" data-name="Group 76">
          <path id="Path_354" data-name="Path 354" d="M1052.866,1605.522a11.759,11.759,0,0,1,1.028-4.465,34.059,34.059,0,0,1,2.663-5.066q1.635-2.595,3.329-4.828t4.473-5.81q3.069-3.831,4.473-5.826a6.246,6.246,0,0,0,1.4-2.976q0-.792-1.071-.792a6.982,6.982,0,0,0-1.418.19,22.774,22.774,0,0,0-4.69,1.726q-2.258,1.123-5.413,3.087a30.9,30.9,0,0,1-5.5,2.913,1.621,1.621,0,0,0-.29.063h-.318a3.092,3.092,0,0,1-2.055-.9,2.477,2.477,0,0,1-1.014-1.757.878.878,0,0,1,.29-.7q.838-.727,1.129-.728c.115,0,.173.126.173.38q0,.538.319.538a1.779,1.779,0,0,0,.752-.317q2.028-1.3,4.43-2.533t4.921-2.28a35.342,35.342,0,0,1,4.835-1.63,17.117,17.117,0,0,1,4.14-.586,5.274,5.274,0,0,1,3.735,1.172,5.994,5.994,0,0,1,1.91,4.5,13.726,13.726,0,0,1-1.722,6.158q-1.723,3.372-5.168,8.755-2.142,3.229-3.532,5.525a37.087,37.087,0,0,0-2.345,4.512,6.662,6.662,0,0,0-.753,2.216c0,.3.116.443.348.443a5,5,0,0,0,1.939-.855,18.787,18.787,0,0,0,3.692-2.992q2.129-2.1,5.746-5.937,2.721-2.912,4.719-4.955t3.953-3.8a26.533,26.533,0,0,1,3.632-2.8,5.773,5.773,0,0,1,2.924-1.045,1.961,1.961,0,0,1,.956.222q2.025,1.014,2.026,4.338a22.377,22.377,0,0,1-.825,5.493q-.825,3.181-2.446,7.868a.511.511,0,0,1-.058.19v.127q0,.38.347.379l.2-.063a.418.418,0,0,1,.174-.063q1.186-.76,3.676-2.28,1.652-.949,2.316-1.425a1.079,1.079,0,0,1,.58-.253c.115,0,.173.063.173.19q0,.539-.7.918-1.562.919-3.661,2.438t-3.692,2.818l-.116.063a5.265,5.265,0,0,0-1.679,1.995,70.213,70.213,0,0,1-3.576,7.567q-2.04,3.736-4.183,6.934a58.365,58.365,0,0,1-4.1,5.478,20.851,20.851,0,0,1-3.315,3.261,1.352,1.352,0,0,1-.84.317q-1.3,0-2.519-1.916a7.981,7.981,0,0,1-1.331-3.784,10.624,10.624,0,0,1,1.245-4.717,26.257,26.257,0,0,1,3.228-4.923,46.245,46.245,0,0,1,4.241-4.528,52.532,52.532,0,0,1,4.285-3.625,9,9,0,0,0,1.621-1.283,12.586,12.586,0,0,0,1.331-1.82,42.682,42.682,0,0,0,4.358-8.549,21.353,21.353,0,0,0,1.635-6.807q0-1.616-.782-1.615a2.51,2.51,0,0,0-1.476.823q-.52.539-1.505,1.757t-3.069,4.1q-3.01,4.083-5.269,7t-4.95,5.889a39.869,39.869,0,0,1-5.1,4.829,7.289,7.289,0,0,1-4.169,1.852.644.644,0,0,1-.26-.064h-.231a10.433,10.433,0,0,1-3.315-1.235,22.449,22.449,0,0,1-3.258-2.469A5.268,5.268,0,0,1,1052.866,1605.522Z" fill="#fff"/>
          <path id="Path_355" data-name="Path 355" d="M1101.821,1604.888q-.551,0-.55-.316a1.063,1.063,0,0,1,.275-.634,2.449,2.449,0,0,1,.564-.538,39.946,39.946,0,0,0,4.386-3.768,5.451,5.451,0,0,0,1.666-3.1c0-.486-.2-.729-.609-.729a2.86,2.86,0,0,0-1.3.507,16.331,16.331,0,0,0-2.75,2.058,26.346,26.346,0,0,0-3.141,3.4,23.681,23.681,0,0,0-2.794,4.607,19.137,19.137,0,0,0-1.621,5.382v.253l-.058.19q0,1.173,1.245,1.172a9.063,9.063,0,0,0,3.677-1.267,44.566,44.566,0,0,0,5.211-3.245q2.779-1.979,5.327-4.148a36.856,36.856,0,0,0,3.937-3.783.484.484,0,0,1,.347-.19c.154,0,.232.1.232.316a.889.889,0,0,1-.174.507,37.735,37.735,0,0,1-3.676,4.717,44.073,44.073,0,0,1-4.72,4.512,27.124,27.124,0,0,1-5.037,3.341,10.385,10.385,0,0,1-4.6,1.266,4.833,4.833,0,0,1-4.429-2.723,7.118,7.118,0,0,1-.9-3.577,11.816,11.816,0,0,1,.565-3.5,25.515,25.515,0,0,1,1.52-3.752,30.345,30.345,0,0,1,2.142-3.657,36.528,36.528,0,0,1,2.678-3.5,19.066,19.066,0,0,1,2.822-2.691,4.445,4.445,0,0,1,2.606-1.077,2.008,2.008,0,0,1,1.3.475,16.185,16.185,0,0,1,2.577,2.3,19.946,19.946,0,0,1,1.939,2.676,2.442,2.442,0,0,1,.348,1.234,3.564,3.564,0,0,1-.826,2.185,11.341,11.341,0,0,1-2.127,2.074,19.438,19.438,0,0,1-2.707,1.741,23.033,23.033,0,0,1-2.475,1.156A4.508,4.508,0,0,1,1101.821,1604.888Z" fill="#fff"/>
          <path id="Path_356" data-name="Path 356" d="M1129.757,1589.057a2.964,2.964,0,0,1,2.2,1.109,12.383,12.383,0,0,1,2.027,3.641,1.217,1.217,0,0,1,.173.57.387.387,0,0,1-.434.443.97.97,0,0,1-.753-.443,1.535,1.535,0,0,0-1.3-.57,8.1,8.1,0,0,0-3.561,1.187,28.1,28.1,0,0,0-4.545,3.134,37.252,37.252,0,0,0-4.242,4.116,16.56,16.56,0,0,0-2.735,4.069,2.349,2.349,0,0,0-.232.982q0,.823.608.823a2.2,2.2,0,0,0,1.245-.7q1.129-.98,3.3-3.071,3.272-3.039,5.226-4.718a13.758,13.758,0,0,1,2.91-2.089,3.071,3.071,0,0,1,1.186-.253,2.418,2.418,0,0,1,2.071,1.076,4,4,0,0,1,.767,2.375,3.5,3.5,0,0,1-.116.886,7.444,7.444,0,0,1-.709,1.726l-1.491,2.77q-.985,1.869-1.52,2.977a19,19,0,0,0-.826,1.931,2.244,2.244,0,0,0-.144.728q0,.76.492.76a.972.972,0,0,0,.579-.317q.781-.633,1.969-1.8t2.461-2.5q1.272-1.329,2.489-2.691t1.911-2.28q.549-.7.956-.7.231,0,.231.317a1.2,1.2,0,0,1-.174.569,22.477,22.477,0,0,1-1.563,2.058q-1.1,1.331-2.548,2.914t-2.779,2.912q-1.331,1.33-2.286,2.185a2.948,2.948,0,0,1-1.97.855,2.672,2.672,0,0,1-2.186-1.14,5.179,5.179,0,0,1-.882-3.23,15.89,15.89,0,0,1,2.373-7.44,1.958,1.958,0,0,0,.29-.792c0-.169-.078-.253-.231-.253a1.054,1.054,0,0,0-.435.127,13.522,13.522,0,0,0-2.952,2.6q-1.477,1.679-3.735,4.591a50.329,50.329,0,0,1-5.095,5.984,2.7,2.7,0,0,1-1.853.76,3.554,3.554,0,0,1-2.809-1.71,6.124,6.124,0,0,1-1.273-3.736,4.87,4.87,0,0,1,.289-1.678,25.583,25.583,0,0,1,3.416-6.19,40.109,40.109,0,0,1,4.806-5.446,51.626,51.626,0,0,1,4.951-4.148,31.819,31.819,0,0,1,3.85-2.485A5.949,5.949,0,0,1,1129.757,1589.057Z" fill="#fff"/>
          <path id="Path_357" data-name="Path 357" d="M1135.866,1605.585c-.194,0-.29-.1-.29-.317a1.308,1.308,0,0,1,.463-.791q.668-.633,1.549-1.6t1.607-1.821a17.237,17.237,0,0,0,1.216-1.6,2.824,2.824,0,0,0,.492-.934,9.644,9.644,0,0,1-1.187-4.085,5.07,5.07,0,0,1,1.158-3.166,17.49,17.49,0,0,1,3.821-3.325,1.5,1.5,0,0,1,.782-.19.86.86,0,0,1,.782.317q2.171,2.6,2.171,3.958,0,1.551-2.721,3.957c-.232.17-.347.328-.347.475,0,.169.1.253.289.253a1.444,1.444,0,0,0,.492-.126,11.923,11.923,0,0,1,4.082-1.045,3.8,3.8,0,0,1,1.925.491,10.648,10.648,0,0,1,1.925,1.5,2.428,2.428,0,0,1,.522,1.646,7.378,7.378,0,0,1-.347,2.058,18.4,18.4,0,0,1-.913,2.406q-.564,1.236-1.187,2.328t-1.23,2.074l-.405.728a2.176,2.176,0,0,0-.29.823c0,.127.038.19.116.19a2.107,2.107,0,0,0,.781-.443q.812-.7,2.143-1.837t2.2-1.915q.87-.775,5.674-5.051.81-.791,1.651-1.519a1.14,1.14,0,0,1,.723-.38c.232,0,.347.106.347.317a1.05,1.05,0,0,1-.405.728q-1.678,1.551-3.72,3.657t-5.138,5.366q-1.71,1.68-2.866,2.914t-1.8,1.8q-1.968,1.963-3.56,1.963a.929.929,0,0,1-.666-.221,10.554,10.554,0,0,1-2.244-2.327,3.849,3.849,0,0,1-.651-2.074,9.506,9.506,0,0,1,.579-2.6v-.063a11.385,11.385,0,0,1,1.259-2.375q.883-1.329,2.476-3.514,1.563-2.026,2.33-3.182a3.717,3.717,0,0,0,.767-1.821q0-.442-.666-.443h-.231a1.581,1.581,0,0,1-.406.063,8.742,8.742,0,0,0-2.981,1.3,11.53,11.53,0,0,1-2.78,1.235,3.058,3.058,0,0,0-1.361.76q-.636.6-2.084,2.09-1.822,1.932-2.548,2.6A2.253,2.253,0,0,1,1135.866,1605.585Z" fill="#fff"/>
          <path id="Path_358" data-name="Path 358" d="M1168.146,1590.609a.805.805,0,0,1,.376-.19q.289,0,.767.491a18.369,18.369,0,0,1,1.491,1.915,4.375,4.375,0,0,1,1.043,2.343q0,1.362-2.78,2.85c-.193.085-.607.3-1.245.633q-2.083.983-2.084,1.552a1.294,1.294,0,0,0,.376.791,3.577,3.577,0,0,1,.405.506,17.225,17.225,0,0,1,2.128,2.755,5.084,5.084,0,0,1,.71,2.628v.412a2.85,2.85,0,0,0-.058.443,10.134,10.134,0,0,0,.969-.776q.594-.522,1.781-1.5t2.548-2.138q1.36-1.155,2.113-1.884a1.108,1.108,0,0,1,.666-.316c.193,0,.289.084.289.253a1.014,1.014,0,0,1-.289.6q-.551.571-1.491,1.473t-2.909,2.865q-2.056,1.932-2.924,2.787a4.161,4.161,0,0,0-.868.981,4.531,4.531,0,0,1-1.086,2.786,8.415,8.415,0,0,1-2.664,2.074,15.526,15.526,0,0,1-3.5,1.283,14.869,14.869,0,0,1-3.4.443,5.05,5.05,0,0,1-2.75-.57,1.225,1.225,0,0,1-.521-1.045,2.482,2.482,0,0,1,.781-1.615,21.766,21.766,0,0,1,3.3-2.659,36.446,36.446,0,0,0,4.545-3.689,4.464,4.464,0,0,0,1.564-3.055,2.651,2.651,0,0,0-.464-1.425q-.174-.254-.665-.855a26.474,26.474,0,0,1-1.955-2.8,4.531,4.531,0,0,1-.651-2.3,4.415,4.415,0,0,1,1.389-3.024,14.366,14.366,0,0,1,4.719-2.9A1.747,1.747,0,0,1,1168.146,1590.609Z" fill="#fff"/>
        </g>
        <g id="Group_77" data-name="Group 77">
          <path id="Path_359" data-name="Path 359" d="M1211.1,1603.455c-3.433,28.018-18.7,46.235-24.33,52.773-16.565,19.238-35.495,27.031-44.206,30.5-24.851,9.89-46.214,8.8-61,7.882-18.3-1.138-36.276-4.8-53.129-12.186-21.253-9.328-39.546-24.591-56.687-39.964-14.468-12.987-29.216-26.133-47.475-33.521-8.423-3.413-20.732-8.245-37.009-7.539-8.978.391-27.483,1.186-38.38,14.736a29.748,29.748,0,0,0-7.06,17.73c-.486,14.578,11.816,24.789,12.193,25.1a33.572,33.572,0,0,1-14.043-14.043c-7.464-14.756.055-30.177,1.713-33.583,9.835-20.177,32.6-26.071,40.437-28.1,19.491-5.044,40.032-1.939,58.1,6.539,18.635,8.738,33.555,23.59,48.359,37.53,16.531,15.565,33.226,31.472,53.074,42.794a119.571,119.571,0,0,0,58.948,15.558,111.078,111.078,0,0,0,56.008-14.352c37.387-21.513,59.092-69.852,48.99-108.8a75.253,75.253,0,0,0-7.868-19.019l.534-.37C1205.381,1555.569,1214.332,1577.055,1211.1,1603.455Z" fill="url(#linear-gradient)"/>
          <path id="Path_360" data-name="Path 360" d="M844.771,1628.471a28.63,28.63,0,0,1,5.334-9.335,39.665,39.665,0,0,1,8.109-7.215,66.468,66.468,0,0,1,9.581-5.169l2.552-.977,1.279-.488c.429-.152.872-.267,1.307-.4l2.628-.783c.886-.222,1.785-.4,2.679-.6l1.343-.29c.45-.082.907-.129,1.36-.195l2.727-.368,2.746-.17c.458-.024.917-.065,1.375-.074l1.376.013a59.657,59.657,0,0,1,10.949,1.029l2.695.554c.9.177,1.775.452,2.663.68,1.784.438,3.5,1.062,5.248,1.619a96.418,96.418,0,0,1,10.089,4.25,134.176,134.176,0,0,1,18.69,11.179c5.933,4.16,11.594,8.656,17.139,13.258s10.886,9.415,16.25,14.152c1.335,1.2,2.685,2.354,4.039,3.5l4.054,3.453c1.349,1.153,2.771,2.215,4.153,3.328,1.4,1.092,2.77,2.218,4.187,3.283a208.168,208.168,0,0,0,36.107,22.257c1.567.826,3.207,1.485,4.824,2.2l4.863,2.119,4.968,1.851c1.659.608,3.3,1.276,5,1.756,3.38,1.028,6.73,2.174,10.183,2.94l5.144,1.293,5.211.982c3.462.755,6.99,1.062,10.5,1.528,1.752.269,3.523.318,5.29.435l5.3.34c1.77.033,3.543.011,5.316.02l2.661,0h1.331c.443-.01.885-.052,1.327-.076l5.315-.34,2.659-.17,2.662-.26a131.928,131.928,0,0,0,20.921-4.09c3.449-.926,6.875-1.956,10.287-3.039,3.417-1.066,6.819-2.2,10.22-3.328-3.317,1.358-6.635,2.715-9.981,4.013-3.351,1.282-6.73,2.5-10.145,3.628a128.178,128.178,0,0,1-21.011,5.154c-.893.132-1.78.259-2.675.368l-2.7.272-5.4.542c-.45.041-.9.1-1.351.126l-1.355.048-2.712.1c-1.809.057-3.619.144-5.43.175l-5.431-.167c-1.811-.071-3.627-.077-5.427-.3-3.6-.381-7.234-.606-10.8-1.284l-5.376-.87-5.313-1.187c-3.565-.716-7.018-1.846-10.509-2.846-1.757-.468-3.45-1.124-5.163-1.722l-5.133-1.822-5.024-2.094c-1.671-.707-3.367-1.361-4.986-2.18a208.589,208.589,0,0,1-37.08-22.553c-1.441-1.094-2.833-2.249-4.252-3.37-1.4-1.141-2.847-2.233-4.216-3.414l-4.109-3.537c-1.376-1.176-2.74-2.357-4.065-3.558-5.339-4.791-10.67-9.54-16.066-14.2-10.793-9.268-22.083-18.017-34.574-24.56a92.94,92.94,0,0,0-9.6-4.341c-1.654-.574-3.29-1.219-4.978-1.678-.842-.236-1.671-.531-2.521-.73l-2.549-.62a56.742,56.742,0,0,0-10.378-1.354l-1.309-.061c-.437-.007-.873.017-1.31.024l-2.621.066-2.611.258c-.435.048-.873.076-1.3.139l-1.294.221c-.862.153-1.732.279-2.591.453l-2.555.636c-.425.111-.856.2-1.277.328l-1.252.415-2.509.828-2.443,1.015a25.132,25.132,0,0,0-2.418,1.084c-1.572.807-3.194,1.541-4.692,2.467a38.95,38.95,0,0,0-8.285,6.581A28.267,28.267,0,0,0,844.771,1628.471Z" fill="url(#linear-gradient-2)"/>
          <path id="Path_361" data-name="Path 361" d="M979.573,1694.606a167.241,167.241,0,0,1-24.759,10.238,163.013,163.013,0,0,1-26.227,6.013c-2.222.384-4.463.581-6.7.819l-3.365.346-3.394.245c-4.527.293-9.061.452-13.592.44a137.01,137.01,0,0,1-27-2.529,83.811,83.811,0,0,1-25.417-9.274,62.828,62.828,0,0,1-20.1-18.289,63.7,63.7,0,0,0,19.2,19.745,86.361,86.361,0,0,0,25.533,11.153,141.271,141.271,0,0,0,27.613,4.331c4.653.3,9.314.428,13.971.416l3.492-.035,3.509-.14c2.341-.1,4.69-.164,7.022-.416a170.8,170.8,0,0,0,27.814-4.586,176.823,176.823,0,0,0,26.782-9.172,180.663,180.663,0,0,0,26.071-13.982q-5.716-3.111-11.4-6.682A169.078,169.078,0,0,1,979.573,1694.606Z" fill="url(#linear-gradient-3)"/>
          <path id="Path_362" data-name="Path 362" d="M1026.05,1613.736c0-42.14-40.761-53.453-40.779-53.458,1.61.446,4.8-.752,6.368-1.063a124.938,124.938,0,0,0,15.7-4.177c13.356-4.511,26.942-11.565,35.38-23.236,7.682-10.625,9-25.657.33-36.144-7.047-8.527-18.3-12.421-29.545-14.3-1.214-.2-2.427-.381-3.635-.541l3.5,1.334c18.772,9.6,28.813,27.4,13.709,45.314-17.005,20.168-46.308,31.659-71.279,38.3,0,0,15.241-2.822,28.155,6.591a37.106,37.106,0,0,1,11.939,15c5.819,12.766,2.844,25.049,1.713,29.814a47.013,47.013,0,0,1-2.874,8.4c7.64,7.194,15.419,14.472,23.56,21.261C1028.524,1628.246,1026.05,1613.736,1026.05,1613.736Z" fill="url(#linear-gradient-4)"/>
          <path id="Path_363" data-name="Path 363" d="M1042.985,1645.413a83.492,83.492,0,0,0,2.676-15.909,78.5,78.5,0,0,0-.75-16.017,66.433,66.433,0,0,0-11.724-29.068,52.788,52.788,0,0,0-10.936-11.037,53.364,53.364,0,0,0-13.45-7.279,52.479,52.479,0,0,1,12.35,8.592,50.246,50.246,0,0,1,9.174,11.608,61.317,61.317,0,0,1,7.769,27.9,70.773,70.773,0,0,1-.942,14.314,74.061,74.061,0,0,1-3.937,13.7,79.726,79.726,0,0,1-5.849,11.831c3.217,2.422,6.5,4.74,9.859,6.925A91.646,91.646,0,0,0,1042.985,1645.413Z" fill="url(#linear-gradient-5)"/>
          <path id="Path_364" data-name="Path 364" d="M941.75,1563.7a131.993,131.993,0,0,0,38.873-15.98c9.95-6.212,20.613-13.172,26.448-23.689,9.816-17.69-10.373-26.511-25.068-26.345a92.742,92.742,0,0,0-45.677,13.2,129.1,129.1,0,0,0-16.6,11.989c-1.245,1.055-5.667,3.817-6.074,5.531,6.511-27.412-14.731-47.629-14.734-47.632,4.538,4.318,13.357,3.851,19.164,4.114,13.937.63,27.629-.934,41.43-2.645,13.659-1.693,27.52-3.94,41.043-.4,14.343,3.754,26.858,12.892,27.9,28.746,2.4,36.667-105.545,58.6-105.545,58.6Z" fill="url(#linear-gradient-6)"/>
          <path id="Path_365" data-name="Path 365" d="M1199.106,1569.738c-8.975-45.063-53.537-77.483-99.255-68.924-21.349,4-41.371,17.305-51.681,36.879a60.223,60.223,0,0,0-6.7,35.178c-.9-7.226,6.495-19,10.436-24.791a70.5,70.5,0,0,1,19.254-18.972c28.92-19.211,67.387-13.959,91.615,10.609,26.431,26.8,29.97,74.946,3.076,102.7-20.983,21.658-55.814,27.753-84.291,20.662a95.2,95.2,0,0,1-33.416-15.777,97.4,97.4,0,0,1-5.39,14.76c.812.456,1.635.911,2.482,1.36a115.451,115.451,0,0,0,89.032,7.491C1176.733,1657.04,1208.181,1615.3,1199.106,1569.738Z" fill="url(#linear-gradient-7)"/>
          <path id="Path_366" data-name="Path 366" d="M979.382,1669.7c-.487-.391-.973-.782-1.463-1.169l-.075-.06c-.471-.383-.947-.761-1.424-1.138-.959-.76-1.951-1.547-2.947-2.407l-4.1-3.528c-1.235-1.057-2.716-2.334-4.2-3.676l-.3-.273a160.263,160.263,0,0,1-25.861,13.517c-27.557,11.593-53.825,11.752-72.324,9.558a58.816,58.816,0,0,1-19.172-8.872,53.154,53.154,0,0,1-20.905-33.935,51,51,0,0,1,2.272-25.552,47.292,47.292,0,0,1,17.948-22.757,44.849,44.849,0,0,0-18.28,15.5c-10.652,15.382-8.992,32.166-8.107,40.355a61.525,61.525,0,0,0,24.388,42.659c15.547,11.427,37.619,15.977,56.485,17.311,16.076,1.136,32.086-1.688,46.546-6.139q3.947-1.215,7.729-2.579a171.232,171.232,0,0,0,34.417-18.952q-3.87-2.684-7.707-5.566C981.272,1671.216,980.31,1670.443,979.382,1669.7Z" fill="url(#linear-gradient-8)"/>
          <path id="Path_367" data-name="Path 367" d="M1168.111,1553.788a67.934,67.934,0,0,0-28.322-26.606,59.933,59.933,0,0,0-9.827-3.835c-33.657-9.738-75.691,9.975-85.033,45.161,1.582-5.959,7.164-12.226,11.089-16.649a74.175,74.175,0,0,1,39.417-23.136c27.355-6.063,58.354,4.388,73.758,28.818l2.1,3.392Z" fill="url(#linear-gradient-9)"/>
        </g>
      </g>
      <g id="Group_79" data-name="Group 79">
        <path id="Path_368" data-name="Path 368" d="M1067.629,1489.349l-4.263,2.148-1.52-3.016,12.2-6.147,1.519,3.015-4.335,2.184,6.481,12.864-3.606,1.816Z" fill="#fff"/>
        <path id="Path_369" data-name="Path 369" d="M1095.625,1484.62c1.649,5.592-.743,9.982-5.728,11.451-5.06,1.492-9.147-1.457-10.579-6.315-1.507-5.111.632-9.894,5.667-11.379C1090.223,1476.834,1094.238,1479.913,1095.625,1484.62Zm-12.255,3.859c.984,3.341,3.246,5.232,5.828,4.471,2.606-.768,3.368-3.689,2.391-7-.9-3.062-3.146-5.261-5.8-4.478C1083.18,1482.237,1082.393,1485.165,1083.37,1488.479Z" fill="#fff"/>
        <path id="Path_370" data-name="Path 370" d="M1102.527,1492.755l-5.183-17.526,4.3-.235,1.742,7.251c.51,2.086,1,4.358,1.392,6.134l.052,0c.185-1.939.491-4.1.819-6.307l1.1-7.353,4.268-.233,1.83,7.4c.509,2.059.9,3.94,1.273,5.9l.053,0c.156-1.99.437-4.093.691-6.22l1.053-7.35,4.083-.223L1116.384,1492l-4.347.236-1.918-7.557c-.44-1.773-.82-3.417-1.142-5.434l-.052,0c-.207,2.019-.405,3.721-.729,5.535l-1.269,7.732Z" fill="#fff"/>
        <path id="Path_371" data-name="Path 371" d="M1125.546,1488.3l-1.939,4.322-4.121-.628,8.049-16.76,5.216.794,2.775,18.408-4.278-.651-.668-4.718Zm4.912-2.294-.527-3.9c-.155-1.091-.269-2.443-.371-3.526l-.052-.008c-.42,1-.883,2.3-1.325,3.268l-1.611,3.57Z" fill="#fff"/>
        <path id="Path_372" data-name="Path 372" d="M1142.7,1478.38a35.421,35.421,0,0,1,5.192,1.366c2.5.846,4.122,1.813,5,3.168a4.517,4.517,0,0,1,.358,4.049,4.719,4.719,0,0,1-4.378,3.143l-.026.075c1.015.872,1.284,2.217,1.185,3.911-.118,2.077-.337,4.454-.232,5.214l-3.9-1.319a22.2,22.2,0,0,1,.153-4.322c.26-2.251-.271-3.071-1.812-3.621l-1.149-.389-2.242,6.624-3.774-1.276Zm1.322,8.526,1.5.507c1.9.643,3.346.073,3.845-1.4.524-1.549-.265-2.679-2.005-3.3a10.069,10.069,0,0,0-1.768-.459Z" fill="#fff"/>
        <path id="Path_373" data-name="Path 373" d="M1159.561,1484.5a35.749,35.749,0,0,1,4.946,2.281c2.964,1.618,4.594,3.2,5.48,5.156a7.867,7.867,0,0,1-.573,7.322,9.021,9.021,0,0,1-6.045,4.9c-2.39.468-5.244-.25-8.3-1.919a34.842,34.842,0,0,1-3.878-2.419Zm-3.412,14.667a7.43,7.43,0,0,0,1.189.74c3.182,1.768,6.226,1.146,8.262-2.581,1.794-3.228.831-5.978-2.2-7.635a8.344,8.344,0,0,0-1.673-.733Z" fill="#fff"/>
        <path id="Path_374" data-name="Path 374" d="M1169.09,1505.509a10.266,10.266,0,0,0,2.836,3.613c1.456,1.134,2.7,1.13,3.409.215.681-.874.405-1.892-.812-3.807-1.7-2.627-2.212-5.1-.623-7.139,1.863-2.392,5.287-2.668,8.595-.091a10.872,10.872,0,0,1,3.027,3.495l-2.7,2.008a8.452,8.452,0,0,0-2.414-2.951c-1.373-1.07-2.526-.964-3.093-.236-.7.9-.214,1.906,1.061,4,1.763,2.844,1.924,5.042.384,7.018-1.83,2.351-5.2,2.939-9.045-.059a11.628,11.628,0,0,1-3.31-3.948Z" fill="#fff"/>
      </g>
    </g>
    <g id="Group_81" data-name="Group 81">
      <path id="Path_375" data-name="Path 375" d="M1252.021,1557.337h17.058v5.176h-10.724v6.376h10.02v5.134h-10.02v11.22h-6.334Z" fill="#fff"/>
      <path id="Path_376" data-name="Path 376" d="M1299.381,1571c0,9.151-5.547,14.7-13.7,14.7-8.282,0-13.126-6.252-13.126-14.2,0-8.364,5.341-14.616,13.58-14.616C1294.7,1556.882,1299.381,1563.3,1299.381,1571Zm-20.162.373c0,5.465,2.566,9.316,6.79,9.316,4.263,0,6.707-4.057,6.707-9.482,0-5.009-2.4-9.316-6.749-9.316C1281.7,1561.891,1279.219,1565.949,1279.219,1571.373Z" fill="#fff"/>
      <path id="Path_377" data-name="Path 377" d="M1309.808,1557.337V1573.4c0,4.8,1.821,7.245,5.051,7.245,3.312,0,5.134-2.318,5.134-7.245v-16.065h6.294v15.651c0,8.612-4.348,12.711-11.635,12.711-7.038,0-11.179-3.892-11.179-12.794v-15.568Z" fill="#fff"/>
      <path id="Path_378" data-name="Path 378" d="M1331.746,1585.243v-27.906h7.369l5.8,10.227a81.007,81.007,0,0,1,4.555,9.564h.124a103.588,103.588,0,0,1-.538-11.634v-8.157h5.8v27.906h-6.625l-5.962-10.765a103.255,103.255,0,0,1-4.843-9.854l-.125.042c.166,3.684.248,7.618.248,12.172v8.405Z" fill="#fff"/>
      <path id="Path_379" data-name="Path 379" d="M1360.309,1557.71a56.289,56.289,0,0,1,8.528-.579c5.3,0,8.736.952,11.428,2.981,2.9,2.152,4.72,5.589,4.72,10.516,0,5.341-1.946,9.026-4.637,11.3-2.939,2.443-7.412,3.6-12.877,3.6a54.639,54.639,0,0,1-7.162-.414Zm6.334,22.772a11.639,11.639,0,0,0,2.194.124c5.714.041,9.44-3.1,9.44-9.771.042-5.8-3.353-8.86-8.776-8.86a13.151,13.151,0,0,0-2.858.248Z" fill="#fff"/>
      <path id="Path_380" data-name="Path 380" d="M1394.958,1578.081l-1.988,7.162h-6.542l8.53-27.906h8.28l8.653,27.906h-6.79l-2.154-7.162Zm7.079-4.72-1.738-5.921c-.5-1.656-.995-3.726-1.409-5.383h-.083c-.413,1.657-.827,3.768-1.283,5.383l-1.656,5.921Z" fill="#fff"/>
      <path id="Path_381" data-name="Path 381" d="M1417.558,1562.637h-7.495v-5.3h21.448v5.3h-7.618v22.606h-6.335Z" fill="#fff"/>
      <path id="Path_382" data-name="Path 382" d="M1441.194,1557.337v27.906h-6.335v-27.906Z" fill="#fff"/>
      <path id="Path_383" data-name="Path 383" d="M1472.2,1571c0,9.151-5.548,14.7-13.7,14.7-8.282,0-13.126-6.252-13.126-14.2,0-8.364,5.341-14.616,13.58-14.616C1467.524,1556.882,1472.2,1563.3,1472.2,1571Zm-20.162.373c0,5.465,2.566,9.316,6.79,9.316,4.263,0,6.707-4.057,6.707-9.482,0-5.009-2.4-9.316-6.749-9.316C1454.523,1561.891,1452.04,1565.949,1452.04,1571.373Z" fill="#fff"/>
      <path id="Path_384" data-name="Path 384" d="M1476.337,1585.243v-27.906h7.369l5.8,10.227a80.846,80.846,0,0,1,4.554,9.564h.125a103.549,103.549,0,0,1-.539-11.634v-8.157h5.8v27.906h-6.625l-5.962-10.765a103.464,103.464,0,0,1-4.844-9.854l-.124.042c.166,3.684.248,7.618.248,12.172v8.405Z" fill="#fff"/>
      <path id="Path_385" data-name="Path 385" d="M1519.761,1578.081l-1.988,7.162h-6.542l8.53-27.906h8.28l8.654,27.906h-6.79l-2.153-7.162Zm7.08-4.72-1.74-5.921c-.5-1.656-.993-3.726-1.407-5.383h-.084c-.412,1.657-.827,3.768-1.282,5.383l-1.657,5.921Z" fill="#fff"/>
      <path id="Path_386" data-name="Path 386" d="M1540.414,1585.243v-27.906h7.369l5.8,10.227a80.987,80.987,0,0,1,4.555,9.564h.124a103.549,103.549,0,0,1-.539-11.634v-8.157h5.8v27.906h-6.625l-5.962-10.765a103.464,103.464,0,0,1-4.844-9.854l-.124.042c.166,3.684.248,7.618.248,12.172v8.405Z" fill="#fff"/>
      <path id="Path_387" data-name="Path 387" d="M1568.977,1585.243v-27.906h7.369l5.8,10.227a81,81,0,0,1,4.554,9.564h.125a103.319,103.319,0,0,1-.539-11.634v-8.157h5.8v27.906h-6.625l-5.962-10.765a103.231,103.231,0,0,1-4.844-9.854l-.125.042c.166,3.684.248,7.618.248,12.172v8.405Z" fill="#fff"/>
      <path id="Path_388" data-name="Path 388" d="M1603.872,1557.337v27.906h-6.334v-27.906Z" fill="#fff"/>
      <path id="Path_389" data-name="Path 389" d="M1615.918,1585.243l-8.943-27.906h6.915l3.4,11.8c.951,3.313,1.821,6.5,2.483,9.978h.125c.7-3.353,1.574-6.665,2.525-9.854l3.561-11.924h6.707l-9.4,27.906Z" fill="#fff"/>
      <path id="Path_390" data-name="Path 390" d="M1652.265,1573.443H1642v6.625h11.47v5.175h-17.8v-27.906h17.223v5.176H1642v5.8h10.269Z" fill="#fff"/>
      <path id="Path_391" data-name="Path 391" d="M1657.767,1557.71a55.482,55.482,0,0,1,8.405-.579c4.14,0,7.038.62,9.026,2.194a7.087,7.087,0,0,1,2.566,5.838,7.406,7.406,0,0,1-4.927,6.873v.124c1.946.786,3.023,2.649,3.726,5.217.87,3.146,1.74,6.79,2.278,7.866h-6.459a34.892,34.892,0,0,1-1.946-6.5c-.746-3.478-1.947-4.43-4.513-4.472h-1.905v10.972h-6.251Zm6.251,12.007h2.485c3.146,0,5.009-1.574,5.009-4.016,0-2.567-1.739-3.85-4.636-3.892a15.756,15.756,0,0,0-2.858.207Z" fill="#fff"/>
      <path id="Path_392" data-name="Path 392" d="M1682.52,1578.743a16.109,16.109,0,0,0,7,1.739c2.9,0,4.43-1.2,4.43-3.023,0-1.739-1.325-2.732-4.679-3.933-4.637-1.615-7.659-4.182-7.659-8.24,0-4.76,3.974-8.4,10.558-8.4a17.11,17.11,0,0,1,7.121,1.407l-1.408,5.094a13.247,13.247,0,0,0-5.838-1.326c-2.733,0-4.057,1.242-4.057,2.691,0,1.781,1.573,2.568,5.175,3.934,4.927,1.822,7.246,4.388,7.246,8.322,0,4.679-3.6,8.653-11.262,8.653a18.269,18.269,0,0,1-7.908-1.7Z" fill="#fff"/>
      <path id="Path_393" data-name="Path 393" d="M1711.167,1578.081l-1.988,7.162h-6.542l8.53-27.906h8.28l8.653,27.906h-6.79l-2.154-7.162Zm7.079-4.72-1.738-5.921c-.5-1.656-1-3.726-1.409-5.383h-.083c-.413,1.657-.827,3.768-1.282,5.383l-1.657,5.921Z" fill="#fff"/>
      <path id="Path_394" data-name="Path 394" d="M1731.82,1557.71a55.482,55.482,0,0,1,8.405-.579c4.14,0,7.038.62,9.026,2.194a7.088,7.088,0,0,1,2.567,5.838,7.407,7.407,0,0,1-4.927,6.873v.124c1.946.786,3.022,2.649,3.726,5.217.87,3.146,1.739,6.79,2.277,7.866h-6.459a34.878,34.878,0,0,1-1.946-6.5c-.745-3.478-1.946-4.43-4.513-4.472h-1.9v10.972h-6.251Zm6.251,12.007h2.485c3.146,0,5.009-1.574,5.009-4.016,0-2.567-1.738-3.85-4.636-3.892a15.753,15.753,0,0,0-2.858.207Z" fill="#fff"/>
      <path id="Path_395" data-name="Path 395" d="M1762.039,1585.243v-11.427l-8.819-16.479h7.2l2.856,6.708c.87,2.028,1.45,3.519,2.154,5.341h.083c.621-1.739,1.283-3.354,2.111-5.341l2.816-6.708h7.08l-9.192,16.272v11.634Z" fill="#fff"/>
      <path id="Path_396" data-name="Path 396" d="M1258.294,1613.595h-.083l-5.134,2.442-1.035-4.72,7.122-3.312h5.216v26.912h-6.086Z" fill="#fff"/>
      <path id="Path_397" data-name="Path 397" d="M1275.222,1630.363a14.8,14.8,0,0,0,2.733,0,10.81,10.81,0,0,0,5.3-1.656,8.377,8.377,0,0,0,3.4-4.969l-.125-.041a7.1,7.1,0,0,1-5.381,1.946,8.107,8.107,0,0,1-8.405-8.4,9.783,9.783,0,0,1,10.143-9.688c6.915,0,10.185,5.3,10.185,11.592,0,5.59-1.78,9.689-4.72,12.38a15.911,15.911,0,0,1-10.267,3.768,21.764,21.764,0,0,1-2.858,0Zm3.809-13.5c0,2.319,1.243,4.306,3.81,4.306a3.968,3.968,0,0,0,3.478-1.78,2.977,2.977,0,0,0,.331-1.574c0-2.857-1.077-5.672-3.934-5.672C1280.563,1612.145,1278.99,1614.05,1279.031,1616.865Z" fill="#fff"/>
      <path id="Path_398" data-name="Path 398" d="M1298.2,1630.363a14.8,14.8,0,0,0,2.733,0,10.81,10.81,0,0,0,5.3-1.656,8.369,8.369,0,0,0,3.4-4.969l-.124-.041a7.1,7.1,0,0,1-5.382,1.946,8.108,8.108,0,0,1-8.405-8.4,9.783,9.783,0,0,1,10.144-9.688c6.914,0,10.185,5.3,10.185,11.592,0,5.59-1.78,9.689-4.721,12.38a15.911,15.911,0,0,1-10.267,3.768,21.749,21.749,0,0,1-2.857,0Zm3.809-13.5c0,2.319,1.242,4.306,3.809,4.306a3.967,3.967,0,0,0,3.478-1.78,2.968,2.968,0,0,0,.331-1.574c0-2.857-1.076-5.672-3.934-5.672C1303.538,1612.145,1301.964,1614.05,1302.006,1616.865Z" fill="#fff"/>
      <path id="Path_399" data-name="Path 399" d="M1318.769,1627.878c0-3.229,1.864-5.465,4.8-6.748v-.124a6.532,6.532,0,0,1-3.892-5.879c0-4.555,4.1-7.577,9.481-7.577,6.293,0,8.9,3.643,8.9,6.914a6.558,6.558,0,0,1-3.892,5.921v.124a7.123,7.123,0,0,1,4.927,6.707c0,4.886-4.1,8.157-10.351,8.157C1321.915,1635.373,1318.769,1631.522,1318.769,1627.878Zm13.912-.207c0-2.359-1.74-3.767-4.224-4.429a4.081,4.081,0,0,0-3.27,4.015,3.685,3.685,0,0,0,3.808,3.768A3.381,3.381,0,0,0,1332.681,1627.671Zm-7.081-12.751c0,1.821,1.656,2.98,3.809,3.643a3.685,3.685,0,0,0,2.733-3.436,3.086,3.086,0,0,0-3.271-3.313A3,3,0,0,0,1325.6,1614.92Z" fill="#fff"/>
      <path id="Path_400" data-name="Path 400" d="M1358.676,1621.958v4.181h-10.847v-4.181Z" fill="#fff"/>
      <path id="Path_401" data-name="Path 401" d="M1367.473,1634.917v-3.809l3.478-3.146c5.88-5.259,8.736-8.282,8.819-11.428,0-2.194-1.325-3.933-4.43-3.933a9.754,9.754,0,0,0-5.755,2.235l-1.78-4.512a14.9,14.9,0,0,1,8.818-2.774c6.086,0,9.44,3.56,9.44,8.446,0,4.513-3.27,8.115-7.163,11.593l-2.483,2.07v.082h10.143v5.176Z" fill="#fff"/>
      <path id="Path_402" data-name="Path 402" d="M1410.32,1621.337c0,8.322-3.353,14.036-10.226,14.036-6.957,0-10.021-6.252-10.062-13.87,0-7.784,3.313-13.953,10.268-13.953C1407.5,1607.55,1410.32,1613.967,1410.32,1621.337Zm-13.953.166c-.041,6.168,1.449,9.108,3.891,9.108s3.769-3.064,3.769-9.192c0-5.961-1.284-9.108-3.809-9.108C1397.9,1612.311,1396.326,1615.251,1396.367,1621.5Z" fill="#fff"/>
      <path id="Path_403" data-name="Path 403" d="M1413.421,1634.917v-3.809l3.478-3.146c5.88-5.259,8.736-8.282,8.819-11.428,0-2.194-1.326-3.933-4.43-3.933a9.751,9.751,0,0,0-5.755,2.235l-1.78-4.512a14.9,14.9,0,0,1,8.818-2.774c6.086,0,9.44,3.56,9.44,8.446,0,4.513-3.271,8.115-7.163,11.593l-2.484,2.07v.082h10.144v5.176Z" fill="#fff"/>
      <path id="Path_404" data-name="Path 404" d="M1435.981,1627.878c0-3.229,1.863-5.465,4.8-6.748v-.124a6.532,6.532,0,0,1-3.892-5.879c0-4.555,4.1-7.577,9.481-7.577,6.293,0,8.9,3.643,8.9,6.914a6.56,6.56,0,0,1-3.892,5.921v.124a7.123,7.123,0,0,1,4.927,6.707c0,4.886-4.1,8.157-10.352,8.157C1439.127,1635.373,1435.981,1631.522,1435.981,1627.878Zm13.911-.207c0-2.359-1.74-3.767-4.223-4.429a4.081,4.081,0,0,0-3.271,4.015,3.686,3.686,0,0,0,3.808,3.768A3.381,3.381,0,0,0,1449.892,1627.671Zm-7.081-12.751c0,1.821,1.657,2.98,3.809,3.643a3.684,3.684,0,0,0,2.733-3.436,3.085,3.085,0,0,0-3.27-3.313A3,3,0,0,0,1442.811,1614.92Z" fill="#fff"/>
    </g>
  </g>
</svg>
