<svg xmlns="http://www.w3.org/2000/svg" xmlns:xlink="http://www.w3.org/1999/xlink" width="960.327" height="246.05" viewBox="0 0 960.327 246.05">
  <defs>
    <linearGradient id="linear-gradient" x1="0.117" y1="0.5" x2="1.117" y2="0.5" gradientUnits="objectBoundingBox">
      <stop offset="0" stop-color="#faeb61"/>
      <stop offset="0.522" stop-color="#f37c21"/>
      <stop offset="0.908" stop-color="#faeb61"/>
    </linearGradient>
    <linearGradient id="linear-gradient-2" x1="0.268" y1="0.164" x2="0.75" y2="0.982" gradientUnits="objectBoundingBox">
      <stop offset="0" stop-color="#f9ae1d"/>
      <stop offset="0.524" stop-color="#f37b20"/>
      <stop offset="0.543" stop-color="#f37d1f"/>
      <stop offset="0.839" stop-color="#f7a01d"/>
      <stop offset="0.997" stop-color="#f9ae1d"/>
    </linearGradient>
    <linearGradient id="linear-gradient-3" x1="0.877" y1="-0.787" x2="0.66" y2="-0.261" gradientUnits="objectBoundingBox">
      <stop offset="0" stop-color="#f37b20"/>
      <stop offset="1" stop-color="#f9ae1d"/>
    </linearGradient>
    <linearGradient id="linear-gradient-4" x1="0.522" y1="0.587" x2="0.243" y2="0.822" gradientUnits="objectBoundingBox">
      <stop offset="0" stop-color="#f9ae1d"/>
      <stop offset="1" stop-color="#f37b20"/>
    </linearGradient>
    <linearGradient id="linear-gradient-5" x1="0.211" y1="0.684" x2="0.57" y2="0.313" xlink:href="#linear-gradient-3"/>
    <linearGradient id="linear-gradient-6" x1="0.823" y1="0.698" x2="0.357" y2="0.437" xlink:href="#linear-gradient-3"/>
    <linearGradient id="linear-gradient-7" x1="0.573" y1="0.373" x2="0.362" y2="0.605" xlink:href="#linear-gradient-4"/>
    <linearGradient id="linear-gradient-8" x1="0.041" y1="0.366" x2="0.532" y2="0.662" xlink:href="#linear-gradient-4"/>
    <linearGradient id="linear-gradient-9" x1="0.31" y1="0.724" x2="0.646" y2="0.479" xlink:href="#linear-gradient-3"/>
  </defs>
  <g id="Group_66" data-name="Group 66" transform="translate(-815.435 -462.875)">
    <g id="Group_61" data-name="Group 61">
      <path id="Path_254" data-name="Path 254" d="M1250.259,547.11h17.058v5.175h-10.724v6.376h10.021v5.134h-10.021v11.221h-6.334Z" fill="#fff"/>
      <path id="Path_255" data-name="Path 255" d="M1297.619,560.773c0,9.15-5.547,14.7-13.7,14.7-8.282,0-13.126-6.251-13.126-14.2,0-8.363,5.341-14.615,13.58-14.615C1292.942,546.655,1297.619,553.072,1297.619,560.773Zm-20.162.372c0,5.466,2.567,9.316,6.79,9.316,4.264,0,6.707-4.057,6.707-9.481,0-5.01-2.4-9.316-6.749-9.316C1279.941,551.664,1277.457,555.722,1277.457,561.145Z" fill="#fff"/>
      <path id="Path_256" data-name="Path 256" d="M1308.046,547.11v16.065c0,4.8,1.822,7.245,5.052,7.245,3.312,0,5.133-2.318,5.133-7.245V547.11h6.294v15.651c0,8.611-4.348,12.71-11.635,12.71-7.038,0-11.178-3.892-11.178-12.794V547.11Z" fill="#fff"/>
      <path id="Path_257" data-name="Path 257" d="M1329.985,575.016V547.11h7.369l5.8,10.226a81.069,81.069,0,0,1,4.554,9.565h.125a103.355,103.355,0,0,1-.539-11.635V547.11h5.8v27.906h-6.626l-5.961-10.765a103.338,103.338,0,0,1-4.844-9.854l-.125.042c.166,3.684.248,7.617.248,12.172v8.4Z" fill="#fff"/>
      <path id="Path_258" data-name="Path 258" d="M1358.547,547.482a56.416,56.416,0,0,1,8.528-.579c5.3,0,8.737.953,11.428,2.981,2.9,2.153,4.721,5.589,4.721,10.516,0,5.341-1.947,9.027-4.638,11.3-2.939,2.443-7.412,3.6-12.876,3.6a54.694,54.694,0,0,1-7.163-.413Zm6.334,22.772a11.638,11.638,0,0,0,2.194.124c5.714.042,9.44-3.1,9.44-9.771.042-5.8-3.353-8.86-8.776-8.86a13.07,13.07,0,0,0-2.858.249Z" fill="#fff"/>
      <path id="Path_259" data-name="Path 259" d="M1393.2,567.853l-1.988,7.163h-6.542l8.53-27.906h8.28l8.653,27.906h-6.79l-2.154-7.163Zm7.079-4.72-1.738-5.921c-.5-1.656-.995-3.726-1.409-5.382h-.083c-.413,1.656-.827,3.768-1.283,5.382l-1.656,5.921Z" fill="#fff"/>
      <path id="Path_260" data-name="Path 260" d="M1415.8,552.409H1408.3v-5.3h21.448v5.3h-7.618v22.607H1415.8Z" fill="#fff"/>
      <path id="Path_261" data-name="Path 261" d="M1439.432,547.11v27.906H1433.1V547.11Z" fill="#fff"/>
      <path id="Path_262" data-name="Path 262" d="M1470.44,560.773c0,9.15-5.547,14.7-13.7,14.7-8.282,0-13.126-6.251-13.126-14.2,0-8.363,5.341-14.615,13.58-14.615C1465.762,546.655,1470.44,553.072,1470.44,560.773Zm-20.162.372c0,5.466,2.566,9.316,6.79,9.316,4.263,0,6.707-4.057,6.707-9.481,0-5.01-2.4-9.316-6.749-9.316C1452.761,551.664,1450.278,555.722,1450.278,561.145Z" fill="#fff"/>
      <path id="Path_263" data-name="Path 263" d="M1474.575,575.016V547.11h7.369l5.8,10.226a80.941,80.941,0,0,1,4.555,9.565h.124a103.555,103.555,0,0,1-.539-11.635V547.11h5.8v27.906h-6.625l-5.962-10.765a103.63,103.63,0,0,1-4.844-9.854l-.124.042c.166,3.684.248,7.617.248,12.172v8.4Z" fill="#fff"/>
      <path id="Path_264" data-name="Path 264" d="M1518,567.853l-1.987,7.163h-6.543L1518,547.11h8.281l8.653,27.906h-6.79l-2.153-7.163Zm7.08-4.72-1.74-5.921c-.5-1.656-.993-3.726-1.407-5.382h-.083c-.413,1.656-.827,3.768-1.283,5.382l-1.657,5.921Z" fill="#fff"/>
      <path id="Path_265" data-name="Path 265" d="M1538.652,575.016V547.11h7.37l5.8,10.226a80.941,80.941,0,0,1,4.555,9.565h.124a103.594,103.594,0,0,1-.538-11.635V547.11h5.8v27.906h-6.626l-5.961-10.765a103.107,103.107,0,0,1-4.844-9.854l-.125.042c.166,3.684.248,7.617.248,12.172v8.4Z" fill="#fff"/>
      <path id="Path_266" data-name="Path 266" d="M1567.215,575.016V547.11h7.369l5.8,10.226a80.935,80.935,0,0,1,4.554,9.565h.125a103.555,103.555,0,0,1-.539-11.635V547.11h5.8v27.906h-6.625l-5.962-10.765a103.367,103.367,0,0,1-4.844-9.854l-.125.042c.167,3.684.248,7.617.248,12.172v8.4Z" fill="#fff"/>
      <path id="Path_267" data-name="Path 267" d="M1602.11,547.11v27.906h-6.334V547.11Z" fill="#fff"/>
      <path id="Path_268" data-name="Path 268" d="M1614.156,575.016l-8.943-27.906h6.915l3.395,11.8c.952,3.312,1.821,6.5,2.484,9.978h.124c.7-3.354,1.574-6.666,2.525-9.854l3.562-11.924h6.707l-9.4,27.906Z" fill="#fff"/>
      <path id="Path_269" data-name="Path 269" d="M1650.5,563.216h-10.268v6.624H1651.7v5.176h-17.8V547.11h17.223v5.175h-10.888v5.8H1650.5Z" fill="#fff"/>
      <path id="Path_270" data-name="Path 270" d="M1656.005,547.482a55.473,55.473,0,0,1,8.405-.579c4.14,0,7.038.621,9.026,2.194a7.088,7.088,0,0,1,2.567,5.838,7.406,7.406,0,0,1-4.927,6.873v.124c1.946.787,3.022,2.65,3.726,5.217.87,3.147,1.739,6.79,2.277,7.867h-6.459a34.869,34.869,0,0,1-1.946-6.5c-.745-3.477-1.946-4.43-4.513-4.471h-1.905v10.972h-6.251Zm6.251,12.008h2.485c3.146,0,5.009-1.574,5.009-4.017,0-2.566-1.738-3.85-4.636-3.891a15.756,15.756,0,0,0-2.858.207Z" fill="#fff"/>
      <path id="Path_271" data-name="Path 271" d="M1680.758,568.515a16.1,16.1,0,0,0,7,1.739c2.9,0,4.43-1.2,4.43-3.022,0-1.739-1.324-2.732-4.679-3.933-4.636-1.615-7.659-4.182-7.659-8.24,0-4.761,3.974-8.4,10.558-8.4a17.106,17.106,0,0,1,7.121,1.407l-1.407,5.093a13.26,13.26,0,0,0-5.839-1.325c-2.733,0-4.057,1.242-4.057,2.691,0,1.781,1.574,2.567,5.175,3.934,4.927,1.821,7.246,4.388,7.246,8.322,0,4.678-3.6,8.653-11.262,8.653a18.245,18.245,0,0,1-7.907-1.7Z" fill="#fff"/>
      <path id="Path_272" data-name="Path 272" d="M1709.405,567.853l-1.988,7.163h-6.542l8.53-27.906h8.281l8.653,27.906h-6.79l-2.154-7.163Zm7.08-4.72-1.739-5.921c-.5-1.656-.994-3.726-1.408-5.382h-.084c-.412,1.656-.827,3.768-1.282,5.382l-1.657,5.921Z" fill="#fff"/>
      <path id="Path_273" data-name="Path 273" d="M1730.058,547.482a55.484,55.484,0,0,1,8.405-.579c4.141,0,7.038.621,9.026,2.194a7.088,7.088,0,0,1,2.567,5.838,7.4,7.4,0,0,1-4.927,6.873v.124c1.946.787,3.022,2.65,3.726,5.217.87,3.147,1.74,6.79,2.277,7.867h-6.459a34.882,34.882,0,0,1-1.946-6.5c-.745-3.477-1.946-4.43-4.513-4.471h-1.9v10.972h-6.252Zm6.252,12.008h2.484c3.146,0,5.009-1.574,5.009-4.017,0-2.566-1.738-3.85-4.636-3.891a15.729,15.729,0,0,0-2.857.207Z" fill="#fff"/>
      <path id="Path_274" data-name="Path 274" d="M1760.277,575.016V563.588l-8.819-16.478h7.2l2.856,6.707c.87,2.029,1.451,3.519,2.154,5.341h.083c.621-1.739,1.283-3.353,2.111-5.341l2.816-6.707h7.08l-9.192,16.271v11.635Z" fill="#fff"/>
      <path id="Path_275" data-name="Path 275" d="M1256.532,603.367h-.083l-5.134,2.443-1.034-4.72,7.121-3.313h5.216V624.69h-6.086Z" fill="#fff"/>
      <path id="Path_276" data-name="Path 276" d="M1273.46,620.135a14.8,14.8,0,0,0,2.733,0,10.811,10.811,0,0,0,5.3-1.656,8.373,8.373,0,0,0,3.395-4.968l-.125-.042a7.1,7.1,0,0,1-5.381,1.946,8.107,8.107,0,0,1-8.4-8.4,9.783,9.783,0,0,1,10.143-9.688c6.915,0,10.185,5.3,10.185,11.593,0,5.59-1.78,9.688-4.72,12.38a15.91,15.91,0,0,1-10.267,3.767,21.6,21.6,0,0,1-2.858,0Zm3.81-13.5c0,2.318,1.242,4.306,3.809,4.306a3.965,3.965,0,0,0,3.478-1.781,2.972,2.972,0,0,0,.331-1.573c0-2.857-1.076-5.672-3.934-5.672C1278.8,601.918,1277.228,603.822,1277.27,606.638Z" fill="#fff"/>
      <path id="Path_277" data-name="Path 277" d="M1296.435,620.135a14.794,14.794,0,0,0,2.733,0,10.807,10.807,0,0,0,5.3-1.656,8.375,8.375,0,0,0,3.4-4.968l-.125-.042a7.1,7.1,0,0,1-5.382,1.946,8.108,8.108,0,0,1-8.4-8.4,9.784,9.784,0,0,1,10.144-9.688c6.915,0,10.185,5.3,10.185,11.593,0,5.59-1.78,9.688-4.721,12.38a15.907,15.907,0,0,1-10.267,3.767,21.581,21.581,0,0,1-2.857,0Zm3.809-13.5c0,2.318,1.243,4.306,3.809,4.306a3.965,3.965,0,0,0,3.478-1.781,2.96,2.96,0,0,0,.332-1.573c0-2.857-1.077-5.672-3.934-5.672C1301.776,601.918,1300.2,603.822,1300.244,606.638Z" fill="#fff"/>
      <path id="Path_278" data-name="Path 278" d="M1317.008,617.651c0-3.229,1.863-5.465,4.8-6.749v-.123a6.533,6.533,0,0,1-3.892-5.88c0-4.554,4.1-7.577,9.481-7.577,6.293,0,8.9,3.643,8.9,6.914a6.559,6.559,0,0,1-3.893,5.921v.124a7.123,7.123,0,0,1,4.927,6.708c0,4.885-4.1,8.156-10.351,8.156C1320.153,625.145,1317.008,621.295,1317.008,617.651Zm13.911-.207c0-2.36-1.74-3.768-4.223-4.43a4.082,4.082,0,0,0-3.271,4.016,3.686,3.686,0,0,0,3.808,3.768A3.381,3.381,0,0,0,1330.919,617.444Zm-7.081-12.752c0,1.822,1.657,2.981,3.809,3.643a3.683,3.683,0,0,0,2.733-3.436,3.086,3.086,0,0,0-3.27-3.312A3,3,0,0,0,1323.838,604.692Z" fill="#fff"/>
      <path id="Path_279" data-name="Path 279" d="M1359.188,611.73v4.182h-10.847V611.73Z" fill="#fff"/>
      <path id="Path_280" data-name="Path 280" d="M1367.572,624.69v-3.809l3.478-3.147c5.88-5.258,8.736-8.281,8.819-11.427,0-2.2-1.325-3.934-4.429-3.934a9.758,9.758,0,0,0-5.756,2.236l-1.78-4.513a14.9,14.9,0,0,1,8.818-2.774c6.087,0,9.44,3.561,9.44,8.446,0,4.513-3.27,8.115-7.162,11.593l-2.484,2.071v.082h10.143v5.176Z" fill="#fff"/>
      <path id="Path_281" data-name="Path 281" d="M1410.419,611.11c0,8.322-3.353,14.035-10.226,14.035-6.956,0-10.02-6.252-10.062-13.87,0-7.784,3.313-13.953,10.268-13.953C1407.6,597.322,1410.419,603.74,1410.419,611.11Zm-13.952.165c-.042,6.169,1.449,9.109,3.891,9.109s3.769-3.064,3.769-9.192c0-5.962-1.284-9.109-3.81-9.109C1398,602.083,1396.425,605.023,1396.467,611.275Z" fill="#fff"/>
      <path id="Path_282" data-name="Path 282" d="M1413.52,624.69v-3.809l3.478-3.147c5.88-5.258,8.736-8.281,8.819-11.427,0-2.2-1.325-3.934-4.43-3.934a9.755,9.755,0,0,0-5.755,2.236l-1.78-4.513a14.9,14.9,0,0,1,8.818-2.774c6.087,0,9.44,3.561,9.44,8.446,0,4.513-3.27,8.115-7.163,11.593l-2.483,2.071v.082h10.143v5.176Z" fill="#fff"/>
      <path id="Path_283" data-name="Path 283" d="M1436.08,617.651c0-3.229,1.863-5.465,4.8-6.749v-.123a6.532,6.532,0,0,1-3.893-5.88c0-4.554,4.1-7.577,9.482-7.577,6.293,0,8.9,3.643,8.9,6.914a6.558,6.558,0,0,1-3.892,5.921v.124a7.125,7.125,0,0,1,4.927,6.708c0,4.885-4.1,8.156-10.351,8.156C1439.226,625.145,1436.08,621.295,1436.08,617.651Zm13.911-.207c0-2.36-1.739-3.768-4.223-4.43a4.081,4.081,0,0,0-3.27,4.016,3.685,3.685,0,0,0,3.808,3.768A3.38,3.38,0,0,0,1449.991,617.444Zm-7.08-12.752c0,1.822,1.656,2.981,3.809,3.643a3.683,3.683,0,0,0,2.733-3.436,3.086,3.086,0,0,0-3.271-3.312A3,3,0,0,0,1442.911,604.692Z" fill="#fff"/>
    </g>
    <g id="Group_65" data-name="Group 65">
      <g id="Group_62" data-name="Group 62">
        <path id="Path_284" data-name="Path 284" d="M1212.04,592.568c-3.48,28.4-18.956,46.859-24.659,53.486-16.789,19.5-35.975,27.4-44.8,30.911-25.187,10.023-46.838,8.919-61.821,7.988-18.547-1.153-36.767-4.862-53.848-12.35-21.54-9.454-40.08-24.924-57.452-40.5-14.664-13.163-29.612-26.486-48.117-33.974-8.537-3.459-21.013-8.357-37.51-7.641-9.1.4-27.855,1.2-38.9,14.934-1.848,2.293-6.849,8.662-7.155,17.97-.493,14.775,11.976,25.125,12.358,25.438A34.034,34.034,0,0,1,835.9,634.593c-7.565-14.956.055-30.585,1.736-34.037,9.968-20.45,33.044-26.424,40.983-28.48,19.755-5.112,40.573-1.966,58.884,6.627,18.887,8.856,34.009,23.909,49.013,38.038,16.754,15.775,33.675,31.9,53.791,43.372a121.176,121.176,0,0,0,59.745,15.768,112.576,112.576,0,0,0,56.765-14.545c37.892-21.8,59.891-70.8,49.652-110.272a76.232,76.232,0,0,0-7.974-19.276l.542-.375C1206.247,544.034,1215.319,565.811,1212.04,592.568Z" fill="url(#linear-gradient)"/>
        <path id="Path_285" data-name="Path 285" d="M840.762,617.922a29,29,0,0,1,5.406-9.462,40.169,40.169,0,0,1,8.219-7.312,67.3,67.3,0,0,1,9.71-5.239l2.586-.99,1.3-.495c.436-.154.884-.27,1.326-.407l2.663-.794c.9-.225,1.809-.4,2.715-.606l1.361-.294c.457-.083.919-.131,1.378-.2l2.764-.372,2.784-.173c.464-.024.928-.066,1.393-.075l1.4.014a60.4,60.4,0,0,1,11.1,1.043l2.732.561c.913.179,1.8.458,2.7.689,1.808.444,3.551,1.077,5.319,1.641a97.728,97.728,0,0,1,10.226,4.308,135.869,135.869,0,0,1,18.942,11.33c6.013,4.216,11.751,8.772,17.371,13.436s11.033,9.543,16.469,14.344c1.354,1.215,2.722,2.386,4.094,3.546l4.109,3.5c1.368,1.169,2.809,2.245,4.209,3.373,1.417,1.107,2.807,2.248,4.244,3.327a210.887,210.887,0,0,0,36.595,22.558c1.588.837,3.25,1.506,4.889,2.23l4.929,2.147,5.035,1.876c1.681.617,3.344,1.294,5.068,1.781,3.426,1.042,6.822,2.2,10.321,2.979l5.213,1.31,5.282,1c3.509.765,7.084,1.076,10.641,1.548,1.776.273,3.571.323,5.361.441l5.375.345c1.795.033,3.591.011,5.388.02l2.7,0h1.349c.449-.009.9-.052,1.345-.077l5.386-.345,2.7-.172,2.7-.263a133.6,133.6,0,0,0,21.2-4.146c3.5-.938,6.968-1.982,10.426-3.079,3.464-1.081,6.912-2.226,10.359-3.374-3.362,1.377-6.725,2.752-10.116,4.067-3.4,1.3-6.821,2.536-10.283,3.678a129.835,129.835,0,0,1-21.3,5.223c-.9.134-1.8.263-2.71.374l-2.732.275-5.47.55c-.456.041-.912.1-1.369.127l-1.374.049-2.748.1c-1.833.057-3.668.146-5.5.177l-5.505-.168c-1.835-.073-3.676-.079-5.5-.309-3.652-.386-7.331-.615-10.947-1.3l-5.448-.882-5.384-1.2c-3.614-.726-7.114-1.871-10.652-2.884-1.78-.475-3.5-1.14-5.233-1.746l-5.2-1.847-5.092-2.121c-1.693-.717-3.413-1.38-5.054-2.21a211.393,211.393,0,0,1-37.58-22.858c-1.461-1.109-2.872-2.279-4.31-3.416-1.422-1.156-2.886-2.263-4.273-3.459l-4.164-3.585c-1.395-1.192-2.778-2.39-4.121-3.607-5.411-4.855-10.814-9.669-16.282-14.388-10.939-9.393-22.382-18.26-35.042-24.891a93.986,93.986,0,0,0-9.728-4.4c-1.676-.582-3.334-1.236-5.045-1.7-.854-.239-1.694-.538-2.556-.74l-2.582-.628A57.5,57.5,0,0,0,885.7,594.3l-1.327-.062c-.442-.007-.885.018-1.327.025l-2.657.067-2.646.262c-.441.048-.884.076-1.323.14l-1.312.224c-.873.155-1.754.283-2.625.459l-2.59.645c-.43.112-.868.2-1.294.333l-1.269.42-2.543.84-2.476,1.028a25.233,25.233,0,0,0-2.45,1.1c-1.594.817-3.238,1.561-4.757,2.5a39.479,39.479,0,0,0-8.4,6.67A28.639,28.639,0,0,0,840.762,617.922Z" fill="url(#linear-gradient-2)"/>
        <path id="Path_286" data-name="Path 286" d="M977.386,684.951a169.575,169.575,0,0,1-25.094,10.376,165.256,165.256,0,0,1-26.582,6.095c-2.251.388-4.523.588-6.794.829l-3.411.351-3.44.248c-4.588.3-9.183.458-13.775.446a138.881,138.881,0,0,1-27.367-2.563,84.957,84.957,0,0,1-25.761-9.4A63.661,63.661,0,0,1,824.786,672.8a64.549,64.549,0,0,0,19.461,20.013,87.55,87.55,0,0,0,25.877,11.3,143.234,143.234,0,0,0,27.987,4.39c4.715.306,9.439.434,14.159.421l3.54-.035,3.556-.142c2.373-.1,4.753-.166,7.117-.422a173.07,173.07,0,0,0,28.19-4.648,179.125,179.125,0,0,0,27.144-9.3,183.076,183.076,0,0,0,26.424-14.171q-5.795-3.153-11.559-6.772A171.391,171.391,0,0,1,977.386,684.951Z" fill="url(#linear-gradient-3)"/>
        <path id="Path_287" data-name="Path 287" d="M1024.491,602.987c0-42.71-41.312-54.176-41.33-54.181,1.631.453,4.864-.762,6.453-1.076a126.541,126.541,0,0,0,15.914-4.234c13.536-4.572,27.306-11.721,35.857-23.55,7.786-10.769,9.118-26,.334-36.633-7.142-8.642-18.543-12.589-29.944-14.5-1.23-.206-2.459-.385-3.684-.547l3.549,1.352c19.025,9.734,29.2,27.77,13.894,45.926-17.235,20.44-46.934,32.087-72.242,38.818,0,0,15.446-2.86,28.535,6.68a37.6,37.6,0,0,1,12.1,15.2c5.9,12.938,2.883,25.388,1.737,30.216a47.632,47.632,0,0,1-2.914,8.518c7.744,7.291,15.628,14.668,23.879,21.549C1027,617.694,1024.491,602.987,1024.491,602.987Z" fill="url(#linear-gradient-4)"/>
        <path id="Path_288" data-name="Path 288" d="M1041.655,635.092a84.7,84.7,0,0,0,2.713-16.123,79.619,79.619,0,0,0-.761-16.234,67.322,67.322,0,0,0-11.882-29.46,53.489,53.489,0,0,0-11.084-11.187,54.059,54.059,0,0,0-13.632-7.377,53.161,53.161,0,0,1,12.517,8.708,50.882,50.882,0,0,1,9.3,11.765,62.125,62.125,0,0,1,7.875,28.273,71.733,71.733,0,0,1-.955,14.507,75.149,75.149,0,0,1-3.99,13.886,80.807,80.807,0,0,1-5.928,11.99q4.89,3.682,9.992,7.019A92.95,92.95,0,0,0,1041.655,635.092Z" fill="url(#linear-gradient-5)"/>
        <path id="Path_289" data-name="Path 289" d="M939.052,552.279a133.751,133.751,0,0,0,39.4-16.2c10.084-6.3,20.892-13.35,26.806-24.009,9.948-17.929-10.514-26.869-25.407-26.7a93.979,93.979,0,0,0-46.294,13.376A130.894,130.894,0,0,0,916.728,510.9c-1.262,1.069-5.743,3.869-6.156,5.606,6.6-27.782-14.931-48.273-14.934-48.276,4.6,4.376,13.538,3.9,19.423,4.169,14.126.64,28-.945,41.991-2.68,13.844-1.716,27.892-3.994,41.6-.407,14.538,3.8,27.222,13.065,28.273,29.134,2.431,37.162-106.972,59.39-106.972,59.39Z" fill="url(#linear-gradient-6)"/>
        <path id="Path_290" data-name="Path 290" d="M1199.886,558.394c-9.1-45.671-54.261-78.53-100.6-69.855-21.637,4.051-41.93,17.539-52.379,37.378a61.039,61.039,0,0,0-6.787,35.653c-.909-7.323,6.583-19.257,10.578-25.126a71.475,71.475,0,0,1,19.513-19.229c29.312-19.47,68.3-14.148,92.855,10.753,26.788,27.163,30.375,75.958,3.117,104.091-21.267,21.951-56.569,28.128-85.43,20.941a96.5,96.5,0,0,1-33.868-15.99,98.711,98.711,0,0,1-5.463,14.96c.823.462,1.657.923,2.515,1.378a117.013,117.013,0,0,0,90.236,7.593C1177.211,646.877,1209.084,604.577,1199.886,558.394Z" fill="url(#linear-gradient-7)"/>
        <path id="Path_291" data-name="Path 291" d="M977.192,659.7q-.74-.594-1.482-1.184l-.076-.06c-.478-.389-.961-.772-1.444-1.154-.972-.771-1.977-1.568-2.986-2.44l-4.157-3.576c-1.252-1.071-2.753-2.365-4.254-3.725l-.309-.277a162.545,162.545,0,0,1-26.211,13.7c-27.929,11.75-54.552,11.911-73.3,9.687a59.6,59.6,0,0,1-19.431-8.992,53.871,53.871,0,0,1-21.188-34.394,51.686,51.686,0,0,1,2.3-25.9,47.926,47.926,0,0,1,18.19-23.064,45.446,45.446,0,0,0-18.527,15.711c-10.795,15.59-9.113,32.6-8.216,40.9a62.355,62.355,0,0,0,24.717,43.236c15.758,11.582,38.128,16.193,57.249,17.545,16.293,1.152,32.519-1.711,47.175-6.222,2.667-.821,5.28-1.7,7.834-2.613a173.635,173.635,0,0,0,34.882-19.209q-3.923-2.72-7.812-5.642C979.107,661.244,978.133,660.461,977.192,659.7Z" fill="url(#linear-gradient-8)"/>
        <path id="Path_292" data-name="Path 292" d="M1168.472,542.229a68.854,68.854,0,0,0-28.7-26.966,60.946,60.946,0,0,0-9.96-3.887c-34.112-9.869-76.715,10.11-86.183,45.772,1.6-6.04,7.261-12.391,11.239-16.874a75.181,75.181,0,0,1,39.95-23.449c27.725-6.144,59.143,4.447,74.755,29.207l2.125,3.439Z" fill="url(#linear-gradient-9)"/>
      </g>
      <g id="Group_63" data-name="Group 63">
        <path id="Path_293" data-name="Path 293" d="M1067.695,477.851l-3.922,1.911-1.351-2.773,11.223-5.47,1.352,2.774-3.987,1.943,5.765,11.83-3.314,1.615Z" fill="#fff"/>
        <path id="Path_294" data-name="Path 294" d="M1093.118,473.508c1.574,5.088-.556,9.129-5.092,10.532-4.6,1.425-8.375-1.218-9.743-5.639-1.44-4.651.454-9.047,5.037-10.465C1088.086,466.461,1091.793,469.225,1093.118,473.508Zm-11.15,3.677c.941,3.039,3.032,4.739,5.379,4.012,2.372-.734,3.033-3.411,2.1-6.427-.862-2.786-2.938-4.768-5.356-4.019C1081.718,471.485,1081.035,474.169,1081.968,477.185Z" fill="#fff"/>
        <path id="Path_295" data-name="Path 295" d="M1099.628,480.752l-5.492-15.764,3.908-.4,1.905,6.539c.557,1.881,1.1,3.932,1.536,5.535l.048-.005c.085-1.777.269-3.758.473-5.789l.688-6.756,3.884-.4,1.991,6.675c.554,1.857.995,3.556,1.419,5.329l.048-.005c.056-1.822.221-3.753.359-5.705l.641-6.751,3.716-.381-2.516,16.584-3.955.406-2.079-6.812c-.479-1.6-.9-3.082-1.277-4.908l-.048.005c-.1,1.852-.208,3.413-.424,5.082l-.822,7.109Z" fill="#fff"/>
        <path id="Path_296" data-name="Path 296" d="M1120.433,475.512l-1.462,4.072-3.8-.282,6.154-15.83,4.807.357,3.819,16.571-3.942-.293-.94-4.25Zm4.314-2.434-.754-3.512c-.218-.983-.417-2.206-.585-3.185l-.049,0c-.311.943-.642,2.151-.976,3.069l-1.217,3.365Z" fill="#fff"/>
        <path id="Path_297" data-name="Path 297" d="M1135.066,465.146a32.181,32.181,0,0,1,4.846.764c2.349.539,3.914,1.268,4.837,2.42a4.126,4.126,0,0,1,.7,3.647,4.311,4.311,0,0,1-3.69,3.26l-.016.07c1,.7,1.37,1.9,1.436,3.446.085,1.9.1,4.08.269,4.761l-3.666-.84a20.435,20.435,0,0,1-.259-3.943c.03-2.071-.528-2.767-1.979-3.125l-1.081-.247-1.427,6.227-3.549-.814Zm1.986,7.628,1.411.323c1.785.409,3.048-.241,3.365-1.628.334-1.457-.485-2.412-2.125-2.812a9.171,9.171,0,0,0-1.649-.254Z" fill="#fff"/>
        <path id="Path_298" data-name="Path 298" d="M1150.751,469.044a32.847,32.847,0,0,1,4.742,1.516c2.869,1.137,4.525,2.389,5.547,4.065a7.191,7.191,0,0,1,.3,6.7,8.242,8.242,0,0,1-4.935,5.125c-2.115.692-4.785.361-7.744-.812a31.792,31.792,0,0,1-3.789-1.76Zm-1.454,13.687a6.723,6.723,0,0,0,1.161.538c3.084,1.248,5.776.344,7.206-3.265,1.265-3.129.085-5.516-2.852-6.68a7.6,7.6,0,0,0-1.6-.478Z" fill="#fff"/>
        <path id="Path_299" data-name="Path 299" d="M1161.761,486.986a9.375,9.375,0,0,0,3.037,2.9c1.465.835,2.586.67,3.111-.252.5-.879.117-1.763-1.232-3.337-1.879-2.153-2.668-4.322-1.5-6.373,1.372-2.408,4.431-3.105,7.76-1.207a9.939,9.939,0,0,1,3.2,2.764l-2.18,2.169a7.723,7.723,0,0,0-2.57-2.352c-1.382-.788-2.41-.542-2.828.191-.512.9.056,1.752,1.484,3.481,1.966,2.34,2.4,4.307,1.265,6.3-1.348,2.365-4.315,3.337-8.188,1.129a10.634,10.634,0,0,1-3.51-3.137Z" fill="#fff"/>
      </g>
      <g id="Group_64" data-name="Group 64">
        <path id="Path_300" data-name="Path 300" d="M1052.924,595.439a11.751,11.751,0,0,1,1.028-4.464,34.019,34.019,0,0,1,2.663-5.066q1.637-2.6,3.329-4.828t4.473-5.811q3.069-3.83,4.473-5.825a6.238,6.238,0,0,0,1.4-2.977q0-.791-1.071-.791a6.91,6.91,0,0,0-1.419.19,22.851,22.851,0,0,0-4.69,1.725q-2.258,1.125-5.413,3.087a30.727,30.727,0,0,1-5.5,2.913,1.566,1.566,0,0,0-.29.064h-.317a3.1,3.1,0,0,1-2.056-.9,2.477,2.477,0,0,1-1.014-1.758.877.877,0,0,1,.29-.7q.838-.729,1.129-.729c.116,0,.174.127.174.38q0,.539.318.538a1.774,1.774,0,0,0,.753-.316q2.026-1.3,4.429-2.533t4.922-2.28a35.163,35.163,0,0,1,4.834-1.63,17.068,17.068,0,0,1,4.14-.586,5.276,5.276,0,0,1,3.735,1.171,6,6,0,0,1,1.911,4.5,13.717,13.717,0,0,1-1.723,6.159q-1.724,3.372-5.168,8.754-2.142,3.23-3.531,5.526a37.026,37.026,0,0,0-2.346,4.511,6.7,6.7,0,0,0-.753,2.217c0,.3.117.443.348.443a5.006,5.006,0,0,0,1.94-.855,18.828,18.828,0,0,0,3.691-2.992q2.129-2.106,5.747-5.937,2.719-2.913,4.718-4.955t3.953-3.8a26.38,26.38,0,0,1,3.633-2.8,5.773,5.773,0,0,1,2.923-1.046,1.971,1.971,0,0,1,.956.222q2.025,1.014,2.026,4.338a22.33,22.33,0,0,1-.825,5.493q-.823,3.183-2.445,7.868a.521.521,0,0,1-.059.191v.126q0,.379.347.38l.2-.063a.422.422,0,0,1,.174-.064q1.187-.759,3.676-2.279,1.652-.951,2.316-1.425a1.071,1.071,0,0,1,.58-.253c.115,0,.173.063.173.19,0,.359-.231.664-.694.918q-1.563.918-3.662,2.438t-3.692,2.818l-.115.063a5.264,5.264,0,0,0-1.68,2,70.366,70.366,0,0,1-3.575,7.567q-2.041,3.735-4.184,6.934a58.363,58.363,0,0,1-4.1,5.478,20.982,20.982,0,0,1-3.314,3.261,1.359,1.359,0,0,1-.841.316q-1.3,0-2.518-1.915a7.988,7.988,0,0,1-1.332-3.784,10.638,10.638,0,0,1,1.245-4.717,26.292,26.292,0,0,1,3.228-4.924,46.22,46.22,0,0,1,4.241-4.528,52.851,52.851,0,0,1,4.285-3.625,8.971,8.971,0,0,0,1.621-1.282,12.678,12.678,0,0,0,1.332-1.821,42.639,42.639,0,0,0,4.357-8.548,21.36,21.36,0,0,0,1.636-6.808q0-1.614-.782-1.615a2.507,2.507,0,0,0-1.476.824q-.522.539-1.505,1.757t-3.07,4.1q-3.01,4.084-5.269,7t-4.95,5.889a39.855,39.855,0,0,1-5.095,4.829,7.287,7.287,0,0,1-4.17,1.852.637.637,0,0,1-.259-.063h-.232a10.434,10.434,0,0,1-3.315-1.235,22.465,22.465,0,0,1-3.257-2.47A5.266,5.266,0,0,1,1052.924,595.439Z" fill="#fff"/>
        <path id="Path_301" data-name="Path 301" d="M1101.879,594.806q-.551,0-.55-.316a1.063,1.063,0,0,1,.275-.634,2.431,2.431,0,0,1,.565-.538,40.123,40.123,0,0,0,4.385-3.768,5.447,5.447,0,0,0,1.666-3.1c0-.485-.2-.728-.609-.728a2.857,2.857,0,0,0-1.3.506,16.361,16.361,0,0,0-2.751,2.059,26.325,26.325,0,0,0-3.141,3.4,23.733,23.733,0,0,0-2.793,4.607,19.109,19.109,0,0,0-1.622,5.383v.253l-.058.19q0,1.172,1.245,1.171a9.073,9.073,0,0,0,3.677-1.266,44.606,44.606,0,0,0,5.211-3.245q2.78-1.979,5.327-4.148a36.653,36.653,0,0,0,3.937-3.784.489.489,0,0,1,.348-.19c.154,0,.231.106.231.317a.886.886,0,0,1-.174.506,37.653,37.653,0,0,1-3.676,4.718,44.053,44.053,0,0,1-4.719,4.512,27.072,27.072,0,0,1-5.038,3.34,10.38,10.38,0,0,1-4.6,1.267,4.835,4.835,0,0,1-4.43-2.723,7.128,7.128,0,0,1-.9-3.578,11.823,11.823,0,0,1,.564-3.5,25.575,25.575,0,0,1,1.52-3.752,30.556,30.556,0,0,1,2.142-3.657,36.4,36.4,0,0,1,2.678-3.5,19.032,19.032,0,0,1,2.823-2.692,4.447,4.447,0,0,1,2.6-1.076,2,2,0,0,1,1.3.475,16.234,16.234,0,0,1,2.577,2.295,20.078,20.078,0,0,1,1.939,2.676,2.439,2.439,0,0,1,.348,1.235,3.571,3.571,0,0,1-.825,2.185,11.406,11.406,0,0,1-2.128,2.073,19.333,19.333,0,0,1-2.707,1.742,23.04,23.04,0,0,1-2.475,1.155A4.452,4.452,0,0,1,1101.879,594.806Z" fill="#fff"/>
        <path id="Path_302" data-name="Path 302" d="M1129.816,578.975a2.962,2.962,0,0,1,2.2,1.108,12.351,12.351,0,0,1,2.027,3.641,1.217,1.217,0,0,1,.173.57.388.388,0,0,1-.434.444.97.97,0,0,1-.753-.444,1.535,1.535,0,0,0-1.3-.57,8.1,8.1,0,0,0-3.562,1.188,28.077,28.077,0,0,0-4.545,3.134,37.152,37.152,0,0,0-4.241,4.116,16.545,16.545,0,0,0-2.736,4.069,2.361,2.361,0,0,0-.231.981q0,.825.607.824a2.214,2.214,0,0,0,1.246-.7q1.129-.981,3.3-3.071,3.272-3.04,5.225-4.718a13.794,13.794,0,0,1,2.91-2.09,3.088,3.088,0,0,1,1.186-.253,2.415,2.415,0,0,1,2.071,1.077,4,4,0,0,1,.767,2.374,3.5,3.5,0,0,1-.115.887,7.478,7.478,0,0,1-.71,1.725q-.536,1-1.491,2.771-.985,1.869-1.52,2.976a19.189,19.189,0,0,0-.825,1.932,2.218,2.218,0,0,0-.145.728q0,.761.492.76a.977.977,0,0,0,.579-.317q.781-.633,1.969-1.8t2.461-2.5q1.273-1.329,2.49-2.692t1.911-2.279q.548-.7.955-.7c.154,0,.231.105.231.316a1.2,1.2,0,0,1-.174.57,22.6,22.6,0,0,1-1.563,2.058q-1.1,1.331-2.548,2.913t-2.779,2.913q-1.33,1.329-2.286,2.185a2.949,2.949,0,0,1-1.969.854,2.669,2.669,0,0,1-2.186-1.139,5.174,5.174,0,0,1-.883-3.23,15.883,15.883,0,0,1,2.374-7.44,1.965,1.965,0,0,0,.289-.792c0-.169-.077-.253-.231-.253a1.045,1.045,0,0,0-.434.126,13.511,13.511,0,0,0-2.953,2.6q-1.477,1.677-3.735,4.59a50.17,50.17,0,0,1-5.095,5.985,2.707,2.707,0,0,1-1.853.759,3.55,3.55,0,0,1-2.808-1.709,6.121,6.121,0,0,1-1.274-3.736,4.866,4.866,0,0,1,.289-1.678,25.6,25.6,0,0,1,3.416-6.19,40.168,40.168,0,0,1,4.806-5.446,51.618,51.618,0,0,1,4.951-4.148,31.769,31.769,0,0,1,3.851-2.486A5.942,5.942,0,0,1,1129.816,578.975Z" fill="#fff"/>
        <path id="Path_303" data-name="Path 303" d="M1135.924,595.5c-.193,0-.29-.106-.29-.317a1.31,1.31,0,0,1,.463-.792q.667-.633,1.55-1.6t1.607-1.821a17.228,17.228,0,0,0,1.215-1.6,2.807,2.807,0,0,0,.492-.934,9.638,9.638,0,0,1-1.187-4.085,5.078,5.078,0,0,1,1.158-3.166,17.477,17.477,0,0,1,3.822-3.324,1.5,1.5,0,0,1,.782-.19.861.861,0,0,1,.782.317q2.171,2.6,2.17,3.957,0,1.553-2.721,3.958c-.231.169-.347.328-.347.475,0,.169.1.253.289.253a1.447,1.447,0,0,0,.492-.127,11.922,11.922,0,0,1,4.082-1.044,3.794,3.794,0,0,1,1.925.49,10.694,10.694,0,0,1,1.926,1.5,2.435,2.435,0,0,1,.521,1.647,7.35,7.35,0,0,1-.347,2.058,18.43,18.43,0,0,1-.912,2.406q-.564,1.234-1.188,2.327t-1.23,2.074l-.405.728a2.184,2.184,0,0,0-.29.824c0,.126.039.19.117.19a2.133,2.133,0,0,0,.781-.443q.81-.7,2.142-1.837t2.2-1.916l5.674-5.05q.812-.791,1.651-1.519a1.136,1.136,0,0,1,.724-.38q.346,0,.347.316a1.048,1.048,0,0,1-.4.728q-1.68,1.553-3.72,3.657t-5.139,5.367q-1.709,1.678-2.866,2.913t-1.795,1.8q-1.968,1.962-3.561,1.963a.925.925,0,0,1-.666-.222,10.535,10.535,0,0,1-2.244-2.327,3.846,3.846,0,0,1-.651-2.074,9.528,9.528,0,0,1,.579-2.6v-.063a11.36,11.36,0,0,1,1.259-2.375q.883-1.329,2.476-3.514,1.563-2.026,2.33-3.183a3.714,3.714,0,0,0,.767-1.82q0-.444-.666-.444h-.231a1.544,1.544,0,0,1-.405.064,8.717,8.717,0,0,0-2.982,1.3,11.56,11.56,0,0,1-2.78,1.235,3.051,3.051,0,0,0-1.36.76q-.638.6-2.085,2.09-1.823,1.931-2.548,2.6A2.253,2.253,0,0,1,1135.924,595.5Z" fill="#fff"/>
        <path id="Path_304" data-name="Path 304" d="M1168.2,580.526a.821.821,0,0,1,.376-.19q.289,0,.767.491a18.548,18.548,0,0,1,1.491,1.916,4.375,4.375,0,0,1,1.043,2.343q0,1.362-2.779,2.849c-.194.085-.608.3-1.246.634q-2.083.981-2.083,1.551a1.29,1.29,0,0,0,.376.792,3.665,3.665,0,0,1,.4.506,17.266,17.266,0,0,1,2.127,2.755,5.081,5.081,0,0,1,.71,2.628v.411a2.875,2.875,0,0,0-.058.444,10.4,10.4,0,0,0,.97-.776q.593-.523,1.78-1.5t2.548-2.137q1.36-1.156,2.113-1.884a1.106,1.106,0,0,1,.667-.317c.192,0,.288.085.288.253a1.018,1.018,0,0,1-.288.6q-.552.57-1.491,1.472t-2.91,2.866q-2.056,1.93-2.924,2.786a4.2,4.2,0,0,0-.868.982,4.531,4.531,0,0,1-1.086,2.786,8.412,8.412,0,0,1-2.664,2.074,15.521,15.521,0,0,1-3.5,1.282,14.814,14.814,0,0,1-3.4.443,5.061,5.061,0,0,1-2.75-.569,1.224,1.224,0,0,1-.52-1.045,2.476,2.476,0,0,1,.781-1.615,21.7,21.7,0,0,1,3.3-2.66,36.527,36.527,0,0,0,4.545-3.689,4.464,4.464,0,0,0,1.563-3.055,2.661,2.661,0,0,0-.463-1.425c-.117-.168-.338-.453-.666-.854a26.316,26.316,0,0,1-1.954-2.8,4.515,4.515,0,0,1-.652-2.3,4.413,4.413,0,0,1,1.39-3.024,14.358,14.358,0,0,1,4.718-2.9A1.737,1.737,0,0,1,1168.2,580.526Z" fill="#fff"/>
      </g>
    </g>
  </g>
</svg>
