<svg xmlns="http://www.w3.org/2000/svg" xmlns:xlink="http://www.w3.org/1999/xlink" width="851.561" height="251.288" viewBox="0 0 851.561 251.288">
  <defs>
    <linearGradient id="linear-gradient" x1="0.117" y1="0.5" x2="1.117" y2="0.5" gradientUnits="objectBoundingBox">
      <stop offset="0" stop-color="#6e6e6f"/>
      <stop offset="0.522" stop-color="#fff"/>
      <stop offset="0.908" stop-color="#6e6e6f"/>
    </linearGradient>
    <linearGradient id="linear-gradient-2" x1="0.268" y1="0.164" x2="0.75" y2="0.982" gradientUnits="objectBoundingBox">
      <stop offset="0" stop-color="#fff"/>
      <stop offset="0.524" stop-color="#6e6e6f"/>
      <stop offset="0.632" stop-color="#959596"/>
      <stop offset="0.803" stop-color="#cecece"/>
      <stop offset="0.929" stop-color="#f1f1f1"/>
      <stop offset="0.997" stop-color="#fff"/>
    </linearGradient>
    <linearGradient id="linear-gradient-3" x1="0.877" y1="-0.787" x2="0.66" y2="-0.261" gradientUnits="objectBoundingBox">
      <stop offset="0" stop-color="#6e6e6f"/>
      <stop offset="1" stop-color="#fff"/>
    </linearGradient>
    <linearGradient id="linear-gradient-4" x1="0.522" y1="0.587" x2="0.243" y2="0.822" gradientUnits="objectBoundingBox">
      <stop offset="0" stop-color="#fff"/>
      <stop offset="1" stop-color="#6e6e6f"/>
    </linearGradient>
    <linearGradient id="linear-gradient-5" x1="0.211" y1="0.684" x2="0.57" y2="0.313" xlink:href="#linear-gradient-3"/>
    <linearGradient id="linear-gradient-6" x1="0.823" y1="0.698" x2="0.357" y2="0.437" xlink:href="#linear-gradient-3"/>
    <linearGradient id="linear-gradient-7" x1="0.573" y1="0.373" x2="0.362" y2="0.605" xlink:href="#linear-gradient-4"/>
    <linearGradient id="linear-gradient-8" x1="0.041" y1="0.366" x2="0.532" y2="0.662" xlink:href="#linear-gradient-4"/>
    <linearGradient id="linear-gradient-9" x1="0.31" y1="0.724" x2="0.646" y2="0.479" xlink:href="#linear-gradient-3"/>
  </defs>
  <g id="Group_46" data-name="Group 46" transform="translate(-818.044 -962.779)">
    <g id="Group_44" data-name="Group 44">
      <g id="Group_41" data-name="Group 41">
        <path id="Path_117" data-name="Path 117" d="M1215.352,1097.5c-3.487,28.447-18.99,46.943-24.7,53.581-16.819,19.533-36.039,27.445-44.883,30.966-25.232,10.041-46.922,8.935-61.931,8-18.58-1.155-36.832-4.871-53.943-12.372-21.579-9.471-40.151-24.967-57.555-40.575-14.689-13.187-29.664-26.533-48.2-34.035-8.552-3.465-21.049-8.371-37.576-7.654-9.116.4-27.9,1.2-38.968,14.961-1.851,2.3-6.861,8.677-7.167,18-.495,14.8,12,25.17,12.379,25.483a34.086,34.086,0,0,1-14.258-14.258c-7.578-14.982.055-30.639,1.739-34.1,9.986-20.486,33.1-26.471,41.056-28.531,19.79-5.121,40.645-1.969,58.988,6.639,18.92,8.872,34.069,23.951,49.1,38.1,16.784,15.8,33.735,31.954,53.887,43.449a121.39,121.39,0,0,0,59.851,15.8,112.762,112.762,0,0,0,56.865-14.571c37.959-21.843,60-70.922,49.74-110.467a76.355,76.355,0,0,0-7.989-19.31l.543-.376C1209.548,1048.884,1218.636,1070.7,1215.352,1097.5Z" fill="url(#linear-gradient)"/>
        <path id="Path_118" data-name="Path 118" d="M843.416,1122.9a29.035,29.035,0,0,1,5.415-9.478,40.265,40.265,0,0,1,8.234-7.326,67.52,67.52,0,0,1,9.726-5.248l2.592-.991,1.3-.5c.436-.154.885-.271,1.328-.408l2.668-.795c.9-.226,1.812-.4,2.719-.607l1.364-.295c.458-.083.921-.131,1.381-.2l2.768-.373,2.789-.173c.465-.024.931-.066,1.4-.075l1.4.013a60.609,60.609,0,0,1,11.117,1.045l2.737.562c.915.18,1.8.459,2.7.691,1.811.445,3.557,1.078,5.328,1.644a97.828,97.828,0,0,1,10.244,4.315,136.2,136.2,0,0,1,18.976,11.35c6.024,4.224,11.772,8.788,17.4,13.46s11.054,9.56,16.5,14.37c1.356,1.216,2.727,2.39,4.1,3.552l4.116,3.506c1.37,1.171,2.814,2.249,4.217,3.379,1.419,1.109,2.812,2.252,4.251,3.333a211.279,211.279,0,0,0,36.66,22.6c1.591.839,3.256,1.508,4.9,2.234l4.937,2.151,5.044,1.879c1.685.618,3.35,1.3,5.078,1.784,3.431,1.044,6.833,2.207,10.339,2.984l5.222,1.313,5.291,1c3.515.767,7.1,1.078,10.66,1.552,1.78.273,3.577.323,5.371.441l5.385.345c1.8.034,3.6.012,5.4.021l2.7,0h1.352c.45-.01.9-.052,1.348-.077l5.4-.346,2.7-.172,2.7-.264a133.852,133.852,0,0,0,21.241-4.153c3.5-.94,6.981-1.985,10.445-3.085,3.47-1.083,6.923-2.23,10.376-3.38-3.367,1.38-6.736,2.758-10.133,4.075-3.4,1.3-6.833,2.54-10.3,3.684a130.1,130.1,0,0,1-21.333,5.232c-.906.135-1.807.264-2.715.375l-2.737.276-5.479.55c-.457.042-.914.1-1.372.128l-1.376.049-2.753.1c-1.837.058-3.675.146-5.513.177l-5.515-.168c-1.838-.073-3.682-.079-5.51-.309-3.659-.387-7.344-.616-10.966-1.3l-5.458-.883-5.394-1.206c-3.62-.727-7.126-1.874-10.671-2.889-1.783-.475-3.5-1.141-5.242-1.748l-5.211-1.851-5.1-2.125c-1.7-.718-3.419-1.382-5.063-2.214a211.8,211.8,0,0,1-37.647-22.9c-1.463-1.111-2.877-2.283-4.318-3.422-1.424-1.158-2.891-2.267-4.28-3.466l-4.172-3.591c-1.4-1.194-2.782-2.394-4.128-3.613-5.42-4.864-10.833-9.686-16.311-14.413-10.958-9.41-22.421-18.293-35.1-24.936a93.984,93.984,0,0,0-9.745-4.408c-1.679-.582-3.34-1.237-5.054-1.7-.855-.24-1.7-.539-2.56-.742l-2.588-.629a57.585,57.585,0,0,0-10.536-1.375l-1.33-.062c-.443-.007-.886.018-1.33.025l-2.661.067-2.651.262c-.441.048-.886.076-1.325.14l-1.314.225c-.875.155-1.758.283-2.63.46L872.6,1101c-.432.112-.87.2-1.3.333l-1.271.421-2.548.841-2.481,1.03a25.654,25.654,0,0,0-2.454,1.1c-1.6.819-3.243,1.564-4.764,2.505a39.481,39.481,0,0,0-8.412,6.682A28.671,28.671,0,0,0,843.416,1122.9Z" fill="url(#linear-gradient-2)"/>
        <path id="Path_119" data-name="Path 119" d="M980.282,1190.05a169.887,169.887,0,0,1-25.138,10.395,165.634,165.634,0,0,1-26.63,6.105c-2.255.39-4.531.589-6.806.831l-3.417.351-3.446.249c-4.6.3-9.2.459-13.8.447a139.136,139.136,0,0,1-27.415-2.568,85.1,85.1,0,0,1-25.806-9.415,63.8,63.8,0,0,1-20.413-18.57,64.672,64.672,0,0,0,19.495,20.048,87.673,87.673,0,0,0,25.924,11.323,143.429,143.429,0,0,0,28.036,4.4c4.724.306,9.456.434,14.185.422l3.545-.035,3.563-.142c2.377-.1,4.761-.167,7.129-.423a173.449,173.449,0,0,0,28.24-4.656,179.506,179.506,0,0,0,27.193-9.313,183.365,183.365,0,0,0,26.47-14.2q-5.8-3.159-11.579-6.784A171.857,171.857,0,0,1,980.282,1190.05Z" fill="url(#linear-gradient-3)"/>
        <path id="Path_120" data-name="Path 120" d="M1027.47,1107.941c0-42.785-41.385-54.272-41.4-54.277,1.634.454,4.873-.763,6.465-1.078a126.825,126.825,0,0,0,15.941-4.242c13.561-4.579,27.355-11.741,35.922-23.591,7.8-10.788,9.133-26.05.334-36.7-7.155-8.658-18.576-12.611-30-14.524-1.232-.207-2.464-.387-3.691-.549l3.556,1.354c19.059,9.752,29.254,27.82,13.918,46.008-17.265,20.477-47.017,32.144-72.37,38.887,0,0,15.474-2.866,28.586,6.692a37.65,37.65,0,0,1,12.121,15.228c5.909,12.961,2.888,25.432,1.74,30.269a47.691,47.691,0,0,1-2.919,8.533c7.758,7.305,15.656,14.694,23.922,21.587C1029.983,1122.674,1027.47,1107.941,1027.47,1107.941Z" fill="url(#linear-gradient-4)"/>
        <path id="Path_121" data-name="Path 121" d="M1044.665,1140.1a84.753,84.753,0,0,0,2.717-16.152,79.747,79.747,0,0,0-.762-16.263,67.45,67.45,0,0,0-11.9-29.512,53.608,53.608,0,0,0-11.1-11.207,54.189,54.189,0,0,0-13.656-7.39,53.3,53.3,0,0,1,12.538,8.724,50.972,50.972,0,0,1,9.314,11.786,62.245,62.245,0,0,1,7.889,28.322,71.9,71.9,0,0,1-.957,14.533,75.235,75.235,0,0,1-4,13.911,80.894,80.894,0,0,1-5.938,12.011q4.9,3.69,10.01,7.032A93.081,93.081,0,0,0,1044.665,1140.1Z" fill="url(#linear-gradient-5)"/>
        <path id="Path_122" data-name="Path 122" d="M941.88,1057.144a134.069,134.069,0,0,0,39.468-16.225c10.1-6.308,20.929-13.375,26.853-24.052,9.966-17.961-10.532-26.917-25.452-26.749a94.15,94.15,0,0,0-46.376,13.4,130.833,130.833,0,0,0-16.857,12.172c-1.264,1.071-5.753,3.876-6.167,5.616,6.61-27.832-14.957-48.359-14.96-48.362,4.607,4.384,13.562,3.91,19.458,4.177,14.151.64,28.053-.948,42.065-2.685,13.868-1.72,27.941-4,41.671-.408,14.563,3.811,27.27,13.089,28.323,29.186,2.435,37.228-107.163,59.495-107.163,59.495Z" fill="url(#linear-gradient-6)"/>
        <path id="Path_123" data-name="Path 123" d="M1203.177,1063.269c-9.113-45.752-54.358-78.669-100.776-69.979-21.675,4.058-42,17.57-52.472,37.444a61.147,61.147,0,0,0-6.8,35.716c-.911-7.336,6.595-19.291,10.6-25.17a71.574,71.574,0,0,1,19.548-19.263c29.363-19.505,68.419-14.173,93.019,10.772,26.835,27.211,30.429,76.093,3.123,104.276-21.3,21.989-56.669,28.177-85.582,20.978a96.651,96.651,0,0,1-33.928-16.019,98.757,98.757,0,0,1-5.473,14.986c.824.464,1.66.925,2.52,1.381a117.218,117.218,0,0,0,90.4,7.606C1180.461,1151.908,1212.39,1109.533,1203.177,1063.269Z" fill="url(#linear-gradient-7)"/>
        <path id="Path_124" data-name="Path 124" d="M980.087,1164.759q-.741-.6-1.485-1.187l-.075-.06c-.479-.389-.963-.773-1.446-1.156-.974-.772-1.981-1.57-2.993-2.444l-4.163-3.582c-1.255-1.073-2.758-2.369-4.262-3.732l-.309-.277a162.883,162.883,0,0,1-26.258,13.724c-27.979,11.771-54.649,11.932-73.431,9.7a59.689,59.689,0,0,1-19.466-9.008,53.969,53.969,0,0,1-21.225-34.455,51.77,51.77,0,0,1,2.307-25.943,48.009,48.009,0,0,1,18.222-23.1,45.523,45.523,0,0,0-18.559,15.74c-10.815,15.617-9.13,32.658-8.231,40.972a62.469,62.469,0,0,0,24.761,43.313c15.786,11.6,38.2,16.221,57.35,17.575,16.322,1.154,32.577-1.713,47.259-6.232q4.007-1.234,7.848-2.619a173.883,173.883,0,0,0,34.944-19.243q-3.931-2.723-7.826-5.651C982.006,1166.3,981.03,1165.517,980.087,1164.759Z" fill="url(#linear-gradient-8)"/>
        <path id="Path_125" data-name="Path 125" d="M1171.707,1047.076a68.986,68.986,0,0,0-28.755-27.015,60.984,60.984,0,0,0-9.978-3.893c-34.172-9.887-76.851,10.128-86.336,45.852,1.607-6.05,7.274-12.413,11.259-16.9a75.3,75.3,0,0,1,40.021-23.49c27.774-6.156,59.248,4.454,74.888,29.258l2.128,3.445Z" fill="url(#linear-gradient-9)"/>
      </g>
      <g id="Group_42" data-name="Group 42">
        <path id="Path_126" data-name="Path 126" d="M1052.361,1076.7a2.626,2.626,0,0,1-1.188-.256,2.253,2.253,0,0,1-1.315-1.958q0-1.636,2.2-3.61a26.144,26.144,0,0,1,5.856-3.786,49.5,49.5,0,0,1,8.023-3.1,38.479,38.479,0,0,1,8.375-1.541,8.2,8.2,0,0,1,6.017,2.231,9.323,9.323,0,0,1,2.519,6.306,12.279,12.279,0,0,1-.818,4.22,26.177,26.177,0,0,1-2.134,4.428,49.585,49.585,0,0,1-2.76,4.139q-1.443,1.943-3.562,4.637-2.47,3.146-3.465,4.589a1.536,1.536,0,0,0-.322.738c0,.086.065.129.193.129a1.819,1.819,0,0,0,.722-.337,5.789,5.789,0,0,0,.979-.786q9.917-10.237,17.28-15.067t11.825-4.829a5.193,5.193,0,0,1,4.268,1.765,7.326,7.326,0,0,1,1.444,4.781,20.084,20.084,0,0,1-1.091,6.129q-1.187,3.531-3.434,9.788-2.086,5.712-2.983,8.568a15.96,15.96,0,0,0-.9,4.428,2.172,2.172,0,0,0,.256,1.187,1.819,1.819,0,0,1,.353.931q0,.994-1.572.995a8.351,8.351,0,0,1-1.669-.193,8.92,8.92,0,0,1-5.31-3.064,8.792,8.792,0,0,1-1.653-5.44,19.248,19.248,0,0,1,.593-4.524,38.009,38.009,0,0,1,1.589-4.958q.994-2.519,1.91-4.525t2.486-5.375q1.766-3.53,2.311-4.845a5.174,5.174,0,0,0,.513-1.926q0-.834-.867-.834-1.57,0-5.871,3.177a112.394,112.394,0,0,0-9.724,8.247q-5.422,5.07-10.542,10.718a107.829,107.829,0,0,0-8.294,10.172,4.358,4.358,0,0,0-.45,1.123q-.192.931-.578.931a1.6,1.6,0,0,1-.738-.257,10.292,10.292,0,0,1-3.481-3.305,7.488,7.488,0,0,1-1.107-3.947,11.1,11.1,0,0,1,1.38-5.1,67.726,67.726,0,0,1,4.027-6.5q2.39-3.448,5.953-8.23,4.876-6.515,7.172-10.093t2.294-5.632q0-2.148-2.952-2.149a18.3,18.3,0,0,0-3.819.513q-12.8,2.952-16.815,9.723a1.341,1.341,0,0,0-.225.61c0,.257.161.385.481.385a2.59,2.59,0,0,0,.787-.128q.4-.129.594-.193l-.129.064A6.245,6.245,0,0,1,1052.361,1076.7Z" fill="#fff"/>
        <path id="Path_127" data-name="Path 127" d="M1125.365,1083.156a3.4,3.4,0,0,1,2.439,1.123,12.3,12.3,0,0,1,2.247,3.69,1.156,1.156,0,0,1,.192.578c0,.3-.16.449-.482.449a1.1,1.1,0,0,1-.834-.449,1.772,1.772,0,0,0-1.444-.578,9.579,9.579,0,0,0-3.947,1.2,31.453,31.453,0,0,0-5.038,3.177,39.74,39.74,0,0,0-4.7,4.172,16.762,16.762,0,0,0-3.033,4.123,2.222,2.222,0,0,0-.256.995q0,.836.673.835a2.528,2.528,0,0,0,1.38-.706q1.252-.994,3.659-3.113,3.625-3.081,5.792-4.781a15.4,15.4,0,0,1,3.225-2.119,3.7,3.7,0,0,1,1.316-.256,2.758,2.758,0,0,1,2.294,1.091,3.832,3.832,0,0,1,.851,2.407,3.268,3.268,0,0,1-.129.9,7.186,7.186,0,0,1-.786,1.749q-.594,1.011-1.653,2.808-1.092,1.894-1.685,3.017a18.578,18.578,0,0,0-.914,1.957,2.093,2.093,0,0,0-.161.738q0,.77.546.77a1.116,1.116,0,0,0,.642-.321q.866-.641,2.182-1.829t2.728-2.535q1.412-1.347,2.759-2.728t2.118-2.31q.609-.705,1.059-.706c.171,0,.257.107.257.321a1.141,1.141,0,0,1-.193.577,23.045,23.045,0,0,1-1.733,2.086q-1.219,1.348-2.823,2.953t-3.081,2.952q-1.476,1.347-2.535,2.214a3.418,3.418,0,0,1-2.182.866,3.054,3.054,0,0,1-2.423-1.155,4.922,4.922,0,0,1-.979-3.273q0-3.209,2.632-7.541a1.89,1.89,0,0,0,.32-.8.227.227,0,0,0-.256-.257,1.246,1.246,0,0,0-.481.128,14.741,14.741,0,0,0-3.274,2.632q-1.635,1.7-4.139,4.653a52.534,52.534,0,0,1-5.648,6.065,3.15,3.15,0,0,1-2.053.77,4.021,4.021,0,0,1-3.114-1.733,5.872,5.872,0,0,1-1.411-3.787,4.536,4.536,0,0,1,.321-1.7,25.3,25.3,0,0,1,3.786-6.274,42.084,42.084,0,0,1,5.327-5.519,56.25,56.25,0,0,1,5.487-4.2,35.681,35.681,0,0,1,4.268-2.519A7.049,7.049,0,0,1,1125.365,1083.156Zm10.911-9.595a.214.214,0,0,1,.16-.064q.513,0,.449.32a.721.721,0,0,1-.288.321,45.313,45.313,0,0,1-6.819,5.2,10.106,10.106,0,0,1-4.573,1.733,4.223,4.223,0,0,1-3.257-1.653q-1.428-1.651-1.236-6.049.033-.513.449-.513c.172,0,.364.192.578.577a4.974,4.974,0,0,0,2.086,3.338,5.15,5.15,0,0,0,3,.8,11.961,11.961,0,0,0,3.241-.722,40.1,40.1,0,0,0,6.082-3.289Z" fill="#fff"/>
        <path id="Path_128" data-name="Path 128" d="M1141.6,1083.669q0-.385.8-.385a1.971,1.971,0,0,1,1.653.914,4.126,4.126,0,0,1,.658,2.455,10.709,10.709,0,0,1-1.6,5.231,3.131,3.131,0,0,0-.385.93c0,.086.022.129.064.129q.387,0,3.626-2.888a12.525,12.525,0,0,1,3.21-2.2,7.169,7.169,0,0,1,2.952-.754,2.927,2.927,0,0,1,2.166.786,3.3,3.3,0,0,1,.786,2.422,11.352,11.352,0,0,1-.641,3.37,2.532,2.532,0,0,0-.129.321,4.939,4.939,0,0,0-.128.706c0,.064.021.1.064.1q.128,0,.642-.481a47.366,47.366,0,0,1,7.765-6.049,11.486,11.486,0,0,1,5.392-1.909,3,3,0,0,1,2.55,1.123,4.877,4.877,0,0,1,.851,3.016,13.365,13.365,0,0,1-1.572,5.873q-1.83,3.657-2.712,6a11.185,11.185,0,0,0-.883,3.466q0,.9.643.9a5.309,5.309,0,0,0,2.759-1.541,59.062,59.062,0,0,0,4.46-4.3q2.054-2.245,2.7-2.246c.15,0,.225.043.225.128q0,.74-1.925,2.7-.258.288-.77.866a63.769,63.769,0,0,1-5.312,5.167,5.59,5.59,0,0,1-3.513,1.412,5.468,5.468,0,0,1-1.381-.193,6.386,6.386,0,0,1-3.288-1.893,4.424,4.424,0,0,1-.979-2.856,9.583,9.583,0,0,1,1.059-4.059q1.058-2.23,3.208-5.793l.385-.642a9.347,9.347,0,0,0,1.606-3.818q0-.738-.675-.738-1.059,0-3.481,1.749a42.742,42.742,0,0,0-5.247,4.6,54.007,54.007,0,0,0-5.263,6.21,29.189,29.189,0,0,0-3.626,6.37.66.66,0,0,1-.642.449,2.3,2.3,0,0,1-1.3-.481,3.376,3.376,0,0,1-1.076-1.22,6.011,6.011,0,0,1-.8-3.081,10.674,10.674,0,0,1,1.188-4.636,28.5,28.5,0,0,1,3.177-5.022,16.039,16.039,0,0,0,1.491-2.343,4.348,4.348,0,0,0,.594-1.733q0-.513-.448-.513a2.2,2.2,0,0,0-.739.192,13.193,13.193,0,0,0-3.77,2.872q-2.328,2.3-4.927,5.359t-4.508,5.793a26.75,26.75,0,0,0-2.423,3.915c-.128.256-.213.385-.256.385a1.329,1.329,0,0,1-.482-.193l-.256-.192a3.627,3.627,0,0,1-1.509-3.177,9.155,9.155,0,0,1,.69-3.241,28.665,28.665,0,0,1,1.781-3.739q1.09-1.941,2.262-3.722t2.68-3.931q1.54-2.182,2.294-3.4a4.239,4.239,0,0,0,.755-1.669l-.065-.128v-.064A.882.882,0,0,1,1141.6,1083.669Z" fill="#fff"/>
      </g>
      <g id="Group_43" data-name="Group 43">
        <path id="Path_129" data-name="Path 129" d="M1063.023,982.1l3.41,6.025,5.84-3.3-3.41-6.026,3.536-2,8.873,15.681-3.536,2-3.712-6.561-5.84,3.3,3.713,6.562-3.56,2.014-8.874-15.681Z" fill="#fff"/>
        <path id="Path_130" data-name="Path 130" d="M1093.967,965.824a5.677,5.677,0,0,1,1.3,2.2c.487,1.556-.053,2.874-1.86,3.635l-.418.188,2.373,7.579c1.661,5.308-.228,8.673-4.72,10.078-4.338,1.358-7.641-.242-9.358-5.728l-3-9.6,3.9-1.222,3.1,9.9c.927,2.96,2.521,4.114,4.512,3.491,2.041-.639,2.716-2.419,1.766-5.456l-3.1-9.9,2.96-.926c1.047-.328,1.224-.747,1.016-1.411a3.494,3.494,0,0,0-1.071-1.542Z" fill="#fff"/>
        <path id="Path_131" data-name="Path 131" d="M1116.676,964.25a6.037,6.037,0,0,1,.891,2.656,2.685,2.685,0,0,1-2.524,3.189,10.186,10.186,0,0,1,2,5.347c.547,5.884-2.69,9.784-7.935,10.271-5.326.495-8.815-3.237-9.29-8.349-.5-5.379,2.562-9.719,7.861-10.211a10.542,10.542,0,0,1,3.324.228,10.587,10.587,0,0,0,2.723.688c.666-.062.953-.438.887-1.157a3.978,3.978,0,0,0-.767-1.889Zm-3.907,11.723c-.3-3.222-2.1-5.848-4.9-5.588-2.77.257-4.086,3.146-3.777,6.474.288,3.384,2.183,5.867,4.926,5.612S1113.093,979.461,1112.769,975.973Zm-.8-13.194-2.945,3.577-3.249.3,1.933-3.483Z" fill="#fff"/>
        <path id="Path_132" data-name="Path 132" d="M1119.695,984.742l1.98-17.913,4.73.523,2.995,6.976a52.127,52.127,0,0,1,2.245,6.462l.08.009a66.634,66.634,0,0,1,.48-7.506l.579-5.236,3.72.411-1.98,17.913-4.252-.47-3.063-7.333a66.815,66.815,0,0,1-2.41-6.669l-.083.018c-.155,2.377-.381,4.908-.7,7.831l-.6,5.4Z" fill="#fff"/>
        <path id="Path_133" data-name="Path 133" d="M1151.777,990.65a20.2,20.2,0,0,1-6.045-.824c-3.139-.981-5.163-2.482-6.267-4.507a8.727,8.727,0,0,1-.471-7.01c1.813-5.709,6.993-7.676,12.633-5.913a12.412,12.412,0,0,1,4.509,2.333l-1.79,2.858a9.985,9.985,0,0,0-3.775-1.992c-3.241-1.012-6.265.059-7.43,3.786-1.108,3.547.459,6.333,3.649,7.33a5.438,5.438,0,0,0,1.993.342l1.125-3.6-2.654-.829.949-3.037,6.405,2Z" fill="#fff"/>
        <path id="Path_134" data-name="Path 134" d="M1162.528,984.474l1.624.983,3.653-6.04a36,36,0,0,1,4.921,2.507c2.905,1.757,4.522,3.422,5.331,5.443.882,2.158.676,4.72-.97,7.443-1.812,3-4.11,4.42-6.358,4.779-2.441.367-5.313-.464-8.333-2.29a35.441,35.441,0,0,1-3.82-2.622l3.93-6.5-1.625-.983Zm6.521,7.662-3.066-1.854-2.379,3.935a11.541,11.541,0,0,0,1.184.78c3.2,1.937,6.264,1.475,8.547-2.3,2.02-3.341,1.121-6.04-1.9-7.866a8.832,8.832,0,0,0-1.662-.817l-2.144,3.546,3.066,1.854Z" fill="#fff"/>
        <path id="Path_135" data-name="Path 135" d="M1186.764,1005.417l-5.052-4.3-2.772,3.259,5.642,4.8-2.166,2.546-8.758-7.451,11.678-13.727,8.473,7.208-2.166,2.546-5.356-4.557-2.426,2.852,5.051,4.3Zm6.7-13.535-.278,4.082-2.016-1.715.2-2.046-.041-.034-1.988.52-1.976-1.68,3.945-.963Zm6.451,2.61h-4.7l-1.486-1.265,3.523-1.005Z" fill="#fff"/>
        <path id="Path_136" data-name="Path 136" d="M1183.96,1013.114l13.7-11.713,3.094,3.619-2.588,7.138a52.2,52.2,0,0,1-2.784,6.251l.052.061a66.955,66.955,0,0,1,5.486-5.148l4.005-3.423,2.433,2.846-13.7,11.712-2.781-3.252,2.783-7.446a67,67,0,0,1,2.8-6.514l-.072-.044c-1.74,1.628-3.637,3.32-5.873,5.232l-4.126,3.527Z" fill="#fff"/>
      </g>
    </g>
    <g id="Group_45" data-name="Group 45">
      <path id="Path_137" data-name="Path 137" d="M1256.066,1055.391h-8.137v-5.754h23.284v5.754h-8.271v24.543h-6.876Z" fill="#fff"/>
      <path id="Path_138" data-name="Path 138" d="M1281.726,1049.637v11.643h11.282v-11.643h6.832v30.3h-6.832v-12.677h-11.282v12.677h-6.878v-30.3Z" fill="#fff"/>
      <path id="Path_139" data-name="Path 139" d="M1312.869,1072.157l-2.158,7.777h-7.1l9.26-30.3h8.99l9.4,30.3h-7.372l-2.338-7.777Zm4.046-29.667,3.775,5.439h-5.483l-5.484-5.439Zm3.641,24.543-1.888-6.428c-.539-1.8-1.079-4.045-1.529-5.843h-.09c-.449,1.8-.9,4.09-1.394,5.843l-1.8,6.428Z" fill="#fff"/>
      <path id="Path_140" data-name="Path 140" d="M1335.292,1079.934v-30.3h8l6.294,11.1a87.741,87.741,0,0,1,4.944,10.383h.136a112.285,112.285,0,0,1-.585-12.631v-8.855h6.293v30.3h-7.192l-6.473-11.687a112.4,112.4,0,0,1-5.258-10.7l-.136.045c.181,4,.27,8.271.27,13.216v9.125Z" fill="#fff"/>
      <path id="Path_141" data-name="Path 141" d="M1373.179,1049.637v11.643h11.282v-11.643h6.832v30.3h-6.832v-12.677h-11.282v12.677H1366.3v-30.3Z" fill="#fff"/>
      <path id="Path_142" data-name="Path 142" d="M1406.343,1049.637h6.877v24.543h12.046v5.754h-18.923Z" fill="#fff"/>
      <path id="Path_143" data-name="Path 143" d="M1436.632,1072.157l-2.157,7.777h-7.1l9.259-30.3h8.99l9.4,30.3h-7.372l-2.337-7.777Zm7.192-29.667,4.585,5.529h-4.854l-2.248-2.787h-.09l-2.247,2.787H1434.2l4.495-5.529Zm.495,24.543-1.888-6.428c-.54-1.8-1.079-4.045-1.529-5.843h-.088c-.45,1.8-.9,4.09-1.4,5.843l-1.8,6.428Zm-6.518,19.6a3.062,3.062,0,0,1,3.147-3.1,3.005,3.005,0,0,1,3.012,3.1,3.051,3.051,0,0,1-3.012,3.057A3.109,3.109,0,0,1,1437.8,1086.631Z" fill="#fff"/>
      <path id="Path_144" data-name="Path 144" d="M1459.056,1050.042a56.039,56.039,0,0,1,9.259-.629c4.225,0,7.238.808,9.26,2.427a8.856,8.856,0,0,1,3.236,7.012,9.681,9.681,0,0,1-2.786,7.192c-2.337,2.2-5.8,3.192-9.845,3.192a17.218,17.218,0,0,1-2.337-.135v10.833h-6.787Zm6.787,13.755a10.513,10.513,0,0,0,2.292.18c3.641,0,5.889-1.844,5.889-4.945,0-2.787-1.932-4.45-5.349-4.45a11.608,11.608,0,0,0-2.832.27Z" fill="#fff"/>
      <path id="Path_145" data-name="Path 145" d="M1516.495,1079.08a19.535,19.535,0,0,1-7.777,1.3c-10.473,0-15.867-6.518-15.867-15.149,0-10.339,7.372-16.092,16.542-16.092a17.869,17.869,0,0,1,7.461,1.348l-1.393,5.44a14.778,14.778,0,0,0-5.753-1.124c-5.44,0-9.665,3.281-9.665,10.023,0,6.069,3.6,9.889,9.71,9.889a17.1,17.1,0,0,0,5.708-.989Z" fill="#fff"/>
      <path id="Path_146" data-name="Path 146" d="M1547.37,1064.471c0,9.934-6.025,15.957-14.879,15.957-8.99,0-14.249-6.787-14.249-15.418,0-9.079,5.8-15.867,14.744-15.867C1542.29,1049.143,1547.37,1056.11,1547.37,1064.471Zm-21.891.405c0,5.933,2.787,10.114,7.371,10.114,4.63,0,7.283-4.406,7.283-10.294,0-5.439-2.608-10.114-7.328-10.114C1528.176,1054.582,1525.479,1058.987,1525.479,1064.876Zm9.889-22.386,4.539,5.484H1535.1l-2.248-2.787h-.09l-2.246,2.787h-4.81l4.539-5.484Z" fill="#fff"/>
      <path id="Path_147" data-name="Path 147" d="M1551.857,1079.934v-30.3h8l6.294,11.1a87.741,87.741,0,0,1,4.944,10.383h.135a112.545,112.545,0,0,1-.585-12.631v-8.855h6.294v30.3h-7.192l-6.473-11.687a112.637,112.637,0,0,1-5.259-10.7l-.135.045c.181,4,.269,8.271.269,13.216v9.125Z" fill="#fff"/>
      <path id="Path_148" data-name="Path 148" d="M1608.172,1078.54a33.872,33.872,0,0,1-10.112,1.708c-5.53,0-9.531-1.393-12.317-4.09a14.659,14.659,0,0,1-4.27-11.013c.045-10.069,7.371-15.823,17.306-15.823a20.87,20.87,0,0,1,8.4,1.484l-1.439,5.484a16.786,16.786,0,0,0-7.056-1.3c-5.709,0-10.024,3.236-10.024,9.8,0,6.249,3.91,9.934,9.529,9.934a9.171,9.171,0,0,0,3.371-.449v-6.338h-4.675v-5.349h11.282Z" fill="#fff"/>
      <path id="Path_149" data-name="Path 149" d="M1626.684,1055.391h-8.137v-5.754h23.284v5.754h-8.271v24.543h-6.876Z" fill="#fff"/>
      <path id="Path_150" data-name="Path 150" d="M1652.792,1079.934v-12.407l-9.574-17.89h7.821l3.1,7.282c.945,2.2,1.574,3.821,2.339,5.8h.09c.674-1.888,1.393-3.641,2.291-5.8l3.058-7.282h7.687l-9.98,17.666v12.631Z" fill="#fff"/>
      <path id="Path_151" data-name="Path 151" d="M1254.718,1110.713h-.091l-5.574,2.652-1.124-5.124,7.732-3.6h5.664v29.217h-6.607Z" fill="#fff"/>
      <path id="Path_152" data-name="Path 152" d="M1273.1,1128.917a16.075,16.075,0,0,0,2.966,0,11.735,11.735,0,0,0,5.753-1.8,9.073,9.073,0,0,0,3.686-5.394l-.134-.044a7.714,7.714,0,0,1-5.843,2.112,8.8,8.8,0,0,1-9.126-9.125c0-5.708,4.586-10.518,11.014-10.518,7.506,0,11.057,5.753,11.057,12.586,0,6.068-1.933,10.518-5.124,13.44a17.273,17.273,0,0,1-11.148,4.091,23.884,23.884,0,0,1-3.1,0Zm4.135-14.653c0,2.517,1.349,4.674,4.136,4.674a4.305,4.305,0,0,0,3.775-1.932,3.219,3.219,0,0,0,.359-1.709c0-3.1-1.167-6.158-4.27-6.158C1278.9,1109.139,1277.186,1111.207,1277.232,1114.264Z" fill="#fff"/>
      <path id="Path_153" data-name="Path 153" d="M1298.038,1128.917a16.067,16.067,0,0,0,2.965,0,11.735,11.735,0,0,0,5.754-1.8,9.073,9.073,0,0,0,3.686-5.394l-.134-.044a7.714,7.714,0,0,1-5.844,2.112,8.8,8.8,0,0,1-9.125-9.125c0-5.708,4.586-10.518,11.014-10.518,7.506,0,11.057,5.753,11.057,12.586,0,6.068-1.933,10.518-5.125,13.44a17.268,17.268,0,0,1-11.147,4.091,23.886,23.886,0,0,1-3.1,0Zm4.134-14.653c0,2.517,1.35,4.674,4.137,4.674a4.305,4.305,0,0,0,3.775-1.932,3.22,3.22,0,0,0,.359-1.709c0-3.1-1.167-6.158-4.27-6.158C1303.836,1109.139,1302.127,1111.207,1302.172,1114.264Z" fill="#fff"/>
      <path id="Path_154" data-name="Path 154" d="M1320.372,1126.221c0-3.507,2.023-5.934,5.214-7.328v-.134a7.09,7.09,0,0,1-4.225-6.384c0-4.944,4.451-8.225,10.3-8.225,6.832,0,9.664,3.955,9.664,7.506a7.123,7.123,0,0,1-4.227,6.429v.134a7.734,7.734,0,0,1,5.351,7.283c0,5.3-4.451,8.854-11.238,8.854C1323.789,1134.356,1320.372,1130.176,1320.372,1126.221Zm15.1-.225c0-2.563-1.889-4.09-4.585-4.81a4.431,4.431,0,0,0-3.551,4.36,4,4,0,0,0,4.135,4.09A3.67,3.67,0,0,0,1335.476,1126Zm-7.687-13.845c0,1.978,1.8,3.237,4.136,3.956a4,4,0,0,0,2.967-3.732,3.351,3.351,0,0,0-3.552-3.6A3.258,3.258,0,0,0,1327.789,1112.151Z" fill="#fff"/>
      <path id="Path_155" data-name="Path 155" d="M1366.165,1119.792v4.54h-11.777v-4.54Z" fill="#fff"/>
      <path id="Path_156" data-name="Path 156" d="M1373.487,1133.862v-4.136l3.775-3.416c6.383-5.708,9.485-8.99,9.575-12.406,0-2.383-1.438-4.27-4.81-4.27a10.591,10.591,0,0,0-6.248,2.427l-1.932-4.9a16.172,16.172,0,0,1,9.573-3.012c6.609,0,10.25,3.866,10.25,9.17,0,4.9-3.552,8.81-7.777,12.586l-2.7,2.247v.09h11.013v5.619Z" fill="#fff"/>
      <path id="Path_157" data-name="Path 157" d="M1420.005,1119.118c0,9.035-3.641,15.238-11.1,15.238-7.552,0-10.878-6.787-10.924-15.058,0-8.451,3.6-15.148,11.148-15.148C1416.948,1104.15,1420.005,1111.117,1420.005,1119.118Zm-15.148.18c-.045,6.7,1.574,9.889,4.225,9.889s4.091-3.326,4.091-9.979c0-6.473-1.393-9.889-4.136-9.889C1406.52,1109.319,1404.812,1112.511,1404.857,1119.3Z" fill="#fff"/>
      <path id="Path_158" data-name="Path 158" d="M1423.37,1133.862v-4.136l3.775-3.416c6.384-5.708,9.485-8.99,9.575-12.406,0-2.383-1.438-4.27-4.81-4.27a10.591,10.591,0,0,0-6.248,2.427l-1.932-4.9a16.173,16.173,0,0,1,9.574-3.012c6.608,0,10.249,3.866,10.249,9.17,0,4.9-3.551,8.81-7.777,12.586l-2.7,2.247v.09h11.013v5.619Z" fill="#fff"/>
      <path id="Path_159" data-name="Path 159" d="M1447.862,1126.221c0-3.507,2.023-5.934,5.215-7.328v-.134a7.089,7.089,0,0,1-4.226-6.384c0-4.944,4.451-8.225,10.3-8.225,6.832,0,9.664,3.955,9.664,7.506a7.123,7.123,0,0,1-4.225,6.429v.134a7.735,7.735,0,0,1,5.349,7.283c0,5.3-4.451,8.854-11.238,8.854C1451.278,1134.356,1447.862,1130.176,1447.862,1126.221Zm15.1-.225c0-2.563-1.889-4.09-4.585-4.81a4.431,4.431,0,0,0-3.551,4.36,4,4,0,0,0,4.135,4.09A3.67,3.67,0,0,0,1462.966,1126Zm-7.687-13.845c0,1.978,1.8,3.237,4.136,3.956a4,4,0,0,0,2.967-3.732,3.351,3.351,0,0,0-3.551-3.6A3.259,3.259,0,0,0,1455.279,1112.151Z" fill="#fff"/>
    </g>
  </g>
</svg>
