<svg xmlns="http://www.w3.org/2000/svg" xmlns:xlink="http://www.w3.org/1999/xlink" width="395.92" height="321.662" viewBox="0 0 395.92 321.662">
  <defs>
    <linearGradient id="linear-gradient" x1="0.117" y1="0.5" x2="1.117" y2="0.5" gradientUnits="objectBoundingBox">
      <stop offset="0" stop-color="#6e6e6f"/>
      <stop offset="0.522" stop-color="#fff"/>
      <stop offset="0.908" stop-color="#6e6e6f"/>
    </linearGradient>
    <linearGradient id="linear-gradient-2" x1="0.268" y1="0.164" x2="0.75" y2="0.982" gradientUnits="objectBoundingBox">
      <stop offset="0" stop-color="#fff"/>
      <stop offset="0.524" stop-color="#6e6e6f"/>
      <stop offset="0.632" stop-color="#959596"/>
      <stop offset="0.803" stop-color="#cecece"/>
      <stop offset="0.929" stop-color="#f1f1f1"/>
      <stop offset="0.997" stop-color="#fff"/>
    </linearGradient>
    <linearGradient id="linear-gradient-3" x1="0.877" y1="-0.787" x2="0.66" y2="-0.261" gradientUnits="objectBoundingBox">
      <stop offset="0" stop-color="#6e6e6f"/>
      <stop offset="1" stop-color="#fff"/>
    </linearGradient>
    <linearGradient id="linear-gradient-4" x1="0.522" y1="0.587" x2="0.243" y2="0.822" gradientUnits="objectBoundingBox">
      <stop offset="0" stop-color="#fff"/>
      <stop offset="1" stop-color="#6e6e6f"/>
    </linearGradient>
    <linearGradient id="linear-gradient-5" x1="0.211" y1="0.684" x2="0.57" y2="0.313" xlink:href="#linear-gradient-3"/>
    <linearGradient id="linear-gradient-6" x1="0.823" y1="0.698" x2="0.357" y2="0.437" xlink:href="#linear-gradient-3"/>
    <linearGradient id="linear-gradient-7" x1="0.573" y1="0.373" x2="0.362" y2="0.605" xlink:href="#linear-gradient-4"/>
    <linearGradient id="linear-gradient-8" x1="0.041" y1="0.366" x2="0.532" y2="0.662" xlink:href="#linear-gradient-4"/>
    <linearGradient id="linear-gradient-9" x1="0.31" y1="0.724" x2="0.646" y2="0.479" xlink:href="#linear-gradient-3"/>
  </defs>
  <g id="Group_75" data-name="Group 75" transform="translate(-157.803 -1453.027)">
    <g id="Group_71" data-name="Group 71">
      <g id="Group_69" data-name="Group 69">
        <g id="Group_67" data-name="Group 67">
          <path id="Path_303" data-name="Path 303" d="M390.887,1584.555a11.768,11.768,0,0,1,1.027-4.464,34.117,34.117,0,0,1,2.664-5.066q1.635-2.6,3.329-4.829t4.472-5.81q3.07-3.831,4.473-5.825a6.243,6.243,0,0,0,1.4-2.977q0-.79-1.071-.791a6.906,6.906,0,0,0-1.418.19,22.77,22.77,0,0,0-4.69,1.725q-2.258,1.125-5.413,3.087a30.763,30.763,0,0,1-5.5,2.913,1.6,1.6,0,0,0-.29.063h-.318a3.091,3.091,0,0,1-2.055-.9,2.475,2.475,0,0,1-1.014-1.757.881.881,0,0,1,.29-.7q.838-.727,1.129-.728c.115,0,.173.127.173.38q0,.539.319.538a1.771,1.771,0,0,0,.752-.316q2.027-1.3,4.43-2.534t4.921-2.279a35.221,35.221,0,0,1,4.835-1.63,17.067,17.067,0,0,1,4.14-.586,5.278,5.278,0,0,1,3.735,1.171,6,6,0,0,1,1.91,4.5,13.731,13.731,0,0,1-1.722,6.159q-1.724,3.37-5.168,8.754-2.142,3.23-3.532,5.525a37.248,37.248,0,0,0-2.345,4.512,6.678,6.678,0,0,0-.753,2.216q0,.444.348.444a5.015,5.015,0,0,0,1.939-.855,18.808,18.808,0,0,0,3.692-2.993q2.128-2.1,5.746-5.936,2.721-2.913,4.719-4.955T420,1567a26.525,26.525,0,0,1,3.632-2.8,5.783,5.783,0,0,1,2.924-1.045,1.97,1.97,0,0,1,.956.222q2.025,1.014,2.026,4.338a22.378,22.378,0,0,1-.825,5.493q-.825,3.183-2.446,7.868a.505.505,0,0,1-.058.19v.127c0,.253.115.38.347.38l.2-.064a.418.418,0,0,1,.174-.063q1.187-.76,3.676-2.279,1.652-.951,2.316-1.425a1.074,1.074,0,0,1,.58-.254c.115,0,.173.064.173.19,0,.36-.232.665-.695.918q-1.563.92-3.662,2.438t-3.691,2.818l-.116.064a5.258,5.258,0,0,0-1.679,1.995,70.281,70.281,0,0,1-3.576,7.567q-2.04,3.735-4.183,6.934a58.21,58.21,0,0,1-4.1,5.477,20.909,20.909,0,0,1-3.315,3.262,1.356,1.356,0,0,1-.84.316q-1.3,0-2.519-1.916a7.982,7.982,0,0,1-1.331-3.783,10.625,10.625,0,0,1,1.245-4.718,26.268,26.268,0,0,1,3.228-4.923,46.225,46.225,0,0,1,4.241-4.528,52.635,52.635,0,0,1,4.284-3.625,8.978,8.978,0,0,0,1.622-1.282,12.732,12.732,0,0,0,1.331-1.821,42.649,42.649,0,0,0,4.358-8.549,21.347,21.347,0,0,0,1.635-6.807q0-1.616-.782-1.615a2.51,2.51,0,0,0-1.476.823q-.522.54-1.5,1.757t-3.069,4.1q-3.012,4.085-5.269,7t-4.95,5.889a39.861,39.861,0,0,1-5.1,4.829,7.289,7.289,0,0,1-4.169,1.852.659.659,0,0,1-.26-.063h-.231a10.452,10.452,0,0,1-3.315-1.235,22.422,22.422,0,0,1-3.258-2.47A5.268,5.268,0,0,1,390.887,1584.555Z" fill="#fff"/>
          <path id="Path_304" data-name="Path 304" d="M439.842,1583.922q-.551,0-.55-.317a1.058,1.058,0,0,1,.275-.633,2.43,2.43,0,0,1,.564-.538,40.165,40.165,0,0,0,4.386-3.768,5.446,5.446,0,0,0,1.665-3.1q0-.727-.608-.728a2.856,2.856,0,0,0-1.3.506,16.441,16.441,0,0,0-2.75,2.058,26.336,26.336,0,0,0-3.141,3.4,23.708,23.708,0,0,0-2.794,4.607,19.133,19.133,0,0,0-1.621,5.382v.254l-.058.19q0,1.172,1.245,1.171a9.078,9.078,0,0,0,3.677-1.266,44.578,44.578,0,0,0,5.211-3.246q2.779-1.978,5.327-4.147a36.742,36.742,0,0,0,3.937-3.784.484.484,0,0,1,.347-.19c.154,0,.232.106.232.317a.886.886,0,0,1-.174.506,37.755,37.755,0,0,1-3.676,4.718,44.171,44.171,0,0,1-4.72,4.512,27.121,27.121,0,0,1-5.037,3.34,10.387,10.387,0,0,1-4.6,1.267,4.834,4.834,0,0,1-4.429-2.724,7.112,7.112,0,0,1-.9-3.577,11.815,11.815,0,0,1,.565-3.5,25.575,25.575,0,0,1,1.52-3.752,30.548,30.548,0,0,1,2.141-3.657,36.706,36.706,0,0,1,2.679-3.5,19.068,19.068,0,0,1,2.822-2.691,4.449,4.449,0,0,1,2.606-1.076,2,2,0,0,1,1.3.475,16.126,16.126,0,0,1,2.576,2.3,19.983,19.983,0,0,1,1.94,2.676,2.444,2.444,0,0,1,.348,1.234,3.562,3.562,0,0,1-.826,2.185,11.337,11.337,0,0,1-2.127,2.074,19.306,19.306,0,0,1-2.708,1.741,23.08,23.08,0,0,1-2.474,1.156A4.46,4.46,0,0,1,439.842,1583.922Z" fill="#fff"/>
          <path id="Path_305" data-name="Path 305" d="M467.778,1568.091a2.963,2.963,0,0,1,2.2,1.108,12.363,12.363,0,0,1,2.026,3.641,1.208,1.208,0,0,1,.174.57.387.387,0,0,1-.434.443.967.967,0,0,1-.753-.443,1.536,1.536,0,0,0-1.3-.57,8.1,8.1,0,0,0-3.561,1.187,28.114,28.114,0,0,0-4.545,3.135,37.011,37.011,0,0,0-4.242,4.116,16.518,16.518,0,0,0-2.735,4.069,2.343,2.343,0,0,0-.232.981q0,.823.608.823a2.206,2.206,0,0,0,1.245-.7q1.13-.981,3.3-3.072,3.271-3.039,5.226-4.717a13.763,13.763,0,0,1,2.91-2.09,3.068,3.068,0,0,1,1.186-.253,2.417,2.417,0,0,1,2.071,1.076,4.006,4.006,0,0,1,.767,2.375,3.5,3.5,0,0,1-.116.886,7.392,7.392,0,0,1-.71,1.726q-.535,1-1.491,2.771-.984,1.867-1.52,2.976a19.261,19.261,0,0,0-.825,1.931,2.251,2.251,0,0,0-.144.728q0,.76.492.76a.974.974,0,0,0,.579-.316q.781-.633,1.969-1.8t2.46-2.5q1.273-1.329,2.49-2.691t1.911-2.279q.549-.7.956-.7c.154,0,.23.106.23.317a1.206,1.206,0,0,1-.173.57,22.79,22.79,0,0,1-1.563,2.058q-1.1,1.329-2.548,2.913t-2.779,2.912q-1.332,1.33-2.287,2.185a2.944,2.944,0,0,1-1.969.855,2.672,2.672,0,0,1-2.186-1.14,5.169,5.169,0,0,1-.882-3.229,15.883,15.883,0,0,1,2.373-7.441,1.947,1.947,0,0,0,.29-.792c0-.168-.078-.253-.232-.253a1.054,1.054,0,0,0-.434.127,13.58,13.58,0,0,0-2.953,2.6q-1.476,1.679-3.735,4.591a50.288,50.288,0,0,1-5.094,5.985,2.707,2.707,0,0,1-1.853.759,3.556,3.556,0,0,1-2.809-1.709,6.127,6.127,0,0,1-1.273-3.737,4.875,4.875,0,0,1,.289-1.678,25.584,25.584,0,0,1,3.416-6.19,40.1,40.1,0,0,1,4.806-5.445,51.637,51.637,0,0,1,4.951-4.148,31.744,31.744,0,0,1,3.85-2.486A5.946,5.946,0,0,1,467.778,1568.091Z" fill="#fff"/>
          <path id="Path_306" data-name="Path 306" d="M473.887,1584.618c-.194,0-.29-.105-.29-.316a1.31,1.31,0,0,1,.463-.792q.666-.633,1.549-1.6t1.607-1.82a17.413,17.413,0,0,0,1.216-1.6,2.815,2.815,0,0,0,.492-.934,9.641,9.641,0,0,1-1.187-4.085,5.072,5.072,0,0,1,1.158-3.166,17.463,17.463,0,0,1,3.821-3.324,1.5,1.5,0,0,1,.782-.191.86.86,0,0,1,.782.317q2.17,2.6,2.171,3.958,0,1.551-2.721,3.958c-.232.169-.347.327-.347.475,0,.169.1.253.289.253a1.45,1.45,0,0,0,.492-.127,11.918,11.918,0,0,1,4.082-1.044,3.8,3.8,0,0,1,1.925.49,10.691,10.691,0,0,1,1.925,1.5,2.428,2.428,0,0,1,.522,1.647,7.389,7.389,0,0,1-.347,2.058,18.444,18.444,0,0,1-.913,2.406q-.564,1.234-1.187,2.327t-1.23,2.074l-.4.728a2.162,2.162,0,0,0-.29.823c0,.127.038.19.116.19a2.108,2.108,0,0,0,.781-.443q.81-.7,2.143-1.836t2.2-1.916q.869-.776,5.674-5.05.81-.79,1.65-1.52a1.145,1.145,0,0,1,.724-.38c.232,0,.347.106.347.317a1.048,1.048,0,0,1-.4.728q-1.679,1.551-3.72,3.657t-5.138,5.367q-1.71,1.678-2.866,2.913t-1.8,1.8q-1.968,1.962-3.56,1.963a.925.925,0,0,1-.666-.222,10.555,10.555,0,0,1-2.244-2.327,3.849,3.849,0,0,1-.651-2.074,9.492,9.492,0,0,1,.579-2.6v-.064a11.409,11.409,0,0,1,1.259-2.375q.883-1.329,2.476-3.514,1.562-2.025,2.33-3.182a3.714,3.714,0,0,0,.767-1.82q0-.444-.666-.444h-.232a1.526,1.526,0,0,1-.4.063,8.738,8.738,0,0,0-2.982,1.3,11.552,11.552,0,0,1-2.779,1.235,3.049,3.049,0,0,0-1.361.76q-.636.6-2.084,2.089-1.822,1.932-2.548,2.6A2.248,2.248,0,0,1,473.887,1584.618Z" fill="#fff"/>
          <path id="Path_307" data-name="Path 307" d="M506.167,1569.642a.815.815,0,0,1,.376-.19q.289,0,.767.491a18.368,18.368,0,0,1,1.491,1.915,4.374,4.374,0,0,1,1.043,2.343q0,1.362-2.78,2.85-.289.127-1.245.633-2.084.983-2.084,1.552a1.292,1.292,0,0,0,.376.791,3.66,3.66,0,0,1,.4.507,17.326,17.326,0,0,1,2.128,2.754,5.086,5.086,0,0,1,.71,2.628v.412a2.736,2.736,0,0,0-.058.443,10.077,10.077,0,0,0,.969-.775q.594-.523,1.781-1.5t2.548-2.138q1.36-1.155,2.113-1.884a1.108,1.108,0,0,1,.666-.316c.193,0,.289.084.289.253a1.017,1.017,0,0,1-.289.6q-.551.57-1.491,1.472t-2.909,2.866q-2.057,1.93-2.924,2.786a4.208,4.208,0,0,0-.869.981,4.524,4.524,0,0,1-1.085,2.787,8.4,8.4,0,0,1-2.665,2.074,15.556,15.556,0,0,1-3.5,1.282,14.868,14.868,0,0,1-3.4.443,5.047,5.047,0,0,1-2.75-.57,1.222,1.222,0,0,1-.521-1.045,2.48,2.48,0,0,1,.781-1.614,21.754,21.754,0,0,1,3.3-2.66,36.453,36.453,0,0,0,4.545-3.689,4.462,4.462,0,0,0,1.563-3.055,2.653,2.653,0,0,0-.463-1.425c-.116-.169-.337-.454-.666-.855a26.375,26.375,0,0,1-1.954-2.8,4.529,4.529,0,0,1-.652-2.3,4.416,4.416,0,0,1,1.39-3.023,14.345,14.345,0,0,1,4.719-2.9A1.744,1.744,0,0,1,506.167,1569.642Z" fill="#fff"/>
        </g>
        <g id="Group_68" data-name="Group 68">
          <path id="Path_308" data-name="Path 308" d="M549.118,1582.489c-3.433,28.017-18.7,46.234-24.33,52.773-16.565,19.238-35.5,27.03-44.206,30.5-24.851,9.89-46.214,8.8-61,7.882-18.3-1.138-36.276-4.8-53.129-12.186-21.253-9.328-39.546-24.591-56.687-39.963-14.468-12.988-29.217-26.133-47.475-33.521-8.423-3.413-20.732-8.245-37.009-7.539-8.978.39-27.483,1.185-38.38,14.735a29.752,29.752,0,0,0-7.06,17.73c-.486,14.578,11.816,24.79,12.193,25.1a33.565,33.565,0,0,1-14.043-14.043c-7.464-14.756.055-30.176,1.713-33.583,9.835-20.177,32.6-26.071,40.437-28.1,19.491-5.045,40.032-1.94,58.1,6.538,18.635,8.738,33.555,23.59,48.359,37.53,16.531,15.565,33.226,31.472,53.074,42.794a119.562,119.562,0,0,0,58.948,15.558,111.068,111.068,0,0,0,56.008-14.351c37.386-21.514,59.092-69.853,48.99-108.8a75.244,75.244,0,0,0-7.868-19.018l.534-.371C543.4,1534.6,552.353,1556.089,549.118,1582.489Z" fill="url(#linear-gradient)"/>
          <path id="Path_309" data-name="Path 309" d="M182.792,1607.5a28.63,28.63,0,0,1,5.334-9.335,39.663,39.663,0,0,1,8.109-7.215,66.562,66.562,0,0,1,9.581-5.169l2.552-.976,1.278-.488c.43-.152.872-.268,1.308-.4l2.628-.783c.886-.222,1.785-.4,2.679-.6l1.343-.291c.45-.082.906-.129,1.36-.195l2.726-.368,2.747-.17c.458-.024.916-.065,1.375-.074l1.376.013a59.676,59.676,0,0,1,10.949,1.03l2.7.553c.9.177,1.775.453,2.663.681,1.783.438,3.5,1.062,5.248,1.619a96.187,96.187,0,0,1,10.089,4.25,134.035,134.035,0,0,1,18.69,11.179c5.933,4.159,11.594,8.655,17.139,13.257s10.886,9.415,16.25,14.153c1.335,1.2,2.685,2.354,4.039,3.5l4.054,3.454c1.349,1.153,2.771,2.215,4.153,3.327,1.4,1.092,2.77,2.219,4.187,3.283a208.049,208.049,0,0,0,36.107,22.257c1.567.826,3.207,1.486,4.824,2.2l4.863,2.119,4.968,1.851c1.659.609,3.3,1.276,5,1.757,3.379,1.028,6.73,2.173,10.183,2.939l5.143,1.293,5.212.982c3.462.755,6.989,1.062,10.5,1.528,1.752.269,3.523.319,5.289.435l5.3.34c1.77.033,3.543.011,5.316.02l2.66,0h1.331c.444-.009.886-.051,1.328-.076l5.314-.34,2.66-.17,2.662-.26a131.9,131.9,0,0,0,20.921-4.09c3.449-.926,6.875-1.955,10.286-3.038,3.418-1.067,6.82-2.2,10.221-3.329-3.317,1.359-6.635,2.715-9.981,4.013-3.351,1.283-6.73,2.5-10.145,3.628a128.194,128.194,0,0,1-21.011,5.154c-.893.132-1.78.259-2.675.369l-2.7.271-5.4.542c-.45.041-.9.1-1.351.126l-1.355.049-2.712.1c-1.809.057-3.619.144-5.43.175l-5.431-.166c-1.811-.072-3.628-.078-5.427-.305-3.6-.38-7.234-.606-10.8-1.284l-5.375-.87-5.313-1.187c-3.565-.716-7.018-1.846-10.509-2.845-1.757-.469-3.45-1.124-5.164-1.722l-5.132-1.823-5.024-2.093c-1.671-.707-3.367-1.361-4.986-2.181a208.517,208.517,0,0,1-37.08-22.553c-1.441-1.094-2.833-2.248-4.252-3.37-1.4-1.14-2.847-2.232-4.216-3.413l-4.109-3.537c-1.376-1.176-2.74-2.358-4.065-3.559-5.339-4.791-10.671-9.54-16.066-14.2-10.793-9.268-22.083-18.017-34.574-24.559a92.72,92.72,0,0,0-9.6-4.342c-1.654-.573-3.29-1.218-4.978-1.678-.842-.235-1.671-.53-2.521-.73l-2.549-.62a56.752,56.752,0,0,0-10.378-1.354l-1.309-.061c-.437-.007-.873.017-1.31.024l-2.622.067-2.61.258c-.435.047-.873.075-1.3.138l-1.295.221c-.862.153-1.731.279-2.59.453l-2.555.636c-.425.111-.856.2-1.277.329l-1.252.414-2.509.829-2.444,1.014a25.535,25.535,0,0,0-2.417,1.084c-1.572.807-3.194,1.541-4.693,2.467a38.946,38.946,0,0,0-8.284,6.582A28.261,28.261,0,0,0,182.792,1607.5Z" fill="url(#linear-gradient-2)"/>
          <path id="Path_310" data-name="Path 310" d="M317.594,1673.64a167.28,167.28,0,0,1-24.759,10.237,162.976,162.976,0,0,1-26.228,6.014c-2.221.383-4.462.58-6.7.818l-3.365.346-3.394.245c-4.527.293-9.061.452-13.592.44a137.02,137.02,0,0,1-27-2.529,83.812,83.812,0,0,1-25.417-9.273,62.82,62.82,0,0,1-20.1-18.29,63.7,63.7,0,0,0,19.2,19.746,86.388,86.388,0,0,0,25.533,11.152,141.282,141.282,0,0,0,27.613,4.332c4.653.3,9.314.427,13.971.415l3.492-.034,3.509-.14c2.341-.1,4.689-.165,7.022-.417a170.8,170.8,0,0,0,27.814-4.586,176.822,176.822,0,0,0,26.782-9.172,180.577,180.577,0,0,0,26.071-13.982q-5.716-3.111-11.4-6.681A169.245,169.245,0,0,1,317.594,1673.64Z" fill="url(#linear-gradient-3)"/>
          <path id="Path_311" data-name="Path 311" d="M364.071,1592.769c0-42.14-40.761-53.453-40.779-53.458,1.61.447,4.8-.752,6.367-1.062a124.789,124.789,0,0,0,15.7-4.178c13.356-4.51,26.942-11.564,35.38-23.235,7.682-10.626,9-25.658.329-36.145-7.047-8.527-18.3-12.421-29.544-14.305q-1.821-.3-3.635-.54l3.5,1.334c18.772,9.6,28.813,27.4,13.709,45.313-17.005,20.168-46.308,31.659-71.279,38.3,0,0,15.241-2.823,28.155,6.591a37.094,37.094,0,0,1,11.939,15c5.819,12.765,2.844,25.049,1.713,29.813a46.941,46.941,0,0,1-2.875,8.4c7.641,7.194,15.42,14.472,23.561,21.262C366.545,1607.279,364.071,1592.769,364.071,1592.769Z" fill="url(#linear-gradient-4)"/>
          <path id="Path_312" data-name="Path 312" d="M381.006,1624.446a83.58,83.58,0,0,0,2.676-15.908,78.5,78.5,0,0,0-.75-16.018,66.434,66.434,0,0,0-11.724-29.067,52.8,52.8,0,0,0-10.936-11.038,53.345,53.345,0,0,0-13.45-7.278,52.442,52.442,0,0,1,12.35,8.592,50.169,50.169,0,0,1,9.173,11.608,61.3,61.3,0,0,1,7.77,27.9,70.84,70.84,0,0,1-.942,14.314,74.15,74.15,0,0,1-3.937,13.7,79.728,79.728,0,0,1-5.849,11.83c3.217,2.422,6.5,4.74,9.859,6.925A91.621,91.621,0,0,0,381.006,1624.446Z" fill="url(#linear-gradient-5)"/>
          <path id="Path_313" data-name="Path 313" d="M279.771,1542.738a132.02,132.02,0,0,0,38.873-15.98c9.949-6.213,20.613-13.173,26.448-23.69,9.816-17.689-10.373-26.511-25.068-26.344a92.719,92.719,0,0,0-45.677,13.2,129.012,129.012,0,0,0-16.6,11.988c-1.245,1.055-5.667,3.818-6.074,5.531,6.511-27.412-14.731-47.629-14.735-47.632,4.538,4.318,13.358,3.851,19.165,4.114,13.937.631,27.629-.933,41.43-2.644,13.659-1.694,27.52-3.941,41.043-.4,14.343,3.753,26.858,12.891,27.895,28.745,2.4,36.667-105.545,58.6-105.545,58.6Z" fill="url(#linear-gradient-6)"/>
          <path id="Path_314" data-name="Path 314" d="M537.127,1548.771c-8.975-45.063-53.537-77.483-99.255-68.924-21.349,4-41.371,17.306-51.681,36.88a60.219,60.219,0,0,0-6.7,35.177c-.9-7.225,6.5-19,10.437-24.79a70.518,70.518,0,0,1,19.253-18.973c28.921-19.211,67.388-13.959,91.616,10.609,26.431,26.8,29.97,74.946,3.076,102.7-20.983,21.657-55.814,27.752-84.291,20.661a95.2,95.2,0,0,1-33.416-15.777,97.41,97.41,0,0,1-5.39,14.76c.812.457,1.635.911,2.482,1.36a115.449,115.449,0,0,0,89.031,7.492C514.754,1636.073,546.2,1594.337,537.127,1548.771Z" fill="url(#linear-gradient-7)"/>
          <path id="Path_315" data-name="Path 315" d="M317.4,1648.73q-.729-.586-1.462-1.169l-.075-.059c-.471-.384-.947-.761-1.424-1.139-.959-.76-1.951-1.547-2.947-2.407l-4.1-3.528c-1.235-1.057-2.716-2.333-4.2-3.676l-.305-.273A160.409,160.409,0,0,1,277.03,1650c-27.558,11.593-53.825,11.751-72.324,9.557a58.8,58.8,0,0,1-19.172-8.872,53.154,53.154,0,0,1-20.9-33.935,51.007,51.007,0,0,1,2.272-25.552,47.287,47.287,0,0,1,17.947-22.756,44.833,44.833,0,0,0-18.279,15.5c-10.652,15.381-8.992,32.166-8.107,40.354a61.523,61.523,0,0,0,24.388,42.659c15.547,11.428,37.619,15.977,56.485,17.311,16.076,1.136,32.086-1.688,46.546-6.139q3.946-1.215,7.729-2.578a171.248,171.248,0,0,0,34.417-18.953q-3.871-2.682-7.707-5.566C319.293,1650.249,318.331,1649.477,317.4,1648.73Z" fill="url(#linear-gradient-8)"/>
          <path id="Path_316" data-name="Path 316" d="M506.132,1532.822a67.942,67.942,0,0,0-28.322-26.607,60.023,60.023,0,0,0-9.827-3.835c-33.657-9.738-75.691,9.975-85.033,45.161,1.582-5.959,7.163-12.226,11.089-16.648a74.164,74.164,0,0,1,39.417-23.136c27.355-6.063,58.354,4.387,73.758,28.817l2.1,3.393Z" fill="url(#linear-gradient-9)"/>
        </g>
      </g>
      <g id="Group_70" data-name="Group 70">
        <path id="Path_317" data-name="Path 317" d="M405.65,1468.382l-4.264,2.148-1.519-3.015,12.2-6.148,1.519,3.016-4.335,2.183,6.48,12.864-3.6,1.816Z" fill="#fff"/>
        <path id="Path_318" data-name="Path 318" d="M433.646,1463.653c1.649,5.592-.743,9.982-5.728,11.452-5.061,1.491-9.147-1.457-10.579-6.316-1.507-5.111.632-9.894,5.667-11.378C428.244,1455.867,432.259,1458.947,433.646,1463.653Zm-12.255,3.86c.984,3.34,3.246,5.231,5.828,4.47,2.606-.768,3.368-3.688,2.391-7-.9-3.062-3.146-5.261-5.8-4.478C421.2,1461.271,420.414,1464.2,421.391,1467.513Z" fill="#fff"/>
        <path id="Path_319" data-name="Path 319" d="M440.548,1471.788l-5.183-17.526,4.3-.234,1.742,7.25c.51,2.087,1,4.358,1.391,6.134l.053,0c.185-1.939.49-4.1.819-6.307l1.1-7.353,4.268-.232,1.83,7.4c.508,2.06.9,3.941,1.273,5.9l.053,0c.156-1.99.437-4.092.691-6.22l1.052-7.35,4.084-.223-3.616,18.006-4.347.237-1.918-7.558c-.44-1.773-.82-3.416-1.142-5.433l-.052,0c-.207,2.02-.405,3.721-.729,5.536l-1.27,7.732Z" fill="#fff"/>
        <path id="Path_320" data-name="Path 320" d="M463.567,1467.336l-1.939,4.321-4.121-.627,8.049-16.761,5.216.795,2.775,18.408-4.278-.652-.668-4.718Zm4.912-2.3-.527-3.9c-.155-1.09-.269-2.442-.371-3.525l-.052-.008c-.42,1-.884,2.294-1.325,3.267l-1.611,3.571Z" fill="#fff"/>
        <path id="Path_321" data-name="Path 321" d="M480.723,1457.413a35.444,35.444,0,0,1,5.192,1.367c2.5.845,4.122,1.812,5,3.168a4.515,4.515,0,0,1,.358,4.048,4.721,4.721,0,0,1-4.378,3.144l-.026.075c1.015.872,1.284,2.217,1.185,3.91-.118,2.077-.337,4.454-.232,5.214l-3.9-1.319a22.186,22.186,0,0,1,.153-4.321c.26-2.252-.271-3.072-1.812-3.622l-1.15-.388-2.241,6.624-3.774-1.277Zm1.322,8.526,1.5.507c1.9.643,3.346.073,3.845-1.4.524-1.55-.265-2.68-2.005-3.3a10.03,10.03,0,0,0-1.768-.458Z" fill="#fff"/>
        <path id="Path_322" data-name="Path 322" d="M497.582,1463.535a35.862,35.862,0,0,1,4.946,2.281c2.964,1.618,4.594,3.2,5.479,5.156a7.863,7.863,0,0,1-.572,7.322,9.018,9.018,0,0,1-6.045,4.9c-2.39.468-5.244-.249-8.3-1.919a34.846,34.846,0,0,1-3.878-2.418Zm-3.413,14.667a7.417,7.417,0,0,0,1.19.74c3.182,1.768,6.226,1.147,8.262-2.58,1.794-3.229.831-5.979-2.2-7.635a8.358,8.358,0,0,0-1.673-.734Z" fill="#fff"/>
        <path id="Path_323" data-name="Path 323" d="M507.111,1484.543a10.251,10.251,0,0,0,2.836,3.612c1.456,1.135,2.7,1.131,3.409.216.681-.874.4-1.892-.812-3.808-1.7-2.627-2.212-5.1-.623-7.139,1.863-2.392,5.286-2.667,8.6-.091a10.886,10.886,0,0,1,3.027,3.495l-2.7,2.008a8.454,8.454,0,0,0-2.415-2.951c-1.372-1.069-2.525-.964-3.092-.235-.7.894-.214,1.905,1.061,4,1.763,2.845,1.924,5.042.384,7.018-1.831,2.352-5.2,2.939-9.045-.059a11.635,11.635,0,0,1-3.311-3.948Z" fill="#fff"/>
      </g>
    </g>
    <g id="Group_74" data-name="Group 74">
      <g id="Group_72" data-name="Group 72">
        <path id="Path_324" data-name="Path 324" d="M158.444,1715.991h12.831v3.893h-8.066v4.8h7.537v3.862h-7.537v8.44h-4.765Z" fill="#fff"/>
        <path id="Path_325" data-name="Path 325" d="M194.068,1726.268c0,6.883-4.172,11.056-10.307,11.056-6.23,0-9.873-4.7-9.873-10.682,0-6.291,4.017-10.993,10.215-10.993C190.55,1715.649,194.068,1720.476,194.068,1726.268Zm-15.166.281c0,4.11,1.931,7.007,5.108,7.007,3.207,0,5.045-3.052,5.045-7.132,0-3.768-1.807-7.007-5.076-7.007C180.771,1719.417,178.9,1722.469,178.9,1726.549Z" fill="#fff"/>
        <path id="Path_326" data-name="Path 326" d="M201.911,1715.991v12.084c0,3.612,1.37,5.45,3.8,5.45,2.491,0,3.861-1.744,3.861-5.45v-12.084h4.735v11.772c0,6.478-3.271,9.561-8.752,9.561-5.294,0-8.408-2.927-8.408-9.623v-11.71Z" fill="#fff"/>
        <path id="Path_327" data-name="Path 327" d="M218.413,1736.982v-20.991h5.543l4.36,7.692a60.678,60.678,0,0,1,3.426,7.2h.094a77.775,77.775,0,0,1-.4-8.752v-6.135h4.36v20.991h-4.983l-4.485-8.1a77.625,77.625,0,0,1-3.643-7.412l-.094.032c.125,2.771.187,5.73.187,9.155v6.323Z" fill="#fff"/>
        <path id="Path_328" data-name="Path 328" d="M239.9,1716.271a42.41,42.41,0,0,1,6.415-.435c3.986,0,6.571.716,8.6,2.242,2.18,1.619,3.551,4.2,3.551,7.91,0,4.018-1.464,6.79-3.488,8.5-2.211,1.838-5.575,2.709-9.686,2.709a41.052,41.052,0,0,1-5.387-.311Zm4.764,17.129a8.776,8.776,0,0,0,1.651.093c4.3.032,7.1-2.335,7.1-7.349.031-4.36-2.522-6.665-6.6-6.665a9.836,9.836,0,0,0-2.15.187Z" fill="#fff"/>
        <path id="Path_329" data-name="Path 329" d="M265.96,1731.594l-1.495,5.388h-4.921l6.416-20.991h6.229l6.508,20.991H273.59l-1.62-5.388Zm5.325-3.55-1.307-4.454c-.374-1.246-.748-2.8-1.06-4.049h-.062c-.311,1.246-.622,2.835-.965,4.049l-1.246,4.454Z" fill="#fff"/>
        <path id="Path_330" data-name="Path 330" d="M282.96,1719.977h-5.638v-3.986h16.133v3.986h-5.73v17.005H282.96Z" fill="#fff"/>
        <path id="Path_331" data-name="Path 331" d="M300.738,1715.991v20.991h-4.764v-20.991Z" fill="#fff"/>
        <path id="Path_332" data-name="Path 332" d="M324.063,1726.268c0,6.883-4.173,11.056-10.308,11.056-6.229,0-9.873-4.7-9.873-10.682,0-6.291,4.018-10.993,10.215-10.993C320.544,1715.649,324.063,1720.476,324.063,1726.268Zm-15.166.281c0,4.11,1.93,7.007,5.107,7.007,3.207,0,5.045-3.052,5.045-7.132,0-3.768-1.807-7.007-5.076-7.007C310.765,1719.417,308.9,1722.469,308.9,1726.549Z" fill="#fff"/>
        <path id="Path_333" data-name="Path 333" d="M327.173,1736.982v-20.991h5.543l4.36,7.692a60.838,60.838,0,0,1,3.426,7.2h.094a77.771,77.771,0,0,1-.4-8.752v-6.135h4.36v20.991h-4.983l-4.485-8.1a77.625,77.625,0,0,1-3.643-7.412l-.094.032c.125,2.771.186,5.73.186,9.155v6.323Z" fill="#fff"/>
        <path id="Path_334" data-name="Path 334" d="M359.836,1731.594l-1.495,5.388H353.42l6.416-20.991h6.229l6.508,20.991h-5.107l-1.619-5.388Zm5.325-3.55-1.308-4.454c-.373-1.246-.747-2.8-1.059-4.049h-.062c-.311,1.246-.622,2.835-.965,4.049l-1.246,4.454Z" fill="#fff"/>
        <path id="Path_335" data-name="Path 335" d="M375.371,1736.982v-20.991h5.543l4.361,7.692a60.832,60.832,0,0,1,3.425,7.2h.094a78.009,78.009,0,0,1-.4-8.752v-6.135h4.36v20.991h-4.983l-4.484-8.1a77.392,77.392,0,0,1-3.644-7.412l-.094.032c.125,2.771.187,5.73.187,9.155v6.323Z" fill="#fff"/>
        <path id="Path_336" data-name="Path 336" d="M396.856,1736.982v-20.991H402.4l4.36,7.692a60.992,60.992,0,0,1,3.426,7.2h.094a77.77,77.77,0,0,1-.406-8.752v-6.135h4.361v20.991H409.25l-4.484-8.1a77.863,77.863,0,0,1-3.644-7.412l-.093.032c.125,2.771.186,5.73.186,9.155v6.323Z" fill="#fff"/>
        <path id="Path_337" data-name="Path 337" d="M423.1,1715.991v20.991h-4.765v-20.991Z" fill="#fff"/>
        <path id="Path_338" data-name="Path 338" d="M432.164,1736.982l-6.726-20.991h5.2l2.554,8.876c.716,2.492,1.37,4.89,1.868,7.505h.094c.529-2.522,1.183-5.013,1.9-7.412l2.679-8.969h5.045l-7.07,20.991Z" fill="#fff"/>
        <path id="Path_339" data-name="Path 339" d="M459.5,1728.106h-7.723v4.983h8.627v3.893H447.016v-20.991h12.955v3.893h-8.19v4.36H459.5Z" fill="#fff"/>
        <path id="Path_340" data-name="Path 340" d="M463.643,1716.271a41.729,41.729,0,0,1,6.322-.435c3.114,0,5.294.466,6.789,1.65a5.331,5.331,0,0,1,1.931,4.391,5.57,5.57,0,0,1-3.706,5.17v.093c1.464.592,2.273,1.994,2.8,3.925.654,2.366,1.308,5.107,1.713,5.917h-4.859a26.255,26.255,0,0,1-1.464-4.89c-.56-2.616-1.464-3.332-3.394-3.363h-1.433v8.253h-4.7Zm4.7,9.032h1.869c2.366,0,3.768-1.184,3.768-3.021,0-1.931-1.308-2.9-3.488-2.927a11.909,11.909,0,0,0-2.149.155Z" fill="#fff"/>
        <path id="Path_341" data-name="Path 341" d="M482.262,1732.092a12.113,12.113,0,0,0,5.264,1.308c2.179,0,3.332-.9,3.332-2.273,0-1.308-1-2.056-3.52-2.959-3.487-1.215-5.76-3.145-5.76-6.2,0-3.581,2.989-6.321,7.941-6.321a12.871,12.871,0,0,1,5.356,1.058l-1.058,3.831a9.979,9.979,0,0,0-4.392-1c-2.055,0-3.052.935-3.052,2.025,0,1.339,1.184,1.931,3.893,2.959,3.706,1.37,5.45,3.3,5.45,6.259,0,3.519-2.709,6.509-8.471,6.509a13.733,13.733,0,0,1-5.948-1.277Z" fill="#fff"/>
        <path id="Path_342" data-name="Path 342" d="M503.81,1731.594l-1.495,5.388h-4.921l6.416-20.991h6.228l6.509,20.991H511.44l-1.62-5.388Zm5.325-3.55-1.307-4.454c-.374-1.246-.749-2.8-1.06-4.049H506.7c-.31,1.246-.622,2.835-.964,4.049l-1.246,4.454Z" fill="#fff"/>
        <path id="Path_343" data-name="Path 343" d="M519.345,1716.271a41.74,41.74,0,0,1,6.322-.435c3.115,0,5.294.466,6.789,1.65a5.328,5.328,0,0,1,1.931,4.391,5.57,5.57,0,0,1-3.706,5.17v.093c1.464.592,2.274,1.994,2.8,3.925.654,2.366,1.308,5.107,1.713,5.917h-4.859a26.33,26.33,0,0,1-1.464-4.89c-.56-2.616-1.463-3.332-3.394-3.363h-1.433v8.253h-4.7Zm4.7,9.032h1.869c2.367,0,3.768-1.184,3.768-3.021,0-1.931-1.308-2.9-3.487-2.927a11.915,11.915,0,0,0-2.15.155Z" fill="#fff"/>
        <path id="Path_344" data-name="Path 344" d="M542.076,1736.982v-8.6l-6.634-12.4h5.419l2.148,5.045c.655,1.526,1.091,2.647,1.62,4.018h.063c.467-1.308.965-2.523,1.588-4.018l2.118-5.045h5.325l-6.914,12.239v8.752Z" fill="#fff"/>
      </g>
      <g id="Group_73" data-name="Group 73">
        <path id="Path_345" data-name="Path 345" d="M284.419,1758.307h-.062l-3.862,1.838-.778-3.551,5.357-2.491H289v20.243h-4.578Z" fill="#fff"/>
        <path id="Path_346" data-name="Path 346" d="M297.153,1770.92a11.023,11.023,0,0,0,2.055,0,8.137,8.137,0,0,0,3.987-1.245,6.3,6.3,0,0,0,2.553-3.738l-.093-.031a5.342,5.342,0,0,1-4.048,1.464,6.1,6.1,0,0,1-6.322-6.322,7.359,7.359,0,0,1,7.629-7.288c5.2,0,7.662,3.987,7.662,8.72,0,4.205-1.339,7.288-3.551,9.312a11.965,11.965,0,0,1-7.723,2.834,16.238,16.238,0,0,1-2.149,0Zm2.865-10.153c0,1.744.934,3.24,2.865,3.24a2.981,2.981,0,0,0,2.616-1.34,2.227,2.227,0,0,0,.249-1.183c0-2.149-.809-4.267-2.959-4.267C301.17,1757.217,299.987,1758.65,300.018,1760.767Z" fill="#fff"/>
        <path id="Path_347" data-name="Path 347" d="M314.434,1770.92a11.034,11.034,0,0,0,2.056,0,8.137,8.137,0,0,0,3.986-1.245,6.3,6.3,0,0,0,2.554-3.738l-.094-.031a5.34,5.34,0,0,1-4.048,1.464,6.1,6.1,0,0,1-6.322-6.322,7.36,7.36,0,0,1,7.63-7.288c5.2,0,7.661,3.987,7.661,8.72,0,4.205-1.339,7.288-3.551,9.312a11.965,11.965,0,0,1-7.723,2.834,16.238,16.238,0,0,1-2.149,0Zm2.865-10.153c0,1.744.935,3.24,2.865,3.24a2.984,2.984,0,0,0,2.617-1.34,2.237,2.237,0,0,0,.249-1.183c0-2.149-.81-4.267-2.959-4.267C318.452,1757.217,317.268,1758.65,317.3,1760.767Z" fill="#fff"/>
        <path id="Path_348" data-name="Path 348" d="M329.909,1769.052a5.379,5.379,0,0,1,3.612-5.077v-.093a4.912,4.912,0,0,1-2.928-4.422c0-3.426,3.083-5.7,7.132-5.7,4.733,0,6.7,2.741,6.7,5.2a4.934,4.934,0,0,1-2.927,4.454v.093a5.359,5.359,0,0,1,3.706,5.045c0,3.675-3.083,6.136-7.787,6.136C332.275,1774.689,329.909,1771.792,329.909,1769.052Zm10.463-.156c0-1.775-1.308-2.834-3.176-3.332a3.069,3.069,0,0,0-2.46,3.02,2.772,2.772,0,0,0,2.864,2.835A2.543,2.543,0,0,0,340.372,1768.9Zm-5.326-9.592c0,1.37,1.246,2.242,2.866,2.74a2.77,2.77,0,0,0,2.055-2.584,2.321,2.321,0,0,0-2.46-2.492A2.257,2.257,0,0,0,335.046,1759.3Z" fill="#fff"/>
        <path id="Path_349" data-name="Path 349" d="M359.3,1764.6v3.145h-8.159V1764.6Z" fill="#fff"/>
        <path id="Path_350" data-name="Path 350" d="M365.628,1774.346v-2.865l2.616-2.367c4.423-3.955,6.571-6.229,6.634-8.6,0-1.65-1-2.958-3.332-2.958a7.338,7.338,0,0,0-4.329,1.681l-1.339-3.394a11.206,11.206,0,0,1,6.633-2.087c4.578,0,7.1,2.679,7.1,6.354,0,3.394-2.46,6.1-5.387,8.72l-1.868,1.557v.062h7.629v3.893Z" fill="#fff"/>
        <path id="Path_351" data-name="Path 351" d="M397.858,1764.131c0,6.26-2.523,10.558-7.693,10.558-5.232,0-7.537-4.7-7.568-10.433,0-5.855,2.492-10.5,7.723-10.5C395.739,1753.76,397.858,1758.588,397.858,1764.131Zm-10.5.125c-.031,4.64,1.09,6.851,2.927,6.851s2.835-2.305,2.835-6.914c0-4.484-.966-6.851-2.865-6.851C388.515,1757.342,387.331,1759.553,387.362,1764.256Z" fill="#fff"/>
        <path id="Path_352" data-name="Path 352" d="M400.19,1774.346v-2.865l2.616-2.367c4.423-3.955,6.571-6.229,6.634-8.6,0-1.65-1-2.958-3.332-2.958a7.341,7.341,0,0,0-4.33,1.681l-1.338-3.394a11.2,11.2,0,0,1,6.632-2.087c4.578,0,7.1,2.679,7.1,6.354,0,3.394-2.46,6.1-5.388,8.72l-1.868,1.557v.062h7.63v3.893Z" fill="#fff"/>
        <path id="Path_353" data-name="Path 353" d="M417.159,1769.052a5.38,5.38,0,0,1,3.613-5.077v-.093a4.912,4.912,0,0,1-2.928-4.422c0-3.426,3.083-5.7,7.132-5.7,4.733,0,6.7,2.741,6.7,5.2a4.935,4.935,0,0,1-2.928,4.454v.093a5.358,5.358,0,0,1,3.706,5.045c0,3.675-3.083,6.136-7.786,6.136C419.526,1774.689,417.159,1771.792,417.159,1769.052Zm10.464-.156c0-1.775-1.308-2.834-3.177-3.332a3.07,3.07,0,0,0-2.46,3.02,2.773,2.773,0,0,0,2.865,2.835A2.544,2.544,0,0,0,427.623,1768.9ZM422.3,1759.3c0,1.37,1.246,2.242,2.865,2.74a2.77,2.77,0,0,0,2.056-2.584,2.321,2.321,0,0,0-2.46-2.492A2.257,2.257,0,0,0,422.3,1759.3Z" fill="#fff"/>
      </g>
    </g>
  </g>
</svg>
