<svg xmlns="http://www.w3.org/2000/svg" xmlns:xlink="http://www.w3.org/1999/xlink" width="398" height="327.966" viewBox="0 0 398 327.966">
  <defs>
    <linearGradient id="linear-gradient" x1="0.117" y1="0.5" x2="1.117" y2="0.5" gradientUnits="objectBoundingBox">
      <stop offset="0" stop-color="#6e6e6f"/>
      <stop offset="0.522" stop-color="#fff"/>
      <stop offset="0.908" stop-color="#6e6e6f"/>
    </linearGradient>
    <linearGradient id="linear-gradient-2" x1="0.268" y1="0.164" x2="0.75" y2="0.982" gradientUnits="objectBoundingBox">
      <stop offset="0" stop-color="#fff"/>
      <stop offset="0.524" stop-color="#6e6e6f"/>
      <stop offset="0.632" stop-color="#959596"/>
      <stop offset="0.803" stop-color="#cecece"/>
      <stop offset="0.929" stop-color="#f1f1f1"/>
      <stop offset="0.997" stop-color="#fff"/>
    </linearGradient>
    <linearGradient id="linear-gradient-3" x1="0.877" y1="-0.787" x2="0.66" y2="-0.261" gradientUnits="objectBoundingBox">
      <stop offset="0" stop-color="#6e6e6f"/>
      <stop offset="1" stop-color="#fff"/>
    </linearGradient>
    <linearGradient id="linear-gradient-4" x1="0.522" y1="0.587" x2="0.243" y2="0.822" gradientUnits="objectBoundingBox">
      <stop offset="0" stop-color="#fff"/>
      <stop offset="1" stop-color="#6e6e6f"/>
    </linearGradient>
    <linearGradient id="linear-gradient-5" x1="0.211" y1="0.684" x2="0.57" y2="0.313" xlink:href="#linear-gradient-3"/>
    <linearGradient id="linear-gradient-6" x1="0.823" y1="0.698" x2="0.357" y2="0.437" xlink:href="#linear-gradient-3"/>
    <linearGradient id="linear-gradient-7" x1="0.573" y1="0.373" x2="0.362" y2="0.605" xlink:href="#linear-gradient-4"/>
    <linearGradient id="linear-gradient-8" x1="0.041" y1="0.366" x2="0.532" y2="0.662" xlink:href="#linear-gradient-4"/>
    <linearGradient id="linear-gradient-9" x1="0.31" y1="0.724" x2="0.646" y2="0.479" xlink:href="#linear-gradient-3"/>
  </defs>
  <g id="Group_40" data-name="Group 40" transform="translate(-151.799 -941.813)">
    <g id="Group_36" data-name="Group 36">
      <g id="Group_33" data-name="Group 33">
        <path id="Path_74" data-name="Path 74" d="M549.108,1076.537c-3.486,28.446-18.99,46.942-24.7,53.581-16.819,19.532-36.039,27.444-44.883,30.965-25.232,10.042-46.922,8.935-61.931,8-18.58-1.155-36.832-4.871-53.943-12.373-21.579-9.47-40.151-24.967-57.555-40.575-14.689-13.187-29.664-26.533-48.2-34.035-8.552-3.465-21.049-8.371-37.576-7.654-9.116.4-27.9,1.2-38.968,14.961-1.851,2.3-6.861,8.677-7.167,18-.494,14.8,12,25.169,12.379,25.482a34.092,34.092,0,0,1-14.258-14.258c-7.578-14.982.055-30.639,1.739-34.1,9.986-20.486,33.1-26.47,41.056-28.53,19.79-5.122,40.645-1.969,58.988,6.638,18.92,8.872,34.069,23.952,49.1,38.1,16.784,15.8,33.735,31.954,53.887,43.45a121.4,121.4,0,0,0,59.851,15.8,112.783,112.783,0,0,0,56.865-14.571c37.959-21.843,60-70.922,49.74-110.468a76.394,76.394,0,0,0-7.988-19.31l.542-.376C543.3,1027.917,552.392,1049.732,549.108,1076.537Z" fill="url(#linear-gradient)"/>
        <path id="Path_75" data-name="Path 75" d="M177.172,1101.935a29.062,29.062,0,0,1,5.415-9.478,40.285,40.285,0,0,1,8.234-7.325,67.5,67.5,0,0,1,9.727-5.249l2.591-.991,1.3-.495c.437-.155.886-.272,1.328-.409l2.668-.8c.9-.226,1.812-.4,2.72-.607l1.364-.3c.457-.083.92-.131,1.38-.2l2.769-.373,2.788-.173c.465-.024.931-.066,1.4-.075l1.4.014a60.619,60.619,0,0,1,11.117,1.044l2.737.563c.915.179,1.8.459,2.7.69,1.811.445,3.557,1.079,5.328,1.644a97.857,97.857,0,0,1,10.244,4.315,136.2,136.2,0,0,1,18.976,11.35c6.024,4.224,11.772,8.788,17.4,13.461s11.053,9.559,16.5,14.369c1.356,1.217,2.727,2.39,4.1,3.553l4.116,3.506c1.37,1.17,2.814,2.249,4.217,3.378,1.419,1.109,2.812,2.253,4.251,3.334a211.282,211.282,0,0,0,36.66,22.6c1.591.839,3.256,1.509,4.9,2.234l4.938,2.151,5.043,1.88c1.685.618,3.35,1.3,5.078,1.783,3.431,1.044,6.834,2.207,10.339,2.985l5.222,1.313,5.291,1c3.515.766,7.1,1.078,10.66,1.551,1.78.273,3.578.323,5.371.442l5.385.345c1.8.034,3.6.011,5.4.02l2.7,0h1.352c.45-.009.9-.052,1.348-.077l5.4-.345,2.7-.173,2.7-.264a133.912,133.912,0,0,0,21.241-4.153c3.5-.939,6.98-1.985,10.444-3.084,3.47-1.083,6.924-2.231,10.377-3.38-3.368,1.379-6.737,2.757-10.134,4.074s-6.833,2.54-10.3,3.684a130.1,130.1,0,0,1-21.333,5.233c-.906.134-1.807.263-2.715.374l-2.737.276-5.479.55c-.457.042-.914.1-1.372.128l-1.376.049-2.753.1c-1.837.058-3.674.146-5.513.178l-5.515-.169c-1.838-.073-3.682-.079-5.51-.309-3.659-.387-7.344-.616-10.966-1.3l-5.458-.883-5.394-1.206c-3.62-.727-7.126-1.874-10.67-2.889-1.784-.475-3.5-1.141-5.243-1.748l-5.211-1.85-5.1-2.126c-1.7-.718-3.419-1.382-5.063-2.213a211.8,211.8,0,0,1-37.647-22.9c-1.463-1.111-2.877-2.283-4.318-3.422-1.424-1.158-2.89-2.267-4.28-3.466l-4.172-3.591c-1.4-1.194-2.782-2.393-4.127-3.613-5.421-4.864-10.834-9.686-16.312-14.413-10.958-9.41-22.421-18.293-35.1-24.936a94.212,94.212,0,0,0-9.745-4.408c-1.679-.582-3.34-1.237-5.054-1.7-.855-.24-1.7-.539-2.56-.742l-2.587-.629a57.607,57.607,0,0,0-10.537-1.375l-1.33-.062c-.443-.007-.886.018-1.329.025l-2.662.067-2.651.262c-.441.048-.886.077-1.325.14l-1.314.225c-.875.155-1.758.284-2.63.46l-2.594.646c-.432.112-.87.2-1.3.333l-1.271.421-2.547.842-2.481,1.03a25.341,25.341,0,0,0-2.455,1.1c-1.6.819-3.243,1.564-4.764,2.5a39.515,39.515,0,0,0-8.412,6.682A28.7,28.7,0,0,0,177.172,1101.935Z" fill="url(#linear-gradient-2)"/>
        <path id="Path_76" data-name="Path 76" d="M314.038,1169.084a169.9,169.9,0,0,1-25.138,10.394,165.533,165.533,0,0,1-26.63,6.106c-2.255.389-4.53.589-6.8.83l-3.418.351-3.446.249c-4.6.3-9.2.459-13.8.447a139.144,139.144,0,0,1-27.415-2.567,85.1,85.1,0,0,1-25.806-9.416,63.777,63.777,0,0,1-20.413-18.57,64.655,64.655,0,0,0,19.5,20.048,87.7,87.7,0,0,0,25.923,11.324,143.5,143.5,0,0,0,28.036,4.4c4.724.307,9.456.435,14.185.423l3.545-.036,3.563-.142c2.377-.1,4.761-.167,7.13-.423a173.379,173.379,0,0,0,28.24-4.656,179.329,179.329,0,0,0,27.192-9.313,183.216,183.216,0,0,0,26.47-14.2q-5.8-3.157-11.579-6.784A171.773,171.773,0,0,1,314.038,1169.084Z" fill="url(#linear-gradient-3)"/>
        <path id="Path_77" data-name="Path 77" d="M361.226,1086.974c0-42.785-41.385-54.271-41.4-54.276,1.634.453,4.873-.764,6.465-1.079a126.987,126.987,0,0,0,15.941-4.241c13.561-4.58,27.355-11.742,35.922-23.592,7.8-10.788,9.133-26.05.334-36.7-7.155-8.659-18.576-12.612-30-14.525-1.232-.207-2.464-.386-3.691-.549l3.556,1.355c19.059,9.751,29.254,27.819,13.918,46.007-17.265,20.477-47.017,32.144-72.37,38.887,0,0,15.474-2.865,28.586,6.692a37.671,37.671,0,0,1,12.122,15.228c5.908,12.961,2.887,25.433,1.739,30.27a47.718,47.718,0,0,1-2.919,8.533c7.758,7.3,15.656,14.693,23.922,21.587C363.739,1101.707,361.226,1086.974,361.226,1086.974Z" fill="url(#linear-gradient-4)"/>
        <path id="Path_78" data-name="Path 78" d="M378.421,1119.137a84.766,84.766,0,0,0,2.717-16.152,79.6,79.6,0,0,0-.762-16.263,67.45,67.45,0,0,0-11.9-29.513A53.6,53.6,0,0,0,357.37,1046a54.167,54.167,0,0,0-13.656-7.391,53.3,53.3,0,0,1,12.539,8.724,51,51,0,0,1,9.314,11.786,62.25,62.25,0,0,1,7.888,28.323,71.986,71.986,0,0,1-.956,14.533,75.21,75.21,0,0,1-4,13.91,80.95,80.95,0,0,1-5.938,12.012q4.9,3.688,10.01,7.031A93.1,93.1,0,0,0,378.421,1119.137Z" fill="url(#linear-gradient-5)"/>
        <path id="Path_79" data-name="Path 79" d="M275.636,1036.177a134.042,134.042,0,0,0,39.468-16.225c10.1-6.308,20.929-13.374,26.853-24.052,9.966-17.961-10.532-26.917-25.452-26.748a94.138,94.138,0,0,0-46.376,13.4,131.1,131.1,0,0,0-16.857,12.172c-1.264,1.071-5.753,3.876-6.166,5.616,6.61-27.832-14.958-48.358-14.961-48.361,4.608,4.383,13.562,3.909,19.458,4.176,14.151.641,28.053-.947,42.065-2.685,13.868-1.719,27.941-4,41.671-.408,14.563,3.811,27.27,13.089,28.323,29.186,2.435,37.228-107.162,59.5-107.162,59.5Z" fill="url(#linear-gradient-6)"/>
        <path id="Path_80" data-name="Path 80" d="M536.933,1042.3c-9.112-45.753-54.357-78.67-100.776-69.98-21.675,4.058-42,17.571-52.472,37.445a61.145,61.145,0,0,0-6.8,35.716c-.911-7.336,6.6-19.291,10.6-25.171a71.584,71.584,0,0,1,19.548-19.262c29.363-19.506,68.42-14.174,93.019,10.771,26.835,27.212,30.429,76.093,3.123,104.276-21.3,21.99-56.669,28.178-85.582,20.978a96.667,96.667,0,0,1-33.928-16.018,98.832,98.832,0,0,1-5.473,14.986c.825.463,1.66.924,2.52,1.38a117.218,117.218,0,0,0,90.4,7.607C514.217,1130.942,546.147,1088.567,536.933,1042.3Z" fill="url(#linear-gradient-7)"/>
        <path id="Path_81" data-name="Path 81" d="M313.843,1143.792c-.494-.4-.987-.794-1.484-1.186l-.076-.061c-.479-.389-.962-.772-1.446-1.156-.974-.772-1.981-1.57-2.992-2.443l-4.164-3.583c-1.255-1.073-2.758-2.369-4.262-3.732l-.309-.277a162.87,162.87,0,0,1-26.258,13.725c-27.979,11.77-54.649,11.931-73.431,9.7a59.694,59.694,0,0,1-19.465-9.007,53.971,53.971,0,0,1-21.226-34.455,51.775,51.775,0,0,1,2.307-25.944,48.01,48.01,0,0,1,18.222-23.1,45.522,45.522,0,0,0-18.559,15.739c-10.815,15.617-9.13,32.658-8.231,40.972A62.468,62.468,0,0,0,177.23,1162.3c15.786,11.6,38.2,16.221,57.35,17.576,16.322,1.153,32.577-1.714,47.259-6.233,2.672-.822,5.289-1.7,7.848-2.618a173.952,173.952,0,0,0,34.944-19.243q-3.93-2.724-7.826-5.652C315.762,1145.335,314.787,1144.551,313.843,1143.792Z" fill="url(#linear-gradient-8)"/>
        <path id="Path_82" data-name="Path 82" d="M505.463,1026.109a68.978,68.978,0,0,0-28.755-27.014,60.952,60.952,0,0,0-9.978-3.894c-34.172-9.887-76.851,10.128-86.335,45.853,1.606-6.05,7.273-12.413,11.258-16.9a75.307,75.307,0,0,1,40.021-23.491c27.774-6.156,59.248,4.454,74.888,29.259l2.128,3.444Z" fill="url(#linear-gradient-9)"/>
      </g>
      <g id="Group_34" data-name="Group 34">
        <path id="Path_83" data-name="Path 83" d="M386.117,1055.739a2.613,2.613,0,0,1-1.188-.257,2.251,2.251,0,0,1-1.315-1.957q0-1.638,2.2-3.61a26.164,26.164,0,0,1,5.856-3.787,49.593,49.593,0,0,1,8.023-3.1,38.425,38.425,0,0,1,8.375-1.54,8.2,8.2,0,0,1,6.017,2.23,9.324,9.324,0,0,1,2.519,6.306,12.256,12.256,0,0,1-.818,4.22,26.143,26.143,0,0,1-2.134,4.428,49.681,49.681,0,0,1-2.759,4.14q-1.444,1.941-3.563,4.637-2.471,3.144-3.465,4.588a1.548,1.548,0,0,0-.322.739c0,.085.065.128.193.128a1.811,1.811,0,0,0,.723-.337,5.783,5.783,0,0,0,.978-.786q9.916-10.238,17.28-15.066t11.825-4.83a5.2,5.2,0,0,1,4.268,1.765,7.328,7.328,0,0,1,1.444,4.781,20.093,20.093,0,0,1-1.091,6.13q-1.187,3.53-3.434,9.787-2.085,5.712-2.983,8.568a15.964,15.964,0,0,0-.9,4.428,2.173,2.173,0,0,0,.256,1.187,1.818,1.818,0,0,1,.353.931q0,.995-1.572.995a8.28,8.28,0,0,1-1.669-.193,8.926,8.926,0,0,1-5.31-3.064,8.789,8.789,0,0,1-1.653-5.439,19.2,19.2,0,0,1,.594-4.525,37.925,37.925,0,0,1,1.588-4.958q.994-2.518,1.91-4.525t2.486-5.375q1.766-3.53,2.311-4.845a5.164,5.164,0,0,0,.513-1.925q0-.836-.866-.835-1.572,0-5.872,3.177a112.4,112.4,0,0,0-9.724,8.247q-5.422,5.072-10.541,10.718a107.832,107.832,0,0,0-8.295,10.172,4.355,4.355,0,0,0-.45,1.124q-.192.93-.578.93a1.593,1.593,0,0,1-.737-.256,10.3,10.3,0,0,1-3.482-3.306,7.487,7.487,0,0,1-1.107-3.947,11.1,11.1,0,0,1,1.38-5.1,67.906,67.906,0,0,1,4.027-6.5q2.389-3.45,5.953-8.231,4.878-6.514,7.172-10.092t2.294-5.632q0-2.149-2.952-2.15a18.294,18.294,0,0,0-3.819.513q-12.8,2.953-16.815,9.723a1.341,1.341,0,0,0-.225.61q0,.385.482.385a2.556,2.556,0,0,0,.786-.128c.267-.085.465-.15.594-.193l-.129.064A6.25,6.25,0,0,1,386.117,1055.739Z" fill="#fff"/>
        <path id="Path_84" data-name="Path 84" d="M459.121,1062.189a3.4,3.4,0,0,1,2.439,1.123,12.3,12.3,0,0,1,2.247,3.69,1.155,1.155,0,0,1,.192.578c0,.3-.16.449-.482.449a1.1,1.1,0,0,1-.834-.449,1.772,1.772,0,0,0-1.444-.578,9.584,9.584,0,0,0-3.947,1.2,31.3,31.3,0,0,0-5.037,3.177,39.649,39.649,0,0,0-4.7,4.171,16.75,16.75,0,0,0-3.033,4.124,2.22,2.22,0,0,0-.256.995q0,.834.673.834a2.523,2.523,0,0,0,1.381-.706q1.251-.995,3.658-3.113,3.625-3.079,5.792-4.781a15.34,15.34,0,0,1,3.225-2.118,3.688,3.688,0,0,1,1.316-.257,2.757,2.757,0,0,1,2.294,1.091,3.827,3.827,0,0,1,.851,2.407,3.271,3.271,0,0,1-.129.9,7.152,7.152,0,0,1-.786,1.75q-.594,1.011-1.652,2.807-1.092,1.895-1.686,3.017a18.767,18.767,0,0,0-.914,1.957,2.1,2.1,0,0,0-.161.738c0,.514.183.771.546.771a1.111,1.111,0,0,0,.642-.322q.865-.641,2.182-1.829t2.728-2.534q1.412-1.348,2.759-2.728t2.119-2.311c.4-.47.759-.706,1.058-.706.172,0,.257.108.257.321a1.145,1.145,0,0,1-.193.578,23.318,23.318,0,0,1-1.733,2.086q-1.218,1.347-2.823,2.952t-3.081,2.952q-1.476,1.349-2.535,2.215a3.419,3.419,0,0,1-2.182.866,3.054,3.054,0,0,1-2.423-1.155,4.928,4.928,0,0,1-.979-3.274q0-3.209,2.632-7.541a1.9,1.9,0,0,0,.321-.8.227.227,0,0,0-.257-.256,1.235,1.235,0,0,0-.481.128,14.7,14.7,0,0,0-3.273,2.631q-1.637,1.7-4.14,4.653a52.458,52.458,0,0,1-5.648,6.065,3.143,3.143,0,0,1-2.053.77,4.018,4.018,0,0,1-3.113-1.733,5.867,5.867,0,0,1-1.412-3.786,4.538,4.538,0,0,1,.321-1.7,25.271,25.271,0,0,1,3.787-6.274,42.08,42.08,0,0,1,5.326-5.519,56.455,56.455,0,0,1,5.487-4.2,36,36,0,0,1,4.268-2.519A7.067,7.067,0,0,1,459.121,1062.189Zm10.911-9.595a.215.215,0,0,1,.16-.064q.513,0,.45.321a.741.741,0,0,1-.289.321,45.363,45.363,0,0,1-6.819,5.2,10.105,10.105,0,0,1-4.573,1.733,4.22,4.22,0,0,1-3.257-1.653q-1.428-1.651-1.236-6.048c.022-.342.172-.514.45-.514q.256,0,.577.578a4.981,4.981,0,0,0,2.086,3.337,5.143,5.143,0,0,0,3,.8,11.94,11.94,0,0,0,3.241-.722,40.169,40.169,0,0,0,6.081-3.289Z" fill="#fff"/>
        <path id="Path_85" data-name="Path 85" d="M475.358,1062.7c0-.257.267-.386.8-.386a1.972,1.972,0,0,1,1.653.915,4.133,4.133,0,0,1,.658,2.455,10.711,10.711,0,0,1-1.606,5.23,3.141,3.141,0,0,0-.385.931c0,.086.022.128.065.128q.386,0,3.626-2.888a12.522,12.522,0,0,1,3.209-2.2,7.169,7.169,0,0,1,2.953-.754,2.926,2.926,0,0,1,2.165.786,3.3,3.3,0,0,1,.786,2.423,11.319,11.319,0,0,1-.641,3.369,2.534,2.534,0,0,0-.129.321,4.941,4.941,0,0,0-.128.706c0,.065.021.1.064.1q.128,0,.642-.482a47.324,47.324,0,0,1,7.766-6.049,11.492,11.492,0,0,1,5.391-1.909,3,3,0,0,1,2.551,1.123,4.885,4.885,0,0,1,.85,3.017,13.362,13.362,0,0,1-1.572,5.872q-1.83,3.658-2.711,6a11.159,11.159,0,0,0-.883,3.465c0,.6.213.9.642.9a5.309,5.309,0,0,0,2.759-1.541,58.792,58.792,0,0,0,4.461-4.3q2.052-2.247,2.7-2.247c.149,0,.224.044.224.128q0,.739-1.925,2.7-.258.289-.77.867a63.926,63.926,0,0,1-5.311,5.166,5.6,5.6,0,0,1-3.514,1.412,5.46,5.46,0,0,1-1.38-.193,6.386,6.386,0,0,1-3.289-1.893,4.422,4.422,0,0,1-.979-2.856,9.588,9.588,0,0,1,1.059-4.059q1.058-2.231,3.209-5.792l.385-.642a9.363,9.363,0,0,0,1.6-3.819q0-.738-.675-.738-1.058,0-3.481,1.749a42.76,42.76,0,0,0-5.247,4.6,54.028,54.028,0,0,0-5.263,6.209,29.2,29.2,0,0,0-3.626,6.37.659.659,0,0,1-.642.449,2.3,2.3,0,0,1-1.3-.481,3.362,3.362,0,0,1-1.075-1.22,6.01,6.01,0,0,1-.8-3.08,10.678,10.678,0,0,1,1.188-4.637,28.536,28.536,0,0,1,3.177-5.022,16.083,16.083,0,0,0,1.492-2.342,4.363,4.363,0,0,0,.593-1.733q0-.515-.448-.514a2.2,2.2,0,0,0-.739.192,13.2,13.2,0,0,0-3.77,2.873q-2.328,2.295-4.926,5.359t-4.509,5.792a26.8,26.8,0,0,0-2.423,3.915c-.127.256-.213.385-.256.385a1.318,1.318,0,0,1-.482-.192l-.256-.193a3.625,3.625,0,0,1-1.509-3.177,9.154,9.154,0,0,1,.69-3.241,28.688,28.688,0,0,1,1.781-3.739q1.09-1.941,2.262-3.722t2.68-3.931q1.541-2.183,2.294-3.4a4.231,4.231,0,0,0,.755-1.668l-.064-.129v-.064A.88.88,0,0,1,475.358,1062.7Z" fill="#fff"/>
      </g>
      <g id="Group_35" data-name="Group 35">
        <path id="Path_86" data-name="Path 86" d="M396.779,961.132l3.41,6.026,5.84-3.3-3.41-6.026,3.536-2,8.874,15.681-3.537,2-3.712-6.561-5.84,3.3,3.713,6.561-3.56,2.014-8.874-15.681Z" fill="#fff"/>
        <path id="Path_87" data-name="Path 87" d="M427.724,944.857a5.67,5.67,0,0,1,1.3,2.2c.487,1.556-.053,2.874-1.86,3.636l-.418.187,2.373,7.579c1.661,5.308-.228,8.673-4.72,10.079-4.338,1.358-7.641-.243-9.358-5.729l-3-9.6,3.9-1.223,3.1,9.9c.927,2.96,2.521,4.114,4.512,3.492,2.041-.639,2.716-2.42,1.767-5.457l-3.1-9.9,2.96-.927c1.047-.327,1.224-.747,1.016-1.41a3.493,3.493,0,0,0-1.071-1.543Z" fill="#fff"/>
        <path id="Path_88" data-name="Path 88" d="M450.432,943.283a6.037,6.037,0,0,1,.891,2.656,2.684,2.684,0,0,1-2.524,3.189,10.186,10.186,0,0,1,2,5.347c.547,5.885-2.69,9.784-7.935,10.272-5.326.494-8.815-3.237-9.29-8.35-.5-5.379,2.562-9.718,7.861-10.211a10.51,10.51,0,0,1,3.324.229,10.542,10.542,0,0,0,2.723.687c.666-.062.953-.438.887-1.157a3.977,3.977,0,0,0-.767-1.889Zm-3.907,11.723c-.3-3.222-2.1-5.848-4.9-5.588-2.769.257-4.086,3.146-3.777,6.474.288,3.385,2.183,5.868,4.926,5.613S446.849,958.494,446.525,955.006Zm-.795-13.193-2.944,3.576-3.25.3,1.933-3.483Z" fill="#fff"/>
        <path id="Path_89" data-name="Path 89" d="M453.451,963.775l1.98-17.912,4.73.523,2.995,6.975a51.967,51.967,0,0,1,2.245,6.462l.08.009a66.644,66.644,0,0,1,.48-7.506l.579-5.235,3.72.411-1.98,17.912-4.251-.47-3.064-7.333a66.876,66.876,0,0,1-2.41-6.668l-.083.017c-.155,2.377-.381,4.908-.7,7.831l-.6,5.395Z" fill="#fff"/>
        <path id="Path_90" data-name="Path 90" d="M485.533,969.683a20.139,20.139,0,0,1-6.045-.824c-3.139-.981-5.163-2.482-6.267-4.507a8.723,8.723,0,0,1-.47-7.01c1.812-5.709,6.992-7.675,12.632-5.913a12.429,12.429,0,0,1,4.509,2.333l-1.79,2.859a9.963,9.963,0,0,0-3.775-1.992c-3.241-1.013-6.265.059-7.429,3.785-1.108,3.547.458,6.333,3.648,7.33a5.468,5.468,0,0,0,1.993.343l1.125-3.6-2.654-.83.949-3.037,6.4,2Z" fill="#fff"/>
        <path id="Path_91" data-name="Path 91" d="M496.284,963.508l1.624.982,3.653-6.04a36.124,36.124,0,0,1,4.921,2.507c2.9,1.757,4.523,3.423,5.331,5.443.883,2.158.676,4.721-.97,7.443-1.812,3-4.11,4.42-6.358,4.779-2.441.367-5.313-.463-8.333-2.289a35.436,35.436,0,0,1-3.82-2.623l3.93-6.5-1.625-.982Zm6.521,7.661-3.066-1.853-2.379,3.935a11.736,11.736,0,0,0,1.185.779c3.2,1.937,6.263,1.475,8.546-2.3,2.02-3.34,1.121-6.039-1.9-7.866a8.892,8.892,0,0,0-1.662-.817l-2.144,3.546,3.066,1.854Z" fill="#fff"/>
        <path id="Path_92" data-name="Path 92" d="M520.52,984.45l-5.052-4.3-2.772,3.259,5.642,4.8-2.166,2.546-8.758-7.45,11.679-13.728,8.472,7.208-2.166,2.546-5.356-4.557-2.426,2.852,5.051,4.3Zm6.7-13.534L526.946,975l-2.016-1.715.2-2.045-.041-.035-1.988.521-1.975-1.681,3.944-.963Zm6.452,2.609h-4.705l-1.486-1.265,3.523-1.005Z" fill="#fff"/>
        <path id="Path_93" data-name="Path 93" d="M517.716,992.148l13.7-11.713,3.093,3.618-2.588,7.138a52.059,52.059,0,0,1-2.784,6.251l.052.061a66.82,66.82,0,0,1,5.487-5.147l4-3.424,2.433,2.846-13.7,11.713-2.781-3.253,2.783-7.445a67.04,67.04,0,0,1,2.8-6.515l-.072-.043c-1.74,1.628-3.637,3.319-5.873,5.231l-4.126,3.527Z" fill="#fff"/>
      </g>
    </g>
    <g id="Group_39" data-name="Group 39">
      <g id="Group_37" data-name="Group 37">
        <path id="Path_94" data-name="Path 94" d="M210.825,1215.1H205.19v-3.984h16.124v3.984h-5.727v17h-4.762Z" fill="#fff"/>
        <path id="Path_95" data-name="Path 95" d="M228.594,1211.112v8.062h7.813v-8.062h4.731v20.98h-4.731v-8.778h-7.813v8.778h-4.762v-20.98Z" fill="#fff"/>
        <path id="Path_96" data-name="Path 96" d="M250.161,1226.707l-1.494,5.385h-4.918l6.412-20.98h6.225l6.506,20.98h-5.1l-1.619-5.385Zm2.8-20.545,2.614,3.767h-3.8l-3.8-3.767Zm2.521,17-1.308-4.451c-.373-1.245-.747-2.8-1.058-4.047h-.063c-.31,1.245-.622,2.833-.965,4.047l-1.245,4.451Z" fill="#fff"/>
        <path id="Path_97" data-name="Path 97" d="M265.689,1232.092v-20.98h5.54l4.358,7.688a60.532,60.532,0,0,1,3.424,7.191h.094a77.689,77.689,0,0,1-.4-8.747v-6.132h4.358v20.98h-4.98L273.6,1224a78.023,78.023,0,0,1-3.641-7.409l-.094.031c.125,2.771.186,5.728.186,9.152v6.319Z" fill="#fff"/>
        <path id="Path_98" data-name="Path 98" d="M291.925,1211.112v8.062h7.813v-8.062h4.731v20.98h-4.731v-8.778h-7.813v8.778h-4.762v-20.98Z" fill="#fff"/>
        <path id="Path_99" data-name="Path 99" d="M314.891,1211.112h4.763v17h8.341v3.984h-13.1Z" fill="#fff"/>
        <path id="Path_100" data-name="Path 100" d="M335.866,1226.707l-1.494,5.385h-4.918l6.412-20.98h6.226l6.506,20.98h-5.106l-1.618-5.385Zm4.981-20.545,3.175,3.829H340.66l-1.556-1.93h-.063l-1.555,1.93h-3.3l3.112-3.829Zm.343,17-1.308-4.451c-.374-1.245-.747-2.8-1.059-4.047h-.061c-.312,1.245-.623,2.833-.966,4.047l-1.245,4.451Zm-4.514,13.572a2.121,2.121,0,0,1,2.179-2.148,2.082,2.082,0,0,1,2.086,2.148,2.113,2.113,0,0,1-2.086,2.117A2.153,2.153,0,0,1,336.676,1236.73Z" fill="#fff"/>
        <path id="Path_101" data-name="Path 101" d="M351.395,1211.392a38.827,38.827,0,0,1,6.412-.436c2.926,0,5.012.56,6.412,1.681a6.132,6.132,0,0,1,2.241,4.856,6.7,6.7,0,0,1-1.93,4.98c-1.618,1.526-4.015,2.211-6.817,2.211a11.963,11.963,0,0,1-1.618-.094v7.5h-4.7Zm4.7,9.525a7.259,7.259,0,0,0,1.587.125c2.521,0,4.078-1.277,4.078-3.425,0-1.929-1.338-3.081-3.7-3.081a8.05,8.05,0,0,0-1.961.187Z" fill="#fff"/>
        <path id="Path_102" data-name="Path 102" d="M391.171,1231.5a13.544,13.544,0,0,1-5.386.9c-7.252,0-10.987-4.513-10.987-10.49,0-7.159,5.1-11.144,11.455-11.144a12.367,12.367,0,0,1,5.167.934l-.965,3.767a10.241,10.241,0,0,0-3.984-.778c-3.767,0-6.693,2.272-6.693,6.941,0,4.2,2.491,6.848,6.724,6.848a11.835,11.835,0,0,0,3.953-.685Z" fill="#fff"/>
        <path id="Path_103" data-name="Path 103" d="M412.552,1221.384c0,6.879-4.172,11.05-10.3,11.05-6.226,0-9.867-4.7-9.867-10.677,0-6.287,4.015-10.988,10.21-10.988C409.034,1210.769,412.552,1215.594,412.552,1221.384Zm-15.159.28c0,4.109,1.929,7,5.1,7,3.206,0,5.043-3.051,5.043-7.128,0-3.767-1.806-7-5.074-7C399.26,1214.536,397.393,1217.586,397.393,1221.664Zm6.847-15.5,3.144,3.8h-3.33l-1.557-1.93h-.062l-1.556,1.93h-3.331l3.143-3.8Z" fill="#fff"/>
        <path id="Path_104" data-name="Path 104" d="M415.659,1232.092v-20.98h5.54l4.359,7.688a60.683,60.683,0,0,1,3.423,7.191h.094a77.927,77.927,0,0,1-.4-8.747v-6.132h4.358v20.98h-4.98L423.565,1224a78.023,78.023,0,0,1-3.641-7.409l-.094.031c.125,2.771.187,5.728.187,9.152v6.319Z" fill="#fff"/>
        <path id="Path_105" data-name="Path 105" d="M454.657,1231.127a23.474,23.474,0,0,1-7,1.183c-3.829,0-6.6-.965-8.529-2.833a10.15,10.15,0,0,1-2.957-7.626c.031-6.973,5.1-10.957,11.984-10.957a14.446,14.446,0,0,1,5.82,1.027l-1,3.8a11.621,11.621,0,0,0-4.886-.9c-3.953,0-6.942,2.241-6.942,6.786,0,4.327,2.708,6.879,6.6,6.879a6.352,6.352,0,0,0,2.335-.311v-4.389h-3.237v-3.7h7.812Z" fill="#fff"/>
        <path id="Path_106" data-name="Path 106" d="M467.476,1215.1h-5.634v-3.984h16.123v3.984h-5.727v17h-4.762Z" fill="#fff"/>
        <path id="Path_107" data-name="Path 107" d="M485.556,1232.092V1223.5l-6.63-12.389h5.416l2.148,5.042c.654,1.526,1.09,2.646,1.619,4.016h.063c.466-1.308.964-2.521,1.586-4.016l2.118-5.042H497.2l-6.911,12.233v8.747Z" fill="#fff"/>
      </g>
      <g id="Group_38" data-name="Group 38">
        <path id="Path_108" data-name="Path 108" d="M280.03,1253.406h-.062l-3.861,1.837-.778-3.549,5.354-2.49h3.922v20.233H280.03Z" fill="#fff"/>
        <path id="Path_109" data-name="Path 109" d="M292.758,1266.013a11.174,11.174,0,0,0,2.053,0,8.135,8.135,0,0,0,3.985-1.245,6.288,6.288,0,0,0,2.552-3.736l-.092-.031a5.342,5.342,0,0,1-4.047,1.463,6.1,6.1,0,0,1-6.32-6.318,7.357,7.357,0,0,1,7.627-7.285c5.2,0,7.658,3.985,7.658,8.716,0,4.2-1.339,7.284-3.549,9.308a11.96,11.96,0,0,1-7.72,2.832,16.379,16.379,0,0,1-2.147,0Zm2.863-10.148c0,1.743.934,3.238,2.864,3.238a2.979,2.979,0,0,0,2.614-1.339,2.215,2.215,0,0,0,.249-1.183c0-2.147-.808-4.265-2.957-4.265C296.773,1252.316,295.59,1253.749,295.621,1255.865Z" fill="#fff"/>
        <path id="Path_110" data-name="Path 110" d="M310.029,1266.013a11.185,11.185,0,0,0,2.054,0,8.135,8.135,0,0,0,3.984-1.245,6.285,6.285,0,0,0,2.553-3.736l-.093-.031a5.34,5.34,0,0,1-4.047,1.463,6.1,6.1,0,0,1-6.319-6.318,7.357,7.357,0,0,1,7.627-7.285c5.2,0,7.657,3.985,7.657,8.716,0,4.2-1.339,7.284-3.549,9.308a11.958,11.958,0,0,1-7.719,2.832,16.393,16.393,0,0,1-2.148,0Zm2.863-10.148c0,1.743.935,3.238,2.865,3.238a2.981,2.981,0,0,0,2.614-1.339,2.225,2.225,0,0,0,.249-1.183c0-2.147-.809-4.265-2.957-4.265C314.045,1252.316,312.861,1253.749,312.892,1255.865Z" fill="#fff"/>
        <path id="Path_111" data-name="Path 111" d="M325.5,1264.145a5.376,5.376,0,0,1,3.61-5.074v-.093a4.909,4.909,0,0,1-2.926-4.42c0-3.424,3.082-5.7,7.129-5.7,4.732,0,6.693,2.74,6.693,5.2a4.931,4.931,0,0,1-2.927,4.451v.093a5.356,5.356,0,0,1,3.7,5.043c0,3.673-3.082,6.132-7.782,6.132C327.862,1269.779,325.5,1266.885,325.5,1264.145Zm10.459-.155c0-1.775-1.308-2.833-3.175-3.331a3.068,3.068,0,0,0-2.459,3.019,2.77,2.77,0,0,0,2.863,2.833A2.542,2.542,0,0,0,335.955,1263.99Zm-5.323-9.588c0,1.37,1.245,2.242,2.864,2.74a2.772,2.772,0,0,0,2.054-2.584,2.32,2.32,0,0,0-2.46-2.491A2.256,2.256,0,0,0,330.632,1254.4Z" fill="#fff"/>
        <path id="Path_112" data-name="Path 112" d="M354.515,1259.694v3.144H346.36v-3.144Z" fill="#fff"/>
        <path id="Path_113" data-name="Path 113" d="M360.271,1269.437v-2.864l2.615-2.366c4.419-3.953,6.568-6.225,6.63-8.591,0-1.65-1-2.957-3.331-2.957a7.337,7.337,0,0,0-4.327,1.681l-1.338-3.393a11.2,11.2,0,0,1,6.63-2.086c4.576,0,7.1,2.678,7.1,6.35,0,3.393-2.46,6.1-5.386,8.716l-1.867,1.557v.062h7.626v3.891Z" fill="#fff"/>
        <path id="Path_114" data-name="Path 114" d="M392.485,1259.227c0,6.257-2.521,10.552-7.688,10.552-5.23,0-7.534-4.7-7.565-10.427,0-5.852,2.49-10.491,7.72-10.491C390.368,1248.861,392.485,1253.687,392.485,1259.227Zm-10.49.125c-.031,4.638,1.09,6.848,2.926,6.848s2.833-2.3,2.833-6.911c0-4.482-.965-6.848-2.865-6.848C383.146,1252.441,381.964,1254.651,381.995,1259.352Z" fill="#fff"/>
        <path id="Path_115" data-name="Path 115" d="M394.815,1269.437v-2.864l2.614-2.366c4.421-3.953,6.569-6.225,6.631-8.591,0-1.65-1-2.957-3.331-2.957a7.337,7.337,0,0,0-4.327,1.681l-1.338-3.393a11.2,11.2,0,0,1,6.63-2.086c4.576,0,7.1,2.678,7.1,6.35,0,3.393-2.459,6.1-5.386,8.716l-1.867,1.557v.062h7.626v3.891Z" fill="#fff"/>
        <path id="Path_116" data-name="Path 116" d="M411.776,1264.145a5.375,5.375,0,0,1,3.611-5.074v-.093a4.907,4.907,0,0,1-2.926-4.42c0-3.424,3.082-5.7,7.128-5.7,4.732,0,6.693,2.74,6.693,5.2a4.93,4.93,0,0,1-2.926,4.451v.093a5.356,5.356,0,0,1,3.7,5.043c0,3.673-3.082,6.132-7.782,6.132C414.141,1269.779,411.776,1266.885,411.776,1264.145Zm10.459-.155c0-1.775-1.308-2.833-3.175-3.331a3.068,3.068,0,0,0-2.459,3.019,2.77,2.77,0,0,0,2.863,2.833A2.542,2.542,0,0,0,422.235,1263.99Zm-5.323-9.588c0,1.37,1.245,2.242,2.864,2.74a2.772,2.772,0,0,0,2.055-2.584,2.321,2.321,0,0,0-2.459-2.491A2.256,2.256,0,0,0,416.912,1254.4Z" fill="#fff"/>
      </g>
    </g>
  </g>
</svg>
