<svg xmlns="http://www.w3.org/2000/svg" xmlns:xlink="http://www.w3.org/1999/xlink" width="397.094" height="325.817" viewBox="0 0 397.094 325.817">
  <defs>
    <linearGradient id="linear-gradient" x1="0.117" y1="0.5" x2="1.117" y2="0.5" gradientUnits="objectBoundingBox">
      <stop offset="0" stop-color="#faeb61"/>
      <stop offset="0.522" stop-color="#f37c21"/>
      <stop offset="0.908" stop-color="#faeb61"/>
    </linearGradient>
    <linearGradient id="linear-gradient-2" x1="0.268" y1="0.164" x2="0.75" y2="0.982" gradientUnits="objectBoundingBox">
      <stop offset="0" stop-color="#f9ae1d"/>
      <stop offset="0.524" stop-color="#f37b20"/>
      <stop offset="0.543" stop-color="#f37d1f"/>
      <stop offset="0.839" stop-color="#f7a01d"/>
      <stop offset="0.997" stop-color="#f9ae1d"/>
    </linearGradient>
    <linearGradient id="linear-gradient-3" x1="0.877" y1="-0.787" x2="0.66" y2="-0.261" gradientUnits="objectBoundingBox">
      <stop offset="0" stop-color="#f37b20"/>
      <stop offset="1" stop-color="#f9ae1d"/>
    </linearGradient>
    <linearGradient id="linear-gradient-4" x1="0.522" y1="0.587" x2="0.243" y2="0.822" gradientUnits="objectBoundingBox">
      <stop offset="0" stop-color="#f9ae1d"/>
      <stop offset="1" stop-color="#f37b20"/>
    </linearGradient>
    <linearGradient id="linear-gradient-5" x1="0.211" y1="0.684" x2="0.57" y2="0.313" xlink:href="#linear-gradient-3"/>
    <linearGradient id="linear-gradient-6" x1="0.823" y1="0.698" x2="0.357" y2="0.437" xlink:href="#linear-gradient-3"/>
    <linearGradient id="linear-gradient-7" x1="0.573" y1="0.373" x2="0.362" y2="0.605" xlink:href="#linear-gradient-4"/>
    <linearGradient id="linear-gradient-8" x1="0.041" y1="0.366" x2="0.532" y2="0.662" xlink:href="#linear-gradient-4"/>
    <linearGradient id="linear-gradient-9" x1="0.31" y1="0.724" x2="0.646" y2="0.479" xlink:href="#linear-gradient-3"/>
  </defs>
  <g id="Group_8" data-name="Group 8" transform="translate(-163.145 -112.756)">
    <g id="Group_3" data-name="Group 3">
      <g id="Group_1" data-name="Group 1">
        <path id="Path_1" data-name="Path 1" d="M221.323,383.89h-5.635v-3.984h16.124v3.984h-5.727v17h-4.762Z" fill="#fff"/>
        <path id="Path_2" data-name="Path 2" d="M239.092,379.906v8.062H246.9v-8.062h4.731v20.98H246.9v-8.778h-7.813v8.778H234.33v-20.98Z" fill="#fff"/>
        <path id="Path_3" data-name="Path 3" d="M260.659,395.5l-1.495,5.385h-4.917l6.412-20.98h6.225l6.506,20.98h-5.1l-1.62-5.385Zm2.8-20.545,2.615,3.767h-3.8l-3.8-3.767Zm2.522,17-1.308-4.452c-.373-1.245-.747-2.8-1.058-4.046h-.063c-.31,1.245-.622,2.832-.965,4.046l-1.245,4.452Z" fill="#fff"/>
        <path id="Path_4" data-name="Path 4" d="M276.187,400.886v-20.98h5.54l4.358,7.689a60.836,60.836,0,0,1,3.424,7.19h.094a77.678,77.678,0,0,1-.4-8.747v-6.132h4.358v20.98h-4.981l-4.482-8.093a78.031,78.031,0,0,1-3.642-7.409l-.093.031c.125,2.771.186,5.728.186,9.152v6.319Z" fill="#fff"/>
        <path id="Path_5" data-name="Path 5" d="M302.423,379.906v8.062h7.813v-8.062h4.731v20.98h-4.731v-8.778h-7.813v8.778H297.66v-20.98Z" fill="#fff"/>
        <path id="Path_6" data-name="Path 6" d="M325.389,379.906h4.762v17h8.342v3.984h-13.1Z" fill="#fff"/>
        <path id="Path_7" data-name="Path 7" d="M346.364,395.5l-1.494,5.385h-4.918l6.412-20.98h6.226l6.506,20.98H353.99l-1.618-5.385Zm4.981-20.545,3.175,3.83h-3.362l-1.556-1.931h-.063l-1.556,1.931h-3.3l3.112-3.83Zm.343,17L350.38,387.5c-.374-1.245-.747-2.8-1.059-4.046h-.061c-.312,1.245-.623,2.832-.966,4.046l-1.245,4.452Zm-4.514,13.571a2.12,2.12,0,0,1,2.179-2.148,2.082,2.082,0,0,1,2.086,2.148,2.113,2.113,0,0,1-2.086,2.117A2.152,2.152,0,0,1,347.174,405.524Z" fill="#fff"/>
        <path id="Path_8" data-name="Path 8" d="M361.893,380.186a38.819,38.819,0,0,1,6.412-.436c2.925,0,5.011.56,6.412,1.681a6.134,6.134,0,0,1,2.241,4.856,6.7,6.7,0,0,1-1.93,4.98c-1.618,1.526-4.015,2.211-6.817,2.211a11.805,11.805,0,0,1-1.618-.094v7.5h-4.7Zm4.7,9.525a7.2,7.2,0,0,0,1.587.125c2.521,0,4.078-1.277,4.078-3.424,0-1.93-1.338-3.082-3.7-3.082a8.05,8.05,0,0,0-1.961.187Z" fill="#fff"/>
        <path id="Path_9" data-name="Path 9" d="M401.669,400.3a13.541,13.541,0,0,1-5.386.9c-7.252,0-10.987-4.514-10.987-10.491,0-7.159,5.1-11.144,11.455-11.144a12.367,12.367,0,0,1,5.167.934l-.965,3.767a10.242,10.242,0,0,0-3.984-.778c-3.767,0-6.693,2.272-6.693,6.941,0,4.2,2.49,6.848,6.724,6.848a11.845,11.845,0,0,0,3.953-.685Z" fill="#fff"/>
        <path id="Path_10" data-name="Path 10" d="M423.05,390.178c0,6.879-4.172,11.05-10.3,11.05-6.226,0-9.867-4.7-9.867-10.676,0-6.288,4.015-10.989,10.21-10.989C419.532,379.563,423.05,384.388,423.05,390.178Zm-15.16.28c0,4.109,1.93,7,5.1,7,3.206,0,5.043-3.051,5.043-7.128,0-3.767-1.806-7-5.074-7C409.758,383.33,407.89,386.38,407.89,390.458Zm6.848-15.5,3.144,3.8h-3.33l-1.557-1.93h-.063l-1.555,1.93h-3.331l3.143-3.8Z" fill="#fff"/>
        <path id="Path_11" data-name="Path 11" d="M426.157,400.886v-20.98h5.54l4.358,7.689a60.682,60.682,0,0,1,3.424,7.19h.094a77.678,77.678,0,0,1-.4-8.747v-6.132h4.358v20.98h-4.98l-4.483-8.093a77.785,77.785,0,0,1-3.641-7.409l-.094.031c.125,2.771.186,5.728.186,9.152v6.319Z" fill="#fff"/>
        <path id="Path_12" data-name="Path 12" d="M465.155,399.921a23.482,23.482,0,0,1-7,1.183c-3.829,0-6.6-.965-8.529-2.833a10.146,10.146,0,0,1-2.957-7.626c.031-6.973,5.1-10.957,11.984-10.957a14.447,14.447,0,0,1,5.82,1.027l-1,3.8a11.624,11.624,0,0,0-4.887-.9c-3.953,0-6.941,2.241-6.941,6.786,0,4.327,2.708,6.879,6.6,6.879a6.351,6.351,0,0,0,2.335-.311v-4.389h-3.238V388.87h7.813Z" fill="#fff"/>
        <path id="Path_13" data-name="Path 13" d="M477.974,383.89h-5.635v-3.984h16.124v3.984h-5.727v17h-4.762Z" fill="#fff"/>
        <path id="Path_14" data-name="Path 14" d="M496.054,400.886V392.3l-6.63-12.389h5.416l2.148,5.043c.654,1.525,1.09,2.646,1.619,4.015h.062c.467-1.307.965-2.521,1.587-4.015l2.117-5.043H507.7l-6.911,12.233v8.747Z" fill="#fff"/>
      </g>
      <g id="Group_2" data-name="Group 2">
        <path id="Path_15" data-name="Path 15" d="M290.528,422.2h-.063l-3.86,1.837-.778-3.548L291.181,418H295.1v20.233h-4.575Z" fill="#fff"/>
        <path id="Path_16" data-name="Path 16" d="M303.255,434.807a11.192,11.192,0,0,0,2.054,0,8.126,8.126,0,0,0,3.985-1.245,6.289,6.289,0,0,0,2.552-3.736l-.093-.03a5.342,5.342,0,0,1-4.046,1.463,6.1,6.1,0,0,1-6.32-6.319,7.356,7.356,0,0,1,7.627-7.284c5.2,0,7.657,3.984,7.657,8.715,0,4.2-1.338,7.284-3.548,9.308a11.962,11.962,0,0,1-7.72,2.832,16.394,16.394,0,0,1-2.148,0Zm2.864-10.148c0,1.744.934,3.238,2.864,3.238a2.98,2.98,0,0,0,2.614-1.339,2.224,2.224,0,0,0,.249-1.183c0-2.147-.808-4.264-2.957-4.264C307.271,421.111,306.088,422.543,306.119,424.659Z" fill="#fff"/>
        <path id="Path_17" data-name="Path 17" d="M320.527,434.807a11.19,11.19,0,0,0,2.054,0,8.126,8.126,0,0,0,3.984-1.245,6.286,6.286,0,0,0,2.553-3.736l-.093-.03a5.344,5.344,0,0,1-4.047,1.463,6.1,6.1,0,0,1-6.319-6.319,7.356,7.356,0,0,1,7.627-7.284c5.2,0,7.657,3.984,7.657,8.715,0,4.2-1.339,7.284-3.549,9.308a11.96,11.96,0,0,1-7.72,2.832,16.379,16.379,0,0,1-2.147,0Zm2.863-10.148c0,1.744.935,3.238,2.864,3.238a2.982,2.982,0,0,0,2.615-1.339,2.224,2.224,0,0,0,.249-1.183c0-2.147-.809-4.264-2.957-4.264C324.543,421.111,323.359,422.543,323.39,424.659Z" fill="#fff"/>
        <path id="Path_18" data-name="Path 18" d="M335.994,432.94a5.376,5.376,0,0,1,3.61-5.075v-.093a4.909,4.909,0,0,1-2.926-4.42c0-3.424,3.082-5.7,7.129-5.7,4.731,0,6.692,2.739,6.692,5.2a4.93,4.93,0,0,1-2.926,4.451v.094a5.354,5.354,0,0,1,3.705,5.043c0,3.672-3.082,6.131-7.782,6.131C338.36,438.573,335.994,435.679,335.994,432.94Zm10.459-.156c0-1.775-1.308-2.833-3.175-3.331a3.068,3.068,0,0,0-2.459,3.019,2.77,2.77,0,0,0,2.863,2.833A2.542,2.542,0,0,0,346.453,432.784Zm-5.324-9.587c0,1.369,1.245,2.241,2.865,2.739a2.774,2.774,0,0,0,2.054-2.584,2.32,2.32,0,0,0-2.46-2.49A2.256,2.256,0,0,0,341.129,423.2Z" fill="#fff"/>
        <path id="Path_19" data-name="Path 19" d="M365.013,428.488v3.144h-8.155v-3.144Z" fill="#fff"/>
        <path id="Path_20" data-name="Path 20" d="M370.769,438.231v-2.864L373.383,433c4.42-3.953,6.569-6.226,6.631-8.592,0-1.65-1-2.957-3.331-2.957a7.337,7.337,0,0,0-4.327,1.681l-1.338-3.393a11.208,11.208,0,0,1,6.63-2.085c4.576,0,7.1,2.677,7.1,6.35,0,3.393-2.46,6.1-5.386,8.715l-1.867,1.557v.062h7.626v3.891Z" fill="#fff"/>
        <path id="Path_21" data-name="Path 21" d="M402.983,428.021c0,6.257-2.522,10.552-7.689,10.552-5.229,0-7.533-4.7-7.564-10.427,0-5.852,2.49-10.49,7.72-10.49C400.866,417.656,402.983,422.481,402.983,428.021Zm-10.49.125c-.032,4.638,1.089,6.848,2.925,6.848s2.833-2.3,2.833-6.911c0-4.482-.964-6.847-2.864-6.847C393.644,421.236,392.461,423.446,392.493,428.146Z" fill="#fff"/>
        <path id="Path_22" data-name="Path 22" d="M405.313,438.231v-2.864L407.927,433c4.421-3.953,6.568-6.226,6.631-8.592,0-1.65-1-2.957-3.331-2.957a7.334,7.334,0,0,0-4.327,1.681l-1.338-3.393a11.205,11.205,0,0,1,6.63-2.085c4.576,0,7.1,2.677,7.1,6.35,0,3.393-2.459,6.1-5.385,8.715l-1.867,1.557v.062h7.625v3.891Z" fill="#fff"/>
        <path id="Path_23" data-name="Path 23" d="M422.274,432.94a5.376,5.376,0,0,1,3.611-5.075v-.093a4.908,4.908,0,0,1-2.927-4.42c0-3.424,3.082-5.7,7.129-5.7,4.732,0,6.693,2.739,6.693,5.2a4.93,4.93,0,0,1-2.926,4.451v.094a5.354,5.354,0,0,1,3.7,5.043c0,3.672-3.082,6.131-7.782,6.131C424.639,438.573,422.274,435.679,422.274,432.94Zm10.459-.156c0-1.775-1.308-2.833-3.175-3.331a3.068,3.068,0,0,0-2.459,3.019,2.77,2.77,0,0,0,2.863,2.833A2.542,2.542,0,0,0,432.733,432.784Zm-5.324-9.587c0,1.369,1.246,2.241,2.865,2.739a2.771,2.771,0,0,0,2.054-2.584,2.32,2.32,0,0,0-2.459-2.49A2.256,2.256,0,0,0,427.409,423.2Z" fill="#fff"/>
      </g>
    </g>
    <g id="Group_7" data-name="Group 7">
      <g id="Group_4" data-name="Group 4">
        <path id="Path_24" data-name="Path 24" d="M559.549,245.453c-3.478,28.382-18.946,46.836-24.646,53.459-16.781,19.488-35.957,27.382-44.781,30.9-25.174,10.018-46.815,8.915-61.79,7.984-18.538-1.152-36.748-4.86-53.821-12.344-21.529-9.449-40.059-24.911-57.423-40.483-14.656-13.157-29.6-26.473-48.093-33.957-8.532-3.458-21-8.352-37.49-7.637-9.1.4-27.841,1.2-38.88,14.927-1.847,2.291-6.845,8.657-7.151,17.961-.493,14.767,11.969,25.112,12.351,25.424A34,34,0,0,1,183.6,287.456c-7.561-14.947.055-30.569,1.735-34.019,9.963-20.44,33.027-26.41,40.963-28.465,19.745-5.11,40.552-1.965,58.853,6.623,18.878,8.852,33.992,23.9,48.988,38.018,16.746,15.767,33.659,31.882,53.765,43.351a121.119,121.119,0,0,0,59.715,15.76,112.52,112.52,0,0,0,56.736-14.538c37.872-21.793,59.86-70.761,49.626-110.216a76.148,76.148,0,0,0-7.97-19.266l.542-.375C553.759,196.944,562.826,218.709,559.549,245.453Z" fill="url(#linear-gradient)"/>
        <path id="Path_25" data-name="Path 25" d="M188.46,270.794a28.971,28.971,0,0,1,5.4-9.457,40.185,40.185,0,0,1,8.214-7.309,67.441,67.441,0,0,1,9.705-5.236l2.586-.989,1.295-.495c.435-.153.883-.27,1.325-.407l2.662-.793c.9-.225,1.808-.4,2.713-.606l1.361-.294c.456-.083.918-.131,1.377-.2l2.763-.372,2.782-.173c.464-.024.928-.065,1.393-.074l1.394.013a60.419,60.419,0,0,1,11.091,1.042l2.73.561c.913.18,1.8.459,2.7.69,1.806.443,3.548,1.075,5.316,1.64a97.6,97.6,0,0,1,10.22,4.3,135.831,135.831,0,0,1,18.933,11.324c6.01,4.214,11.745,8.768,17.362,13.43s11.028,9.538,16.461,14.337c1.353,1.213,2.72,2.385,4.092,3.544l4.106,3.5c1.367,1.168,2.808,2.244,4.208,3.371,1.415,1.106,2.8,2.247,4.241,3.326a210.827,210.827,0,0,0,36.576,22.546c1.588.837,3.25,1.505,4.887,2.229l4.927,2.146,5.032,1.875c1.681.617,3.342,1.293,5.066,1.78,3.424,1.041,6.818,2.2,10.315,2.977l5.211,1.31,5.279.995c3.507.765,7.081,1.076,10.636,1.548,1.775.273,3.569.323,5.358.441l5.373.344c1.793.034,3.588.011,5.385.02l2.7,0,1.348,0c.449-.01.9-.053,1.345-.077l5.384-.345,2.694-.173,2.7-.263a133.59,133.59,0,0,0,21.193-4.143c3.494-.938,6.964-1.981,10.421-3.078,3.462-1.08,6.908-2.225,10.353-3.372-3.36,1.376-6.722,2.751-10.111,4.065s-6.817,2.534-10.277,3.676a129.834,129.834,0,0,1-21.284,5.22c-.9.135-1.8.263-2.71.374l-2.73.275-5.467.549c-.456.042-.912.1-1.369.128l-1.373.049-2.747.1c-1.832.058-3.666.146-5.5.178l-5.5-.169c-1.834-.073-3.674-.079-5.5-.308-3.65-.386-7.327-.614-10.941-1.3l-5.445-.881-5.382-1.2c-3.612-.725-7.11-1.87-10.646-2.882-1.78-.475-3.495-1.139-5.231-1.745l-5.2-1.846-5.09-2.121c-1.692-.716-3.411-1.378-5.051-2.208a211.284,211.284,0,0,1-37.562-22.847c-1.459-1.108-2.87-2.277-4.307-3.413-1.421-1.156-2.884-2.262-4.27-3.458l-4.163-3.583c-1.394-1.192-2.776-2.389-4.118-3.6-5.409-4.853-10.809-9.665-16.275-14.381-10.933-9.388-22.37-18.251-35.024-24.879a94,94,0,0,0-9.723-4.4c-1.675-.581-3.333-1.234-5.043-1.7-.852-.239-1.692-.538-2.553-.74l-2.582-.628a57.51,57.51,0,0,0-10.513-1.372l-1.327-.061c-.442-.008-.884.017-1.326.024l-2.656.067-2.644.262c-.441.048-.884.076-1.323.14l-1.311.224c-.873.154-1.753.283-2.624.459l-2.588.644c-.43.112-.867.2-1.293.333l-1.269.42-2.541.839L210,251.56a25.424,25.424,0,0,0-2.448,1.1c-1.593.817-3.236,1.561-4.754,2.5a39.471,39.471,0,0,0-8.393,6.667A28.617,28.617,0,0,0,188.46,270.794Z" fill="url(#linear-gradient-2)"/>
        <path id="Path_26" data-name="Path 26" d="M325.014,337.789a169.549,169.549,0,0,1-25.081,10.371,165.3,165.3,0,0,1-26.568,6.092c-2.25.388-4.521.587-6.791.828l-3.409.351-3.438.248c-4.586.3-9.178.458-13.769.446a138.744,138.744,0,0,1-27.353-2.562,84.893,84.893,0,0,1-25.747-9.394,63.636,63.636,0,0,1-20.367-18.528,64.517,64.517,0,0,0,19.451,20,87.522,87.522,0,0,0,25.865,11.3,143.085,143.085,0,0,0,27.972,4.387c4.713.306,9.435.434,14.152.421l3.538-.035,3.555-.142c2.371-.1,4.75-.166,7.113-.422a172.912,172.912,0,0,0,28.176-4.645,178.993,178.993,0,0,0,27.131-9.292,182.915,182.915,0,0,0,26.409-14.163q-5.79-3.151-11.553-6.769A171.128,171.128,0,0,1,325.014,337.789Z" fill="url(#linear-gradient-3)"/>
        <path id="Path_27" data-name="Path 27" d="M372.1,255.867c0-42.688-41.29-54.148-41.309-54.154,1.631.453,4.862-.761,6.451-1.076a126.617,126.617,0,0,0,15.9-4.231c13.529-4.57,27.292-11.715,35.839-23.538,7.782-10.764,9.113-25.991.334-36.614-7.138-8.639-18.533-12.583-29.929-14.492-1.229-.206-2.458-.385-3.682-.547l3.547,1.351c19.016,9.729,29.187,27.756,13.887,45.9-17.226,20.43-46.911,32.071-72.206,38.8,0,0,15.439-2.86,28.521,6.676a37.581,37.581,0,0,1,12.094,15.193c5.895,12.932,2.881,25.375,1.736,30.2a47.664,47.664,0,0,1-2.912,8.514c7.74,7.287,15.62,14.66,23.867,21.538C374.6,270.566,372.1,255.867,372.1,255.867Z" fill="url(#linear-gradient-4)"/>
        <path id="Path_28" data-name="Path 28" d="M389.251,287.956a84.7,84.7,0,0,0,2.711-16.115,79.54,79.54,0,0,0-.76-16.227,67.306,67.306,0,0,0-11.877-29.445,53.453,53.453,0,0,0-11.077-11.181,54.052,54.052,0,0,0-13.625-7.373,53.157,53.157,0,0,1,12.51,8.7,50.862,50.862,0,0,1,9.293,11.759,62.113,62.113,0,0,1,7.871,28.258,71.806,71.806,0,0,1-.955,14.5,75.153,75.153,0,0,1-3.988,13.879,80.727,80.727,0,0,1-5.925,11.984c3.259,2.454,6.584,4.8,9.987,7.015A92.844,92.844,0,0,0,389.251,287.956Z" fill="url(#linear-gradient-5)"/>
        <path id="Path_29" data-name="Path 29" d="M286.7,205.185A133.73,133.73,0,0,0,326.078,189c10.079-6.293,20.881-13.344,26.792-24,9.943-17.92-10.508-26.856-25.394-26.688a93.938,93.938,0,0,0-46.271,13.37,130.655,130.655,0,0,0-16.818,12.144c-1.261,1.069-5.74,3.867-6.153,5.6,6.6-27.768-14.923-48.248-14.926-48.251,4.6,4.374,13.531,3.9,19.413,4.167,14.119.639,27.989-.945,41.97-2.679,13.836-1.715,27.877-3.991,41.576-.407,14.53,3.8,27.208,13.059,28.258,29.119,2.43,37.144-106.918,59.361-106.918,59.361Z" fill="url(#linear-gradient-6)"/>
        <path id="Path_30" data-name="Path 30" d="M547.4,211.3c-9.091-45.649-54.233-78.491-100.546-69.821-21.626,4.049-41.909,17.531-52.353,37.36a61,61,0,0,0-6.783,35.634c-.909-7.319,6.579-19.247,10.572-25.113a71.431,71.431,0,0,1,19.5-19.218c29.3-19.461,68.264-14.142,92.807,10.746,26.774,27.15,30.36,75.921,3.116,104.039-21.256,21.94-56.54,28.114-85.387,20.931a96.447,96.447,0,0,1-33.851-15.983,98.56,98.56,0,0,1-5.46,14.952c.822.463,1.656.923,2.514,1.378a116.951,116.951,0,0,0,90.19,7.589C524.738,299.734,556.595,257.455,547.4,211.3Z" fill="url(#linear-gradient-7)"/>
        <path id="Path_31" data-name="Path 31" d="M324.82,312.555c-.493-.4-.985-.792-1.481-1.184l-.076-.06q-.717-.582-1.443-1.153c-.971-.77-1.976-1.567-2.985-2.438l-4.154-3.575c-1.252-1.07-2.752-2.363-4.252-3.723l-.309-.277a162.357,162.357,0,0,1-26.2,13.694c-27.915,11.743-54.525,11.9-73.264,9.681a59.558,59.558,0,0,1-19.421-8.987,53.847,53.847,0,0,1-21.177-34.377,51.654,51.654,0,0,1,2.3-25.884,47.9,47.9,0,0,1,18.18-23.052,45.415,45.415,0,0,0-18.517,15.7c-10.79,15.581-9.109,32.584-8.212,40.879a62.324,62.324,0,0,0,24.705,43.214c15.749,11.576,38.108,16.185,57.219,17.536,16.285,1.151,32.5-1.71,47.152-6.219,2.665-.82,5.277-1.7,7.83-2.612a173.509,173.509,0,0,0,34.864-19.2q-3.921-2.718-7.808-5.639C326.735,314.094,325.761,313.312,324.82,312.555Z" fill="url(#linear-gradient-8)"/>
        <path id="Path_32" data-name="Path 32" d="M516,195.14a68.819,68.819,0,0,0-28.69-26.953,60.761,60.761,0,0,0-9.955-3.885c-34.1-9.864-76.676,10.1-86.139,45.749,1.6-6.037,7.257-12.385,11.233-16.865a75.129,75.129,0,0,1,39.93-23.437c27.711-6.142,59.113,4.444,74.717,29.192l2.124,3.437Z" fill="url(#linear-gradient-9)"/>
      </g>
      <g id="Group_5" data-name="Group 5">
        <path id="Path_33" data-name="Path 33" d="M396.928,225.633a2.625,2.625,0,0,1-1.184-.255,2.25,2.25,0,0,1-1.313-1.954q0-1.632,2.194-3.6a26.144,26.144,0,0,1,5.842-3.777,49.412,49.412,0,0,1,8-3.09,38.319,38.319,0,0,1,8.357-1.537,8.181,8.181,0,0,1,6,2.225,9.312,9.312,0,0,1,2.512,6.292,12.223,12.223,0,0,1-.816,4.21,26.138,26.138,0,0,1-2.129,4.418,49.622,49.622,0,0,1-2.753,4.13q-1.441,1.938-3.555,4.626-2.465,3.14-3.457,4.579a1.543,1.543,0,0,0-.32.736c0,.086.064.128.192.128a1.808,1.808,0,0,0,.72-.336,5.685,5.685,0,0,0,.977-.784q9.893-10.214,17.241-15.032t11.8-4.818a5.181,5.181,0,0,1,4.258,1.76,7.319,7.319,0,0,1,1.441,4.771,20.044,20.044,0,0,1-1.088,6.115q-1.185,3.522-3.427,9.765-2.08,5.7-2.977,8.549a15.951,15.951,0,0,0-.9,4.418,2.163,2.163,0,0,0,.257,1.184,1.819,1.819,0,0,1,.352.929q0,.992-1.569.993a8.319,8.319,0,0,1-1.665-.193,8.909,8.909,0,0,1-5.3-3.057,8.774,8.774,0,0,1-1.648-5.427,19.107,19.107,0,0,1,.592-4.514,37.706,37.706,0,0,1,1.585-4.947q.991-2.513,1.9-4.514t2.481-5.363q1.76-3.522,2.3-4.835a5.138,5.138,0,0,0,.513-1.921q0-.831-.864-.832-1.57,0-5.86,3.17a112.42,112.42,0,0,0-9.7,8.228q-5.41,5.06-10.517,10.694a107.331,107.331,0,0,0-8.277,10.149,4.331,4.331,0,0,0-.448,1.121q-.192.927-.576.928a1.594,1.594,0,0,1-.736-.256,10.26,10.26,0,0,1-3.474-3.3,7.467,7.467,0,0,1-1.106-3.938,11.073,11.073,0,0,1,1.377-5.091A67.712,67.712,0,0,1,406.2,239.9q2.385-3.441,5.938-8.212,4.866-6.5,7.157-10.07T421.582,216q0-2.144-2.946-2.145a18.339,18.339,0,0,0-3.81.512q-12.775,2.947-16.776,9.7a1.332,1.332,0,0,0-.225.608q0,.384.48.384a2.552,2.552,0,0,0,.785-.128c.266-.085.464-.149.592-.192l-.128.064A6.223,6.223,0,0,1,396.928,225.633Z" fill="#fff"/>
        <path id="Path_34" data-name="Path 34" d="M469.767,232.069a3.392,3.392,0,0,1,2.433,1.121,12.246,12.246,0,0,1,2.241,3.681,1.152,1.152,0,0,1,.192.577q0,.448-.48.448a1.1,1.1,0,0,1-.832-.448,1.772,1.772,0,0,0-1.442-.577,9.557,9.557,0,0,0-3.937,1.2,31.316,31.316,0,0,0-5.027,3.17,39.55,39.55,0,0,0-4.691,4.162,16.694,16.694,0,0,0-3.025,4.114,2.212,2.212,0,0,0-.256.993c0,.555.223.832.672.832a2.525,2.525,0,0,0,1.377-.7q1.25-.993,3.65-3.106,3.617-3.074,5.779-4.771a15.362,15.362,0,0,1,3.217-2.113,3.691,3.691,0,0,1,1.314-.256,2.752,2.752,0,0,1,2.289,1.089,3.82,3.82,0,0,1,.848,2.4,3.219,3.219,0,0,1-.129.9,7.134,7.134,0,0,1-.784,1.745q-.591,1.01-1.648,2.8-1.091,1.889-1.681,3.009a18.514,18.514,0,0,0-.913,1.954,2.1,2.1,0,0,0-.16.736q0,.768.545.768a1.105,1.105,0,0,0,.639-.32q.865-.641,2.178-1.825t2.721-2.529q1.408-1.346,2.754-2.722t2.113-2.305q.607-.7,1.057-.7c.17,0,.255.107.255.32a1.146,1.146,0,0,1-.192.576,23.4,23.4,0,0,1-1.728,2.081q-1.218,1.345-2.818,2.946t-3.074,2.945q-1.471,1.346-2.529,2.21a3.411,3.411,0,0,1-2.177.864,3.044,3.044,0,0,1-2.417-1.152,4.913,4.913,0,0,1-.977-3.266q0-3.2,2.625-7.524a1.893,1.893,0,0,0,.321-.8.227.227,0,0,0-.256-.256,1.273,1.273,0,0,0-.481.128,14.746,14.746,0,0,0-3.265,2.626q-1.633,1.7-4.13,4.642a52.265,52.265,0,0,1-5.636,6.051,3.142,3.142,0,0,1-2.049.769,4.006,4.006,0,0,1-3.1-1.729,5.85,5.85,0,0,1-1.409-3.778,4.536,4.536,0,0,1,.32-1.7,25.3,25.3,0,0,1,3.778-6.26,41.96,41.96,0,0,1,5.315-5.506,56.239,56.239,0,0,1,5.474-4.195,35.63,35.63,0,0,1,4.259-2.513A7.043,7.043,0,0,1,469.767,232.069Zm10.886-9.573a.213.213,0,0,1,.16-.064q.512,0,.448.32a.728.728,0,0,1-.289.32,45.2,45.2,0,0,1-6.8,5.187,10.077,10.077,0,0,1-4.562,1.729,4.213,4.213,0,0,1-3.25-1.649q-1.425-1.648-1.233-6.035c.021-.342.17-.512.449-.512.17,0,.362.191.576.576a4.959,4.959,0,0,0,2.081,3.329,5.136,5.136,0,0,0,2.993.8,11.929,11.929,0,0,0,3.234-.721,39.985,39.985,0,0,0,6.067-3.281Z" fill="#fff"/>
        <path id="Path_35" data-name="Path 35" d="M485.968,232.581q0-.384.8-.384a1.967,1.967,0,0,1,1.649.912,4.119,4.119,0,0,1,.657,2.45,10.691,10.691,0,0,1-1.6,5.218,3.114,3.114,0,0,0-.384.929c0,.086.022.128.065.128q.384,0,3.617-2.881a12.517,12.517,0,0,1,3.2-2.194,7.155,7.155,0,0,1,2.945-.752,2.92,2.92,0,0,1,2.161.785,3.29,3.29,0,0,1,.785,2.417,11.3,11.3,0,0,1-.64,3.361,2.472,2.472,0,0,0-.129.321,5.074,5.074,0,0,0-.128.7c0,.064.022.1.065.1.084,0,.3-.16.64-.481a47.3,47.3,0,0,1,7.748-6.035,11.467,11.467,0,0,1,5.379-1.9,2.989,2.989,0,0,1,2.545,1.12,4.875,4.875,0,0,1,.849,3.01,13.333,13.333,0,0,1-1.57,5.859q-1.824,3.649-2.705,5.987a11.149,11.149,0,0,0-.881,3.458q0,.9.641.9a5.3,5.3,0,0,0,2.754-1.537,58.776,58.776,0,0,0,4.45-4.29q2.047-2.241,2.689-2.241c.149,0,.224.043.224.128q0,.736-1.921,2.69c-.171.191-.427.48-.768.864a63.522,63.522,0,0,1-5.3,5.155,5.576,5.576,0,0,1-3.506,1.408,5.462,5.462,0,0,1-1.376-.192,6.371,6.371,0,0,1-3.282-1.889,4.411,4.411,0,0,1-.977-2.849,9.57,9.57,0,0,1,1.057-4.05q1.056-2.226,3.2-5.779l.384-.641a9.343,9.343,0,0,0,1.6-3.81q0-.735-.671-.736-1.057,0-3.474,1.745a42.56,42.56,0,0,0-5.235,4.594,53.789,53.789,0,0,0-5.251,6.2,29.12,29.12,0,0,0-3.618,6.355.657.657,0,0,1-.64.448,2.3,2.3,0,0,1-1.3-.48,3.354,3.354,0,0,1-1.072-1.217,6,6,0,0,1-.8-3.074,10.654,10.654,0,0,1,1.184-4.626,28.643,28.643,0,0,1,3.17-5.011,16.057,16.057,0,0,0,1.49-2.337,4.34,4.34,0,0,0,.591-1.729q0-.512-.448-.512a2.186,2.186,0,0,0-.736.192,13.131,13.131,0,0,0-3.762,2.866q-2.322,2.289-4.915,5.346t-4.5,5.78a26.734,26.734,0,0,0-2.417,3.905c-.129.257-.214.385-.257.385a1.321,1.321,0,0,1-.48-.192l-.256-.193a3.616,3.616,0,0,1-1.505-3.169,9.142,9.142,0,0,1,.689-3.234,28.414,28.414,0,0,1,1.777-3.73q1.089-1.937,2.257-3.714t2.674-3.922q1.536-2.177,2.289-3.394a4.228,4.228,0,0,0,.752-1.665l-.064-.128v-.064A.874.874,0,0,1,485.968,232.581Z" fill="#fff"/>
      </g>
      <g id="Group_6" data-name="Group 6">
        <path id="Path_36" data-name="Path 36" d="M410.554,129.782l2.873,5.541,5.37-2.784L415.924,127l3.251-1.686,7.478,14.418-3.252,1.686-3.128-6.032-5.37,2.784,3.128,6.033-3.273,1.7-7.476-14.419Z" fill="#fff"/>
        <path id="Path_37" data-name="Path 37" d="M438.326,115.776a5.131,5.131,0,0,1,1.165,1.986,2.484,2.484,0,0,1-1.693,3.267l-.377.166,2.1,6.839c1.473,4.789-.244,7.812-4.3,9.058-3.914,1.2-6.882-.252-8.4-5.2l-2.662-8.658,3.523-1.083,2.747,8.934c.821,2.671,2.252,3.718,4.048,3.166,1.842-.566,2.458-2.167,1.616-4.908l-2.747-8.933,2.671-.822c.944-.29,1.106-.667.921-1.266a3.144,3.144,0,0,0-.958-1.394Z" fill="#fff"/>
        <path id="Path_38" data-name="Path 38" d="M458.349,113.973a5.427,5.427,0,0,1,.864,2.372,2.419,2.419,0,0,1-2.2,2.93,9.185,9.185,0,0,1,1.925,4.769c.627,5.288-2.2,8.874-6.912,9.434-4.785.567-8.013-2.713-8.558-7.307-.573-4.833,2.084-8.812,6.846-9.377a9.48,9.48,0,0,1,3,.129,9.472,9.472,0,0,0,2.469.557c.6-.071.847-.416.771-1.062a3.6,3.6,0,0,0-.733-1.684ZM455.1,124.621c-.344-2.9-2.026-5.219-4.539-4.921-2.488.3-3.607,2.927-3.253,5.918.337,3.042,2.1,5.234,4.565,4.942S455.472,127.755,455.1,124.621Zm-1.019-11.865-2.57,3.289-2.919.347,1.66-3.181Z" fill="#fff"/>
        <path id="Path_39" data-name="Path 39" d="M461.658,132.314l.884-16.208,4.281.233,3.043,6.124a47.174,47.174,0,0,1,2.341,5.7l.073,0a60.277,60.277,0,0,1,.055-6.774l.259-4.738,3.367.184-.884,16.208-3.848-.21-3.122-6.441a60.438,60.438,0,0,1-2.5-5.877l-.073.02c-.021,2.146-.1,4.433-.242,7.078l-.266,4.882Z" fill="#fff"/>
        <path id="Path_40" data-name="Path 40" d="M490.985,135.656a18.164,18.164,0,0,1-5.489-.3c-2.889-.65-4.817-1.848-5.958-3.585a7.859,7.859,0,0,1-.938-6.259c1.206-5.258,5.712-7.4,10.9-6.239a11.2,11.2,0,0,1,4.22,1.763l-1.4,2.7a8.973,8.973,0,0,0-3.536-1.51c-2.984-.671-5.621.514-6.391,3.945-.734,3.266.878,5.653,3.815,6.312a4.9,4.9,0,0,0,1.815.161l.745-3.313-2.445-.549.628-2.8,5.9,1.325Z" fill="#fff"/>
        <path id="Path_41" data-name="Path 41" d="M500.047,129.167l1.555.714,2.654-5.78a32.4,32.4,0,0,1,4.662,1.743c2.78,1.277,4.4,2.6,5.329,4.33a7.313,7.313,0,0,1-.11,6.763,8.321,8.321,0,0,1-5.205,4.928c-2.149.577-4.8.126-7.7-1.2a31.865,31.865,0,0,1-3.688-1.958l2.857-6.219-1.555-.714Zm6.62,6.2-2.933-1.347L502,137.782a10.559,10.559,0,0,0,1.14.576c3.065,1.408,5.759.682,7.418-2.93,1.467-3.2.388-5.522-2.5-6.85a8.061,8.061,0,0,0-1.571-.562l-1.559,3.394,2.934,1.347Z" fill="#fff"/>
        <path id="Path_42" data-name="Path 42" d="M524,145.219l-5.029-3.228-2.082,3.245,5.617,3.605-1.627,2.535-8.72-5.6,8.773-13.668,8.435,5.415-1.627,2.535-5.333-3.423-1.822,2.839,5.029,3.228Zm4.355-12.9L528.6,136l-2.007-1.289-.073-1.85-.04-.026-1.712.705-1.968-1.263,3.406-1.336Zm6.076,1.552-4.2.568-1.481-.95,3.026-1.323Z" fill="#fff"/>
        <path id="Path_43" data-name="Path 43" d="M522.5,152.48l10.531-12.352,3.262,2.782L535,149.623a46.952,46.952,0,0,1-1.594,5.953l.056.046a60.235,60.235,0,0,1,4.152-5.352l3.078-3.61,2.566,2.187L532.727,161.2l-2.933-2.5,1.424-7.015a60.217,60.217,0,0,1,1.574-6.19l-.07-.028c-1.318,1.693-2.765,3.466-4.484,5.481l-3.171,3.72Z" fill="#fff"/>
      </g>
    </g>
  </g>
</svg>
