<svg xmlns="http://www.w3.org/2000/svg" xmlns:xlink="http://www.w3.org/1999/xlink" width="397.296" height="322.911" viewBox="0 0 397.296 322.911">
  <defs>
    <linearGradient id="linear-gradient" x1="0.117" y1="0.5" x2="1.117" y2="0.5" gradientUnits="objectBoundingBox">
      <stop offset="0" stop-color="#faeb61"/>
      <stop offset="0.522" stop-color="#f37c21"/>
      <stop offset="0.908" stop-color="#faeb61"/>
    </linearGradient>
    <linearGradient id="linear-gradient-2" x1="0.268" y1="0.164" x2="0.75" y2="0.982" gradientUnits="objectBoundingBox">
      <stop offset="0" stop-color="#f9ae1d"/>
      <stop offset="0.524" stop-color="#f37b20"/>
      <stop offset="0.543" stop-color="#f37d1f"/>
      <stop offset="0.839" stop-color="#f7a01d"/>
      <stop offset="0.997" stop-color="#f9ae1d"/>
    </linearGradient>
    <linearGradient id="linear-gradient-3" x1="0.877" y1="-0.787" x2="0.66" y2="-0.261" gradientUnits="objectBoundingBox">
      <stop offset="0" stop-color="#f37b20"/>
      <stop offset="1" stop-color="#f9ae1d"/>
    </linearGradient>
    <linearGradient id="linear-gradient-4" x1="0.522" y1="0.587" x2="0.243" y2="0.822" gradientUnits="objectBoundingBox">
      <stop offset="0" stop-color="#f9ae1d"/>
      <stop offset="1" stop-color="#f37b20"/>
    </linearGradient>
    <linearGradient id="linear-gradient-5" x1="0.211" y1="0.684" x2="0.57" y2="0.313" xlink:href="#linear-gradient-3"/>
    <linearGradient id="linear-gradient-6" x1="0.823" y1="0.698" x2="0.357" y2="0.437" xlink:href="#linear-gradient-3"/>
    <linearGradient id="linear-gradient-7" x1="0.573" y1="0.373" x2="0.362" y2="0.605" xlink:href="#linear-gradient-4"/>
    <linearGradient id="linear-gradient-8" x1="0.041" y1="0.366" x2="0.532" y2="0.662" xlink:href="#linear-gradient-4"/>
    <linearGradient id="linear-gradient-9" x1="0.31" y1="0.724" x2="0.646" y2="0.479" xlink:href="#linear-gradient-3"/>
  </defs>
  <g id="Group_54" data-name="Group 54" transform="translate(-177.811 -462.875)">
    <g id="Group_49" data-name="Group 49">
      <g id="Group_47" data-name="Group 47">
        <path id="Path_160" data-name="Path 160" d="M178.82,727.088h12.831v3.894h-8.067v4.795h7.537v3.862h-7.537v8.44H178.82Z" fill="#fff"/>
        <path id="Path_161" data-name="Path 161" d="M214.444,737.366c0,6.883-4.173,11.056-10.308,11.056-6.23,0-9.873-4.7-9.873-10.682,0-6.291,4.017-10.994,10.215-10.994C210.925,726.746,214.444,731.573,214.444,737.366Zm-15.166.28c0,4.111,1.93,7.007,5.107,7.007,3.207,0,5.045-3.051,5.045-7.131,0-3.769-1.807-7.008-5.076-7.008C201.146,730.514,199.278,733.566,199.278,737.646Z" fill="#fff"/>
        <path id="Path_162" data-name="Path 162" d="M222.286,727.088v12.084c0,3.613,1.37,5.45,3.8,5.45,2.491,0,3.862-1.743,3.862-5.45V727.088h4.734v11.773c0,6.477-3.271,9.561-8.752,9.561-5.294,0-8.408-2.928-8.408-9.624v-11.71Z" fill="#fff"/>
        <path id="Path_163" data-name="Path 163" d="M238.788,748.079V727.088h5.543l4.361,7.693a60.741,60.741,0,0,1,3.425,7.194h.094a78,78,0,0,1-.4-8.751v-6.136h4.36v20.991h-4.983l-4.484-8.1a77.492,77.492,0,0,1-3.644-7.412l-.094.031c.125,2.772.187,5.73.187,9.156v6.322Z" fill="#fff"/>
        <path id="Path_164" data-name="Path 164" d="M260.273,727.369a42.27,42.27,0,0,1,6.415-.436c3.986,0,6.571.716,8.6,2.242,2.18,1.62,3.551,4.2,3.551,7.911,0,4.017-1.464,6.789-3.488,8.5-2.211,1.837-5.575,2.709-9.686,2.709a41.054,41.054,0,0,1-5.387-.311Zm4.764,17.129a8.782,8.782,0,0,0,1.651.093c4.3.031,7.1-2.336,7.1-7.35.032-4.36-2.522-6.664-6.6-6.664a9.845,9.845,0,0,0-2.15.187Z" fill="#fff"/>
        <path id="Path_165" data-name="Path 165" d="M286.335,742.691l-1.495,5.388h-4.921l6.416-20.991h6.229l6.509,20.991h-5.108l-1.62-5.388Zm5.325-3.55-1.307-4.453c-.374-1.246-.748-2.8-1.06-4.049h-.062c-.311,1.246-.622,2.834-.965,4.049l-1.246,4.453Z" fill="#fff"/>
        <path id="Path_166" data-name="Path 166" d="M303.335,731.075H297.7v-3.987H313.83v3.987H308.1v17h-4.765Z" fill="#fff"/>
        <path id="Path_167" data-name="Path 167" d="M321.114,727.088v20.991h-4.765V727.088Z" fill="#fff"/>
        <path id="Path_168" data-name="Path 168" d="M344.438,737.366c0,6.883-4.173,11.056-10.308,11.056-6.229,0-9.873-4.7-9.873-10.682,0-6.291,4.018-10.994,10.215-10.994C340.919,726.746,344.438,731.573,344.438,737.366Zm-15.166.28c0,4.111,1.931,7.007,5.107,7.007,3.207,0,5.045-3.051,5.045-7.131,0-3.769-1.806-7.008-5.076-7.008C331.14,730.514,329.272,733.566,329.272,737.646Z" fill="#fff"/>
        <path id="Path_169" data-name="Path 169" d="M347.548,748.079V727.088h5.543l4.361,7.693a60.743,60.743,0,0,1,3.425,7.194h.094a78,78,0,0,1-.4-8.751v-6.136h4.36v20.991h-4.983l-4.485-8.1a77.725,77.725,0,0,1-3.643-7.412l-.094.031c.125,2.772.187,5.73.187,9.156v6.322Z" fill="#fff"/>
        <path id="Path_170" data-name="Path 170" d="M380.211,742.691l-1.495,5.388H373.8l6.416-20.991h6.229l6.509,20.991h-5.108l-1.619-5.388Zm5.326-3.55-1.309-4.453c-.373-1.246-.747-2.8-1.059-4.049h-.062c-.311,1.246-.622,2.834-.965,4.049l-1.246,4.453Z" fill="#fff"/>
        <path id="Path_171" data-name="Path 171" d="M395.747,748.079V727.088h5.542l4.361,7.693a60.9,60.9,0,0,1,3.426,7.194h.093a78,78,0,0,1-.4-8.751v-6.136h4.36v20.991h-4.983l-4.484-8.1a77.731,77.731,0,0,1-3.644-7.412l-.094.031c.125,2.772.187,5.73.187,9.156v6.322Z" fill="#fff"/>
        <path id="Path_172" data-name="Path 172" d="M417.231,748.079V727.088h5.543l4.36,7.693a60.9,60.9,0,0,1,3.426,7.194h.094a77.768,77.768,0,0,1-.4-8.751v-6.136h4.36v20.991h-4.984l-4.484-8.1a77.725,77.725,0,0,1-3.643-7.412l-.094.031c.125,2.772.186,5.73.186,9.156v6.322Z" fill="#fff"/>
        <path id="Path_173" data-name="Path 173" d="M443.479,727.088v20.991h-4.765V727.088Z" fill="#fff"/>
        <path id="Path_174" data-name="Path 174" d="M452.54,748.079l-6.727-20.991h5.2l2.554,8.876c.716,2.492,1.37,4.89,1.868,7.506h.094c.529-2.523,1.183-5.014,1.9-7.412l2.679-8.97h5.045l-7.069,20.991Z" fill="#fff"/>
        <path id="Path_175" data-name="Path 175" d="M479.879,739.2h-7.723v4.983h8.627v3.893H467.391V727.088h12.955v3.894h-8.19v4.359h7.723Z" fill="#fff"/>
        <path id="Path_176" data-name="Path 176" d="M484.018,727.369a41.708,41.708,0,0,1,6.322-.436c3.115,0,5.294.467,6.789,1.651a5.327,5.327,0,0,1,1.931,4.391,5.571,5.571,0,0,1-3.706,5.17v.093c1.464.592,2.273,1.993,2.8,3.924.654,2.367,1.308,5.108,1.713,5.917h-4.859a26.313,26.313,0,0,1-1.464-4.889c-.56-2.616-1.463-3.332-3.394-3.364H488.72v8.253h-4.7Zm4.7,9.031h1.869c2.367,0,3.768-1.183,3.768-3.021,0-1.93-1.308-2.9-3.487-2.927a11.787,11.787,0,0,0-2.15.156Z" fill="#fff"/>
        <path id="Path_177" data-name="Path 177" d="M502.637,743.19A12.12,12.12,0,0,0,507.9,744.5c2.18,0,3.332-.9,3.332-2.274,0-1.308-1-2.055-3.52-2.958-3.487-1.215-5.76-3.146-5.76-6.2,0-3.581,2.989-6.322,7.941-6.322a12.863,12.863,0,0,1,5.357,1.059l-1.059,3.831a9.979,9.979,0,0,0-4.392-1c-2.055,0-3.051.934-3.051,2.024,0,1.34,1.183,1.931,3.892,2.959,3.706,1.37,5.45,3.3,5.45,6.26,0,3.519-2.709,6.509-8.47,6.509a13.735,13.735,0,0,1-5.949-1.277Z" fill="#fff"/>
        <path id="Path_178" data-name="Path 178" d="M524.185,742.691l-1.495,5.388h-4.921l6.416-20.991h6.229l6.508,20.991h-5.107l-1.62-5.388Zm5.325-3.55-1.307-4.453c-.374-1.246-.748-2.8-1.06-4.049h-.062c-.311,1.246-.622,2.834-.965,4.049l-1.246,4.453Z" fill="#fff"/>
        <path id="Path_179" data-name="Path 179" d="M539.72,727.369a41.723,41.723,0,0,1,6.323-.436c3.114,0,5.294.467,6.789,1.651a5.329,5.329,0,0,1,1.93,4.391,5.571,5.571,0,0,1-3.706,5.17v.093c1.464.592,2.274,1.993,2.8,3.924.654,2.367,1.309,5.108,1.713,5.917h-4.859a26.334,26.334,0,0,1-1.463-4.889c-.561-2.616-1.464-3.332-3.4-3.364h-1.433v8.253h-4.7Zm4.7,9.031h1.87c2.366,0,3.767-1.183,3.767-3.021,0-1.93-1.307-2.9-3.487-2.927a11.8,11.8,0,0,0-2.15.156Z" fill="#fff"/>
        <path id="Path_180" data-name="Path 180" d="M562.451,748.079v-8.6l-6.634-12.395h5.419l2.148,5.046c.655,1.526,1.091,2.647,1.621,4.017h.062c.467-1.308.965-2.522,1.588-4.017l2.118-5.046H574.1l-6.914,12.24v8.751Z" fill="#fff"/>
      </g>
      <g id="Group_48" data-name="Group 48">
        <path id="Path_181" data-name="Path 181" d="M304.794,769.405h-.062l-3.861,1.837-.779-3.55,5.357-2.492h3.924v20.243h-4.579Z" fill="#fff"/>
        <path id="Path_182" data-name="Path 182" d="M317.528,782.018a11.207,11.207,0,0,0,2.056,0,8.136,8.136,0,0,0,3.986-1.246,6.3,6.3,0,0,0,2.554-3.737L326.03,777a5.343,5.343,0,0,1-4.048,1.463,6.1,6.1,0,0,1-6.322-6.322,7.358,7.358,0,0,1,7.63-7.287c5.2,0,7.661,3.986,7.661,8.72,0,4.2-1.339,7.287-3.551,9.312a11.97,11.97,0,0,1-7.723,2.834,16.408,16.408,0,0,1-2.149,0Zm2.865-10.153c0,1.744.935,3.239,2.865,3.239a2.985,2.985,0,0,0,2.617-1.339,2.241,2.241,0,0,0,.249-1.184c0-2.149-.81-4.266-2.959-4.266C321.545,768.315,320.362,769.747,320.393,771.865Z" fill="#fff"/>
        <path id="Path_183" data-name="Path 183" d="M334.809,782.018a11.207,11.207,0,0,0,2.056,0,8.136,8.136,0,0,0,3.986-1.246,6.294,6.294,0,0,0,2.554-3.737l-.094-.031a5.343,5.343,0,0,1-4.048,1.463,6.1,6.1,0,0,1-6.322-6.322,7.359,7.359,0,0,1,7.63-7.287c5.2,0,7.661,3.986,7.661,8.72,0,4.2-1.339,7.287-3.551,9.312a11.967,11.967,0,0,1-7.722,2.834,16.423,16.423,0,0,1-2.15,0Zm2.865-10.153c0,1.744.935,3.239,2.866,3.239a2.985,2.985,0,0,0,2.616-1.339,2.241,2.241,0,0,0,.249-1.184c0-2.149-.81-4.266-2.959-4.266C338.827,768.315,337.643,769.747,337.674,771.865Z" fill="#fff"/>
        <path id="Path_184" data-name="Path 184" d="M350.284,780.149a5.378,5.378,0,0,1,3.612-5.076v-.093a4.914,4.914,0,0,1-2.928-4.423c0-3.426,3.083-5.7,7.132-5.7,4.734,0,6.7,2.74,6.7,5.2a4.931,4.931,0,0,1-2.927,4.453v.094a5.357,5.357,0,0,1,3.706,5.045c0,3.675-3.083,6.135-7.786,6.135C352.65,785.786,350.284,782.89,350.284,780.149Zm10.464-.156c0-1.775-1.309-2.834-3.177-3.332a3.07,3.07,0,0,0-2.46,3.021,2.772,2.772,0,0,0,2.864,2.834A2.543,2.543,0,0,0,360.748,779.993Zm-5.327-9.592c0,1.371,1.247,2.243,2.866,2.741a2.77,2.77,0,0,0,2.055-2.585,2.32,2.32,0,0,0-2.46-2.491A2.257,2.257,0,0,0,355.421,770.4Z" fill="#fff"/>
        <path id="Path_185" data-name="Path 185" d="M379.679,775.7v3.146H371.52V775.7Z" fill="#fff"/>
        <path id="Path_186" data-name="Path 186" d="M386,785.443v-2.865l2.616-2.366c4.423-3.956,6.572-6.229,6.634-8.6,0-1.651-1-2.959-3.332-2.959a7.335,7.335,0,0,0-4.329,1.682l-1.339-3.4a11.209,11.209,0,0,1,6.633-2.086c4.578,0,7.1,2.678,7.1,6.353,0,3.4-2.46,6.1-5.388,8.72l-1.868,1.557v.062h7.63v3.893Z" fill="#fff"/>
        <path id="Path_187" data-name="Path 187" d="M418.233,775.229c0,6.259-2.523,10.557-7.693,10.557-5.232,0-7.537-4.7-7.568-10.433,0-5.855,2.492-10.5,7.724-10.5C416.115,764.858,418.233,769.685,418.233,775.229Zm-10.495.124c-.032,4.64,1.089,6.852,2.926,6.852s2.835-2.3,2.835-6.914c0-4.485-.966-6.852-2.865-6.852C408.89,768.439,407.706,770.651,407.738,775.353Z" fill="#fff"/>
        <path id="Path_188" data-name="Path 188" d="M420.565,785.443v-2.865l2.616-2.366c4.423-3.956,6.571-6.229,6.634-8.6,0-1.651-1-2.959-3.332-2.959a7.332,7.332,0,0,0-4.329,1.682l-1.339-3.4a11.2,11.2,0,0,1,6.633-2.086c4.578,0,7.1,2.678,7.1,6.353,0,3.4-2.46,6.1-5.388,8.72l-1.868,1.557v.062h7.63v3.893Z" fill="#fff"/>
        <path id="Path_189" data-name="Path 189" d="M437.534,780.149a5.379,5.379,0,0,1,3.613-5.076v-.093a4.914,4.914,0,0,1-2.928-4.423c0-3.426,3.083-5.7,7.132-5.7,4.733,0,6.7,2.74,6.7,5.2a4.931,4.931,0,0,1-2.928,4.453v.094a5.358,5.358,0,0,1,3.707,5.045c0,3.675-3.084,6.135-7.787,6.135C439.9,785.786,437.534,782.89,437.534,780.149ZM448,779.993c0-1.775-1.308-2.834-3.176-3.332a3.07,3.07,0,0,0-2.46,3.021,2.771,2.771,0,0,0,2.864,2.834A2.542,2.542,0,0,0,448,779.993Zm-5.326-9.592c0,1.371,1.246,2.243,2.865,2.741a2.771,2.771,0,0,0,2.056-2.585,2.321,2.321,0,0,0-2.46-2.491A2.257,2.257,0,0,0,442.672,770.4Z" fill="#fff"/>
      </g>
    </g>
    <g id="Group_53" data-name="Group 53">
      <g id="Group_50" data-name="Group 50">
        <path id="Path_190" data-name="Path 190" d="M574.416,592.568c-3.48,28.4-18.956,46.859-24.659,53.486-16.789,19.5-35.975,27.4-44.8,30.911-25.188,10.023-46.839,8.919-61.822,7.988-18.547-1.153-36.767-4.862-53.848-12.35-21.54-9.454-40.08-24.924-57.452-40.5-14.664-13.163-29.612-26.486-48.117-33.974-8.537-3.459-21.012-8.357-37.51-7.641-9.1.4-27.854,1.2-38.9,14.934-1.848,2.293-6.849,8.662-7.155,17.97-.493,14.775,11.976,25.125,12.358,25.438a34.034,34.034,0,0,1-14.233-14.233c-7.565-14.956.056-30.585,1.737-34.037,9.967-20.45,33.043-26.424,40.983-28.48,19.755-5.112,40.573-1.966,58.883,6.627,18.887,8.856,34.009,23.909,49.013,38.038,16.754,15.775,33.675,31.9,53.792,43.372a121.17,121.17,0,0,0,59.745,15.768,112.572,112.572,0,0,0,56.764-14.545c37.892-21.8,59.891-70.8,49.652-110.272a76.229,76.229,0,0,0-7.974-19.276l.542-.375C568.623,544.034,577.7,565.811,574.416,592.568Z" fill="url(#linear-gradient)"/>
        <path id="Path_191" data-name="Path 191" d="M203.138,617.922a29.02,29.02,0,0,1,5.406-9.462,40.17,40.17,0,0,1,8.219-7.312,67.356,67.356,0,0,1,9.71-5.239l2.587-.99,1.295-.495c.436-.154.884-.27,1.326-.407l2.663-.794c.9-.225,1.809-.4,2.715-.606l1.362-.294c.456-.083.918-.131,1.378-.2l2.763-.372,2.784-.173c.464-.024.929-.066,1.394-.075l1.394.014a60.4,60.4,0,0,1,11.1,1.043l2.732.561c.913.179,1.8.458,2.7.689,1.807.444,3.55,1.077,5.318,1.641a97.725,97.725,0,0,1,10.226,4.308,135.868,135.868,0,0,1,18.942,11.33c6.013,4.216,11.751,8.772,17.371,13.436s11.034,9.543,16.469,14.344c1.354,1.215,2.722,2.386,4.094,3.546l4.109,3.5c1.368,1.169,2.809,2.245,4.21,3.373,1.416,1.107,2.806,2.248,4.243,3.327a210.885,210.885,0,0,0,36.6,22.558c1.588.837,3.251,1.506,4.889,2.23l4.929,2.147,5.035,1.876c1.681.617,3.344,1.294,5.068,1.781,3.426,1.042,6.822,2.2,10.321,2.979l5.213,1.31,5.282,1c3.509.765,7.084,1.076,10.641,1.548,1.776.273,3.571.323,5.361.441l5.376.345c1.794.033,3.59.011,5.387.02l2.7,0h1.349c.449-.009.9-.052,1.346-.077l5.386-.345,2.695-.172,2.7-.263a133.638,133.638,0,0,0,21.2-4.146c3.495-.938,6.967-1.982,10.425-3.079,3.464-1.081,6.912-2.226,10.359-3.374-3.362,1.377-6.725,2.752-10.116,4.067-3.4,1.3-6.821,2.536-10.282,3.678a129.887,129.887,0,0,1-21.3,5.223c-.9.134-1.8.263-2.711.374l-2.732.275-5.47.55c-.456.041-.912.1-1.369.127l-1.373.049-2.749.1c-1.833.057-3.668.146-5.5.177l-5.5-.168c-1.835-.073-3.676-.079-5.5-.309-3.653-.386-7.332-.615-10.947-1.3l-5.448-.882-5.385-1.2c-3.614-.726-7.113-1.871-10.651-2.884-1.781-.475-3.5-1.14-5.234-1.746l-5.2-1.847-5.093-2.121c-1.693-.717-3.413-1.38-5.053-2.21A211.366,211.366,0,0,1,346.7,656.485c-1.46-1.109-2.872-2.279-4.31-3.416-1.422-1.156-2.886-2.263-4.272-3.459l-4.165-3.585c-1.394-1.192-2.777-2.39-4.12-3.607-5.411-4.855-10.815-9.669-16.283-14.388-10.939-9.393-22.382-18.26-35.042-24.891a93.9,93.9,0,0,0-9.728-4.4c-1.676-.582-3.334-1.236-5.045-1.7-.853-.239-1.693-.538-2.555-.74l-2.583-.628a57.479,57.479,0,0,0-10.518-1.373l-1.328-.062c-.442-.007-.884.018-1.327.025l-2.657.067-2.646.262c-.44.048-.884.076-1.323.14l-1.311.224c-.874.155-1.755.283-2.626.459l-2.589.645c-.431.112-.868.2-1.294.333l-1.27.42-2.542.84-2.477,1.028a25.234,25.234,0,0,0-2.45,1.1c-1.594.817-3.237,1.561-4.756,2.5a39.484,39.484,0,0,0-8.4,6.67A28.639,28.639,0,0,0,203.138,617.922Z" fill="url(#linear-gradient-2)"/>
        <path id="Path_192" data-name="Path 192" d="M339.762,684.951a169.576,169.576,0,0,1-25.094,10.376,165.233,165.233,0,0,1-26.582,6.095c-2.251.388-4.522.588-6.793.829l-3.412.351-3.439.248c-4.588.3-9.183.458-13.776.446a138.88,138.88,0,0,1-27.367-2.563,84.951,84.951,0,0,1-25.76-9.4A63.675,63.675,0,0,1,187.162,672.8a64.559,64.559,0,0,0,19.461,20.013,87.55,87.55,0,0,0,25.877,11.3,143.234,143.234,0,0,0,27.987,4.39c4.716.306,9.439.434,14.159.421l3.54-.035,3.556-.142c2.373-.1,4.753-.166,7.117-.422a173.072,173.072,0,0,0,28.19-4.648,179.174,179.174,0,0,0,27.145-9.3,183.115,183.115,0,0,0,26.423-14.171q-5.793-3.153-11.559-6.772A171.391,171.391,0,0,1,339.762,684.951Z" fill="url(#linear-gradient-3)"/>
        <path id="Path_193" data-name="Path 193" d="M386.867,602.987c0-42.71-41.312-54.176-41.33-54.181,1.632.453,4.864-.762,6.454-1.076A126.523,126.523,0,0,0,367.9,543.5c13.536-4.572,27.306-11.721,35.858-23.55,7.785-10.769,9.117-26,.334-36.633-7.143-8.642-18.543-12.589-29.945-14.5-1.23-.206-2.459-.385-3.684-.547l3.549,1.352c19.026,9.734,29.2,27.77,13.894,45.926-17.234,20.44-46.934,32.087-72.242,38.818,0,0,15.447-2.86,28.535,6.68a37.611,37.611,0,0,1,12.1,15.2c5.9,12.938,2.882,25.388,1.736,30.216a47.712,47.712,0,0,1-2.913,8.518c7.744,7.291,15.628,14.668,23.878,21.549C389.375,617.694,386.867,602.987,386.867,602.987Z" fill="url(#linear-gradient-4)"/>
        <path id="Path_194" data-name="Path 194" d="M404.031,635.092a84.61,84.61,0,0,0,2.713-16.123,79.539,79.539,0,0,0-.761-16.234,67.322,67.322,0,0,0-11.882-29.46,53.486,53.486,0,0,0-11.083-11.187,54.076,54.076,0,0,0-13.632-7.377,53.156,53.156,0,0,1,12.516,8.708,50.889,50.889,0,0,1,9.3,11.765,62.149,62.149,0,0,1,7.875,28.273,71.8,71.8,0,0,1-.956,14.507,75.147,75.147,0,0,1-3.99,13.886,80.8,80.8,0,0,1-5.928,11.99q4.892,3.682,9.992,7.019A92.778,92.778,0,0,0,404.031,635.092Z" fill="url(#linear-gradient-5)"/>
        <path id="Path_195" data-name="Path 195" d="M301.428,552.279a133.75,133.75,0,0,0,39.4-16.2c10.084-6.3,20.892-13.35,26.806-24.009,9.948-17.929-10.514-26.869-25.407-26.7a93.982,93.982,0,0,0-46.294,13.376A130.9,130.9,0,0,0,279.1,510.9c-1.262,1.069-5.743,3.869-6.156,5.606,6.6-27.782-14.93-48.273-14.934-48.276,4.6,4.376,13.538,3.9,19.424,4.169,14.126.64,28-.945,41.99-2.68,13.844-1.716,27.892-3.994,41.6-.407,14.537,3.8,27.221,13.065,28.272,29.134,2.431,37.162-106.972,59.39-106.972,59.39Z" fill="url(#linear-gradient-6)"/>
        <path id="Path_196" data-name="Path 196" d="M562.263,558.394c-9.1-45.671-54.261-78.53-100.6-69.855-21.637,4.051-41.93,17.539-52.38,37.378A61.04,61.04,0,0,0,402.5,561.57c-.909-7.323,6.583-19.257,10.578-25.126a71.467,71.467,0,0,1,19.514-19.229c29.311-19.47,68.3-14.148,92.854,10.753,26.788,27.163,30.375,75.958,3.118,104.091C507.3,654.01,471.994,660.187,443.132,653a96.5,96.5,0,0,1-33.868-15.99,98.6,98.6,0,0,1-5.463,14.96c.823.462,1.657.923,2.516,1.378a117.011,117.011,0,0,0,90.235,7.593C539.587,646.877,571.46,604.577,562.263,558.394Z" fill="url(#linear-gradient-7)"/>
        <path id="Path_197" data-name="Path 197" d="M339.568,659.7q-.739-.594-1.482-1.184l-.076-.06c-.478-.389-.96-.772-1.443-1.154-.972-.771-1.978-1.568-2.987-2.44l-4.156-3.576c-1.253-1.071-2.753-2.365-4.255-3.725l-.308-.277a162.541,162.541,0,0,1-26.212,13.7c-27.929,11.75-54.552,11.911-73.3,9.687a59.6,59.6,0,0,1-19.431-8.992,53.875,53.875,0,0,1-21.188-34.394,51.686,51.686,0,0,1,2.3-25.9,47.926,47.926,0,0,1,18.19-23.064A45.44,45.44,0,0,0,186.7,594.039c-10.8,15.59-9.114,32.6-8.217,40.9A62.36,62.36,0,0,0,203.2,678.175c15.757,11.582,38.128,16.193,57.248,17.545,16.293,1.152,32.52-1.711,47.175-6.222,2.667-.821,5.28-1.7,7.834-2.613a173.606,173.606,0,0,0,34.882-19.209q-3.922-2.72-7.811-5.642C341.484,661.244,340.51,660.461,339.568,659.7Z" fill="url(#linear-gradient-8)"/>
        <path id="Path_198" data-name="Path 198" d="M530.849,542.229a68.858,68.858,0,0,0-28.7-26.966,60.912,60.912,0,0,0-9.96-3.887c-34.112-9.869-76.714,10.11-86.183,45.772,1.6-6.04,7.261-12.391,11.239-16.874a75.181,75.181,0,0,1,39.95-23.449c27.725-6.144,59.143,4.447,74.755,29.207l2.125,3.439Z" fill="url(#linear-gradient-9)"/>
      </g>
      <g id="Group_51" data-name="Group 51">
        <path id="Path_199" data-name="Path 199" d="M430.071,477.851l-3.922,1.911-1.351-2.773,11.223-5.47,1.352,2.774-3.986,1.943,5.764,11.83-3.314,1.615Z" fill="#fff"/>
        <path id="Path_200" data-name="Path 200" d="M455.494,473.508c1.574,5.088-.556,9.129-5.092,10.532-4.605,1.425-8.375-1.218-9.743-5.639-1.439-4.651.454-9.047,5.037-10.465C450.462,466.461,454.169,469.225,455.494,473.508Zm-11.149,3.677c.94,3.039,3.031,4.739,5.379,4.012,2.372-.734,3.032-3.411,2.1-6.427-.862-2.786-2.938-4.768-5.356-4.019C444.1,471.485,443.411,474.169,444.345,477.185Z" fill="#fff"/>
        <path id="Path_201" data-name="Path 201" d="M462,480.752l-5.491-15.764,3.907-.4,1.9,6.539c.557,1.881,1.106,3.932,1.536,5.535l.048-.005c.085-1.777.27-3.758.473-5.789l.688-6.756,3.884-.4,1.991,6.675c.554,1.857.995,3.556,1.419,5.329l.048-.005c.056-1.822.221-3.753.36-5.705l.64-6.751,3.716-.381-2.516,16.584-3.955.406-2.079-6.812c-.478-1.6-.9-3.082-1.277-4.908l-.048.005c-.1,1.852-.208,3.413-.424,5.082l-.822,7.109Z" fill="#fff"/>
        <path id="Path_202" data-name="Path 202" d="M482.81,475.512l-1.462,4.072-3.8-.282,6.154-15.83,4.807.357L492.33,480.4l-3.941-.293-.941-4.25Zm4.313-2.434-.754-3.512c-.218-.983-.417-2.206-.585-3.185l-.049,0c-.311.943-.642,2.151-.976,3.069l-1.217,3.365Z" fill="#fff"/>
        <path id="Path_203" data-name="Path 203" d="M497.442,465.146a32.181,32.181,0,0,1,4.846.764c2.35.539,3.914,1.268,4.837,2.42a4.122,4.122,0,0,1,.7,3.647,4.311,4.311,0,0,1-3.69,3.26l-.016.07c1,.7,1.37,1.9,1.436,3.446.085,1.9.1,4.08.269,4.761l-3.666-.84a20.39,20.39,0,0,1-.258-3.943c.029-2.071-.529-2.767-1.98-3.125l-1.081-.247-1.427,6.227-3.549-.814Zm1.987,7.628,1.41.323c1.785.409,3.048-.241,3.365-1.628.334-1.457-.485-2.412-2.125-2.812a9.177,9.177,0,0,0-1.648-.254Z" fill="#fff"/>
        <path id="Path_204" data-name="Path 204" d="M513.127,469.044a32.81,32.81,0,0,1,4.742,1.516c2.869,1.137,4.526,2.389,5.547,4.065a7.185,7.185,0,0,1,.3,6.7,8.24,8.24,0,0,1-4.935,5.125c-2.115.692-4.785.361-7.744-.812a31.946,31.946,0,0,1-3.789-1.76Zm-1.454,13.687a6.758,6.758,0,0,0,1.161.538c3.084,1.248,5.776.344,7.206-3.265,1.266-3.129.085-5.516-2.851-6.68a7.619,7.619,0,0,0-1.6-.478Z" fill="#fff"/>
        <path id="Path_205" data-name="Path 205" d="M524.137,486.986a9.384,9.384,0,0,0,3.037,2.9c1.466.835,2.586.67,3.111-.252.5-.879.117-1.763-1.232-3.337-1.879-2.153-2.668-4.322-1.5-6.373,1.372-2.408,4.431-3.105,7.761-1.207a9.944,9.944,0,0,1,3.2,2.764l-2.18,2.169a7.714,7.714,0,0,0-2.57-2.352c-1.382-.788-2.409-.542-2.827.191-.513.9.055,1.752,1.483,3.481,1.966,2.34,2.4,4.307,1.266,6.3-1.349,2.365-4.316,3.337-8.189,1.129a10.635,10.635,0,0,1-3.51-3.137Z" fill="#fff"/>
      </g>
      <g id="Group_52" data-name="Group 52">
        <path id="Path_206" data-name="Path 206" d="M414.558,595.1a11.77,11.77,0,0,1,1.028-4.464,34.2,34.2,0,0,1,2.663-5.066q1.637-2.6,3.329-4.829t4.473-5.81q3.069-3.831,4.473-5.826a6.236,6.236,0,0,0,1.4-2.976q0-.79-1.071-.791a6.922,6.922,0,0,0-1.419.19,22.726,22.726,0,0,0-4.689,1.725q-2.258,1.125-5.414,3.087a30.9,30.9,0,0,1-5.5,2.913,1.586,1.586,0,0,0-.29.063h-.318a3.1,3.1,0,0,1-2.056-.9,2.474,2.474,0,0,1-1.013-1.757.879.879,0,0,1,.289-.7q.839-.727,1.129-.728.174,0,.174.38,0,.538.319.538a1.772,1.772,0,0,0,.752-.316q2.026-1.3,4.43-2.534t4.921-2.279a34.986,34.986,0,0,1,4.835-1.63,17.066,17.066,0,0,1,4.14-.587,5.274,5.274,0,0,1,3.735,1.172,6,6,0,0,1,1.91,4.5,13.72,13.72,0,0,1-1.723,6.159q-1.722,3.371-5.168,8.754-2.142,3.23-3.531,5.525a37.1,37.1,0,0,0-2.345,4.512,6.67,6.67,0,0,0-.753,2.216c0,.3.116.443.348.443a5.007,5.007,0,0,0,1.939-.854,18.806,18.806,0,0,0,3.692-2.993q2.127-2.1,5.746-5.936,2.721-2.913,4.719-4.955t3.952-3.8a26.538,26.538,0,0,1,3.633-2.8,5.774,5.774,0,0,1,2.924-1.045,1.97,1.97,0,0,1,.955.222q2.027,1.014,2.027,4.338a22.377,22.377,0,0,1-.825,5.493q-.825,3.183-2.446,7.868a.526.526,0,0,1-.058.19v.127c0,.253.115.38.347.38l.2-.064a.416.416,0,0,1,.175-.063q1.185-.76,3.676-2.28,1.65-.949,2.316-1.424a1.072,1.072,0,0,1,.579-.254c.116,0,.174.064.174.19q0,.538-.695.918-1.563.919-3.662,2.438t-3.692,2.818l-.115.064a5.263,5.263,0,0,0-1.68,1.995,70.361,70.361,0,0,1-3.575,7.567q-2.042,3.735-4.183,6.934a58.525,58.525,0,0,1-4.1,5.477,20.952,20.952,0,0,1-3.315,3.262,1.358,1.358,0,0,1-.84.316q-1.3,0-2.519-1.916a7.984,7.984,0,0,1-1.332-3.783,10.627,10.627,0,0,1,1.246-4.718,26.311,26.311,0,0,1,3.227-4.923,46.365,46.365,0,0,1,4.242-4.528,52.66,52.66,0,0,1,4.284-3.625,8.929,8.929,0,0,0,1.621-1.282,12.647,12.647,0,0,0,1.332-1.821,42.652,42.652,0,0,0,4.358-8.549,21.375,21.375,0,0,0,1.635-6.807q0-1.616-.782-1.615a2.507,2.507,0,0,0-1.476.823q-.522.539-1.5,1.757t-3.069,4.1q-3.012,4.085-5.269,7t-4.951,5.889a39.8,39.8,0,0,1-5.1,4.829,7.291,7.291,0,0,1-4.169,1.852.659.659,0,0,1-.26-.063h-.232a10.455,10.455,0,0,1-3.314-1.235,22.41,22.41,0,0,1-3.258-2.47A5.269,5.269,0,0,1,414.558,595.1Z" fill="#fff"/>
        <path id="Path_207" data-name="Path 207" d="M463.513,594.466q-.549,0-.549-.317a1.062,1.062,0,0,1,.274-.633,2.43,2.43,0,0,1,.565-.538,40.171,40.171,0,0,0,4.386-3.768,5.445,5.445,0,0,0,1.665-3.1q0-.727-.608-.728a2.855,2.855,0,0,0-1.3.506,16.44,16.44,0,0,0-2.75,2.058,26.344,26.344,0,0,0-3.142,3.4,23.706,23.706,0,0,0-2.793,4.607,19.135,19.135,0,0,0-1.621,5.382v.254l-.059.189q0,1.173,1.246,1.172a9.07,9.07,0,0,0,3.676-1.266,44.494,44.494,0,0,0,5.211-3.246q2.779-1.979,5.328-4.147a36.62,36.62,0,0,0,3.936-3.784.485.485,0,0,1,.348-.19c.154,0,.232.106.232.317a.88.88,0,0,1-.175.506,37.56,37.56,0,0,1-3.676,4.718,44.169,44.169,0,0,1-4.719,4.512,27.12,27.12,0,0,1-5.038,3.34,10.38,10.38,0,0,1-4.6,1.267,4.834,4.834,0,0,1-4.43-2.724,7.124,7.124,0,0,1-.9-3.577,11.813,11.813,0,0,1,.564-3.5,25.64,25.64,0,0,1,1.52-3.752,30.616,30.616,0,0,1,2.142-3.657,36.69,36.69,0,0,1,2.678-3.5,19.116,19.116,0,0,1,2.823-2.691,4.447,4.447,0,0,1,2.606-1.076,2,2,0,0,1,1.3.474,16.143,16.143,0,0,1,2.577,2.3,19.837,19.837,0,0,1,1.939,2.676,2.434,2.434,0,0,1,.348,1.234,3.561,3.561,0,0,1-.825,2.185,11.317,11.317,0,0,1-2.128,2.074,19.241,19.241,0,0,1-2.707,1.741,23.147,23.147,0,0,1-2.474,1.156A4.548,4.548,0,0,1,463.513,594.466Z" fill="#fff"/>
        <path id="Path_208" data-name="Path 208" d="M491.45,578.635a2.965,2.965,0,0,1,2.2,1.108,12.363,12.363,0,0,1,2.026,3.641,1.22,1.22,0,0,1,.174.57.388.388,0,0,1-.435.443.969.969,0,0,1-.753-.443,1.532,1.532,0,0,0-1.3-.57,8.1,8.1,0,0,0-3.561,1.187,28.12,28.12,0,0,0-4.546,3.135,37.078,37.078,0,0,0-4.241,4.116,16.518,16.518,0,0,0-2.735,4.069,2.343,2.343,0,0,0-.232.981q0,.824.608.823a2.205,2.205,0,0,0,1.245-.7q1.13-.98,3.3-3.071,3.271-3.039,5.226-4.717a13.743,13.743,0,0,1,2.91-2.09,3.066,3.066,0,0,1,1.186-.253,2.416,2.416,0,0,1,2.07,1.076,4.007,4.007,0,0,1,.767,2.375,3.493,3.493,0,0,1-.115.886,7.449,7.449,0,0,1-.71,1.726q-.535,1-1.491,2.771-.984,1.867-1.52,2.976a19.281,19.281,0,0,0-.825,1.931,2.229,2.229,0,0,0-.145.728q0,.761.493.76a.967.967,0,0,0,.578-.317q.783-.633,1.97-1.8t2.46-2.5q1.273-1.329,2.49-2.691t1.911-2.279q.549-.7.955-.7c.154,0,.231.106.231.317a1.2,1.2,0,0,1-.173.569,22.476,22.476,0,0,1-1.564,2.059q-1.1,1.329-2.547,2.913t-2.78,2.912q-1.33,1.331-2.286,2.185a2.946,2.946,0,0,1-1.969.855,2.672,2.672,0,0,1-2.186-1.14,5.169,5.169,0,0,1-.882-3.229,15.882,15.882,0,0,1,2.373-7.441,1.963,1.963,0,0,0,.29-.792c0-.168-.078-.253-.232-.253a1.05,1.05,0,0,0-.434.127,13.555,13.555,0,0,0-2.953,2.6q-1.477,1.679-3.735,4.591a50.288,50.288,0,0,1-5.094,5.985,2.707,2.707,0,0,1-1.853.759,3.556,3.556,0,0,1-2.809-1.709,6.12,6.12,0,0,1-1.273-3.737,4.87,4.87,0,0,1,.288-1.678,25.589,25.589,0,0,1,3.417-6.19,40.225,40.225,0,0,1,4.8-5.446,51.787,51.787,0,0,1,4.952-4.148,31.737,31.737,0,0,1,3.85-2.485A5.942,5.942,0,0,1,491.45,578.635Z" fill="#fff"/>
        <path id="Path_209" data-name="Path 209" d="M497.558,595.162c-.193,0-.29-.1-.29-.317a1.308,1.308,0,0,1,.464-.791q.666-.633,1.549-1.6t1.607-1.82a17.365,17.365,0,0,0,1.215-1.6,2.806,2.806,0,0,0,.493-.934,9.627,9.627,0,0,1-1.187-4.085,5.07,5.07,0,0,1,1.158-3.166,17.442,17.442,0,0,1,3.821-3.324,1.5,1.5,0,0,1,.782-.191.861.861,0,0,1,.782.317q2.17,2.6,2.171,3.958,0,1.551-2.721,3.958c-.232.169-.347.327-.347.475,0,.169.1.253.288.253a1.45,1.45,0,0,0,.493-.127,11.918,11.918,0,0,1,4.082-1.045,3.8,3.8,0,0,1,1.925.491,10.725,10.725,0,0,1,1.925,1.5,2.428,2.428,0,0,1,.521,1.647,7.353,7.353,0,0,1-.347,2.058,18.3,18.3,0,0,1-.912,2.406q-.564,1.234-1.187,2.327t-1.231,2.074l-.405.728a2.174,2.174,0,0,0-.289.823c0,.127.038.19.116.19a2.116,2.116,0,0,0,.781-.443q.81-.7,2.143-1.836t2.2-1.916q.868-.775,5.674-5.05.81-.79,1.65-1.52a1.14,1.14,0,0,1,.724-.38c.232,0,.347.106.347.317a1.05,1.05,0,0,1-.4.728q-1.68,1.551-3.72,3.657t-5.139,5.367q-1.708,1.679-2.865,2.913t-1.8,1.8q-1.968,1.964-3.561,1.964a.927.927,0,0,1-.665-.222,10.551,10.551,0,0,1-2.244-2.327,3.84,3.84,0,0,1-.651-2.074,9.532,9.532,0,0,1,.578-2.6V597.7a11.443,11.443,0,0,1,1.26-2.375q.883-1.329,2.475-3.514,1.563-2.025,2.331-3.182a3.714,3.714,0,0,0,.767-1.82c0-.3-.223-.444-.666-.444h-.232a1.535,1.535,0,0,1-.4.063,8.739,8.739,0,0,0-2.982,1.3,11.554,11.554,0,0,1-2.779,1.235,3.049,3.049,0,0,0-1.361.76q-.638.6-2.084,2.089-1.824,1.932-2.548,2.6A2.25,2.25,0,0,1,497.558,595.162Z" fill="#fff"/>
        <path id="Path_210" data-name="Path 210" d="M529.838,580.186a.814.814,0,0,1,.376-.19q.291,0,.768.491a18.554,18.554,0,0,1,1.49,1.915,4.374,4.374,0,0,1,1.043,2.343q0,1.362-2.779,2.85-.289.128-1.245.633-2.084.982-2.084,1.552a1.294,1.294,0,0,0,.376.791,3.662,3.662,0,0,1,.4.507,17.294,17.294,0,0,1,2.128,2.754,5.1,5.1,0,0,1,.71,2.628v.412a2.777,2.777,0,0,0-.059.443,9.954,9.954,0,0,0,.97-.776q.594-.522,1.781-1.5t2.548-2.138q1.359-1.155,2.112-1.884a1.113,1.113,0,0,1,.667-.316c.192,0,.289.084.289.253a1.023,1.023,0,0,1-.289.6q-.552.57-1.491,1.472t-2.91,2.866q-2.056,1.93-2.924,2.786a4.216,4.216,0,0,0-.868.981,4.522,4.522,0,0,1-1.086,2.787,8.391,8.391,0,0,1-2.664,2.074,15.558,15.558,0,0,1-3.5,1.282,14.878,14.878,0,0,1-3.4.443,5.051,5.051,0,0,1-2.751-.57,1.222,1.222,0,0,1-.52-1.045,2.484,2.484,0,0,1,.781-1.615,21.768,21.768,0,0,1,3.3-2.659,36.533,36.533,0,0,0,4.545-3.689,4.462,4.462,0,0,0,1.563-3.055,2.661,2.661,0,0,0-.463-1.425q-.174-.253-.666-.855a26.377,26.377,0,0,1-1.954-2.8,4.529,4.529,0,0,1-.652-2.3,4.412,4.412,0,0,1,1.39-3.023,14.337,14.337,0,0,1,4.719-2.9A1.727,1.727,0,0,1,529.838,580.186Z" fill="#fff"/>
      </g>
    </g>
  </g>
</svg>
