<svg width="1437" height="1158" viewBox="0 0 1437 1158" fill="none" xmlns="http://www.w3.org/2000/svg">
<rect width="1437" height="1158" fill="white"/>
<g clip-path="url(#clip0_149_2651)">
<path d="M601 2H0V1158H601V2Z" fill="white"/>
<g opacity="0.19">
<path d="M131.151 217.522C199.508 217.522 254.922 164.892 254.922 99.9702C254.922 35.0479 199.508 -17.582 131.151 -17.582C62.7948 -17.582 7.38086 35.0479 7.38086 99.9702C7.38086 164.892 62.7948 217.522 131.151 217.522Z" stroke="#F7941D" stroke-miterlimit="10"/>
</g>
<g opacity="0.19">
<path d="M411.675 513.27C480.031 513.27 535.445 460.64 535.445 395.718C535.445 330.796 480.031 278.166 411.675 278.166C343.318 278.166 287.904 330.796 287.904 395.718C287.904 460.64 343.318 513.27 411.675 513.27Z" stroke="#F7941D" stroke-miterlimit="10"/>
</g>
<g opacity="0.19">
<path d="M110.512 662.787C150.916 662.787 183.669 631.679 183.669 593.306C183.669 554.933 150.916 523.825 110.512 523.825C70.1094 523.825 37.3562 554.933 37.3562 593.306C37.3562 631.679 70.1094 662.787 110.512 662.787Z" stroke="#F7941D" stroke-miterlimit="10"/>
</g>
</g>
<defs>
<clipPath id="clip0_149_2651">
<rect width="601" height="1156" fill="white" transform="translate(0 2)"/>
</clipPath>
</defs>
</svg>
