<svg xmlns="http://www.w3.org/2000/svg" width="32.814" height="36.87" viewBox="0 0 32.814 36.87">
  <g id="Group_2" data-name="Group 2" transform="translate(-127.59 -76.575)">
    <path id="Path_1" data-name="Path 1" d="M143.958,108.409a5.6,5.6,0,0,1-.22,1.7,5.369,5.369,0,0,1-.363.922c-.124.248-.251.5-.384.738a.193.193,0,0,0,0,.2,1.413,1.413,0,0,0,.895.708.738.738,0,0,0,.552-.075c.092-.051.1-.057.073-.158a2.7,2.7,0,0,1,.171-1.586,2.436,2.436,0,0,1,.6-.9,1.352,1.352,0,0,1,.54-.325.7.7,0,0,1,.75.215,1.536,1.536,0,0,1,.381.828,1.164,1.164,0,0,1-.3.965,3.147,3.147,0,0,1-.682.589l-.214.142c-.033.023-.037.048,0,.074a.785.785,0,0,0,.175.1,1.07,1.07,0,0,0,.916-.051,1.854,1.854,0,0,0,.717-.658,5.9,5.9,0,0,0,.642-1.3c.063-.167.124-.335.188-.5a.959.959,0,0,1,.143-.258.412.412,0,0,1,.11-.1.2.2,0,0,1,.312.064,1.556,1.556,0,0,1,.194.469c.105.373.2.749.309,1.122a4.257,4.257,0,0,0,.327.878.737.737,0,0,0,.236.289.283.283,0,0,0,.391-.035.837.837,0,0,0,.194-.272,1.906,1.906,0,0,0,.178-.75,1.589,1.589,0,0,0-.065-.449,1.749,1.749,0,0,1,.018-1.028.84.84,0,0,1,.437-.538.49.49,0,0,1,.114-.042.328.328,0,0,1,.428.226,1.207,1.207,0,0,1,.044.5,4.724,4.724,0,0,1-.337,1.428,4.023,4.023,0,0,1-.671,1.172,1.694,1.694,0,0,1-.827.583.885.885,0,0,1-.534.007.809.809,0,0,1-.43-.371,3.391,3.391,0,0,1-.3-.758c-.034-.1-.062-.206-.105-.3-.085-.2-.18-.213-.336-.069a4.462,4.462,0,0,0-.391.445,3.29,3.29,0,0,1-.961.815,2.7,2.7,0,0,1-1.09.293,1.2,1.2,0,0,1-.974-.378c-.051-.051-.086-.051-.148-.012a2.355,2.355,0,0,1-.8.341,1.2,1.2,0,0,1-1.14-.3c-.1-.1-.212-.194-.321-.288a.294.294,0,0,0-.364-.03,3.7,3.7,0,0,0-.346.236,2.233,2.233,0,0,1-.977.408,2.41,2.41,0,0,1-.379.022.928.928,0,0,1-.71-.367,3.19,3.19,0,0,1-.313-.469,1.158,1.158,0,0,0-.191-.275c-.1-.1-.149-.1-.254-.006a1.506,1.506,0,0,0-.239.29,6.209,6.209,0,0,1-.434.6.976.976,0,0,1-.206.174.368.368,0,0,1-.375.01.9.9,0,0,1-.357-.357,6.094,6.094,0,0,1-.362-.734,3.862,3.862,0,0,0-.341-.653.8.8,0,0,0-.2-.2.346.346,0,0,0-.36-.029,2.366,2.366,0,0,0-.492.33c-.311.253-.6.532-.894.8-.249.227-.494.459-.765.662a1.872,1.872,0,0,1-.261.168.28.28,0,0,1-.32-.012.3.3,0,0,1-.1-.3,7.9,7.9,0,0,1,.258-.969c.11-.368.2-.742.295-1.113.045-.168.088-.337.141-.5a.537.537,0,0,1,.327-.354c.141-.056.2-.032.242.114s.072.3.107.456a2.687,2.687,0,0,0,.113.371.942.942,0,0,0,.091.179.12.12,0,0,0,.2.028,1.867,1.867,0,0,0,.27-.3c.2-.256.393-.513.593-.767a1.967,1.967,0,0,1,.415-.42,1.1,1.1,0,0,1,.126-.078.262.262,0,0,1,.367.092,1.563,1.563,0,0,1,.244.49c.1.305.2.612.3.918a3.863,3.863,0,0,0,.269.656,1.048,1.048,0,0,0,.222.286.4.4,0,0,0,.563,0,1.231,1.231,0,0,0,.252-.331c.021-.039.038-.081.061-.119a.764.764,0,0,0,.1-.367,2.915,2.915,0,0,1,.209-1,1.251,1.251,0,0,1,.171-.288.506.506,0,0,1,.142-.123.341.341,0,0,1,.512.117,1.219,1.219,0,0,1,.162.615,1.74,1.74,0,0,1-.088.673.91.91,0,0,0-.013.514.957.957,0,0,0,1.15.763,1.355,1.355,0,0,0,.926-.62.118.118,0,0,0,.01-.124,6.294,6.294,0,0,1-.358-1.642,5.7,5.7,0,0,1,.26-2.3,2.9,2.9,0,0,1,.487-.95,1.456,1.456,0,0,1,.2-.2.762.762,0,0,1,1.1.125,1.579,1.579,0,0,1,.356.854A4.851,4.851,0,0,1,143.958,108.409Zm-1.55,1.118a4.635,4.635,0,0,0,.021.583c.011.164.033.328.058.49a.661.661,0,0,0,.091.279.121.121,0,0,0,.218.012.994.994,0,0,0,.134-.232,5.167,5.167,0,0,0,.35-1.259,4.315,4.315,0,0,0,.048-1.157,1.261,1.261,0,0,0-.1-.413.315.315,0,0,0-.275-.189.274.274,0,0,0-.262.157,1.409,1.409,0,0,0-.171.476A5.86,5.86,0,0,0,142.408,109.527Zm2.792,1.742a1.158,1.158,0,0,0,.188.72.093.093,0,0,0,.134.039.923.923,0,0,0,.481-.41,1.01,1.01,0,0,0,.121-.393.84.84,0,0,0-.071-.508.327.327,0,0,0-.5-.158.649.649,0,0,0-.292.34A.858.858,0,0,0,145.2,111.269Z" fill="#0b236d"/>
    <path id="Path_2" data-name="Path 2" d="M132.864,109.206c-.01.406-.012.812-.057,1.216a4.042,4.042,0,0,1-.769,2.086,2.3,2.3,0,0,1-1.891.937,2.911,2.911,0,0,1-1.1-.19,2.072,2.072,0,0,1-1.189-1.217,3.849,3.849,0,0,1-.248-1.16c-.011-.139-.013-.276-.016-.414a6.792,6.792,0,0,1,.193-1.751,8.071,8.071,0,0,1,.248-.862.9.9,0,0,1,.775-.6.248.248,0,0,1,.309.22,1.389,1.389,0,0,1-.018.451c-.075.444-.167.885-.221,1.332-.021.168-.032.337-.049.5a4.454,4.454,0,0,0-.015.683,6.569,6.569,0,0,0,.105,1.17,1.813,1.813,0,0,0,.492.951,1.19,1.19,0,0,0,.934.313,1.329,1.329,0,0,0,.582-.163,1.474,1.474,0,0,0,.563-.6,3.575,3.575,0,0,0,.359-1.1,5.465,5.465,0,0,0,.1-1.091,2.8,2.8,0,0,0-.164-.891,4.228,4.228,0,0,1-.2-.651,1.182,1.182,0,0,1,.086-.8.715.715,0,0,1,.529-.419.334.334,0,0,1,.343.135.973.973,0,0,1,.138.275,3.541,3.541,0,0,1,.16.852C132.858,108.679,132.866,108.943,132.864,109.206Z" fill="#0b236d"/>
    <path id="Path_3" data-name="Path 3" d="M155.876,111.573c-.094.163-.178.33-.28.488a3.15,3.15,0,0,1-.859.919,2.137,2.137,0,0,1-1.124.387,1.842,1.842,0,0,1-.641-.072,1.174,1.174,0,0,1-.85-.94,2.394,2.394,0,0,1,.576-2.169,1.412,1.412,0,0,1,1.022-.49.92.92,0,0,1,.625.221,1.2,1.2,0,0,1,.431.651,1.065,1.065,0,0,1-.372,1.12,2.5,2.5,0,0,1-.773.41c-.1.037-.195.072-.292.11a.65.65,0,0,0-.109.054c-.083.051-.093.093-.051.178a.342.342,0,0,0,.208.163,1.214,1.214,0,0,0,1.057-.08,2.154,2.154,0,0,0,.683-.64,4.656,4.656,0,0,0,.709-1.567.905.905,0,0,1,.181-.356.4.4,0,0,1,.173-.124c.136-.05.2-.023.256.111a1.384,1.384,0,0,1,.075.311c.046.331.088.663.134.994a1.723,1.723,0,0,0,.115.453c.039.089.08.2.2.2s.134-.111.17-.19c.1-.221.187-.445.284-.666a4.169,4.169,0,0,1,.684-1.135,1.691,1.691,0,0,1,1.355-.621,1.161,1.161,0,0,1,.639.193.658.658,0,0,1,.253.8.5.5,0,0,1-.462.316.877.877,0,0,1-.27-.023.466.466,0,0,1-.3-.216c-.014-.023-.027-.046-.04-.07-.109-.2-.178-.225-.4-.157a1.1,1.1,0,0,0-.5.377,4.237,4.237,0,0,0-.532.854c-.239.471-.442.958-.66,1.439a1.772,1.772,0,0,1-.249.429.32.32,0,0,1-.522.007.67.67,0,0,1-.081-.123,3.152,3.152,0,0,1-.255-.774c-.056-.23-.11-.46-.165-.69A.106.106,0,0,0,155.876,111.573Zm-3-.169a3.373,3.373,0,0,0,.044.359c.028.1.037.111.139.086a1.344,1.344,0,0,0,.69-.4.666.666,0,0,0,.13-.755.415.415,0,0,0-.475-.245.553.553,0,0,0-.421.357A1.774,1.774,0,0,0,152.876,111.4Z" fill="#0b236d"/>
    <path id="Path_4" data-name="Path 4" d="M138.655,80.511a.557.557,0,0,0-.073-.426c-.1-.254-.218-.5-.328-.754a1.553,1.553,0,0,1-.119-.444c-.031-.257.092-.374.343-.318a6.377,6.377,0,0,1,.763.254,1.263,1.263,0,0,0,.528.117c.136-.01.19-.074.156-.2a.757.757,0,0,0-.15-.268c-.19-.235-.422-.43-.63-.648-.107-.112-.217-.222-.312-.343-.145-.185-.123-.286.075-.424a.6.6,0,0,1,.135-.076,5.126,5.126,0,0,1,2.057-.353c.082,0,.194-.027.224.08s-.074.157-.158.2c-.215.113-.449.181-.671.276a4.53,4.53,0,0,0-.448.205c-.19.108-.209.193-.106.379a1.849,1.849,0,0,0,.321.4c.293.292.6.572.87.883a1.566,1.566,0,0,1,.329.489c.087.243-.018.393-.278.383a2.569,2.569,0,0,1-.658-.141c-.364-.112-.718-.251-1.09-.339-.124-.029-.268-.105-.368,0s-.017.247.029.361c.158.388.327.772.493,1.158a2.207,2.207,0,0,1,.158.513.294.294,0,0,1-.074.309c-.108.087-.218.028-.316-.022a3.641,3.641,0,0,1-.65-.467c-.133-.109-.26-.226-.4-.333a2.779,2.779,0,0,0-.316-.224c-.225-.133-.312-.119-.4.175-.043.138-.05.286-.086.427-.027.1-.029.237-.159.274s-.217-.072-.294-.166a2.938,2.938,0,0,0-.221-.251c-.178-.171-.269-.158-.356.074-.081.215-.131.441-.194.663-.053.19-.1.38-.155.569a1.4,1.4,0,0,1-.151.354c-.049.081-.1.165-.217.151a.245.245,0,0,1-.195-.187,2.326,2.326,0,0,1-.122-.548c-.029-.246-.062-.491-.1-.736a.843.843,0,0,0-.033-.149c-.064-.195-.132-.22-.3-.093a4.9,4.9,0,0,0-.369.323.857.857,0,0,1-.3.2.242.242,0,0,1-.354-.218,2,2,0,0,1,.026-.588,2.409,2.409,0,0,0,.035-.562c-.011-.2-.08-.243-.271-.178a7.387,7.387,0,0,0-1.017.512,6.185,6.185,0,0,1-.75.355c-.143.052-.328.136-.441.006s.012-.291.093-.419a6.365,6.365,0,0,1,.687-.835c.224-.248.45-.5.673-.747a1.111,1.111,0,0,0,.121-.167c.106-.173.078-.244-.125-.281a2.458,2.458,0,0,0-.463-.05c-.3,0-.59-.008-.884-.017a1.2,1.2,0,0,1-.23-.035c-.186-.043-.209-.113-.084-.264a1.343,1.343,0,0,1,.317-.263c.247-.158.5-.31.742-.474.087-.06.234-.1.21-.234s-.165-.133-.27-.163c-.209-.057-.42-.105-.628-.163a2.319,2.319,0,0,1-.291-.11c-.054-.024-.115-.054-.1-.129s.064-.1.12-.123a1.2,1.2,0,0,1,.379-.082,5.768,5.768,0,0,1,1.727.154,1.3,1.3,0,0,1,.289.113c.134.074.144.148.046.271a1.094,1.094,0,0,1-.279.227c-.168.106-.342.2-.5.32-.094.068-.221.146-.2.279.023.155.18.161.306.191.228.055.464.043.693.083.085.015.172.023.255.044.246.063.281.156.125.359a2.936,2.936,0,0,1-.455.491,2.69,2.69,0,0,0-.452.459c-.036.047-.086.1-.046.161s.11.041.166.02c.114-.042.227-.087.336-.137.158-.073.311-.152.467-.227a.825.825,0,0,1,.27-.089c.143-.014.2.024.2.164a1.476,1.476,0,0,1-.038.407c-.044.173-.075.35-.109.526a.391.391,0,0,0-.008.127c.017.123.1.156.2.076a1.119,1.119,0,0,0,.211-.258c.09-.136.183-.27.282-.4a.746.746,0,0,1,.166-.161c.1-.075.177-.051.211.074a1.644,1.644,0,0,1,.049.328c.012.2.017.393.019.59A.9.9,0,0,0,135.8,81c.013.05.026.1.092.107a.13.13,0,0,0,.125-.077,1.179,1.179,0,0,0,.1-.288c.065-.23.1-.468.189-.692.029-.073.051-.159.136-.173s.154.068.2.138.093.164.141.245a1.938,1.938,0,0,0,.139.216c.041.053.1.112.173.089a.167.167,0,0,0,.1-.167c.008-.188,0-.377.006-.565,0-.1-.029-.226.08-.28s.216.027.3.1q.329.271.647.555A1.745,1.745,0,0,0,138.655,80.511Z" fill="#0b236d"/>
    <path id="Path_5" data-name="Path 5" d="M140.684,101.526a.556.556,0,0,0,.391.226,3.076,3.076,0,0,0,2.647-.563c.1-.081.194-.172.3-.246a.221.221,0,0,1,.366.078.4.4,0,0,1,.022.047,1.939,1.939,0,0,0,1.866,1.112,2.025,2.025,0,0,0,.491-.041.166.166,0,0,1,.2.073.178.178,0,0,1-.056.23.975.975,0,0,1-.438.215,2.753,2.753,0,0,1-1,.09.928.928,0,0,1-.732-.517c-.241.115-.469.236-.711.329a3.42,3.42,0,0,1-1.266.254,4.162,4.162,0,0,1-2.5-.721c-.035-.025-.072-.048-.1-.076a2.02,2.02,0,0,0-1.308-.469,2.092,2.092,0,0,1-1.488-.8c.213,0,.387,0,.56,0a1.529,1.529,0,0,0,.679-.149.978.978,0,0,0,.586-.9.8.8,0,0,1,.028-.317,1.612,1.612,0,0,1,.66.556,1.764,1.764,0,0,1,.327.693.26.26,0,0,0,.188.22,1.488,1.488,0,0,0,.869.031.662.662,0,0,0,.478-.466c.045-.182.15-.217.305-.239a2.523,2.523,0,0,0,1.124-.44,1.894,1.894,0,0,0,.716-.95c.1-.275.079-.249.332-.124a2.142,2.142,0,0,1,.648.466.275.275,0,0,0,.294.086,2.943,2.943,0,0,1,1.312.085c.124.035.192.06.248-.1a.214.214,0,0,1,.39,0,.384.384,0,0,1,.053.17.413.413,0,0,0,.2.338.251.251,0,0,1,.136.3.24.24,0,0,1-.265.164c-.122-.009-.16.066-.193.164-.083.243-.137.5-.239.732a1.045,1.045,0,0,1-.277.4.652.652,0,0,1-.576.16,1.7,1.7,0,0,1-1.225-1.011,1.9,1.9,0,0,0-.1-.207.378.378,0,0,0-.6-.087c-.093.077-.172.169-.261.251a3.358,3.358,0,0,1-2.3.935,4.276,4.276,0,0,1-.65-.014A.154.154,0,0,0,140.684,101.526Zm5.172-1.682a.372.372,0,0,0-.372.4.379.379,0,0,0,.4.374.389.389,0,1,0-.032-.777Z" fill="#0b236d"/>
    <path id="Path_6" data-name="Path 6" d="M154.784,92.18a9.866,9.866,0,0,0-.442-1.192,3.7,3.7,0,0,0-.822-1.143,1.975,1.975,0,0,0-.8-.406c-.24-.072-.484-.129-.72-.215a.761.761,0,0,1-.475-.867c.034-.141.064-.283.1-.424a1.082,1.082,0,0,0,.019-.675,1.038,1.038,0,0,1,.584.442,1.843,1.843,0,0,1,.193.447,1.812,1.812,0,0,0,.685.97,4.825,4.825,0,0,1,1.065,1.046,4.168,4.168,0,0,1,.448.808c.034.085.073.169.131.3a1.069,1.069,0,0,0,0-.558,3.292,3.292,0,0,0-.6-1.237c-.348-.481-.762-.908-1.145-1.36a1.1,1.1,0,0,1-.29-.459,1.446,1.446,0,0,1,1.388.794,21.459,21.459,0,0,1,.92,2.334c.072-.016.065-.09.088-.14a8.483,8.483,0,0,1,.479-.91c.1-.159.092-.162-.065-.248a3.6,3.6,0,0,1-.7-.439.749.749,0,0,1-.174-1.054,1.694,1.694,0,0,1,.764-.675c.16-.071.193-.047.2.131a4.823,4.823,0,0,1-.137,1.014.831.831,0,0,0,.079.57c.126.219.258.245.428.065a1.412,1.412,0,0,0,.1-1.951,1.389,1.389,0,0,0-.808-.43.586.586,0,0,0-.322.079,4.741,4.741,0,0,1-.94.292,2.757,2.757,0,0,1-2.093-.35,2.444,2.444,0,0,1-.76-.863,3.841,3.841,0,0,1-.436-1.465.372.372,0,0,1,.021-.246c.012,0,.023-.011.028-.009a2.4,2.4,0,0,0,1.468.171c.146-.014.292-.031.439-.041a2.17,2.17,0,0,1,1.874.87,9.207,9.207,0,0,1,.6.8.859.859,0,0,0,.3.274,3.76,3.76,0,0,1,.8.567,1.743,1.743,0,0,1,.337,2.013,4.925,4.925,0,0,1-.486.727,5.246,5.246,0,0,0-.647.989,1.112,1.112,0,0,0-.121.378.308.308,0,0,0,.273-.112c.118-.113.228-.234.34-.353a1.256,1.256,0,0,1,.355-.3.325.325,0,0,1,.507.209.6.6,0,0,1,.039.226A2.19,2.19,0,0,1,156.174,92c-.062-.081-.039-.162-.049-.23a.944.944,0,0,0-.091-.319.393.393,0,0,0-.507-.191.772.772,0,0,0-.4.349C155.015,91.781,154.915,91.96,154.784,92.18Zm-1.853-7.088a1.216,1.216,0,0,1,.014.141c0,.088-.011.177-.1.22s-.165-.019-.23-.074a1.808,1.808,0,0,1-.256-.289.6.6,0,0,0-.251-.218.1.1,0,0,0-.118.024.082.082,0,0,0-.013.095c.039.076.08.151.12.227.1.181.058.261-.149.3-.1.021-.205.033-.306.055-.065.014-.112.052-.1.125s.065.074.115.082a1.2,1.2,0,0,0,.413-.03,1.485,1.485,0,0,1,.465-.028c.131.016.174.118.091.219s-.157.159-.235.239c-.045.045-.083.093-.031.156a.108.108,0,0,0,.14.025c.063-.027.131-.044.192-.075.184-.1.364-.2.547-.295a.519.519,0,0,1,.274-.068c.073,0,.143.012.179.081s-.019.13-.063.18a1.473,1.473,0,0,0-.233.306.106.106,0,0,0,.016.14.111.111,0,0,0,.144.007.983.983,0,0,0,.2-.16.734.734,0,0,1,.727-.233c.075.014.189.064.232-.043s-.061-.145-.129-.2c-.02-.015-.043-.028-.064-.044a.766.766,0,0,1-.348-.546.771.771,0,0,0-.032-.15.124.124,0,0,0-.128-.106c-.065,0-.073.065-.083.115-.014.075-.024.151-.04.226-.042.192-.116.221-.291.12a.547.547,0,0,1-.185-.176,2.644,2.644,0,0,1-.223-.4c-.038-.087-.075-.237-.19-.209S152.951,85.012,152.931,85.092Z" fill="#0b236d"/>
    <path id="Path_7" data-name="Path 7" d="M151.965,79.069a2.017,2.017,0,0,1-1.053,1.735,2.273,2.273,0,0,1-2.348.053c-.084-.045-.163-.1-.247-.142-.2-.108-.242-.1-.386.09-.041.055-.075.115-.118.169s-.071.109-.142.094-.072-.086-.082-.144c-.021-.126-.035-.254-.066-.378-.053-.209-.131-.236-.3-.1-.13.1-.248.212-.375.315-.087.07-.18.133-.272.2a.086.086,0,0,1-.1.014c-.044-.029-.031-.07-.017-.114a3.508,3.508,0,0,1,.315-.616c.241-.436.185-.515-.267-.534a.146.146,0,0,1-.052-.006c-.059-.027-.149,0-.172-.087s.051-.14.11-.187c.094-.074.2-.138.295-.209.378-.272.251-.46-.062-.585a1.443,1.443,0,0,1-.189-.083c-.176-.1-.175-.181,0-.287.1-.062.215-.112.315-.179.158-.107.168-.153.069-.315s-.22-.327-.327-.493a3.332,3.332,0,0,1-.167-.289c-.025-.049-.079-.106-.017-.162s.117-.011.17.012c.1.043.2.093.3.143.154.077.3.161.462.233.209.1.28.051.292-.18a1.114,1.114,0,0,1,.035-.33c.048-.134.092-.151.2-.062a2.245,2.245,0,0,1,.184.181.331.331,0,0,0,.376.092,6,6,0,0,1,.843-.251,2.638,2.638,0,0,1,1.847.348A2.169,2.169,0,0,1,151.965,79.069Zm-.848-.27a1.97,1.97,0,0,0-.1-.692,1.348,1.348,0,0,0-.561-.777,1.694,1.694,0,0,0-1.52-.14.9.9,0,0,0-.226.122c-.1.068-.171.162-.121.284s.175.127.29.1c.151-.035.3-.087.45-.121.1-.022.208-.115.288-.012s-.033.187-.078.273c-.133.249-.1.311.184.333.035,0,.07,0,.1,0a4.282,4.282,0,0,1,.542.049c.059.013.131.011.141.084s-.044.1-.1.136a5.367,5.367,0,0,1-.495.225c-.2.1-.21.133-.055.288.127.128.268.243.391.374.061.064.16.143.1.242s-.172.044-.261.033c-.2-.024-.392-.066-.59-.081-.155-.013-.189.034-.15.182.035.132.092.258.125.39s-.016.2-.159.148c-.113-.04-.219-.1-.33-.147a2.3,2.3,0,0,0-.312-.124c-.071-.019-.163-.033-.209.053a.183.183,0,0,0,.044.213.649.649,0,0,0,.1.085,1.626,1.626,0,0,0,2.119-.238A1.857,1.857,0,0,0,151.117,78.8Zm-3.237.956c.033-.013.053-.015.063-.027a1.668,1.668,0,0,0,.114-.138c.171-.237.17-.235.465-.146.074.022.15.087.238.029a.8.8,0,0,0-.133-.283c-.078-.15-.07-.148.1-.2.124-.042.277,0,.39-.122a1.525,1.525,0,0,0-.41-.177c-.127-.056-.135-.093-.066-.214.053-.093.158-.16.16-.284-.116-.046-.2.036-.293.068-.193.068-.232.049-.323-.132-.052-.1-.054-.232-.173-.31a.786.786,0,0,0-.134.363.186.186,0,0,1-.227.155,1.122,1.122,0,0,0-.365-.017c.039.133.144.188.222.259.187.171.187.171,0,.352-.074.072-.205.106-.2.265.122.008.241.023.359.023s.166.058.166.174A.648.648,0,0,0,147.88,79.755Z" fill="#0b236d"/>
    <path id="Path_8" data-name="Path 8" d="M133.787,90.238c.155.017.22-.091.288-.188a5.234,5.234,0,0,0,.592-1.194c.044-.121.082-.244.136-.36s.108-.227.254-.227c.1,0,.163.124.167.312a2.579,2.579,0,0,1-.176.85,13.949,13.949,0,0,1-.987,2.2A6.092,6.092,0,0,0,133.5,92.9a1.042,1.042,0,0,0,.245,1.116c.024.023.052.046.051.084a.99.99,0,0,1-1.043-.479,1.175,1.175,0,0,0,.012,1.439,4.645,4.645,0,0,0,.585.58,2.049,2.049,0,0,1,.219.218,1.024,1.024,0,0,1,.093,1.376,7.159,7.159,0,0,1-1.083-.857A2.5,2.5,0,0,1,132,94.846a3.092,3.092,0,0,1,.534-1.9c.22-.338.454-.667.684-1a1.9,1.9,0,0,0,.216-.408.488.488,0,0,0-.121-.565c-.128-.127-.245-.265-.374-.392-.181-.179-.333-.154-.448.072a.557.557,0,0,0,.035.61.618.618,0,0,1,0,.761,1.431,1.431,0,0,1-.4.5.244.244,0,0,1-.384-.042.824.824,0,0,1-.146-.27,3.389,3.389,0,0,1-.192-1.08A6.331,6.331,0,0,1,131.6,89a1.391,1.391,0,0,1,.183-.395c.047-.069.1-.122.193-.1s.1.118.084.192c-.029.169,0,.341-.039.511a1.358,1.358,0,0,0,.03.534c.015.09.052.175.153.181s.138-.086.166-.168a4.494,4.494,0,0,0,.155-.7,4.651,4.651,0,0,1,.188-.8.713.713,0,0,1,.149-.268.19.19,0,0,1,.207-.074.2.2,0,0,1,.123.182,1.688,1.688,0,0,1-.019.408c-.05.26-.1.521-.151.78a1.9,1.9,0,0,0-.035.51.118.118,0,0,0,.08.12.121.121,0,0,0,.13-.065,1.342,1.342,0,0,0,.155-.351c.128-.373.251-.746.378-1.119A2.559,2.559,0,0,1,134,87.83c.047-.071.107-.143.209-.11a.211.211,0,0,1,.145.2.905.905,0,0,1-.051.379c-.142.448-.289.894-.427,1.343A1.047,1.047,0,0,0,133.787,90.238Z" fill="#0b236d"/>
    <path id="Path_9" data-name="Path 9" d="M147.053,93.7c.127.044.242.075.35.123a.263.263,0,0,1,.18.282c-.015.133-.113.179-.228.213a.881.881,0,0,1-.358.01.88.88,0,0,0-.819.195c.035.088.126.1.178.151a.253.253,0,0,1-.054.413.98.98,0,0,1-.238.1,6,6,0,0,0-.591.193.943.943,0,0,0-.6.776,1.371,1.371,0,0,0,.454,1.278,2.277,2.277,0,0,0,2.177.511.6.6,0,0,0,.372-.22c.09-.128.068-.191-.082-.245-.041-.014-.084-.022-.124-.036a.078.078,0,0,1-.053-.12l.043-.093c.037-.089.071-.184-.008-.263s-.167-.012-.241.019a2.983,2.983,0,0,1-.824.221,1.428,1.428,0,0,1-.985-.239.615.615,0,0,1-.257-.374c-.04-.152.023-.213.189-.2s.172.009.183-.158a.636.636,0,0,1,.034-.252c.057-.12.133-.148.249-.082a.853.853,0,0,1,.124.093,2.45,2.45,0,0,0,1.564.535,5.6,5.6,0,0,0,.932-.061,2.443,2.443,0,0,0,.811-.267.4.4,0,0,1,.011.281,2.54,2.54,0,0,1-2.557,2.149A2.747,2.747,0,0,1,144,95.9a2.871,2.871,0,0,1,2.327-2.851,2.1,2.1,0,0,1,.952-.018,2.3,2.3,0,0,1,.268.1c.092.038.174.1.161.208s-.109.125-.2.146-.168.038-.253.057A.245.245,0,0,0,147.053,93.7Z" fill="#0b236d"/>
    <path id="Path_10" data-name="Path 10" d="M151.975,76.972a.189.189,0,0,1,.144-.106,4.336,4.336,0,0,1,2-.127.768.768,0,0,1,.124.037.516.516,0,0,1,.36.747,1.964,1.964,0,0,0-.147.7.376.376,0,0,0,.547.309.388.388,0,0,0,.175-.244,1.5,1.5,0,0,0,.036-.635c-.011-.093-.028-.186-.035-.279a.677.677,0,0,1,.892-.752,3.461,3.461,0,0,0,.624.123c0,.023,0,.036,0,.039a.83.83,0,0,0-.194,1.008,3.107,3.107,0,0,1,.177,1,1.792,1.792,0,0,1-1.213,1.794,4.889,4.889,0,0,1-1.516.322,9.676,9.676,0,0,1-1.785-.062.54.54,0,0,1-.357-.1c.024-.1.113-.112.177-.147a.743.743,0,0,0,.486-.934c-.012-.093-.039-.184-.046-.277s.055-.122.137-.08a1.157,1.157,0,0,1,.233.2,1.06,1.06,0,0,0,.608.318.513.513,0,0,0,.565-.27.527.527,0,0,0-.181-.619,1.508,1.508,0,0,0-.379-.22c-.265-.11-.538-.191-.81-.277a.392.392,0,0,1-.258-.152,4.4,4.4,0,0,1,1.378-.346,1.728,1.728,0,0,0-.383-.385A2.771,2.771,0,0,0,152.3,77.1.611.611,0,0,1,151.975,76.972Zm3.735,1.406a.669.669,0,0,0-.046.138,1.573,1.573,0,0,1-.96,1.3c-.2.1-.416.146-.612.249a2.754,2.754,0,0,0,1.364-.218,1.166,1.166,0,0,0,.532-.472A.693.693,0,0,0,155.71,78.378Zm.158-.961a.234.234,0,0,0,.246-.239.239.239,0,0,0-.234-.229.246.246,0,0,0-.261.231A.233.233,0,0,0,155.868,77.417Z" fill="#0b236d"/>
    <path id="Path_11" data-name="Path 11" d="M135.777,88.369a1.415,1.415,0,0,1,.373-1.277.948.948,0,0,1,.681-.273,3.861,3.861,0,0,1,.774.067,1.107,1.107,0,0,0,.309.029c.045-.073-.018-.116-.052-.151a1.87,1.87,0,0,0-.92-.551.576.576,0,0,0-.591.137,1.237,1.237,0,0,1-.013-.56.572.572,0,0,1,.851-.382,1.772,1.772,0,0,1,.765.673c.113.161.208.333.344.554.022-.254.048-.457.056-.66a1.726,1.726,0,0,1,.071-.48.355.355,0,0,1,.573-.209,1.39,1.39,0,0,1,.567.738c-.528-.005-.642.408-.852.782a.474.474,0,0,0,.258-.117,3.249,3.249,0,0,1,1.088-.472,1.252,1.252,0,0,1,.837.086.729.729,0,0,1,.38.887.668.668,0,0,1-.186.35.967.967,0,0,0-1.05-.574,3.172,3.172,0,0,0-1.091.166,1.367,1.367,0,0,0,.4.127,1.657,1.657,0,0,1,.4.168.764.764,0,0,1,.212,1.154,1.918,1.918,0,0,1-.855.587,1.467,1.467,0,0,0-.629-1.7c-.1.23-.224.423-.328.629-.073.144-.179.3.006.461.077.066.034.182.019.269a3.239,3.239,0,0,0-.043.51c0,.144-.023.293.152.373.055.025.054.1.063.162.018.127.034.254.053.38.024.157.014.333.214.4a.063.063,0,0,1,.034.036,1.554,1.554,0,0,0,.406.647.105.105,0,0,1,.023.046c.029.1-.1.281-.25.358-.138.069-.256.065-.32-.055a2.548,2.548,0,0,0-.509-.542c-.073-.076-.145-.14-.086-.266s-.03-.231-.09-.332a2.98,2.98,0,0,1-.27-.467c-.042-.115-.106-.23,0-.359.069-.085.027-.2,0-.3-.056-.232-.165-.449-.2-.688-.013-.083-.031-.147.071-.187a.166.166,0,0,0,.092-.17,1.694,1.694,0,0,1,.351-1.036,2.133,2.133,0,0,0-2.1,1.033Z" fill="#0b236d"/>
    <path id="Path_12" data-name="Path 12" d="M134.937,96.5a2.866,2.866,0,0,0-.058.794,2.012,2.012,0,0,0,2.376,1.977.949.949,0,0,0,.886-1.076,1.573,1.573,0,0,0-.5-1.175,1.291,1.291,0,0,0-.865-.36.745.745,0,0,0-.72.324.725.725,0,0,0,.073.8,1.007,1.007,0,0,0,1.066.416.378.378,0,0,0,.318-.3c.014-.081,0-.159-.123-.125a.794.794,0,0,1-.434-.044.621.621,0,0,1-.354-.248.285.285,0,0,1,.234-.458.893.893,0,0,1,.741.36.931.931,0,0,1,.11,1.16.755.755,0,0,1-.56.334,1.613,1.613,0,0,1-1.827-1.488,1.137,1.137,0,0,1,.918-1.226,1.754,1.754,0,0,1,1.425.311,2.347,2.347,0,0,1,.971,1.714,2.74,2.74,0,0,1,.019.66,1.56,1.56,0,0,1-1.5,1.414,2.8,2.8,0,0,1-2.929-1.838,1.55,1.55,0,0,1,.368-1.728A.656.656,0,0,1,134.937,96.5Z" fill="#0b236d"/>
    <path id="Path_13" data-name="Path 13" d="M152.966,94.971a1.634,1.634,0,0,1,1.711,1.479,2.208,2.208,0,0,1-.35,1.363,5.518,5.518,0,0,1-1.466,1.613c-.317.237-.549.174-.721-.179-.1-.217-.081-.3.138-.411a3.854,3.854,0,0,0,.7-.4,2.5,2.5,0,0,0,.737-.916.781.781,0,0,0,.081-.372c-.005-.073-.017-.142-.091-.17a.161.161,0,0,0-.2.083c-.069.1-.141.195-.209.295a7.526,7.526,0,0,1-.538.723,1.906,1.906,0,0,1-.477.391.674.674,0,0,1-.5.084,1.492,1.492,0,0,1-.825-.454c-.179-.2-.176-.322.01-.511a4.243,4.243,0,0,1,.522-.422,5.305,5.305,0,0,0,.734-.612.712.712,0,0,0,.175-.252.245.245,0,0,0-.053-.305c-.114-.086-.2.007-.269.073-.222.2-.442.411-.656.623a5.021,5.021,0,0,1-.658.541,1.573,1.573,0,0,1-.491.228.257.257,0,0,1-.3-.1.742.742,0,0,1-.115-.228c-.1-.3-.032-.424.275-.519.066-.02.134-.035.2-.051a2.211,2.211,0,0,0,1.231-.765c.077-.093.16-.181.234-.275A1.314,1.314,0,0,1,152.966,94.971Zm.746,1.386a.469.469,0,0,0,.185-.03c.266-.074.362-.254.224-.481a.916.916,0,0,0-.787-.47.259.259,0,0,0-.3.256A.65.65,0,0,0,153.712,96.357Z" fill="#0b236d"/>
    <path id="Path_14" data-name="Path 14" d="M136.777,82.753a1.4,1.4,0,0,1,1.771-.907,1.128,1.128,0,0,1,.691.723,2.245,2.245,0,0,1,.115.888c.175-.183.3-.358.454-.5a1.245,1.245,0,0,1,.833-.368.829.829,0,0,1,.788.493,1.577,1.577,0,0,1,.083,1.15.574.574,0,0,1-.046.119.106.106,0,0,1-.1.066.094.094,0,0,1-.083-.086c-.011-.11-.043-.216-.045-.329,0-.207-.067-.328-.154-.312-.143.026-.172.16-.209.269a1.635,1.635,0,0,0-.054.66c.024.273.11.321.44.254a.829.829,0,0,1-.55.713.9.9,0,0,1-.925-.171,1.97,1.97,0,0,1-.579-1.01c-.029-.1-.052-.195-.085-.321-.176.156-.329.3-.494.437a2.037,2.037,0,0,1-1.673.446,1.117,1.117,0,0,1-.81-1.509.3.3,0,0,1,.106-.143c.08-.058.149-.044.187.047a1.175,1.175,0,0,1,.052.2c.018.074.035.149.047.225a.325.325,0,0,0,.588.154.65.65,0,0,0,.162-.231,1.767,1.767,0,0,0,.133-.673c-.008-.358-.171-.463-.5-.331C136.871,82.722,136.836,82.771,136.777,82.753Zm1.646-.317c0-.071,0-.146-.07-.179s-.129.037-.169.087a1.3,1.3,0,0,0-.2.385,6.408,6.408,0,0,0-.367,1.407c-.015.113-.1.256.065.305s.2-.11.251-.21A6.553,6.553,0,0,0,138.423,82.436Zm2.23,1.115c-.021-.108.045-.27-.079-.3s-.185.129-.236.231a3.213,3.213,0,0,0-.321,1.155.631.631,0,0,0,.026.28.1.1,0,0,0,.164.05.509.509,0,0,0,.165-.227A3.521,3.521,0,0,0,140.653,83.551Zm-1.612-.047a1.109,1.109,0,0,0-.044-.385c-.038-.075-.055-.17-.165-.172a.232.232,0,0,0-.2.138,1.778,1.778,0,0,0-.226.751.6.6,0,0,0,.005.153c.026.135.115.186.219.1C138.835,83.926,139.1,83.784,139.041,83.5Zm.825.27c0-.025,0-.05,0-.076,0-.062,0-.125-.066-.153s-.114.023-.157.059a.587.587,0,0,0-.171.663c.02.054.037.117.108.129s.11-.037.14-.09A1.131,1.131,0,0,0,139.866,83.774Z" fill="#0b236d"/>
    <path id="Path_15" data-name="Path 15" d="M146.151,92.565a1.158,1.158,0,0,0,.3-1.112.926.926,0,0,1-.011-.382.348.348,0,0,1,.6-.218c.1.074.174.167.262.25.147.14.273.171.388.1a.349.349,0,0,0,.091-.416.615.615,0,0,0-.266-.307c-.153-.1-.316-.177-.471-.27a2.674,2.674,0,0,1-.345-.228.9.9,0,0,1-.314-.876,2.765,2.765,0,0,1,.34-.913.833.833,0,0,0,.6.585c.057.022.11.051.167.073a.76.76,0,0,1,.477.871,1.953,1.953,0,0,0-.022.586c.017.107.044.206.18.21.114,0,.186-.075.189-.225s-.015-.325-.014-.487a.393.393,0,0,1,.552-.4,1.486,1.486,0,0,1,.264.11,2.01,2.01,0,0,0,.762.255c.005.152-.094.221-.191.292a1.918,1.918,0,0,1-.517.235,2.035,2.035,0,0,0-.47.214.436.436,0,0,0-.222.456.407.407,0,0,0,.383.329c.043.007.085.02.128.025.254.032.341-.054.322-.313a1.092,1.092,0,0,1,0-.128c.006-.087.054-.126.139-.1a.845.845,0,0,1,.165.075,4.066,4.066,0,0,1,.894.7.93.93,0,0,1,.11.142.153.153,0,0,1-.061.239A.983.983,0,0,1,150.4,92a4.857,4.857,0,0,1-.981.237.515.515,0,0,1-.1,0c-.2,0-.236-.059-.148-.231a.672.672,0,0,0,.087-.186c.014-.075,0-.148-.078-.166a1.215,1.215,0,0,0-.639-.03.156.156,0,0,0-.119.216.964.964,0,0,0,.176.312,1.708,1.708,0,0,1,.211.323.267.267,0,0,1-.163.393.737.737,0,0,1-.854-.315.5.5,0,0,1,.034-.489c.053-.107.118-.209.169-.317a.143.143,0,0,0-.03-.187.174.174,0,0,0-.2-.01.833.833,0,0,0-.288.29,1.785,1.785,0,0,1-.619.536,1.417,1.417,0,0,1-.7.183Z" fill="#0b236d"/>
    <path id="Path_16" data-name="Path 16" d="M140.721,88.108c.062-.046.112-.017.164.02a2.066,2.066,0,0,1,.517.5.919.919,0,0,1-.051,1.187c-.1.131-.208.252-.308.381a.513.513,0,0,0,.077.789c.065.057.132.111.2.166a.677.677,0,0,1,.206.971c-.128.242-.285.469-.417.709a1.113,1.113,0,0,0-.159.834.974.974,0,0,0,.533.657c.059.031.134.036.2.115a1.654,1.654,0,0,1-.887-.028,2.047,2.047,0,0,1-1.348-1.083,1.538,1.538,0,0,1,.253-1.677c.081-.088.141-.133.25-.031a1.461,1.461,0,0,0,.376.227.63.63,0,0,0,.225.059.193.193,0,0,0,.165-.331,1.2,1.2,0,0,0-.267-.2,6.112,6.112,0,0,1-.795-.531,1.112,1.112,0,0,1-.242-.3.5.5,0,0,1,.093-.652,3.641,3.641,0,0,1,.591-.459,4.639,4.639,0,0,0,.409-.316.758.758,0,0,0,.227-1.008Z" fill="#0b236d"/>
    <path id="Path_17" data-name="Path 17" d="M141.86,92.634c.069.579.455.815.924,1a1.176,1.176,0,0,1,.8,1.146,1.968,1.968,0,0,1-1.869,2.041,2.275,2.275,0,0,1-2.488-1.613,1.339,1.339,0,0,1-.016-.807c.076-.229.2-.259.378-.1.1.087.183.183.282.265a2.094,2.094,0,0,0,1.359.419,1.9,1.9,0,0,0,.789-.116,1.181,1.181,0,0,0,.187-.088c.3-.188.311-.419.029-.627-.111-.082-.234-.148-.348-.225a.658.658,0,0,1-.268-.93A.971.971,0,0,1,141.86,92.634Zm1.184,2.534c0-.084.016-.174-.074-.23a.134.134,0,0,0-.169.013,1.926,1.926,0,0,1-.6.336.294.294,0,0,0-.187.281c0,.135-.028.269-.039.4-.014.182.1.269.275.219A1.338,1.338,0,0,0,143.044,95.168Z" fill="#0b236d"/>
    <path id="Path_18" data-name="Path 18" d="M153.24,93.653a1.17,1.17,0,0,1-.422.085c-.175.021-.211.064-.194.235.013.135.046.269.061.4.006.054.029.13-.05.154s-.11-.037-.147-.083c-.082-.1-.155-.206-.24-.3-.128-.146-.169-.149-.324-.037-.084.061-.163.128-.246.189a.075.075,0,0,1-.1.007.077.077,0,0,1-.025-.092c.046-.129.092-.258.148-.383a1.767,1.767,0,0,0,.192-1.043c-.009-.05-.021-.1-.03-.15-.027-.14-.074-.28-.23-.312s-.273.077-.371.188a1.545,1.545,0,0,0-.349,1.021,3.988,3.988,0,0,1-.035.408c-.008.052-.016.133-.1.129-.057,0-.078-.061-.091-.113-.021-.083-.034-.168-.063-.248-.06-.169-.129-.2-.294-.119-.109.052-.212.117-.318.174-.039.022-.082.039-.116,0s-.006-.065.01-.094c.053-.1.109-.194.163-.292.107-.192.084-.241-.136-.3a1.07,1.07,0,0,1-.426-.15.469.469,0,0,1,.264-.114,2.978,2.978,0,0,0,.864-.267,1.558,1.558,0,0,0,.394-.289.684.684,0,0,0,.012-.968,3.812,3.812,0,0,0-.841-.6c-.066-.042-.132-.083-.2-.126a.089.089,0,0,1-.045-.087.092.092,0,0,1,.094-.072c.086-.006.173,0,.259-.009.2-.01.242-.047.241-.247,0-.094-.013-.187-.015-.281,0-.06-.005-.131.066-.152.055-.015.1.034.127.075.068.089.129.182.2.271.089.114.146.123.255.031.092-.078.174-.168.264-.248.037-.032.082-.07.139-.043s.055.083.053.134a3.379,3.379,0,0,1-.126.653,2.159,2.159,0,0,0-.045.56.482.482,0,0,0,.022.152.325.325,0,0,0,.249.237.287.287,0,0,0,.281-.151.887.887,0,0,0,.141-.588c-.011-.187-.032-.373-.049-.56a1.2,1.2,0,0,1-.011-.179c.006-.094.063-.121.137-.066a1.256,1.256,0,0,1,.2.236c.12.144.2.156.356.051.093-.062.177-.137.267-.2.034-.026.075-.049.116-.014a.08.08,0,0,1,.007.1c-.046.111-.1.22-.145.33-.091.2-.077.223.132.285.118.035.259.016.36.13-.061.1-.161.1-.251.121a2.8,2.8,0,0,0-.723.2.782.782,0,0,0-.234.159c-.08.1-.15.2-.092.327a.3.3,0,0,0,.285.146,2.1,2.1,0,0,0,.966-.15c.111-.048.224-.092.335-.139.056-.024.111-.053.177,0a1.19,1.19,0,0,1-.222.367c-.136.21-.125.259.083.389a1.83,1.83,0,0,1,.4.253c-.091.075-.188.043-.275.044s-.156-.015-.234-.012c-.161.006-.19.037-.2.2a.7.7,0,0,1-.078.427c-.1-.027-.122-.117-.161-.187a3.528,3.528,0,0,0-.381-.579.964.964,0,0,0-.582-.361c-.208-.035-.321.062-.3.268a1.158,1.158,0,0,0,.329.655,1.953,1.953,0,0,0,.6.451A.81.81,0,0,1,153.24,93.653Z" fill="#0b236d"/>
    <path id="Path_19" data-name="Path 19" d="M136.72,88.1c.051.064.027.126,0,.193a2.612,2.612,0,0,0,.194,2.108A13.491,13.491,0,0,0,138,92.067a5.121,5.121,0,0,1,.5.838.944.944,0,0,1-.088,1.041.79.79,0,0,1-.857.293.7.7,0,0,1-.563-.6.507.507,0,0,1,.2-.508c.091.032.061.107.085.158a.34.34,0,0,0,.427.2.327.327,0,0,0,.239-.351,1.182,1.182,0,0,0-.147-.461c-.212-.441-.5-.84-.746-1.261a5.174,5.174,0,0,1-.791-2.286,1.123,1.123,0,0,0-.178.639,3.343,3.343,0,0,0,.287,1.42,6.648,6.648,0,0,1,.361,1.148,1,1,0,0,1-.082.746.631.631,0,0,1-.819.22.481.481,0,0,1-.185-.679c.089.02.1.131.195.154a.3.3,0,0,0,.386-.275,2.172,2.172,0,0,0-.112-.959c-.049-.173-.116-.34-.171-.511A2.859,2.859,0,0,1,135.769,90c0-.047.017-.1-.043-.15-.083.043-.1.132-.123.207a2.01,2.01,0,0,0-.1.63c0,.376,0,.753,0,1.13a1.412,1.412,0,0,1-.074.479.679.679,0,0,1-.953.42.553.553,0,0,1-.25-.6c.028-.076.072-.12.152-.05l.058.052a.384.384,0,0,0,.617-.2,1.972,1.972,0,0,0,.074-.556,4.6,4.6,0,0,1,.081-1.123,3.326,3.326,0,0,1,1.3-1.949c.074-.057.165-.1.211-.185Z" fill="#0b236d"/>
    <path id="Path_20" data-name="Path 20" d="M148.542,102.02a1.441,1.441,0,0,1-.387-.033.8.8,0,0,1-.606-.916,2.335,2.335,0,0,1,.6-1.229.339.339,0,0,1,.391-.118,2.731,2.731,0,0,0,2.4-.378c.255-.161.414-.138.584.112a.909.909,0,0,1,.084.814,1.82,1.82,0,0,1-.616.87A3.973,3.973,0,0,1,148.542,102.02Zm.564-.711a1.836,1.836,0,0,0,1.266-.466.712.712,0,0,0,.24-.624c-.015-.138-.059-.168-.181-.1a2.163,2.163,0,0,1-.332.144,2.224,2.224,0,0,1-.714.115c-.085,0-.158.006-.15.119A2.774,2.774,0,0,1,149.106,101.309Z" fill="#0b236d"/>
    <path id="Path_21" data-name="Path 21" d="M138.13,76.776c-.063.11-.164.122-.246.165-.258.133-.292.354-.052.517.135.092.276.177.416.261a.845.845,0,0,1,.257.214c.053.072.024.133-.065.143a.747.747,0,0,1-.257-.027,1.66,1.66,0,0,0-.457-.089c-.217,0-.3.12-.266.336a1.9,1.9,0,0,0,.167.456.994.994,0,0,1,.109.314c.009.118-.082.167-.189.112a.4.4,0,0,1-.126-.127c-.1-.121-.192-.242-.284-.366a.592.592,0,0,0-.19-.173.255.255,0,0,0-.374.1,1.3,1.3,0,0,0-.131.413,2.424,2.424,0,0,1-.111.394.148.148,0,0,1-.13.111c-.069,0-.1-.067-.109-.126a1.472,1.472,0,0,1-.025-.28,1.672,1.672,0,0,0-.049-.406.293.293,0,0,0-.46-.227,2.86,2.86,0,0,0-.439.316c-.087.061-.188.188-.29.091s.028-.2.086-.284c.072-.106.16-.2.237-.305a1,1,0,0,0,.124-.194c.076-.179.012-.29-.187-.29a3.19,3.19,0,0,0-.514.061,2.005,2.005,0,0,1-.309.037c-.07,0-.157.006-.177-.072s.063-.133.134-.163c.128-.053.26-.1.388-.147a1.191,1.191,0,0,0,.323-.161c.181-.146.169-.307-.027-.434-.091-.058-.22-.047-.3-.156a.4.4,0,0,1,.257-.112,2.172,2.172,0,0,1,.569-.03.613.613,0,0,1,.454.215c.028.033.052.069.081.1a.5.5,0,0,0,.823.023.926.926,0,0,1,.593-.333A2.094,2.094,0,0,1,138.13,76.776Z" fill="#0b236d"/>
    <path id="Path_22" data-name="Path 22" d="M151.9,83.779a2.176,2.176,0,0,1-2.2-1.628.882.882,0,0,1-.022-.125c-.01-.187.023-.228.213-.24a4.7,4.7,0,0,0,.67-.074,3.228,3.228,0,0,0,.587-.2c.268-.113.384-.082.55.156a.335.335,0,0,0,.4.149c.158-.046.313-.1.467-.154a.307.307,0,0,1,.371.1,2.311,2.311,0,0,1,.48,1.065.608.608,0,0,1-.341.661,1.78,1.78,0,0,1-.633.223C152.239,83.748,152.032,83.763,151.9,83.779Zm-1.2-1.378a.271.271,0,0,0,.1.255,1.525,1.525,0,0,0,1.372.365.77.77,0,0,0,.417-.19c.07-.066.049-.124-.044-.141a.5.5,0,0,0-.077-.005,5.686,5.686,0,0,1-1.552-.28A.275.275,0,0,0,150.694,82.4Z" fill="#0b236d"/>
    <path id="Path_23" data-name="Path 23" d="M141.151,99.81a1.5,1.5,0,0,1-1.184-.418.869.869,0,0,1-.2-.325c-.055-.155-.016-.205.149-.195.12.007.241.019.361.034a.844.844,0,0,0,1-.464c.091-.174.172-.354.263-.528a.8.8,0,0,1,.465-.421.74.74,0,0,1,.68.145c.123.087.177.068.2-.075a.5.5,0,0,0-.023-.277,1.143,1.143,0,0,1-.068-.22.254.254,0,0,1,.159-.29.239.239,0,0,1,.314.1c.065.117.113.169.273.132a.3.3,0,0,1,.319.418c-.044.1-.077.165.011.268a.233.233,0,0,1-.015.346.263.263,0,0,1-.355.018c-.1-.056-.182-.13-.309-.1-.1.024-.157.07-.124.179a1.153,1.153,0,0,1-.675,1.35A2.259,2.259,0,0,1,141.151,99.81Z" fill="#0b236d"/>
    <path id="Path_24" data-name="Path 24" d="M154.857,93.351a1.143,1.143,0,0,1-.079-.5.656.656,0,0,1,1.137-.394,1.449,1.449,0,0,1,.4.9,2.878,2.878,0,0,1-.708,2.158c-.075.094-.161.178-.244.265-.01.01-.031.011-.047.016-.009-.012-.026-.024-.027-.037a1.059,1.059,0,0,0-.711-.927c-.134-.061-.271-.113-.4-.175a1,1,0,0,1-.382-.26.637.637,0,0,1-.06-.742.617.617,0,0,1,.618-.34,1.7,1.7,0,0,1,.457.085c.022.028.056.054.083.029S154.872,93.375,154.857,93.351Z" fill="#0b236d"/>
    <path id="Path_25" data-name="Path 25" d="M140.278,107.4a.864.864,0,0,1-.287.615.567.567,0,0,1-.813-.028.6.6,0,0,1-.142-.383.774.774,0,0,1,.338-.719.575.575,0,0,1,.618-.035A.537.537,0,0,1,140.278,107.4Z" fill="#0b236d"/>
    <path id="Path_26" data-name="Path 26" d="M135.479,93.9c.082-.031.137-.056.194-.073a.632.632,0,0,1,.793.4.644.644,0,0,1-.373.781c-.2.083-.21.083-.191.287a.657.657,0,0,1-.862.667.5.5,0,0,1-.32-.245c-.073-.169-.166-.165-.317-.124a.616.616,0,0,1-.5-.062.606.606,0,0,1-.319-.551.573.573,0,0,1,.374-.54.311.311,0,0,0,.24-.379.578.578,0,0,1,.465-.6.648.648,0,0,1,.72.278C135.415,93.782,135.443,93.835,135.479,93.9Zm-.04.829a.381.381,0,0,0-.378-.375.364.364,0,0,0-.366.381.352.352,0,0,0,.357.358A.376.376,0,0,0,135.439,94.726Z" fill="#0b236d"/>
    <path id="Path_27" data-name="Path 27" d="M133.495,83.484a2.623,2.623,0,0,1,.474.037.177.177,0,0,1,.178.157.647.647,0,0,0,.287.439.229.229,0,0,1,.081.293,1.971,1.971,0,0,1-1.633,1.467,1.249,1.249,0,0,1-.591-.049,1.776,1.776,0,0,0-.584-.1c-.185,0-.263-.093-.207-.262.068-.2.089-.417.139-.624a1.714,1.714,0,0,1,1.377-1.311A1.228,1.228,0,0,1,133.495,83.484Zm-.563,1.947a.586.586,0,0,0,.218-.051c.138-.069.144-.119,0-.2a1.266,1.266,0,0,1-.46-.439,1.175,1.175,0,0,1-.129-.385c-.009-.046-.024-.1-.091-.107a.125.125,0,0,0-.106.064.584.584,0,0,0-.1.551A.8.8,0,0,0,132.932,85.431Zm.534-1.616c-.176,0-.272.092-.249.239a1.07,1.07,0,0,0,.373.682.321.321,0,0,0,.188.078c.108.006.206-.005.261-.119a.213.213,0,0,0-.049-.295.792.792,0,0,1-.283-.418A.217.217,0,0,0,133.466,83.815Z" fill="#0b236d"/>
    <path id="Path_28" data-name="Path 28" d="M156.785,83.751a10.6,10.6,0,0,1-.152,1.8,1.093,1.093,0,0,1-.069.219c-.079.179-.145.206-.322.127a1.738,1.738,0,0,1-.268-.154,4.029,4.029,0,0,1-1.331-1.475c-.221-.422-.209-.425.263-.493a2.136,2.136,0,0,0,1.555-.911c.072-.108.139-.106.207.005a1.1,1.1,0,0,1,.115.519C156.791,83.511,156.785,83.631,156.785,83.751Z" fill="#0b236d"/>
    <path id="Path_29" data-name="Path 29" d="M137.5,94.762a1.33,1.33,0,0,1,1.276.847,5.294,5.294,0,0,1,.249.781c.1.343.169.393.534.381a1.323,1.323,0,0,1,1.323.984.417.417,0,0,1-.337.561,1.181,1.181,0,0,1-.689-.037,1.333,1.333,0,0,1-1.018-1.053c-.031-.159-.068-.317-.1-.477a1.161,1.161,0,0,0-.515-.77,2.515,2.515,0,0,0-.808-.339,2.037,2.037,0,0,1-.443-.146.309.309,0,0,1-.016-.58A.922.922,0,0,1,137.5,94.762Zm2.252,2.372c-.206,0-.3.15-.214.322a1.034,1.034,0,0,0,.72.39.169.169,0,0,0,.155-.25A.845.845,0,0,0,139.748,97.134Z" fill="#0b236d"/>
    <path id="Path_30" data-name="Path 30" d="M146.619,83a2.44,2.44,0,0,0,.326.225.944.944,0,0,0,.527.1,2,2,0,0,1,.232-.011c.1,0,.134.071.112.159a.748.748,0,0,1-.166.285,1.1,1.1,0,0,0,1.05-.108,1.158,1.158,0,0,0,.507-.95.67.67,0,0,1,.176.489A1.369,1.369,0,0,1,148.1,84.7a1.793,1.793,0,0,1-.869-.089c-.181-.074-.208-.053-.3.119-.021.037-.034.079-.055.116-.045.078-.11.072-.177.031a.433.433,0,0,1-.146-.177A1.714,1.714,0,0,1,146.619,83Z" fill="#0b236d"/>
    <path id="Path_31" data-name="Path 31" d="M148.145,93.25c.05-.008.077-.021.1-.015a1.847,1.847,0,0,1,1.437,1.392,1.113,1.113,0,0,1-.089.748.86.86,0,0,1-1.611-.561,3.373,3.373,0,0,1,.189-.584A.958.958,0,0,0,148.145,93.25Zm.958,1.206a.513.513,0,0,0-.254-.461c-.061-.041-.153-.05-.157.044-.006.162-.066.315-.063.476a.2.2,0,0,0,.18.212.242.242,0,0,0,.265-.116A.3.3,0,0,0,149.1,94.456Z" fill="#0b236d"/>
    <path id="Path_32" data-name="Path 32" d="M135.863,86.33a.72.72,0,0,1-.158.555.729.729,0,0,1-1.142-.03,1.108,1.108,0,0,1-.206-.871,1.839,1.839,0,0,1,.347-.817.146.146,0,0,1,.2-.062,1.582,1.582,0,0,1,.907.829A.751.751,0,0,1,135.863,86.33Z" fill="#0b236d"/>
    <path id="Path_33" data-name="Path 33" d="M148.084,82.252c-.449-.321-.884-.215-1.291.305a.713.713,0,0,1-.019-.521,1,1,0,0,1,1.118-.673,1.443,1.443,0,0,1,.654.229.308.308,0,0,0,.335.044c.15-.068.206-.025.213.139a1.747,1.747,0,0,1-.367,1.2,1.048,1.048,0,0,1-.148.142c-.075.063-.124.021-.164-.046a1,1,0,0,0-.361-.324c-.205-.125-.212-.194-.061-.386Z" fill="#0b236d"/>
    <path id="Path_34" data-name="Path 34" d="M148.564,98.793c-.066-.246.1-.387.337-.486a2.053,2.053,0,0,1,1.468-.043c.171.055.313.149.322.354.012.235.016.464-.245.594a1.94,1.94,0,0,1-1.626.085C148.588,99.209,148.564,99.146,148.564,98.793Z" fill="#0b236d"/>
    <path id="Path_35" data-name="Path 35" d="M155.994,81.283a.438.438,0,0,1,.494.334.908.908,0,0,1-.106.762,2.142,2.142,0,0,1-1.479.988,1.419,1.419,0,0,1-.667-.008.374.374,0,0,1-.3-.248.336.336,0,0,1,.219-.412,1.073,1.073,0,0,1,.306-.043,2.011,2.011,0,0,0,1.382-.615.618.618,0,0,0,.149-.766Z" fill="#0b236d"/>
    <path id="Path_36" data-name="Path 36" d="M133.836,82.423c0,.026,0,.052,0,.077-.037.509-.035.513-.557.42a1.276,1.276,0,0,1-.743-.392.859.859,0,0,1-.226-.73.6.6,0,0,1,.5-.545.719.719,0,0,1,.72.242A1.305,1.305,0,0,1,133.836,82.423Z" fill="#0b236d"/>
    <path id="Path_37" data-name="Path 37" d="M150.107,94.267a1.151,1.151,0,0,1,1.154.8.689.689,0,0,1-.239.716.641.641,0,0,1-.706.09.558.558,0,0,1-.336-.606,1.8,1.8,0,0,1,.1-.344A.92.92,0,0,0,150.107,94.267Z" fill="#0b236d"/>
    <path id="Path_38" data-name="Path 38" d="M141.542,81.551a.7.7,0,0,1-.107.424c-.108.194-.226.213-.389.06a6.411,6.411,0,0,1-.973-1.224,2.481,2.481,0,0,1-.3-.561c-.015-.045-.044-.1.011-.14.04-.029.081,0,.123,0a.661.661,0,0,1,.184.092,7.84,7.84,0,0,1,1.28.951A.407.407,0,0,1,141.542,81.551Z" fill="#0b236d"/>
    <path id="Path_39" data-name="Path 39" d="M148.72,88.484a.674.674,0,0,1,.663-.68.677.677,0,1,1,0,1.353A.675.675,0,0,1,148.72,88.484Z" fill="#0b236d"/>
    <path id="Path_40" data-name="Path 40" d="M153.747,81.528c.067,0,.127,0,.187,0a2.024,2.024,0,0,0,.985-.177,1.385,1.385,0,0,1,.426-.1.267.267,0,0,1,.269.38.529.529,0,0,1-.112.17,1.713,1.713,0,0,1-1.191.49.388.388,0,0,1-.452-.334C153.817,81.817,153.786,81.676,153.747,81.528Z" fill="#0b236d"/>
    <path id="Path_41" data-name="Path 41" d="M149.43,86.229a.639.639,0,0,1-.635-.615.624.624,0,0,1,.625-.625.611.611,0,0,1,.644.625A.638.638,0,0,1,149.43,86.229Z" fill="#0b236d"/>
    <path id="Path_42" data-name="Path 42" d="M148.309,86.031a.587.587,0,0,1,.6.6.616.616,0,0,1-.612.574.6.6,0,0,1-.6-.584A.584.584,0,0,1,148.309,86.031Z" fill="#0b236d"/>
    <path id="Path_43" data-name="Path 43" d="M147.584,87.244a.587.587,0,0,1-.578.545.576.576,0,0,1-.554-.564.568.568,0,0,1,.575-.543A.579.579,0,0,1,147.584,87.244Z" fill="#0b236d"/>
    <path id="Path_44" data-name="Path 44" d="M131.785,81.914a1.152,1.152,0,0,0,.827,1.263.856.856,0,0,1-.884.174.713.713,0,0,1-.454-.681A.752.752,0,0,1,131.785,81.914Z" fill="#0b236d"/>
    <path id="Path_45" data-name="Path 45" d="M146.854,94.893a.841.841,0,0,1,.849.486.508.508,0,0,1-.111.565.446.446,0,0,1-.5.06.419.419,0,0,1-.235-.42,1.273,1.273,0,0,1,.036-.2A.718.718,0,0,0,146.854,94.893Z" fill="#0b236d"/>
    <path id="Path_46" data-name="Path 46" d="M133.945,85.881a1.253,1.253,0,0,0,.3,1.265.646.646,0,0,1-.811-.057.632.632,0,0,1-.044-.8A1.032,1.032,0,0,1,133.945,85.881Z" fill="#0b236d"/>
    <path id="Path_47" data-name="Path 47" d="M131.182,86.936c.171.109.24.254.367.342a.989.989,0,0,0,.734.177c.228-.033.457-.069.743-.112a2.415,2.415,0,0,1-1.143.625.548.548,0,0,1-.565-.363A2.6,2.6,0,0,1,131.182,86.936Z" fill="#0b236d"/>
    <path id="Path_48" data-name="Path 48" d="M150.588,87.209a.432.432,0,0,1,.468.437.45.45,0,0,1-.476.463.47.47,0,0,1-.448-.446A.448.448,0,0,1,150.588,87.209Z" fill="#0b236d"/>
    <path id="Path_49" data-name="Path 49" d="M131.326,79.713a.627.627,0,0,1,.636-.666,2.1,2.1,0,0,1,.388.005c.092.01.139.074.084.165a1.234,1.234,0,0,1-.151.207,2.547,2.547,0,0,1-.626.49C131.423,80.044,131.319,79.976,131.326,79.713Z" fill="#0b236d"/>
    <path id="Path_50" data-name="Path 50" d="M141.6,77.946a.5.5,0,0,1,0,.054c-.033.3-.142.373-.43.273a1.479,1.479,0,0,1-.61-.372c-.1-.107-.092-.178.041-.231a1.6,1.6,0,0,1,.813-.086C141.556,77.6,141.6,77.705,141.6,77.946Z" fill="#0b236d"/>
    <path id="Path_51" data-name="Path 51" d="M131.548,86.075c.4.251.363.345,1.266.358a.827.827,0,0,1-.864.412C131.673,86.765,131.522,86.486,131.548,86.075Z" fill="#0b236d"/>
    <path id="Path_52" data-name="Path 52" d="M150.918,86.419a.408.408,0,0,1-.391.422.448.448,0,0,1-.427-.4.412.412,0,0,1,.408-.408A.369.369,0,0,1,150.918,86.419Z" fill="#0b236d"/>
    <path id="Path_53" data-name="Path 53" d="M135.219,83.687a.393.393,0,0,1,.4.388.367.367,0,0,1-.368.381.389.389,0,0,1-.416-.365A.4.4,0,0,1,135.219,83.687Z" fill="#0b236d"/>
    <path id="Path_54" data-name="Path 54" d="M134.692,83.575a.38.38,0,0,1-.376-.378.4.4,0,0,1,.8.02A.379.379,0,0,1,134.692,83.575Z" fill="#0b236d"/>
    <path id="Path_55" data-name="Path 55" d="M149.462,87.5a.4.4,0,0,1-.377-.409.382.382,0,0,1,.38-.377.392.392,0,0,1,.393.393A.411.411,0,0,1,149.462,87.5Z" fill="#0b236d"/>
    <path id="Path_56" data-name="Path 56" d="M147.784,87.866a.414.414,0,0,1,.4-.371.425.425,0,0,1,.391.4.415.415,0,0,1-.412.381A.41.41,0,0,1,147.784,87.866Z" fill="#0b236d"/>
    <path id="Path_57" data-name="Path 57" d="M147.583,85.866a.395.395,0,0,1-.789-.023.395.395,0,0,1,.789.023Z" fill="#0b236d"/>
    <path id="Path_58" data-name="Path 58" d="M148.127,85.715a.372.372,0,1,1,.011-.743.407.407,0,0,1,.364.366A.386.386,0,0,1,148.127,85.715Z" fill="#0b236d"/>
    <path id="Path_59" data-name="Path 59" d="M149.911,84.046a.373.373,0,0,1,.381.371.414.414,0,0,1-.37.368.367.367,0,0,1-.368-.381A.347.347,0,0,1,149.911,84.046Z" fill="#0b236d"/>
    <path id="Path_60" data-name="Path 60" d="M151.021,88.869a.378.378,0,0,1-.756-.008.378.378,0,0,1,.756.008Z" fill="#0b236d"/>
    <path id="Path_61" data-name="Path 61" d="M155.989,81.275H156c-.007-.015-.01-.012-.01.007Z" fill="#0b236d"/>
    <path id="Path_62" data-name="Path 62" d="M136.722,88.1l.027.023-.029-.022Z" fill="#0b236d"/>
    <path id="Path_63" data-name="Path 63" d="M140.727,88.107l.018-.036c.027.031,0,.029-.022.037Z" fill="#0b236d"/>
    <path id="Path_64" data-name="Path 64" d="M146.159,92.562c0,.034-.035-.014-.011.011s.02.012.022,0c.005-.034.01.018-.018,0Z" fill="#0b236d"/>
  </g>
</svg>
