<svg xmlns="http://www.w3.org/2000/svg" width="390.459" height="515.76" viewBox="0 0 390.459 515.76">
  <g id="Group_245" data-name="Group 245" transform="translate(-1867.014 -113.918)">
    <g id="Group_243" data-name="Group 243">
      <path id="Path_1435" data-name="Path 1435" d="M1873.536,622.394l-6.521-24.772h3.335l3.741,16.234q.612,2.556,1.042,5.072.939-3.966,1.1-4.573l4.685-16.733h3.931l3.523,12.533a66.383,66.383,0,0,1,1.906,8.773q.476-2.35,1.23-5.386l3.862-15.92h3.265l-6.739,24.772h-3.147l-5.171-18.878c-.437-1.576-.7-2.546-.774-2.908-.268,1.146-.5,2.105-.735,2.908l-5.211,18.878" fill="#fff"/>
      <path id="Path_1436" data-name="Path 1436" d="M1899.517,613.023c0-3.319.913-5.786,2.75-7.382a8.244,8.244,0,0,1,5.6-2,7.978,7.978,0,0,1,6.015,2.429,9.287,9.287,0,0,1,2.332,6.7,11.949,11.949,0,0,1-1.032,5.444,7.287,7.287,0,0,1-3,3.084,8.713,8.713,0,0,1-4.317,1.107,8,8,0,0,1-6.045-2.419c-1.529-1.615-2.3-3.926-2.3-6.962m3.1,0a7.684,7.684,0,0,0,1.5,5.16,4.756,4.756,0,0,0,3.752,1.724,4.706,4.706,0,0,0,3.742-1.733q1.5-1.719,1.5-5.249a7.412,7.412,0,0,0-1.509-5.052,4.951,4.951,0,0,0-7.483-.009,7.682,7.682,0,0,0-1.5,5.159" fill="#fff"/>
      <path id="Path_1437" data-name="Path 1437" d="M1918.6,613.023c0-3.319.9-5.786,2.75-7.382a8.208,8.208,0,0,1,5.6-2,7.967,7.967,0,0,1,6,2.429,9.24,9.24,0,0,1,2.333,6.7,11.817,11.817,0,0,1-1.033,5.444,7.25,7.25,0,0,1-3.007,3.084,8.638,8.638,0,0,1-4.3,1.107,8,8,0,0,1-6.055-2.419c-1.529-1.615-2.293-3.926-2.293-6.962m3.1,0a7.684,7.684,0,0,0,1.489,5.16,4.935,4.935,0,0,0,7.5-.009,7.861,7.861,0,0,0,1.5-5.249,7.464,7.464,0,0,0-1.509-5.052,4.962,4.962,0,0,0-7.493-.009,7.683,7.683,0,0,0-1.489,5.159" fill="#fff"/>
      <path id="Path_1438" data-name="Path 1438" d="M1950.351,621.993v-2.262a5.509,5.509,0,0,1-4.982,2.663,7.019,7.019,0,0,1-3.921-1.175,7.9,7.9,0,0,1-2.768-3.309,11.624,11.624,0,0,1-.973-4.876,12.982,12.982,0,0,1,.883-4.877,6.977,6.977,0,0,1,6.641-4.523,5.885,5.885,0,0,1,2.878.686l2.044,1.781v-8.89h3v24.782m-12.347-8.959a7.806,7.806,0,0,0,1.45,5.15,4.3,4.3,0,0,0,3.394,1.713,4.243,4.243,0,0,0,3.365-1.625,7.536,7.536,0,0,0,1.39-4.984q0-3.686-1.41-5.405a4.314,4.314,0,0,0-3.464-1.733,4.169,4.169,0,0,0-3.365,1.665c-.9,1.106-1.36,2.839-1.36,5.219" fill="#fff"/>
      <rect id="Rectangle_151" data-name="Rectangle 151" width="9.28" height="3.055" transform="translate(1963.932 611.506)" fill="#fff"/>
      <path id="Path_1439" data-name="Path 1439" d="M1990.508,622.394l-6.531-24.772h3.345l3.732,16.234q.611,2.556,1.042,5.072.953-3.966,1.1-4.573l4.685-16.733h3.93l3.523,12.533a68.145,68.145,0,0,1,1.916,8.773q.462-2.35,1.231-5.386l3.851-15.92h3.266l-6.74,24.772h-3.136l-5.182-18.878c-.436-1.576-.7-2.546-.774-2.908-.258,1.146-.5,2.105-.724,2.908l-5.221,18.878" fill="#fff"/>
      <path id="Path_1440" data-name="Path 1440" d="M2016.48,613.023c0-3.319.913-5.786,2.76-7.382a8.218,8.218,0,0,1,5.587-2,7.975,7.975,0,0,1,6.015,2.429,9.283,9.283,0,0,1,2.333,6.7,12.092,12.092,0,0,1-1.023,5.444,7.331,7.331,0,0,1-3.017,3.084,8.65,8.65,0,0,1-4.308,1.107,8,8,0,0,1-6.044-2.419c-1.529-1.615-2.3-3.926-2.3-6.962m3.107,0a7.684,7.684,0,0,0,1.489,5.16,4.768,4.768,0,0,0,3.751,1.724,4.7,4.7,0,0,0,3.742-1.733,7.806,7.806,0,0,0,1.509-5.249,7.463,7.463,0,0,0-1.509-5.052,4.962,4.962,0,0,0-7.493-.009,7.683,7.683,0,0,0-1.489,5.159" fill="#fff"/>
      <path id="Path_1441" data-name="Path 1441" d="M2036.647,622.394V604.446h2.719v2.722a7.28,7.28,0,0,1,1.926-2.516l1.935-.617a5.877,5.877,0,0,1,3.107.989l-1.042,2.82-2.224-.666-1.767.607-1.13,1.665a11.83,11.83,0,0,0-.5,3.554v9.39" fill="#fff"/>
      <path id="Path_1442" data-name="Path 1442" d="M2048.142,622.394V597.622h3.018v14.129l7.146-7.3h3.91l-6.809,6.658,7.5,11.289h-3.732l-5.886-9.174-2.134,2.055v7.118" fill="#fff"/>
      <path id="Path_1443" data-name="Path 1443" d="M2065.33,597.622h3.018v3.495h-3.018Zm0,6.824h3.018v17.948h-3.018Z" fill="#fff"/>
      <path id="Path_1444" data-name="Path 1444" d="M2072.946,622.394V604.446h2.71V607a6.421,6.421,0,0,1,5.677-2.967,7.479,7.479,0,0,1,2.958.588,4.706,4.706,0,0,1,2.025,1.527l.933,2.252a16.47,16.47,0,0,1,.178,2.957v11.035H2084.4V611.477a8.191,8.191,0,0,0-.347-2.781l-1.251-1.469-2.1-.548a4.873,4.873,0,0,0-3.335,1.234q-1.4,1.233-1.4,4.68v9.8" fill="#fff"/>
      <path id="Path_1445" data-name="Path 1445" d="M2091.469,623.892l2.937.43a2.876,2.876,0,0,0,1.013,2,5.017,5.017,0,0,0,3.077.852,5.3,5.3,0,0,0,3.235-.852,4.158,4.158,0,0,0,1.549-2.369,20.294,20.294,0,0,0,.218-3.907,6.179,6.179,0,0,1-4.932,2.359,6.722,6.722,0,0,1-5.688-2.673,10.362,10.362,0,0,1-2.015-6.413,12.156,12.156,0,0,1,.913-4.729,7.531,7.531,0,0,1,2.68-3.359,7.19,7.19,0,0,1,4.129-1.184,6.324,6.324,0,0,1,5.191,2.565v-2.164h2.8v15.519a14.988,14.988,0,0,1-.854,5.944,6.2,6.2,0,0,1-2.69,2.761,9.23,9.23,0,0,1-4.515,1.008,8.532,8.532,0,0,1-5.162-1.439,4.91,4.91,0,0,1-1.885-4.347m2.5-10.79c0,2.36.457,4.073,1.389,5.15a4.567,4.567,0,0,0,6.978.01q1.415-1.616,1.41-5.062a7.361,7.361,0,0,0-1.45-4.964,4.482,4.482,0,0,0-3.5-1.675,4.344,4.344,0,0,0-3.415,1.645,7.341,7.341,0,0,0-1.409,4.9" fill="#fff"/>
      <path id="Path_1446" data-name="Path 1446" d="M2120.926,622.394V597.622h4.9l5.816,17.536c.546,1.635.933,2.859,1.181,3.672.288-.9.715-2.223,1.3-3.975l5.9-17.233h4.377v24.772h-3.127V601.656l-7.156,20.738h-2.938l-7.117-21.091v21.091" fill="#fff"/>
      <path id="Path_1447" data-name="Path 1447" d="M2160.9,619.779a11.013,11.013,0,0,1-3.226,2.017,9.145,9.145,0,0,1-3.335.6,6.45,6.45,0,0,1-4.516-1.449,4.806,4.806,0,0,1-1.578-3.682l.6-2.418,1.558-1.753,2.174-.989a21.355,21.355,0,0,1,2.68-.46,27.088,27.088,0,0,0,5.389-1.048l.02-.793a3.376,3.376,0,0,0-.864-2.624,5.1,5.1,0,0,0-3.444-1.028,5.285,5.285,0,0,0-3.136.754,4.6,4.6,0,0,0-1.5,2.663l-2.959-.411a7.349,7.349,0,0,1,1.33-3.085,5.851,5.851,0,0,1,2.661-1.8,11.6,11.6,0,0,1,4.039-.637,10.327,10.327,0,0,1,3.713.549,4.84,4.84,0,0,1,2.093,1.351l.944,2.076a16.039,16.039,0,0,1,.158,2.8v4.063a41.649,41.649,0,0,0,.189,5.366l.754,2.154H2161.5l-.6-2.213m-.249-6.795a22.37,22.37,0,0,1-4.933,1.146,11.25,11.25,0,0,0-2.64.607l-1.191.989-.417,1.449.914,2.026a3.943,3.943,0,0,0,2.69.813,6.255,6.255,0,0,0,3.1-.773,4.779,4.779,0,0,0,1.995-2.105,7.5,7.5,0,0,0,.486-3.036Z" fill="#fff"/>
      <path id="Path_1448" data-name="Path 1448" d="M2174.944,619.446l.437,2.683-2.293.274a5.158,5.158,0,0,1-2.541-.519l-1.28-1.38a10.92,10.92,0,0,1-.367-3.594V606.591h-2.214v-2.37h2.214v-4.445l3.007-1.831v6.276h3.037v2.37h-3.037v10.486l.159,1.674.516.588,1.033.225,1.329-.118" fill="#fff"/>
      <path id="Path_1449" data-name="Path 1449" d="M2190.093,616.216l3.117.391a7.681,7.681,0,0,1-2.73,4.279,8.257,8.257,0,0,1-5.111,1.518,8.09,8.09,0,0,1-6.194-2.428,9.516,9.516,0,0,1-2.283-6.8c0-3.035.764-5.365,2.313-7.03a7.761,7.761,0,0,1,6-2.506,7.661,7.661,0,0,1,5.846,2.447,9.814,9.814,0,0,1,2.253,6.9l-.019.8H2180a7,7,0,0,0,1.668,4.534,4.941,4.941,0,0,0,3.722,1.566,4.639,4.639,0,0,0,2.848-.871,5.891,5.891,0,0,0,1.856-2.81m-9.915-4.915h9.945a6.186,6.186,0,0,0-1.131-3.4,4.611,4.611,0,0,0-3.743-1.753,4.712,4.712,0,0,0-3.5,1.4,5.5,5.5,0,0,0-1.568,3.751" fill="#fff"/>
      <path id="Path_1450" data-name="Path 1450" d="M2196.937,622.394V604.446h2.72v2.722a7.28,7.28,0,0,1,1.925-2.516l1.936-.617a5.877,5.877,0,0,1,3.106.989l-1.042,2.82-2.223-.666-1.767.607-1.131,1.665a11.834,11.834,0,0,0-.5,3.554v9.39" fill="#fff"/>
      <path id="Path_1451" data-name="Path 1451" d="M2208.436,597.622h3.017v3.495h-3.017Zm0,6.824h3.017v17.948h-3.017Z" fill="#fff"/>
      <path id="Path_1452" data-name="Path 1452" d="M2227.678,619.779a11.317,11.317,0,0,1-3.236,2.027,9.26,9.26,0,0,1-3.325.588,6.474,6.474,0,0,1-4.516-1.44,4.79,4.79,0,0,1-1.578-3.691l.6-2.418,1.549-1.743,2.183-1a21.383,21.383,0,0,1,2.68-.46,27.241,27.241,0,0,0,5.39-1.048l.01-.793a3.335,3.335,0,0,0-.854-2.614,5.029,5.029,0,0,0-3.444-1.038,5.291,5.291,0,0,0-3.137.754,4.6,4.6,0,0,0-1.5,2.663l-2.958-.411a7.462,7.462,0,0,1,1.33-3.085,5.8,5.8,0,0,1,2.66-1.8,11.6,11.6,0,0,1,4.04-.637,10.321,10.321,0,0,1,3.712.549,4.844,4.844,0,0,1,2.094,1.351l.943,2.076a16,16,0,0,1,.159,2.8v4.063a41.982,41.982,0,0,0,.188,5.366l.755,2.154h-3.147l-.6-2.213m-.248-6.795a22.4,22.4,0,0,1-4.933,1.146,11.791,11.791,0,0,0-2.64.607l-1.192.989-.416,1.449.913,2.026a3.931,3.931,0,0,0,2.68.813,6.115,6.115,0,0,0,3.1-.773,4.679,4.679,0,0,0,2-2.105,7.324,7.324,0,0,0,.5-3.036Z" fill="#fff"/>
      <rect id="Rectangle_152" data-name="Rectangle 152" width="3.027" height="24.782" transform="translate(2235.056 597.622)" fill="#fff"/>
      <path id="Path_1453" data-name="Path 1453" d="M2241.553,616.637l2.988-.47a4.145,4.145,0,0,0,1.4,2.761,4.8,4.8,0,0,0,3.216.969,4.723,4.723,0,0,0,3.087-.852l1.012-2.007-.893-1.625a13.327,13.327,0,0,0-3.1-1.019,28.408,28.408,0,0,1-4.6-1.469l-1.946-1.7-.655-2.409.536-2.222,1.489-1.7,1.925-.881a8.935,8.935,0,0,1,2.611-.373,10.076,10.076,0,0,1,3.682.618,4.993,4.993,0,0,1,2.342,1.645,6.523,6.523,0,0,1,1.042,2.78l-2.957.411a3.264,3.264,0,0,0-1.171-2.163,4.223,4.223,0,0,0-2.73-.784,4.882,4.882,0,0,0-2.958.7l-.893,1.626.367,1.057,1.162.813c.3.118,1.191.372,2.669.773a36.562,36.562,0,0,1,4.467,1.42l1.995,1.6a4.513,4.513,0,0,1,.715,2.6,5.157,5.157,0,0,1-.884,2.859,5.621,5.621,0,0,1-2.541,2.075,9.044,9.044,0,0,1-3.752.735,8.27,8.27,0,0,1-5.3-1.449,6.8,6.8,0,0,1-2.322-4.308" fill="#fff"/>
      <path id="Path_1454" data-name="Path 1454" d="M1916.512,571.46v1.713h-23.593V571.46a12.88,12.88,0,0,0,4.626-.548,2.171,2.171,0,0,0,1.2-2.213,16.189,16.189,0,0,0-1.231-4.71c-.347-.861-1.052-2.546-2.114-5h-16.456c-.923,2.409-1.678,4.474-2.293,6.168a13.427,13.427,0,0,0-.9,3.251,2.535,2.535,0,0,0,1.3,2.262,9.881,9.881,0,0,0,4.665.793v1.713h-14.7v-1.86a6.529,6.529,0,0,0,4.219-2.36,29.372,29.372,0,0,0,2.908-5.953l16.158-39.371h2.035l16.169,37.785a50.855,50.855,0,0,0,3.861,7.745,4.62,4.62,0,0,0,3.861,2.3m-36.1-15.216h14.114l-7.3-17.536Z" fill="#fff"/>
      <path id="Path_1455" data-name="Path 1455" d="M1920.73,573.183v-1.851c2.432-.235,4.03-.646,4.8-1.214q1.608-1.218,1.608-4.494V530.483a33.448,33.448,0,0,0-3.494-3.711,4.518,4.518,0,0,0-2.63-1.439v-1.714h15.3L1961.643,554l.149-21.512c0-2.438-.388-4.151-1.162-5.15-1.022-1.331-2.908-2.007-5.687-2.007v-1.714h15.722v1.714c-2.472.343-4.03.891-4.685,1.645s-.983,2.125-.983,4.064v42.112h-2.044l-32.466-38.666-.139,29.853c0,2.517.466,4.24,1.409,5.17s2.809,1.538,5.578,1.821v1.851" fill="#fff"/>
      <path id="Path_1456" data-name="Path 1456" d="M2035.425,561.188l2.184,1.675a36.461,36.461,0,0,1-8.665,7.314,23.09,23.09,0,0,1-11.723,3.006q-12.148,0-19.364-7.383a23.47,23.47,0,0,1-6.7-17.125,24.166,24.166,0,0,1,7.215-17.878q7.206-7.184,18.561-7.178a23.811,23.811,0,0,1,6.759,1.029q3.588,1.233,7.216,2.389a2.692,2.692,0,0,0,2.193-.98,12.623,12.623,0,0,0,1.162-2.438h2.034v16.587h-1.905a26.215,26.215,0,0,0-6.244-9.409q-4.958-4.8-10.639-4.8a11.228,11.228,0,0,0-10.77,6.746q-2.769,5.493-2.769,15.656a47.784,47.784,0,0,0,.516,7.51,22.293,22.293,0,0,0,2.69,7.794,12.216,12.216,0,0,0,4.218,4.044,13.44,13.44,0,0,0,6.849,1.948,19.629,19.629,0,0,0,8.436-1.811,31.674,31.674,0,0,0,8.745-6.7" fill="#fff"/>
      <path id="Path_1457" data-name="Path 1457" d="M2125.976,520.183h-4.069l-10.343-6.277a12.06,12.06,0,0,1-2.184-1.811l-.724-2.037a2.771,2.771,0,0,1,1.092-2.281,3.992,3.992,0,0,1,2.541-.852l2.114.637,1.677,1.361" fill="#fff"/>
      <path id="Path_1458" data-name="Path 1458" d="M2150.149,573.173v-1.861q3.633-.352,4.794-1.2c1.082-.8,1.618-2.321,1.618-4.494V530.473a35.308,35.308,0,0,0-3.5-3.711,4.505,4.505,0,0,0-2.62-1.429v-1.714h15.285l25.33,30.392.149-21.521c0-2.438-.378-4.141-1.152-5.15-1.032-1.332-2.918-2.007-5.7-2.007v-1.714h15.732v1.714q-3.708.5-4.7,1.645c-.655.764-.992,2.115-.992,4.073v42.122h-2.035L2159.9,534.488l-.139,29.833c0,2.537.477,4.25,1.409,5.18.953.921,2.819,1.538,5.579,1.811v1.861" fill="#fff"/>
      <path id="Path_1459" data-name="Path 1459" d="M2256.353,551.711v1.811q-3.78.353-4.794,1.185c-.982.793-1.459,2.526-1.459,5.228v8.783q-2.634,1.734-8.635,3.1a50.45,50.45,0,0,1-11.027,1.351q-12.819,0-20.019-7.647a23.662,23.662,0,0,1-6.333-16.851A24.192,24.192,0,0,1,2211.074,531q7.28-7.387,18.778-7.383a24.3,24.3,0,0,1,6.779,1.029q3.559,1.233,7.2,2.389a2.68,2.68,0,0,0,2.193-.98,9.172,9.172,0,0,0,1.161-2.222h2.035v16.3h-1.886a26.191,26.191,0,0,0-6.263-9.36c-3.305-3.192-6.838-4.778-10.63-4.778a11.233,11.233,0,0,0-10.769,6.746q-2.784,5.566-2.779,15.8,0,10.707,3.653,16.479a11.766,11.766,0,0,0,10.62,5.777q4.525,0,6.193-1.39a4.578,4.578,0,0,0,1.389-3.77v-7.236q0-3.144-1.578-4.014c-1.042-.578-2.987-.872-5.856-.872v-1.811" fill="#fff"/>
      <path id="Path_1460" data-name="Path 1460" d="M2140.742,515.365a5.523,5.523,0,0,0-5.558,5.473,5.451,5.451,0,0,0,3.563,5.1,7.131,7.131,0,0,1-1.876,1.4,15.636,15.636,0,0,1-2.809.842,22.38,22.38,0,0,0-6.7-3.4,25.386,25.386,0,0,0-7.572-1.135,22.739,22.739,0,0,0-16.735,6.678q-7,6.975-7,18.094,0,10.927,6.66,17.839,6.669,6.933,17.072,6.923t17.071-6.932q6.656-6.918,6.66-17.87a26.537,26.537,0,0,0-2-10.339,23.687,23.687,0,0,0-5.429-8.048,15.082,15.082,0,0,0,5.469-2.135,11.058,11.058,0,0,0,4.268-4.846l.069-.177.387-2a5.514,5.514,0,0,0-5.548-5.473m-12.179,49.848q-3.022,5.595-8.773,5.591-5.822,0-8.874-5.591-3.067-5.582-3.067-16.91,0-9.15,2.481-15.088,3.127-7.4,9.46-7.4,6.475,0,9.458,7.4,2.352,5.8,2.342,15.088,0,11.324-3.027,16.91" fill="#fff"/>
      <path id="Path_1461" data-name="Path 1461" d="M2091.314,511.929a5.463,5.463,0,0,0-1.995,10.584l-1.052,1.106-1.449.725v-.725h-10.343v1.714c2.968,0,4.953.646,5.966,1.919q1.176,1.425,1.18,5.2V554.09c0,4.034-.565,7.2-1.677,9.468-2,4.044-5.747,6.051-11.285,6.051q-5.316,0-7.9-3.31t-2.59-10.643V531.883c0-2.947.566-4.817,1.677-5.62.824-.617,2.6-.93,5.31-.93v-1.714H2042.56v1.714c2.372.235,3.881.646,4.516,1.214.963.852,1.439,2.634,1.439,5.336v23.773a20.845,20.845,0,0,0,1.39,8.411,13.287,13.287,0,0,0,3.712,4.553,17.966,17.966,0,0,0,7.94,3.848,30.771,30.771,0,0,0,6.78.7,23.837,23.837,0,0,0,7.483-1.214,15.767,15.767,0,0,0,6.918-4.063,14.9,14.9,0,0,0,3.206-6.571,29.756,29.756,0,0,0,.874-7.284V527.213a24.95,24.95,0,0,0,5.31-2.79,11.008,11.008,0,0,0,4.278-4.838l.069-.185.4-1.988a5.518,5.518,0,0,0-5.558-5.483" fill="#fff"/>
    </g>
    <g id="Group_244" data-name="Group 244">
      <rect id="Rectangle_153" data-name="Rectangle 153" width="388.173" height="382.924" transform="translate(1869.3 113.918)" fill="#50565a"/>
      <path id="Path_1462" data-name="Path 1462" d="M2095.086,361.316c5.367-38.173-3.116-46.742-5.743-51.068s-6.26-6.2-.519-4.441c30.905,9.508,30.126,48.933,31.511,62.965,1.444,14.064,10.1,28.667,36.474,35.555,22.825,6.234,16.189,2.391,11.2-2.333-19.161-18.162-23.344-24.567-27.212-34.53s-4.068-13.692.693-10.731c14.862,8.8,32.319,16.568,48.565,18.3,17.457,1.822,14.4,1.481,10.648-.171-40.371-16.851-53.3-37.461-57.452-43.638-4.185-6.149-6.176-11.7-2.54-7.628,26.317,29.433,56.269,31.312,74.968,18.731,12.726-8.6,20.835-20.724,7.531-33.222-13.274-12.524-39.272,5.154-46.515,12.071-7.214,6.917-9.089,8.227-7.3,5.58,16.3-22.518,35.493-33.647,43.66-38.429,8.165-4.812,16.995-6.8,10.619-6.292a97.747,97.747,0,0,0-63.225,29.776c-7.474,7.515-4.962.341-4.962.341s5.049-15,27.47-30.857c31.684-20.61,36.042-43.923,32.117-37.063-2.8,4.9-19.1,22.148-34.425,27.869-15.295,5.72-27.674,15.969-35.638,24.337-6.434,7.943-5.049,5.323-4.1,1.481.953-3.814,7.733-19.784,20.8-27.072,13.015-7.287,18.585-16.169,23.144-25.59,2.223-5.324,3.809-12.126.346-5.921-10.186,14-16.159,15.515-23.69,17.762-7.591,2.25-17.633,11.587-19.421,13.266s-2.308,3.814-3.693.825c-3.809-9.223,1.586-35.667,6.463-44.492,5.107-9.194,10.475-22.26,8.8-33.22-.749-4.953-6.29-17.051-20.4-6.063-14.111,10.96-8.368,44.35-6.78,67.01,1.586,22.63-1.068,30.77-9.092,37.831-7.992,7.059-13.475,5.92-23.633,3.472-10.156-2.476-12.753,1.765-20.89,25.307-13.737,36.748-32.753,41.589-40.833,43.666-8.051,2.049-6.723,1-5.482,0,25.365-20.211,24.7-46.6,25.682-52.149.981-5.522,2.308-20.467,20.141-34.074,15.035-11.843,20.373-10.562,15.035-11.843-19.334-3.614-42.448,8.227-67.12,9.566-25.1,1.337-13.448-23.94-12.206-27.471l.808,2.848c2.684,5.465,11.254,7,19.535,1.481,14.717-9.794-5.569-22.489-5.569-22.489s-1.876-1.169.981-2.221c14.92-5.152,43.717,3.046,52.461,5.295,8.714,2.221.576-1.423.576-1.423l-117.3-64.846-60.568,46.286a174.4,174.4,0,0,0-10.245,59.01c0,97.383,79.643,176.317,177.957,176.317a179.11,179.11,0,0,0,62.27-11.129c-16.88-13.436-38.9-40.9-33.905-76.545" fill="#fff"/>
      <path id="Path_1463" data-name="Path 1463" d="M2099.538,161.768a143.582,143.582,0,0,0-91.387,32.452l68.735,38,3.4,2.05c-.173.171-1.269.029-4.01-.654-8.716-2.25-37.513-10.448-52.433-5.295l-1.587,1.167.607,1.054s20.285,12.7,5.569,22.516l-6.377,2.876c-5.944,1.564-11.168-.314-13.188-4.385l-.116-.484-.258-3.16-.4.826-.693,1.821c-2.6,6.775-9.552,26.844,12.9,25.62,11.947-.626,23.519-3.758,34.513-6.376,8.858-2.106,17.284-3.9,25.192-3.844l7.415.684,2.021.712c.027.74-5.773,2.248-17.027,11.129-10.445,7.915-15.149,16.226-17.514,22.945a64.721,64.721,0,0,0-2.684,11.129c-.954,5.523-.289,31.911-25.654,52.121l.288,1.111a43.529,43.529,0,0,0,5.194-1.111,47.38,47.38,0,0,0,11.659-4.411c8.974-4.9,20.2-15.259,29.173-39.256l.028-.142c3.023-7.791,5.019-16.263,10.3-22.971l3.317-2.306c1.991-.712,4.271-.6,7.244.114,10.128,2.476,15.639,3.614,23.633-3.474,7.992-7.059,10.648-15.2,9.09-37.831-1.588-22.658-7.331-56.021,6.78-67.008,14.083-10.987,19.651,1.11,20.4,6.063,1.673,10.987-3.722,24.026-8.83,33.249-4.877,8.8-10.244,35.269-6.435,44.463,1.385,2.989,1.9.883,3.693-.825,1.79-1.681,11.832-10.989,19.391-13.237,7.59-2.249,13.505-3.786,23.72-17.791,3.463-6.206,1.877.626-.346,5.948-4.559,9.423-10.157,18.275-23.2,25.563-13.013,7.288-19.8,23.257-20.747,27.1-.981,3.813-2.308,6.432,4.1-1.51,7.992-8.34,20.285-18.588,35.637-24.339,15.323-5.721,31.6-22.972,34.425-27.867,3.925-6.86-.461,16.453-32.117,37.09-22.449,15.828-27.5,30.858-27.5,30.858s-2.454,7.144,4.964-.371a97.948,97.948,0,0,1,63.252-29.745c6.349-.513-2.454,1.451-10.619,6.261-8.167,4.782-27.385,15.913-43.66,38.429-1.818,2.649.087,1.339,7.3-5.551,7.242-6.944,33.242-24.622,46.514-12.1,13.3,12.524,5.194,24.652-7.559,33.219-18.671,12.61-48.623,10.732-74.94-18.731-3.664-4.07-1.645,1.481,2.54,7.659,4.155,6.148,17.054,26.757,57.452,43.609,3.752,1.652,6.781,2.022-10.648.171-16.275-1.709-33.7-9.509-48.536-18.3-4.79-2.932-4.558.767-.722,10.732s8.051,16.367,27.212,34.527c4.992,4.726,11.6,8.6-11.224,2.335-26.376-6.888-35-21.491-36.418-35.552-1.413-14.035-.633-53.432-31.539-62.94l-.9-.284c-3.087-.854-2.25-.144-.663,1.849l.087.115.72.911.26.37.029.027.953,1.425c2.624,4.355,11.11,12.9,5.77,51.068-4.991,35.64,17.026,63.109,33.907,76.545a177.9,177.9,0,0,0,28.625-13.636c40.89-24.878,80.393-70.339,80.393-128.153,0-74.013-63.022-134.331-138.48-134.275" fill="#006fb5"/>
    </g>
  </g>
</svg>
