<svg xmlns="http://www.w3.org/2000/svg" width="554.037" height="307.419" viewBox="0 0 554.037 307.419">
  <g id="Group_199" data-name="Group 199" transform="translate(-2641.478 -195.65)">
    <path id="Path_1190" data-name="Path 1190" d="M2666.876,469.994c-1.452.971-.959,2.292-.97,3.411-.053,5.663.021,11.327-.058,16.989-.019,1.339.9,3.309-1.889,3.378-2.657.066-2.125-1.706-2.127-3.187-.016-8.8-.038-17.593.03-26.389.009-1.14-.809-2.854,1.275-3.215a3.8,3.8,0,0,1,4.319,1.8c4.063,6.292,8.3,12.475,12.477,18.694.792,1.179,1.619,2.335,2.46,3.545,1.546-.985.952-2.309.964-3.384q.1-9.036.012-18.074c-.015-1.65.146-2.748,2.3-2.687,2.229.062,1.781,1.512,1.784,2.746.02,8.917.05,17.834-.038,26.75-.011,1.111.983,2.892-1.085,3.28-1.69.316-3.19.183-4.368-1.668-3.957-6.218-8.139-12.3-12.256-18.415C2668.861,472.31,2668.2,470.873,2666.876,469.994Z" fill="#004592"/>
    <path id="Path_1191" data-name="Path 1191" d="M3195.486,482.5c-.07,4.33.21,8.671-.5,12.982-.674,4.1-3.268,6.329-7.193,7.179-4.152.9-8.1.481-11.08-2.838-1.052-1.172-2.413-3.161-1-4.423.9-.8,2.959.176,4.074,1.533,2.222,2.7,5.191,2.347,8.048,1.538a4.563,4.563,0,0,0,3.309-3.974c.11-.81.411-1.791-.414-2.337-.7-.466-1.35.278-2,.542-5.918,2.394-11.01.286-13.336-5.524-2.929-7.319.114-15.454,6.543-17.612a8.61,8.61,0,0,1,5.724.053c1.766.616,3.171,2.214,5.464.7,1.17-.774,2.447.2,2.389,2.066C3195.406,475.747,3195.482,479.123,3195.486,482.5Zm-17.026-1.015c.023,6.409,4.576,10.052,9.378,7.49,3.122-1.665,3.724-4.607,3.671-7.692-.054-3.1-.832-5.976-4.043-7.5a5.948,5.948,0,0,0-7.653,2.194A9.718,9.718,0,0,0,3178.46,481.482Z" fill="#004592"/>
    <path id="Path_1192" data-name="Path 1192" d="M2713.117,482.435c-.082,4.57.308,9.165-.638,13.69-.763,3.65-3.789,6.332-8.041,6.793-4,.434-7.915,0-10.475-3.62-.772-1.091-1.929-2.881-.693-3.869,1-.8,2.956-.028,3.837,1.2,1.794,2.5,4.32,2.472,6.894,2.227a4.988,4.988,0,0,0,4.447-3.266c.394-1.017.847-2.233.14-3.117-1.025-1.285-1.956.207-2.829.541a9.265,9.265,0,0,1-11.535-3.55c-4.648-7.051-1.863-17.446,5.295-19.878a8.586,8.586,0,0,1,6.057.137c1.645.636,2.968,2.1,5.125.589,1.088-.764,2.5.088,2.441,2C2713.038,475.686,2713.113,479.062,2713.117,482.435Zm-3.905-.772c-.241-3.2-.726-6.121-3.882-7.765a5.658,5.658,0,0,0-5.88.179c-4.356,2.606-4.606,11.648-.4,14.506a5.823,5.823,0,0,0,6.52.348C2708.538,487.3,2708.948,484.461,2709.212,481.663Z" fill="#004592"/>
    <g id="Group_198" data-name="Group 198">
      <path id="Path_1193" data-name="Path 1193" d="M2763.19,367.856c-10.09,15.7-23.283,27.212-42.752,29.45-23.694,2.723-41.245-7.581-54.483-26.2-10.867-15.284-16.655-32.628-20.616-50.663a166.215,166.215,0,0,1-2.7-55.318c1.99-17.017,4.874-33.843,13.448-49.106,5.456-9.712,12.89-17.23,24.372-19.6,16.4-3.393,33.823,4.627,40.029,20.924,6.407,16.827,6.426,34.245,4.868,51.794-1.815,20.436-6.714,40.236-12.5,59.883-2.188,7.426-3.633,15.091-2.777,22.948,1.356,12.461,8.465,19.936,20.908,22.995,10.836,2.663,20.334.159,29.283-5.812.872-.582,1.513-1.906,2.957-1.271Z" fill="#004592"/>
      <path id="Path_1194" data-name="Path 1194" d="M2918.776,331.355c0-11.224-.019-22.447.006-33.671.018-8.1,3.413-11.477,11.663-11.478,10.1,0,20.22-.286,30.293.252,13.665.731,25.215,5.64,31.947,18.368a47.009,47.009,0,0,1,4.909,17.465c1.053,10.419.768,20.777-3.311,30.644-5.606,13.563-16.172,20.943-30.655,22.875-11.631,1.551-23.361.635-35.041.583-6.495-.029-9.765-3.985-9.8-10.739C2918.739,354.221,2918.777,342.788,2918.776,331.355Zm19.2-.146c0,9.007.06,18.016-.043,27.022-.025,2.181.632,2.953,2.89,2.89,4.986-.139,9.98-.037,14.97-.044,10.106-.015,17.206-4.951,20.5-14.32a48.723,48.723,0,0,0,.7-29.673c-2.34-8.506-7.8-14.313-16.97-15.219-6.732-.664-13.573-.248-20.365-.33-2.077-.025-1.667,1.467-1.669,2.651Q2937.959,317.7,2937.976,331.209Z" fill="#004592"/>
      <path id="Path_1195" data-name="Path 1195" d="M2721.086,361.826c5.2,2.031,9.76,3.28,14.642,2.268,6.549-1.358,9.834-5.066,10.527-11.63,1.026-9.721-1.579-18.9-4.137-28.1-2.774-9.982-6.666-19.681-8.113-30-.892-6.365-1.318-12.891,2.124-18.679,4.053-6.816,10.51-9.873,18.466-9.548,8.156.334,13.467,5.089,17.309,11.663a55.035,55.035,0,0,1,7.075,24.254c1.172,16.865-.636,33.364-9.138,48.413-7.343,12.995-18.622,19.786-34.036,18.778C2730.207,368.881,2725.418,366.561,2721.086,361.826Z" fill="#009ada"/>
      <path id="Path_1196" data-name="Path 1196" d="M2805.887,313.51c0,18.481.026,36.513-.014,54.544-.013,5.723-2.412,8.022-8.125,8.073-6.358.056-8.709-2.184-8.717-8.437q-.031-24.385,0-48.77c0-3.623-.027-7.26,4.282-8.908a10.758,10.758,0,0,1,11.792,2.9c.129.133.373.158.845.346.484-4.675,3.09-6.84,7.861-6.365,1.609.159,1.486-1.115,1.489-2.163.013-4.3-.092-8.6.061-12.9a7.466,7.466,0,0,1,5.462-6.991,7.868,7.868,0,0,1,8.225,2.824,6.921,6.921,0,0,1,1.308,4.434c-.019,3.985.157,7.979-.063,11.953-.137,2.482.807,3.047,3.1,2.926,3.18-.168,6.378-.081,9.567-.03,3.542.055,5.766,2.155,5.768,5.345s-2.211,5.281-5.739,5.315c-3.4.032-6.806.067-10.206-.016-1.709-.042-2.472.412-2.461,2.282.069,12.48-.029,24.962.078,37.442.039,4.465,1.558,5.775,6.224,6.172,1.9.162,3.825.189,5.7.489a5.921,5.921,0,0,1,4.893,5.79c.1,2.775-1.864,5.907-4.511,6.1-5.809.418-11.707.981-17.435-.5-6.093-1.578-9.3-5.945-9.57-11.924-.392-8.688-.245-17.4-.294-26.1-.033-5.663-.069-11.328.027-16.99.034-1.96-.457-2.812-2.652-2.781C2808.923,317.612,2808.339,317.151,2805.887,313.51Z" fill="#004592"/>
      <path id="Path_1197" data-name="Path 1197" d="M2909.134,344.871c.394,7.284-.959,15.808,1.677,24.141.789,2.491-.5,4.668-2.9,6.055a9.574,9.574,0,0,1-14.392-6.257c-.2-.968.388-2.416-.8-2.823-1.156-.4-1.684,1.021-2.429,1.682-8.914,7.92-19.268,10.409-30.719,7.245a16.613,16.613,0,0,1-12.507-16.017c-.269-8.66,3.532-14.431,11.582-17.617,7.113-2.816,14.7-3.05,22.157-3.975a50.06,50.06,0,0,0,5.02-.8c4-.915,6.2-3.381,6.261-6.848a7.374,7.374,0,0,0-6.007-7.514c-7.339-1.775-14.079-.856-19.855,4.472-2.351,2.168-4.482,4.791-8.313,4.617-5.048-.229-7.865-4.141-6.214-8.888,1.617-4.647,5.435-7.128,9.559-9.16,9.355-4.611,19.31-4.238,29.3-3.056a36.719,36.719,0,0,1,6.2,1.356c8.31,2.495,12.355,7.938,12.377,16.519C2909.145,333.239,2909.134,338.479,2909.134,344.871Zm-17.511-1.051a13.755,13.755,0,0,1-5.4,2.488c-2.08.372-4.181.629-6.257,1.02-3.424.645-6.933.945-10.158,2.414-3.859,1.756-6.123,4.924-5.829,8.193.306,3.395,2.931,6.161,6.928,7.3C2884.179,369.014,2894.786,358.251,2891.623,343.82Z" fill="#004592"/>
      <path id="Path_1198" data-name="Path 1198" d="M3058.76,342.068c.584,8.111-.644,15.473.9,22.745.346,1.633.714,3.265.984,4.912.368,2.238-.768,3.853-2.486,5.085-5.49,3.936-13.792.477-14.837-6.137-.141-.891.282-2.167-.754-2.555-1.226-.458-1.738.917-2.479,1.571-9.031,7.97-19.474,10.433-31.04,7.151a16.617,16.617,0,0,1-12.075-15.019c-.388-9.261,2.79-14.738,10.6-18.173,7.226-3.178,15.056-3.316,22.712-4.329,1.89-.251,3.8-.454,5.652-.883,3.582-.83,5.571-3.054,5.769-6.2.252-4.015-1.187-6.5-5.018-7.739-8.324-2.682-15.67-1-21.9,5.2-2.038,2.029-4.187,3.8-7.457,3.532-4.555-.376-7.235-3.988-6.013-8.346,1-3.561,3.53-5.91,6.475-7.87,8.1-5.394,17.277-5.954,26.617-5.5,5.42.263,10.76,1.011,15.709,3.495,5.256,2.638,8.426,6.687,8.6,12.581C3058.893,331.343,3058.76,337.109,3058.76,342.068Zm-17.136,1.681c-3.665,2.453-7.374,3.041-11.167,3.517-3.769.473-7.584.918-11.085,2.577-3.849,1.824-5.85,4.866-5.507,8.351.326,3.311,2.82,6,6.784,7.022a17.968,17.968,0,0,0,17.362-4.387C3043.181,356.157,3041.752,350.027,3041.624,343.749Z" fill="#004592"/>
      <path id="Path_1199" data-name="Path 1199" d="M3144.3,400.516a47.051,47.051,0,0,1-5.342-.757c-3.646-.931-5.537-3.809-5.206-7.576s1.942-5.328,6.141-5.829c1.262-.151,2.542-.137,3.813-.223,4.811-.326,7.535-4.327,5.956-8.778q-9.72-27.4-19.443-54.81a21.5,21.5,0,0,1-.928-3.646c-.747-4.509,1.57-8.268,5.632-9.248,5.013-1.21,9.408.794,10.828,5.271,1.68,5.293,3.059,10.679,4.568,16.025q3.585,12.7,7.169,25.4c.218.774.084,1.942,1.173,1.966,1.224.026,1.241-1.237,1.471-2.079q5.117-18.64,10.185-37.294c.359-1.314.721-2.634,1.2-3.909,1.8-4.8,5.9-6.792,10.7-5.231,4.379,1.424,6.568,5.712,4.939,10.411-3.606,10.395-7.394,20.727-11.118,31.081q-6.011,16.716-12.044,33.424a36.171,36.171,0,0,1-4.515,8.619C3155.8,398.544,3150.581,400.536,3144.3,400.516Z" fill="#004592"/>
      <path id="Path_1200" data-name="Path 1200" d="M3086.164,342.328c0-8.494-.06-16.988.027-25.481.045-4.3,2.743-7.126,6.69-7.381,4.473-.289,7.828,1.776,8.35,5.521a70.8,70.8,0,0,1,.162,7.536c.023.757-.428,1.917.754,2.1s1.093-1.061,1.368-1.777c1.39-3.63,2.786-7.216,5.683-10.052,3.274-3.2,7.208-3.917,11.467-3.071a7.761,7.761,0,0,1,6.4,8.787c-.463,4.891-2.556,7.619-7.054,7.138-12.874-1.376-16.053,7.1-16.614,16.878-.479,8.363-.169,16.77-.211,25.157-.03,6.038-2.462,8.513-8.394,8.55-5.9.037-8.575-2.516-8.613-8.42C3086.122,359.315,3086.164,350.821,3086.164,342.328Z" fill="#004592"/>
      <path id="Path_1201" data-name="Path 1201" d="M3063.174,342.894c0-8.383.019-16.766-.011-25.149-.011-3.076.382-6,3.618-7.4a11.207,11.207,0,0,1,10.117.281c2.542,1.372,3.1,3.956,3.111,6.505.058,17.184.13,34.37-.048,51.552-.057,5.576-3.038,7.758-9.059,7.542-5.434-.2-7.71-2.582-7.723-8.182C3063.159,359.659,3063.173,351.276,3063.174,342.894Z" fill="#004592"/>
      <path id="Path_1202" data-name="Path 1202" d="M3071.366,303.214a8.55,8.55,0,0,1-8.54-8.618,8.711,8.711,0,0,1,17.418.349A8.437,8.437,0,0,1,3071.366,303.214Z" fill="#009ada"/>
      <path id="Path_1203" data-name="Path 1203" d="M2788.479,294.6a8.834,8.834,0,0,1,9-8.7,8.872,8.872,0,1,1-.04,17.74A8.8,8.8,0,0,1,2788.479,294.6Z" fill="#004592"/>
    </g>
    <path id="Path_1204" data-name="Path 1204" d="M2941.475,477.2c0-4.455-.025-8.909.016-13.364.012-1.319-.573-2.958,1.931-2.96,2.28,0,2.186,1.3,2.158,2.816-.035,1.925-.022,3.852.011,5.778.025,1.455.168,2.289,2.111,1.3,6.534-3.338,12.379-.451,13.854,6.7,1.045,5.066.728,9.895-3.331,13.719-3.21,3.023-6.542,3.383-10.321,1.2-1.159-.668-1.945-1.55-2.627.437-.472,1.375-1.862.981-2.859.822-1.416-.227-.915-1.5-.923-2.367C2941.452,486.588,2941.475,481.893,2941.475,477.2Zm3.7,4.328c.029.6.024,1.2.092,1.8.471,4.111,3.37,6.8,6.888,6.4,4.116-.466,6.656-5.084,5.775-10.5-.667-4.106-3.678-6.6-7.229-5.972a6.343,6.343,0,0,0-3.426,1.933C2945.534,476.954,2945.205,479.2,2945.171,481.526Z" fill="#004592"/>
    <path id="Path_1205" data-name="Path 1205" d="M2766.619,473.219c-2.359-.167-4.4.416-5.61,2.587-.934,1.682-2.266,1.161-3.447.618-1.834-.843-.527-2.133-.078-3.026,1.637-3.261,7.446-5.113,12.42-4.111,4.568.92,6.027,2.735,6.351,7.848.319,5.038-.479,10.125.7,15.124.141.6.243,1.289-.613,1.391-1.066.126-2.454.463-3-.663-.978-2.025-2.055-1.365-3.484-.62a11.685,11.685,0,0,1-8.506,1.108c-3.24-.846-5.38-2.779-5.4-6.362a6.778,6.778,0,0,1,5.59-6.645c2.248-.5,4.577-.642,6.832-1.118,1.542-.325,3.809.009,3.844-2.42.038-2.581-1.925-3.38-4.14-3.7A11.108,11.108,0,0,0,2766.619,473.219Zm-2.017,16.534c3.668.044,6.9-1.849,7.617-4.433.5-1.816.119-2.843-2.072-2.484-2.028.333-4.079.543-6.1.926-1.907.362-4.283.666-3.942,3.269C2760.408,489.331,2762.524,489.761,2764.6,489.753Z" fill="#004592"/>
    <path id="Path_1206" data-name="Path 1206" d="M2723.776,472.135c1.775-1.077,2.75-1.812,3.838-2.306,5.019-2.276,10.7.65,11.109,6.042.4,5.274.133,10.6.221,15.895.022,1.373-.479,1.969-1.894,1.99-1.5.023-2.237-.428-2.208-2.064.076-4.217.091-8.437,0-12.653-.087-4.078-1.6-5.781-4.905-5.831a5.755,5.755,0,0,0-6.084,5.855c-.164,4.091-.126,8.194-.045,12.29.032,1.63-.355,2.4-2.191,2.429-2.02.027-2.048-1.082-2.043-2.541q.048-13.918,0-27.838c0-1.479.094-2.534,2.087-2.522,1.939.01,2.166.977,2.129,2.5C2723.73,466.113,2723.776,468.846,2723.776,472.135Z" fill="#004592"/>
    <path id="Path_1207" data-name="Path 1207" d="M3037.66,480.033c0-2.4.014-4.811-.008-7.216-.012-1.365-.157-2.608,1.931-2.664,2.07-.056,2.032,1.09,2.02,2.516-.032,4.089-.07,8.18.022,12.267.086,3.863,1.592,5.677,4.544,5.776a5.52,5.52,0,0,0,6.094-5.4c.335-4.185.232-8.407.236-12.613,0-1.5.15-2.527,2.1-2.539,2.086-.012,1.992,1.242,1.976,2.624q-.03,2.706.013,5.412c.011.706-.063,1.5.73,1.9.985.492,1.708-.193,2.195-.8,1.28-1.6,3.346-3.161.475-5.252-1.14-.83-.813-2.31-.32-3.315.476-.97,1.768-.562,2.689-.474,1.77.17,1.056,1.6,1.111,2.542.244,4.146-.74,7.7-5.171,9.312a2.441,2.441,0,0,0-1.746,2.758c.073,2.283,0,4.569.016,6.854.014,2.638-2.457,2.594-3.038,1.544-1.326-2.4-2.106-.924-3.165-.152a8.041,8.041,0,0,1-8.931.672c-3.023-1.515-3.769-4.2-3.77-7.25Q3037.662,483.281,3037.66,480.033Z" fill="#004592"/>
    <path id="Path_1208" data-name="Path 1208" d="M3111.086,493.733c-3.4-.111-6.539-.891-8.463-4.009-.59-.956-1.579-2.253-.126-3.154,1.163-.721,2.439-1.318,3.656.578,2.033,3.17,5.314,2.957,8.515,2.1a2.758,2.758,0,0,0,2.252-2.564c.053-1.529-1.145-1.991-2.351-2.343-2.572-.751-5.183-1.386-7.723-2.23-2.893-.962-4.85-2.8-4.781-6.061.07-3.331,1.989-5.381,5.039-6.346a11.891,11.891,0,0,1,10.822,1.48c1.229.858,2.788,2.334,1.461,3.867-1.172,1.352-2.912,1.47-4.23-.519a3.7,3.7,0,0,0-3.272-1.33c-2.155.061-5.083-.5-5.465,2.242-.387,2.777,2.654,2.442,4.522,2.984,1.639.475,3.282.938,4.9,1.479,2.97.995,5.34,2.619,5.236,6.1s-1.893,5.816-5.331,6.971A10.931,10.931,0,0,1,3111.086,493.733Z" fill="#004592"/>
    <path id="Path_1209" data-name="Path 1209" d="M3022.632,493.738c-3.407-.067-6.549-.832-8.5-3.907-.641-1.011-1.792-2.379-.027-3.385,1.306-.743,2.465-.913,3.609.842,1.951,2.99,5.14,2.8,8.2,2.025,1.315-.332,2.487-1.157,2.415-2.776-.067-1.509-1.294-1.9-2.483-2.245-2.567-.747-5.176-1.37-7.7-2.231-2.89-.985-4.737-2.882-4.638-6.138.1-3.19,1.947-5.174,4.8-6.13a11.709,11.709,0,0,1,11.408,1.668c1.063.823,2.449,2.32,1.139,3.663a2.408,2.408,0,0,1-4.033-.329,3.878,3.878,0,0,0-3.507-1.586c-2.136.063-5.061-.54-5.444,2.224s2.638,2.45,4.495,3c1.744.52,3.493,1.03,5.222,1.6,3.047,1.006,5.133,2.841,4.918,6.28a7.054,7.054,0,0,1-5.227,6.651A11.248,11.248,0,0,1,3022.632,493.738Z" fill="#004592"/>
    <path id="Path_1210" data-name="Path 1210" d="M3124.577,481.243c.076-7.571,4.189-12.1,10.985-12.1,6.742,0,11.2,5.03,11.079,12.507-.118,7.42-4.411,12.09-11.118,12.093C3128.617,493.745,3124.5,489.043,3124.577,481.243Zm17.99.336c.071-5.032-2.712-8.368-6.99-8.377-4.233-.01-6.924,3.026-7.036,7.939-.117,5.107,2.518,8.453,6.772,8.6S3142.5,486.594,3142.567,481.579Z" fill="#004592"/>
    <path id="Path_1211" data-name="Path 1211" d="M2987.176,481.428c-.049,7.737-4.215,12.327-11.177,12.315-6.634-.012-10.916-4.833-10.9-12.266.023-7.658,4.337-12.407,11.206-12.334C2982.926,469.212,2987.223,474.07,2987.176,481.428Zm-4.038-.053c-.036-5.081-2.821-8.249-7.182-8.17-4.223.077-6.983,3.485-6.884,8.5.093,4.747,2.97,8.024,7.052,8.034C2980.4,489.749,2983.174,486.445,2983.138,481.375Z" fill="#004592"/>
    <path id="Path_1212" data-name="Path 1212" d="M2893.009,490.427c-3.139,2.761-6.341,4.316-10.454,2.658-2.98-1.2-4.47-3.251-4.524-6.316-.085-4.815-.019-9.632-.108-14.447-.028-1.517.433-2.19,2.06-2.158,1.594.032,2.1.69,2.068,2.209-.073,3.851,0,7.705-.02,11.558-.016,3.121.916,5.512,4.557,5.756a5.7,5.7,0,0,0,6.311-5.571c.241-3.718.167-7.46.139-11.19-.012-1.608.057-2.818,2.246-2.776,2.106.041,1.916,1.332,1.913,2.686-.011,5.9.035,11.8-.035,17.7-.015,1.244.812,3.027-1.677,3.226C2892.96,493.963,2894.013,491.769,2893.009,490.427Z" fill="#004592"/>
    <path id="Path_1213" data-name="Path 1213" d="M3150.869,482.255c0-3.25.076-6.5-.023-9.749-.084-2.744,1.818-3.034,3.2-1.862,1.485,1.262,2.085.712,3.3-.016,6.322-3.794,12.622-.524,12.838,6.689.141,4.69.015,9.388.043,14.082.008,1.312-.048,2.327-1.858,2.376-1.955.052-2.153-.953-2.13-2.48.059-3.73.082-7.464,0-11.194-.113-4.957-1.56-6.856-5.05-6.893-3.781-.04-5.99,2.448-6.071,6.988-.066,3.731-.082,7.464.007,11.194.038,1.606-.293,2.4-2.169,2.4-1.975,0-2.129-1.009-2.1-2.51C3150.91,488.274,3150.869,485.264,3150.869,482.255Z" fill="#004592"/>
    <path id="Path_1214" data-name="Path 1214" d="M2902.937,482.289c0-3.248.107-6.5-.036-9.743-.1-2.358,1.49-3.144,2.838-2.063,1.846,1.48,2.78.632,4.256-.2,5.583-3.164,11.8-.018,12.178,6.3.3,5.036.064,10.1.127,15.153.016,1.338-.42,1.98-1.854,2.022-1.556.046-2.17-.516-2.143-2.094.069-4.089.13-8.185-.029-12.269-.176-4.5-1.876-6.32-5.37-6.187-3.541.134-5.622,2.436-5.723,6.562-.094,3.847-.087,7.7-.009,11.548.033,1.575-.258,2.442-2.137,2.465-1.94.024-2.159-.93-2.121-2.469C2902.99,488.3,2902.937,485.3,2902.937,482.289Z" fill="#004592"/>
    <path id="Path_1215" data-name="Path 1215" d="M2836.59,482.116c0,3.248,0,6.5-.011,9.744,0,.848-.008,1.782-1.226,1.813-.934.024-2.073.277-2.186-1.186-.179-2.331-1.369-1.435-2.352-.662a8.31,8.31,0,0,1-6.467,1.85c-3.995-.528-6.451-2.965-6.576-6.947-.152-4.807-.007-9.623-.082-14.434-.024-1.5.38-2.158,2.036-2.142,1.681.016,2.022.754,2,2.216-.06,3.968,0,7.939,0,11.908,0,3.052,1.2,5.158,4.546,5.413a5.49,5.49,0,0,0,6.124-4.94c.319-3.947.225-7.928.266-11.895.014-1.372-.131-2.634,1.928-2.692s2.023,1.161,2.01,2.571C2836.574,475.86,2836.595,478.988,2836.59,482.116Z" fill="#004592"/>
    <path id="Path_1216" data-name="Path 1216" d="M3066.49,481.658c.109-9.8,7.506-15.165,15.444-11.525a7.077,7.077,0,0,1,3.821,3.694c.4.945,1.349,2.074-.355,2.629-1.111.361-2.357,1.434-3.384-.493-1.474-2.768-4.131-3.4-6.911-2.476a6.213,6.213,0,0,0-4.466,6.362,25.2,25.2,0,0,0,.252,5.03,5.815,5.815,0,0,0,4.925,4.746c2.7.463,5.3-.218,6.492-2.877.883-1.969,1.951-2.24,3.636-1.37,2.263,1.169.492,2.554-.061,3.572-1.923,3.541-5.192,4.923-9.138,4.778a9.731,9.731,0,0,1-8.873-5.378A13.014,13.014,0,0,1,3066.49,481.658Z" fill="#004592"/>
    <path id="Path_1217" data-name="Path 1217" d="M2863.446,493.718c-1.321.215-1.991-.435-2.436-1.613-2.509-6.646-5.073-13.272-7.594-19.914-.273-.719-.935-1.755.524-1.924,1.4-.161,2.845-.448,3.512,1.571,1.435,4.34,3.089,8.612,4.713,12.889.273.717.051,1.923,1.165,2.008,1.351.1,1.29-1.226,1.6-2.044q2.3-6.08,4.472-12.2c.471-1.328.926-2.426,2.706-2.322,1.381.08,2.134.339,1.538,1.906-2.568,6.751-5.132,13.5-7.635,20.277A2.036,2.036,0,0,1,2863.446,493.718Z" fill="#004592"/>
    <path id="Path_1218" data-name="Path 1218" d="M2803.628,487.214c1.814-4.957,3.594-9.811,5.365-14.667.411-1.129.635-2.35,2.3-2.363,1.562-.011,2.7-.02,1.862,2.138-2.534,6.514-4.947,13.074-7.377,19.628a2.543,2.543,0,0,1-2.727,1.84c-1.55.02-2.129-.737-2.589-1.976-2.348-6.328-4.751-12.635-7.092-18.965-.312-.846-1.657-2.079.206-2.55,1.3-.328,2.8-.537,3.466,1.54,1.439,4.469,3.176,8.844,4.8,13.255C2802.115,485.843,2802.078,486.8,2803.628,487.214Z" fill="#004592"/>
    <path id="Path_1219" data-name="Path 1219" d="M2991.606,481.722c0-3.122.055-6.246-.024-9.366-.037-1.477.349-2.226,2.013-2.183,1.641.043,2.014.827,2,2.278q-.075,9.546,0,19.093c.01,1.493-.483,2.167-2.087,2.2-1.78.033-1.932-.937-1.914-2.292C2991.636,488.207,2991.606,484.964,2991.606,481.722Z" fill="#004592"/>
    <path id="Path_1220" data-name="Path 1220" d="M2749.863,482.078c0,3.124-.022,6.248.009,9.372.013,1.307-.038,2.333-1.867,2.3-1.588-.031-2.109-.605-2.1-2.138.057-6.367.042-12.735.01-19.1-.007-1.365.19-2.242,1.925-2.313,2.067-.085,2.05,1.084,2.032,2.513C2749.837,475.83,2749.864,478.954,2749.863,482.078Z" fill="#004592"/>
    <path id="Path_1221" data-name="Path 1221" d="M2746.153,459.968c.557.232,1.481.543,2.334.987,1.567.814,3.03,1.683,4.352-.432a1.523,1.523,0,0,1,2.278-.292c.757.53.4,1.266.236,1.969-.737,3.243-3.109,4.46-6.312,3.164-2.069-.836-4.046-2.476-6.018.383a1.315,1.315,0,0,1-2.247-1.1C2740.685,462.166,2743.328,459.668,2746.153,459.968Z" fill="#004592"/>
    <path id="Path_1222" data-name="Path 1222" d="M2982.9,466.605c-3.536,1.495-4.869-.915-6.422-3.116-1.848,1.837-3,4.958-6.421,3.06C2973.828,459.475,2977.466,458.082,2982.9,466.605Z" fill="#004592"/>
    <path id="Path_1223" data-name="Path 1223" d="M3129.277,466.81c4.145-7.48,7.441-8.556,13.067-.266-2.14.776-3.907.876-5.209-1.363-.935-1.608-2.043-1.617-2.853.1C3133.253,467.466,3131.465,467.11,3129.277,466.81Z" fill="#004592"/>
    <path id="Path_1224" data-name="Path 1224" d="M3052.408,460.443c-1.6,1.843-2.951,3.495-4.419,5.038a2.084,2.084,0,0,1-2.659.294c-.971-.689.119-1.457.374-2.164C3046.744,460.717,3048.39,458.849,3052.408,460.443Z" fill="#004592"/>
    <path id="Path_1225" data-name="Path 1225" d="M3141.168,454.2c-1.547,1.851-2.806,3.441-4.163,4.945a1.992,1.992,0,0,1-2.664.408c-1.014-.708.084-1.49.281-2.206C3135.455,454.321,3137.278,452.88,3141.168,454.2Z" fill="#004592"/>
    <path id="Path_1226" data-name="Path 1226" d="M2970.641,454.182c3.776-1.334,5.647.083,6.519,3.214.2.714,1.432,1.411.382,2.156a1.95,1.95,0,0,1-2.638-.39C2973.492,457.576,2972.138,455.938,2970.641,454.182Z" fill="#004592"/>
    <path id="Path_1227" data-name="Path 1227" d="M2827.633,500.895c-1.525.113-2.45-.148-2.444-1.875.005-1.557.582-2.133,2.117-2.119,1.511.013,2.569.214,2.511,2.124C2829.767,500.714,2828.9,501.056,2827.633,500.895Z" fill="#004592"/>
    <path id="Path_1228" data-name="Path 1228" d="M2993.359,464.943c-1.845.125-1.716-1.127-1.766-2.385-.065-1.642.983-1.613,2.145-1.64,1.45-.032,1.827.687,1.863,2C2995.646,464.557,2994.857,465.063,2993.359,464.943Z" fill="#004592"/>
  </g>
</svg>
