<svg xmlns="http://www.w3.org/2000/svg" xmlns:xlink="http://www.w3.org/1999/xlink" width="511.11" height="103.451" viewBox="0 0 511.11 103.451">
  <defs>
    <filter id="Path_55" x="48.334" y="31.307" width="462.775" height="72.144" filterUnits="userSpaceOnUse">
      <feOffset input="SourceAlpha"/>
      <feGaussianBlur stdDeviation="1.373" result="blur"/>
      <feFlood flood-color="#d15727" flood-opacity="0.702"/>
      <feComposite operator="in" in2="blur"/>
      <feComposite in="SourceGraphic"/>
    </filter>
    <filter id="Ellipse_6" x="0" y="0" width="99.054" height="99.053" filterUnits="userSpaceOnUse">
      <feOffset input="SourceAlpha"/>
      <feGaussianBlur stdDeviation="1.373" result="blur-2"/>
      <feFlood flood-color="#d15727" flood-opacity="0.702"/>
      <feComposite operator="in" in2="blur-2"/>
      <feComposite in="SourceGraphic"/>
    </filter>
    <clipPath id="clip-path">
      <circle id="Ellipse_7" data-name="Ellipse 7" cx="40.604" cy="40.604" r="40.604" transform="translate(3152.511 515.227)" fill="none"/>
    </clipPath>
  </defs>
  <g id="Group_17" data-name="Group 17" transform="translate(-3143.588 -506.304)">
    <g id="Group_13" data-name="Group 13">
      <g transform="matrix(1, 0, 0, 1, 3143.59, 506.3)" filter="url(#Path_55)">
        <path id="Path_55-2" data-name="Path 55" d="M3600.141,605.634h-367.65l-36.448-63.9h445.632a8.886,8.886,0,0,1,6.821,14.58l-36.578,43.813A15.341,15.341,0,0,1,3600.141,605.634Z" transform="translate(-3143.59 -506.3)" fill="#fff"/>
      </g>
      <path id="Path_56" data-name="Path 56" d="M3596.491,601.237H3193.115V546.128h447.668a4.161,4.161,0,0,1,3.194,6.827l-35.708,42.772A15.342,15.342,0,0,1,3596.491,601.237Z" fill="#f9ae1d"/>
    </g>
    <g transform="matrix(1, 0, 0, 1, 3143.59, 506.3)" filter="url(#Ellipse_6)">
      <circle id="Ellipse_6-2" data-name="Ellipse 6" cx="45.406" cy="45.406" r="45.406" transform="translate(4.12 4.12)" fill="#fff"/>
    </g>
    <g id="Group_15" data-name="Group 15">
      <g id="Group_14" data-name="Group 14" clip-path="url(#clip-path)">
        <path id="Path_57" data-name="Path 57" d="M3151.122,588.36a14.1,14.1,0,0,0,14.127,14.079h62.56a14.1,14.1,0,0,0,14.126-14.079V526.008a14.1,14.1,0,0,0-14.126-14.079h-62.56a14.1,14.1,0,0,0-14.127,14.079Z" fill="#6eb02e"/>
        <rect id="Rectangle_4" data-name="Rectangle 4" width="70.779" height="70.779" rx="11.01" transform="translate(3153.406 511.907)" fill="none"/>
        <path id="Path_58" data-name="Path 58" d="M3261.15,592.107l-45.685-45.685-7.838-1.4-7.49,1.945-1.981-1.981-8.139.328-5.307,3.556-2.878-2.878-13.025-.095-1.722,14.839,62.712,62.715Z" fill="#5a8e30"/>
        <path id="Path_59" data-name="Path 59" d="M3217.522,549.512c-2.731-7.043-13.688-8.22-18.6-2.873-.154-3.053-5.262-3.353-7.422-3.216a10.236,10.236,0,0,0-8.1,4.648c-2.179-4.182-7.425-5.427-11.732-4.22a10.046,10.046,0,0,0-7.364,10.059,9.57,9.57,0,0,0,7.877,9.516,16.677,16.677,0,0,0,7.049-.185c1.7-.418,5.136-1.926,4-4.292a9.933,9.933,0,0,0,7.705,4.682c2.317.232,7.393-.028,8.191-2.895,3.45,3.45,9.723,3.839,13.949,1.7,4.669-2.365,6.294-8.17,4.455-12.922C3217.039,548.267,3218,550.758,3217.522,549.512Zm-46.725.392a4.4,4.4,0,0,1,5.051-2.854c2.28.437,3.349,2.574,3.471,4.722h-8.9a6.507,6.507,0,0,1,.381-1.868C3171.013,549.324,3170.583,550.484,3170.8,549.9Zm12.22,8.706c-.818-1.04-2.341-.1-3.307.2a12.991,12.991,0,0,1-4.459.7c-2.953-.119-4.7-2.039-4.815-4.962h10.928c.465,0,.51-.134.563.379a9.879,9.879,0,0,0,1.2,3.85c-.036-.057-.074-.112-.11-.169C3182.755,558.278,3183.059,558.664,3183.017,558.61Zm14.249-.264c-2.185,0-4.24,1.262-6.388.2a5.386,5.386,0,0,1-2.69-5.048c0-2.093.85-4.3,2.934-5.116a5.619,5.619,0,0,1,3.2-.179,7.539,7.539,0,0,0,3.247.359,11.23,11.23,0,0,0-.137,9.8l-.163-.013Zm14.171-2.142c-.631,2.722-3.387,5.013-6.183,3.287-2.613-1.608-2.641-5.74-2.113-8.384.555-2.775,3.351-5.2,6.193-3.434,2.627,1.64,2.722,5.854,2.1,8.531C3211.254,556.994,3211.62,555.415,3211.437,556.2Z" fill="#fffff5"/>
      </g>
    </g>
    <g id="Group_16" data-name="Group 16">
      <path id="Path_60" data-name="Path 60" d="M3259.224,568.608h-6.058v-3.581H3269.5v3.581h-6.094v20.083h-4.181Z" fill="#fff"/>
      <path id="Path_61" data-name="Path 61" d="M3276.408,565.027v23.664h-4.181V565.027Z" fill="#fff"/>
      <path id="Path_62" data-name="Path 62" d="M3293.38,578.123h-8.008v7.092h8.964v3.476h-13.145V565.027h12.649V568.5h-8.468v6.214h8.008Zm-4.252-18.363,3.082,4h-2.941l-1.63-2.212h-.071l-1.594,2.212h-2.87l3.047-4Zm7.9-2.808-4.287,3.861h-2.2l2.657-3.861Z" fill="#fff"/>
      <path id="Path_63" data-name="Path 63" d="M3302.2,568.608h-6.059v-3.581h16.333v3.581h-6.093v20.083H3302.2Z" fill="#fff"/>
      <path id="Path_64" data-name="Path 64" d="M3322.007,565.027h4.145v10.884h.106c.532-.913,1.063-1.826,1.594-2.668l5.528-8.216h5l-7.441,10.112,7.865,13.552h-4.818l-5.952-10.743-1.878,2.387v8.356h-4.145Z" fill="#fff"/>
      <path id="Path_65" data-name="Path 65" d="M3345.25,565.027v23.664h-4.181V565.027Z" fill="#fff"/>
      <path id="Path_66" data-name="Path 66" d="M3362.221,578.123h-8.007v7.092h8.963v3.476h-13.144V565.027h12.648V568.5h-8.467v6.214h8.007Zm-4.181-18.363,3.437,4h-3.153l-1.878-2.142h-.071l-1.842,2.142h-3.118l3.4-4Zm-3.685,33.812a2.085,2.085,0,0,1,2.091-2.072,2.072,2.072,0,0,1-.036,4.143A2.077,2.077,0,0,1,3354.355,593.572Z" fill="#fff"/>
      <path id="Path_67" data-name="Path 67" d="M3385.286,579.176c-.142-2.914-.32-6.46-.284-9.514h-.106c-.674,2.808-1.559,5.9-2.445,8.672l-3.224,10.077h-3.118l-2.9-9.9c-.851-2.844-1.63-5.969-2.2-8.847h-.071c-.106,2.984-.248,6.565-.426,9.655l-.5,9.374h-3.826l1.595-23.664h5.208l2.87,9.515c.814,2.879,1.523,5.582,2.09,8.251h.071c.568-2.633,1.311-5.372,2.161-8.251l3.012-9.515h5.173l1.382,23.664h-4Z" fill="#fff"/>
      <path id="Path_68" data-name="Path 68" d="M3400.7,588.691V565.027h4.535l5.527,10.147a74.009,74.009,0,0,1,3.685,7.794h.071c-.248-3.124-.39-6.355-.39-10.147v-7.794h3.827v23.664h-4.217l-5.563-10.322a71.662,71.662,0,0,1-3.791-7.97l-.106.035c.178,2.949.248,6.144.248,10.357v7.9Z" fill="#fff"/>
      <path id="Path_69" data-name="Path 69" d="M3427.058,582.161l-1.806,6.53H3421l6.944-23.664h5.209l6.909,23.664H3435.7l-1.913-6.53Zm1.312-22.366a1.946,1.946,0,0,0,2.2,1.616c1.418,0,2.091-.7,2.233-1.616h2.267c-.035,2.318-1.488,4-4.5,4-3.082,0-4.464-1.685-4.5-4ZM3433.188,579l-1.63-5.723c-.425-1.475-.779-3.265-1.1-4.74h-.106c-.319,1.475-.674,3.3-1.063,4.74L3427.7,579Z" fill="#fff"/>
      <path id="Path_70" data-name="Path 70" d="M3443.251,588.691V565.027h4.535l5.527,10.147a74.009,74.009,0,0,1,3.685,7.794h.071c-.248-3.124-.391-6.355-.391-10.147v-7.794h3.828v23.664h-4.217l-5.563-10.322a71.881,71.881,0,0,1-3.791-7.97l-.106.035c.178,2.949.248,6.144.248,10.357v7.9Z" fill="#fff"/>
      <path id="Path_71" data-name="Path 71" d="M3482.437,587.778a21.793,21.793,0,0,1-6.766,1.159c-3.544,0-6.308-.913-8.363-2.914-2.09-1.966-3.259-5.2-3.259-8.953.036-7.935,5.279-12.289,12.223-12.289a14.144,14.144,0,0,1,5.527.983l-.885,3.406a10.75,10.75,0,0,0-4.606-.878c-4.5,0-7.866,2.774-7.866,8.637,0,5.723,3.083,8.6,7.3,8.6a7.173,7.173,0,0,0,2.692-.386V579h-3.719v-3.3h7.723Z" fill="#fff"/>
      <path id="Path_72" data-name="Path 72" d="M3493.421,565.027h4.18v20.188h8.787v3.476h-12.967Z" fill="#fff"/>
      <path id="Path_73" data-name="Path 73" d="M3528.462,561.13a6.929,6.929,0,0,1,.672,2.914c0,1.861-1.062,3.124-3.294,3.3l-.5.035V579c0,6.916-3.365,10.041-8.644,10.041-5.173,0-8.326-3.019-8.326-9.971V565.027h4.18v14.36c0,4.389,1.737,6.25,4.251,6.25,2.694,0,4.359-1.861,4.359-6.25v-14.36h3.295c1.205,0,1.594-.386,1.594-1.229a4.435,4.435,0,0,0-.637-2.177Z" fill="#fff"/>
      <path id="Path_74" data-name="Path 74" d="M3550.677,562.288a6.975,6.975,0,0,1,.745,3.09,3.181,3.181,0,0,1-3.4,3.441,13.593,13.593,0,0,1,2.09,7.794c0,8.216-4.322,12.429-10.2,12.429-6.164,0-9.85-5.09-9.85-12.078,0-7.2,4.039-12.288,10.2-12.288a10.757,10.757,0,0,1,3.65.632c1.1.421,2.3,1.158,3.153,1.158.886,0,1.24-.421,1.276-1.3a5.1,5.1,0,0,0-.708-2.352Zm-4.96,14.466c0-4.389-1.771-8.673-5.6-8.673s-5.669,4.179-5.669,8.813c-.035,4.67,1.949,8.743,5.669,8.743C3543.8,585.637,3545.717,581.634,3545.717,576.754Zm-7.688,16.818a2.085,2.085,0,0,1,2.09-2.072,2.072,2.072,0,0,1-.035,4.143A2.077,2.077,0,0,1,3538.029,593.572Z" fill="#fff"/>
      <path id="Path_75" data-name="Path 75" d="M3553.689,588.691V565.027h4.535l5.528,10.147a74.194,74.194,0,0,1,3.684,7.794h.072c-.249-3.124-.391-6.355-.391-10.147v-7.794h3.827v23.664h-4.217l-5.562-10.322a71.359,71.359,0,0,1-3.791-7.97l-.107.035c.178,2.949.248,6.144.248,10.357v7.9Z" fill="#fff"/>
      <path id="Path_76" data-name="Path 76" d="M3592.875,587.778a21.794,21.794,0,0,1-6.767,1.159c-3.544,0-6.308-.913-8.362-2.914-2.09-1.966-3.26-5.2-3.26-8.953.036-7.935,5.279-12.289,12.224-12.289a14.147,14.147,0,0,1,5.527.983l-.886,3.406a10.742,10.742,0,0,0-4.6-.878c-4.5,0-7.866,2.774-7.866,8.637,0,5.723,3.083,8.6,7.3,8.6a7.175,7.175,0,0,0,2.693-.386V579h-3.72v-3.3h7.724Z" fill="#fff"/>
    </g>
  </g>
</svg>
