<svg xmlns="http://www.w3.org/2000/svg" xmlns:xlink="http://www.w3.org/1999/xlink" width="528.275" height="103.451" viewBox="0 0 528.275 103.451">
  <defs>
    <filter id="Path_32" x="48.334" y="31.307" width="479.94" height="72.144" filterUnits="userSpaceOnUse">
      <feOffset input="SourceAlpha"/>
      <feGaussianBlur stdDeviation="1.373" result="blur"/>
      <feFlood flood-color="#d15727" flood-opacity="0.702"/>
      <feComposite operator="in" in2="blur"/>
      <feComposite in="SourceGraphic"/>
    </filter>
    <filter id="Ellipse_4" x="0" y="0" width="99.053" height="99.053" filterUnits="userSpaceOnUse">
      <feOffset input="SourceAlpha"/>
      <feGaussianBlur stdDeviation="1.373" result="blur-2"/>
      <feFlood flood-color="#d15727" flood-opacity="0.702"/>
      <feComposite operator="in" in2="blur-2"/>
      <feComposite in="SourceGraphic"/>
    </filter>
    <clipPath id="clip-path">
      <circle id="Ellipse_5" data-name="Ellipse 5" cx="40.604" cy="40.604" r="40.604" transform="translate(2581.972 515.227)" fill="none"/>
    </clipPath>
  </defs>
  <g id="ic_banner2" transform="translate(-2573.049 -506.304)">
    <g id="Group_8" data-name="Group 8">
      <g transform="matrix(1, 0, 0, 1, 2573.05, 506.3)" filter="url(#Path_32)">
        <path id="Path_32-2" data-name="Path 32" d="M3046.767,605.634H2661.952l-36.448-63.9h462.8a8.886,8.886,0,0,1,6.821,14.58l-36.578,43.813A15.341,15.341,0,0,1,3046.767,605.634Z" transform="translate(-2573.05 -506.3)" fill="#fff"/>
      </g>
      <path id="Path_33" data-name="Path 33" d="M3043.118,601.237H2622.576V546.128h464.833a4.161,4.161,0,0,1,3.194,6.827L3054.9,595.727A15.341,15.341,0,0,1,3043.118,601.237Z" fill="#f9ae1d"/>
    </g>
    <g transform="matrix(1, 0, 0, 1, 2573.05, 506.3)" filter="url(#Ellipse_4)">
      <circle id="Ellipse_4-2" data-name="Ellipse 4" cx="45.406" cy="45.406" r="45.406" transform="translate(4.12 4.12)" fill="#fff"/>
    </g>
    <g id="Group_10" data-name="Group 10">
      <g id="Group_9" data-name="Group 9" clip-path="url(#clip-path)">
        <path id="Path_34" data-name="Path 34" d="M2580.584,588.36a14.1,14.1,0,0,0,14.126,14.079h62.56A14.1,14.1,0,0,0,2671.4,588.36V526.008a14.1,14.1,0,0,0-14.126-14.079h-62.56a14.1,14.1,0,0,0-14.126,14.079Z" fill="#6eb02e"/>
        <rect id="Rectangle_3" data-name="Rectangle 3" width="70.779" height="70.779" rx="11.01" transform="translate(2582.867 511.907)" fill="none"/>
        <path id="Path_35" data-name="Path 35" d="M2637.57,538.973s-9.74,1.688-17.276,5.718l-7.981-7.982a45.46,45.46,0,0,0-5.8,9.839c-2.555,5.9-.179,15.852-.179,15.852l3.255,3.254a53.08,53.08,0,0,0,.233,6.615l47.731,48.032,27.746-33.3Z" fill="#5a8e30"/>
        <path id="Path_36" data-name="Path 36" d="M2616.588,543.658a36.766,36.766,0,0,0-4.275-6.949s-7.878,6.344-9.163,15.116a13.987,13.987,0,0,0,3.186,10.575,21.784,21.784,0,0,1,6.067-15.3A29,29,0,0,1,2616.588,543.658Zm20.982-4.685s-14.613.555-23.677,9.619-4.069,23.677-4.069,23.677,13.318-.74,20.9-8.879S2637.57,538.973,2637.57,538.973Zm-14.355,16.6a25.738,25.738,0,0,1,3.239-.922,26.466,26.466,0,0,1,3.329-.506,16.092,16.092,0,0,1,3.45.045,16.023,16.023,0,0,1-3.119,1.474,26.307,26.307,0,0,1-3.238.924,25.764,25.764,0,0,1-3.329.508,19.162,19.162,0,0,1-2.291.052l-4.148,5.094q.684-.294,1.376-.549a29.7,29.7,0,0,1,3.739-1.064,30.3,30.3,0,0,1,3.843-.584,18.46,18.46,0,0,1,3.982.051,18.363,18.363,0,0,1-3.6,1.7,30.278,30.278,0,0,1-3.739,1.067,29.9,29.9,0,0,1-3.842.587,21.155,21.155,0,0,1-2.8.055c-1.529,1.857-3.063,3.726-4.74,5.667a16.481,16.481,0,0,1,.926-4.326,28.038,28.038,0,0,1,1.747-4.022c.091-.17.2-.331.288-.5a20.5,20.5,0,0,1-.893-2.778,20.76,20.76,0,0,1-.5-2.881,12.818,12.818,0,0,1,.022-3.01,12.751,12.751,0,0,1,1.421,2.654,20.946,20.946,0,0,1,.9,2.783c.1.408.185.821.262,1.235a34.881,34.881,0,0,1,3.366-4.378,16.47,16.47,0,0,1-1.379-4.279,10.471,10.471,0,0,1-.162-2.521,10.463,10.463,0,0,1,1.383,2.114,16.829,16.829,0,0,1,.941,2.261c.134.4.251.8.355,1.215,1.413-1.466,2.879-2.86,4.427-4.179a11.623,11.623,0,0,1-.4-1.1,10.712,10.712,0,0,1-.377-1.752.964.964,0,1,1,.965-.29,10.694,10.694,0,0,1,.653,1.669c.063.208.114.42.165.631a31.376,31.376,0,0,1,7.192-4.565c-1.842,2.235-3.562,4.452-5.34,6.626l-.4.486c.053-.02.106-.042.16-.061a20.448,20.448,0,0,1,2.557-.728,20.809,20.809,0,0,1,2.629-.4,12.626,12.626,0,0,1,2.724.035,12.68,12.68,0,0,1-2.463,1.164,20.817,20.817,0,0,1-2.557.729,20.429,20.429,0,0,1-2.628.4c-.464.034-.93.058-1.4.054l-3.689,4.506Q2622.716,555.758,2623.215,555.573Z" fill="#fffff5"/>
      </g>
    </g>
    <g id="Group_11" data-name="Group 11">
      <path id="Path_37" data-name="Path 37" d="M2686.173,568.607h-6.059v-3.581h16.333v3.581h-6.094V588.69h-4.18Z" fill="#fff"/>
      <path id="Path_38" data-name="Path 38" d="M2703.356,565.026v9.585h8.787v-9.585h4.181V588.69h-4.181V578.263h-8.787V588.69h-4.181V565.026Z" fill="#fff"/>
      <path id="Path_39" data-name="Path 39" d="M2725.429,582.16l-1.806,6.53h-4.252l6.944-23.664h5.209l6.909,23.664h-4.358l-1.913-6.53Zm5.245-22.4,3.436,4h-3.153l-1.878-2.142h-.071l-1.842,2.142h-3.118l3.4-4Zm.885,19.241-1.63-5.723c-.424-1.475-.779-3.265-1.1-4.74h-.106c-.319,1.475-.674,3.3-1.063,4.74L2726.068,579Z" fill="#fff"/>
      <path id="Path_40" data-name="Path 40" d="M2741.622,588.69V565.026h4.535l5.527,10.147a74.1,74.1,0,0,1,3.685,7.794h.071c-.248-3.124-.391-6.355-.391-10.147v-7.794h3.828V588.69h-4.217l-5.563-10.322a71.923,71.923,0,0,1-3.791-7.97l-.106.035c.178,2.949.248,6.144.248,10.357v7.9Z" fill="#fff"/>
      <path id="Path_41" data-name="Path 41" d="M2773.226,568.607h-6.058v-3.581H2783.5v3.581h-6.094V588.69h-4.181Z" fill="#fff"/>
      <path id="Path_42" data-name="Path 42" d="M2790.41,565.026v9.585h8.787v-9.585h4.181V588.69H2799.2V578.263h-8.787V588.69h-4.181V565.026Z" fill="#fff"/>
      <path id="Path_43" data-name="Path 43" d="M2812.306,565.026V588.69h-4.18V565.026Z" fill="#fff"/>
      <path id="Path_44" data-name="Path 44" d="M2829.278,578.122h-8.008v7.092h8.964v3.476H2817.09V565.026h12.648V568.5h-8.468v6.214h8.008Zm-4.182-18.363,3.438,4h-3.153l-1.878-2.142h-.072l-1.841,2.142h-3.119l3.4-4Zm-3.684,33.812a2.085,2.085,0,0,1,2.091-2.072,2.072,2.072,0,0,1-.037,4.143A2.077,2.077,0,0,1,2821.412,593.571Z" fill="#fff"/>
      <path id="Path_45" data-name="Path 45" d="M2833.848,588.69V565.026h4.535l5.528,10.147a74.048,74.048,0,0,1,3.684,7.794h.072c-.248-3.124-.391-6.355-.391-10.147v-7.794h3.827V588.69h-4.217l-5.562-10.322a71.575,71.575,0,0,1-3.791-7.97l-.107.035c.178,2.949.248,6.144.248,10.357v7.9Z" fill="#fff"/>
      <path id="Path_46" data-name="Path 46" d="M2881.148,579.175c-.141-2.914-.319-6.46-.284-9.514h-.106c-.673,2.808-1.559,5.9-2.445,8.672l-3.223,10.077h-3.119l-2.905-9.9c-.85-2.844-1.63-5.969-2.2-8.847h-.07c-.107,2.984-.249,6.565-.426,9.655l-.5,9.374h-3.827l1.595-23.664h5.208l2.87,9.515c.815,2.879,1.524,5.582,2.09,8.251h.071c.567-2.633,1.311-5.372,2.162-8.251l3.011-9.515h5.173l1.382,23.664h-4Z" fill="#fff"/>
      <path id="Path_47" data-name="Path 47" d="M2908.606,576.612c0,8.216-4.322,12.429-10.2,12.429-6.164,0-9.85-5.09-9.85-12.078,0-7.2,4.039-12.288,10.205-12.288C2905.134,564.675,2908.606,569.941,2908.606,576.612Zm-15.66.316c0,4.916,2.02,8.708,5.669,8.708,3.684,0,5.6-4,5.6-8.883,0-4.389-1.772-8.673-5.6-8.673C2894.859,568.08,2892.946,572.048,2892.946,576.928Zm7.264-17.2,3.436,4h-3.153l-1.878-2.142h-.07l-1.843,2.142h-3.118l3.4-4Z" fill="#fff"/>
      <path id="Path_48" data-name="Path 48" d="M2916.366,565.026V588.69h-4.181V565.026Z" fill="#fff"/>
      <path id="Path_49" data-name="Path 49" d="M2930.751,568.607h-6.059v-3.581h16.333v3.581h-6.094V588.69h-4.18Z" fill="#fff"/>
      <path id="Path_50" data-name="Path 50" d="M2943.755,565.342a35.374,35.374,0,0,1,5.987-.492c3.153,0,5.421.527,6.945,1.861a5.966,5.966,0,0,1,1.984,4.74,6.262,6.262,0,0,1-4.146,5.969v.07c1.7.632,2.657,2.247,3.225,4.705a48.245,48.245,0,0,0,1.736,6.495H2955.2a32.384,32.384,0,0,1-1.488-5.652c-.638-3.055-1.7-4.073-4-4.108H2947.9v9.76h-4.145Zm4.145,10.5h2.126c2.764,0,4.464-1.615,4.464-3.968,0-2.527-1.559-3.827-4.287-3.862a9.8,9.8,0,0,0-2.3.211Z" fill="#fff"/>
      <path id="Path_51" data-name="Path 51" d="M2982.515,561.129a6.914,6.914,0,0,1,.673,2.914c0,1.861-1.062,3.124-3.295,3.3l-.5.035V579c0,6.916-3.365,10.041-8.644,10.041-5.173,0-8.327-3.019-8.327-9.971V565.026h4.181v14.36c0,4.389,1.736,6.25,4.252,6.25,2.692,0,4.357-1.861,4.357-6.25v-14.36h3.295c1.205,0,1.595-.386,1.595-1.229a4.429,4.429,0,0,0-.638-2.177Z" fill="#fff"/>
      <path id="Path_52" data-name="Path 52" d="M3004.731,562.288a6.839,6.839,0,0,1,.744,3.089,3.181,3.181,0,0,1-3.4,3.441,13.593,13.593,0,0,1,2.09,7.794c0,8.216-4.323,12.429-10.2,12.429-6.164,0-9.85-5.09-9.85-12.078,0-7.2,4.039-12.288,10.2-12.288a10.759,10.759,0,0,1,3.65.632c1.1.421,2.3,1.158,3.153,1.158.886,0,1.24-.421,1.275-1.3a5.089,5.089,0,0,0-.708-2.352Zm-4.96,14.465c0-4.389-1.771-8.673-5.6-8.673s-5.669,4.179-5.669,8.813c-.036,4.67,1.949,8.743,5.669,8.743C2997.857,585.636,2999.771,581.633,2999.771,576.753Zm-6.236-17.134,3.118,4.108h-3.3l-4.393-4.108Z" fill="#fff"/>
      <path id="Path_53" data-name="Path 53" d="M3007.743,588.69V565.026h4.535l5.527,10.147a74.107,74.107,0,0,1,3.685,7.794h.071c-.248-3.124-.39-6.355-.39-10.147v-7.794H3025V588.69h-4.217l-5.563-10.322a71.923,71.923,0,0,1-3.791-7.97l-.106.035c.178,2.949.248,6.144.248,10.357v7.9Z" fill="#fff"/>
      <path id="Path_54" data-name="Path 54" d="M3046.928,587.777a21.785,21.785,0,0,1-6.766,1.159c-3.544,0-6.308-.913-8.363-2.914-2.089-1.966-3.259-5.2-3.259-8.953.036-7.935,5.279-12.289,12.223-12.289a14.149,14.149,0,0,1,5.528.983l-.886,3.406a10.75,10.75,0,0,0-4.606-.878c-4.5,0-7.866,2.774-7.866,8.637,0,5.723,3.083,8.6,7.3,8.6a7.168,7.168,0,0,0,2.692-.386V579h-3.719v-3.3h7.723Z" fill="#fff"/>
    </g>
  </g>
</svg>
