<svg xmlns="http://www.w3.org/2000/svg" xmlns:xlink="http://www.w3.org/1999/xlink" width="466.422" height="103.451" viewBox="0 0 466.422 103.451">
  <defs>
    <filter id="Path_13" x="48.335" y="31.307" width="418.087" height="72.144" filterUnits="userSpaceOnUse">
      <feOffset input="SourceAlpha"/>
      <feGaussianBlur stdDeviation="1.373" result="blur"/>
      <feFlood flood-color="#d15727" flood-opacity="0.702"/>
      <feComposite operator="in" in2="blur"/>
      <feComposite in="SourceGraphic"/>
    </filter>
    <filter id="Ellipse_2" x="0" y="0" width="99.053" height="99.053" filterUnits="userSpaceOnUse">
      <feOffset input="SourceAlpha"/>
      <feGaussianBlur stdDeviation="1.373" result="blur-2"/>
      <feFlood flood-color="#d15727" flood-opacity="0.702"/>
      <feComposite operator="in" in2="blur-2"/>
      <feComposite in="SourceGraphic"/>
    </filter>
    <clipPath id="clip-path">
      <circle id="Ellipse_3" data-name="Ellipse 3" cx="40.604" cy="40.604" r="40.604" transform="translate(2073.286 515.227)" fill="none"/>
    </clipPath>
  </defs>
  <g id="ic_banner1" transform="translate(-2064.363 -506.304)">
    <g id="Group_3" data-name="Group 3">
      <g transform="matrix(1, 0, 0, 1, 2064.36, 506.3)" filter="url(#Path_13)">
        <path id="Path_13-2" data-name="Path 13" d="M2476.228,605.634H2153.265l-36.447-63.9h400.944a8.886,8.886,0,0,1,6.821,14.58L2488,600.124A15.341,15.341,0,0,1,2476.228,605.634Z" transform="translate(-2064.36 -506.3)" fill="#fff"/>
      </g>
      <path id="Path_14" data-name="Path 14" d="M2472.579,601.237H2113.89V546.128h402.98a4.16,4.16,0,0,1,3.194,6.827l-35.708,42.772A15.341,15.341,0,0,1,2472.579,601.237Z" fill="#f9ae1d"/>
    </g>
    <g transform="matrix(1, 0, 0, 1, 2064.36, 506.3)" filter="url(#Ellipse_2)">
      <circle id="Ellipse_2-2" data-name="Ellipse 2" cx="45.406" cy="45.406" r="45.406" transform="translate(4.12 4.12)" fill="#fff"/>
    </g>
    <g id="Group_5" data-name="Group 5">
      <g id="Group_4" data-name="Group 4" clip-path="url(#clip-path)">
        <path id="Path_15" data-name="Path 15" d="M2071.9,588.36a14.1,14.1,0,0,0,14.126,14.079h62.56a14.1,14.1,0,0,0,14.127-14.079V526.008a14.1,14.1,0,0,0-14.127-14.079h-62.56a14.1,14.1,0,0,0-14.126,14.079Z" fill="#6eb02e"/>
        <path id="Path_16" data-name="Path 16" d="M2182.208,578.331l-50.137-50.137-3.775,3.6s-2.851,2.163-5.665,1.978c-3.437-.225-9.732-1.278-14.7,2.949s-4.348,12.735-4.348,12.735l2.382,2.383v6.509l-11.193,12.681,47.351,47.353Z" fill="#5a8e30"/>
        <rect id="Rectangle_2" data-name="Rectangle 2" width="70.779" height="70.779" rx="11.01" transform="translate(2074.18 511.907)" fill="none"/>
        <path id="Path_17" data-name="Path 17" d="M2124.378,547l-4.165.919v6.12l-4.6.646v-5.875l-4.165.918v5.541l-4.606.647v-5.3l-4.165.918V556.5l-8.549,1.2v11.773a2.234,2.234,0,0,0,2.228,2.228h28.932a2.234,2.234,0,0,0,2.228-2.228V553.015l-3.133.44Zm-12.295,16.705h-3.614v-5.082h3.614Zm6.181,0h-3.614v-5.082h3.614Zm6.181-5.082v5.082h-3.614v-5.082Zm7.6-30.468a.276.276,0,0,0-.387.045l0,.006a16.484,16.484,0,0,1-3.622,3.37,7.758,7.758,0,0,1-6.872,1.49c-.826-.149-1.681-.3-2.554-.374a15.8,15.8,0,0,0-2.637.013,17.272,17.272,0,0,0-2.593.482,14.212,14.212,0,0,0-4.793,2.232,12.576,12.576,0,0,0-3.462,3.988,15.428,15.428,0,0,0-1.534,10.045l.087.075.084-.088a16.928,16.928,0,0,1,2.379-9.43,12.12,12.12,0,0,1,3.279-3.434,13.107,13.107,0,0,1,4.357-1.9,17.375,17.375,0,0,1,4.765-.591c.81,0,1.626.069,2.467.145a10.568,10.568,0,0,0,2.653.021,12.012,12.012,0,0,0,4.7-2.213,18.068,18.068,0,0,0,1.97-1.636c.366-.339.715-.692,1.054-1.057a26.49,26.49,0,0,1-.908,2.977,25.581,25.581,0,0,1-1.7,3.761c-1.328,2.361-3.062,4.573-5.376,5.643a11.473,11.473,0,0,1-1.851.619,16.8,16.8,0,0,1-1.961.383,23.568,23.568,0,0,1-4.021.144c-1.364-.059-2.757-.2-4.239-.175a10.433,10.433,0,0,0-2.273.266c-.027.007-.054.017-.081.024a9.668,9.668,0,0,1,1.016-1.264,11.819,11.819,0,0,1,3.087-2.286,12.854,12.854,0,0,1,3.732-1.2,16.747,16.747,0,0,1,4.008-.154l.09-.067-.064-.1a15.051,15.051,0,0,0-4.109-.365,12.7,12.7,0,0,0-4.1.911,11.8,11.8,0,0,0-3.615,2.267,10.993,10.993,0,0,0-1.455,1.622,6.247,6.247,0,0,0-1.036,2.09.79.79,0,0,0,1.175.872l.049-.029a6.657,6.657,0,0,1,3.587-.811c1.32.016,2.718.192,4.153.235a20.188,20.188,0,0,0,4.36-.237,18.451,18.451,0,0,0,2.146-.493,12.841,12.841,0,0,0,2.1-.786,10.56,10.56,0,0,0,3.466-2.857,16.752,16.752,0,0,0,2.237-3.736,33.876,33.876,0,0,0,2.342-8.182A.276.276,0,0,0,2132.044,528.156Z" fill="#fffff5"/>
      </g>
    </g>
    <g id="Component_1_1" data-name="Component 1 – 1" transform="translate(2176.801 556.986)">
      <path id="Path_18" data-name="Path 18" d="M2177.652,584.2a11.33,11.33,0,0,0,5.173,1.334c2.622,0,4.11-1.3,4.11-3.265,0-1.826-1.205-2.879-3.9-4.038-3.543-1.474-5.882-3.651-5.882-6.776,0-3.827,3.047-6.741,8.008-6.741a11.483,11.483,0,0,1,5.066,1.053l-.921,3.406a9.128,9.128,0,0,0-4.217-1.018c-2.585,0-3.719,1.439-3.719,2.844,0,1.825,1.24,2.668,4.216,4,3.791,1.686,5.562,3.827,5.562,6.952,0,3.932-2.94,7.057-8.538,7.057a12.521,12.521,0,0,1-5.812-1.334Z" transform="translate(-2176.801 -556.986)" fill="#fff"/>
      <path id="Path_19" data-name="Path 19" d="M2199.123,582.16l-1.807,6.53h-4.252l6.944-23.664h5.209l6.91,23.664h-4.359l-1.913-6.53Zm2.48-18.749c.531-1.475,1.737-1.791,1.737-2.915a1,1,0,0,0-1.064-1.053,2.068,2.068,0,0,0-1.559,1.194l-1.417-.948a4.09,4.09,0,0,1,3.756-2.458,2.9,2.9,0,0,1,3.082,2.7c0,1.861-1.594,2.317-2.48,3.932Zm3.65,15.589-1.63-5.723c-.425-1.475-.78-3.265-1.1-4.74h-.1c-.32,1.475-.674,3.3-1.064,4.74L2199.761,579Z" transform="translate(-2176.801 -556.986)" fill="#fff"/>
      <path id="Path_20" data-name="Path 20" d="M2215.315,588.69V565.026h4.535l5.528,10.147a74.293,74.293,0,0,1,3.684,7.794h.071c-.248-3.124-.39-6.355-.39-10.147v-7.794h3.827V588.69h-4.217l-5.562-10.322A71.575,71.575,0,0,1,2219,570.4l-.107.035c.178,2.949.248,6.144.248,10.357v7.9Z" transform="translate(-2176.801 -556.986)" fill="#fff"/>
      <path id="Path_21" data-name="Path 21" d="M2255.493,588.69l-2.338-4.775c-.851-1.685-1.453-2.949-2.091-4.354h-.071a46.6,46.6,0,0,1-1.913,4.354l-2.161,4.775h-4.607l6.343-12.007-6.095-11.657h4.678l2.338,4.88c.638,1.37,1.169,2.563,1.736,3.9h.071c.567-1.475,1.063-2.563,1.666-3.933l2.231-4.845h4.642l-6.236,11.586,6.52,12.078Z" transform="translate(-2176.801 -556.986)" fill="#fff"/>
      <path id="Path_22" data-name="Path 22" d="M2267.257,565.026v14.36c0,4.389,1.736,6.25,4.251,6.25,2.693,0,4.358-1.861,4.358-6.25v-14.36h4.181V579c0,6.916-3.366,10.041-8.645,10.041-5.173,0-8.326-3.019-8.326-9.971V565.026Z" transform="translate(-2176.801 -556.986)" fill="#fff"/>
      <path id="Path_23" data-name="Path 23" d="M2288.2,582.16l-1.807,6.53h-4.252l6.945-23.664h5.209l6.909,23.664H2296.8l-1.878-6.53Zm5.138-22.4,3.118,4h-2.941l-1.629-2.212h-.072l-1.63,2.212h-2.834l3.012-4Zm.992,19.241-1.63-5.723c-.425-1.475-.779-3.265-1.1-4.74h-.1c-.319,1.475-.674,3.3-1.064,4.74L2288.834,579Zm6.944-22.014-4.287,3.826h-2.2l2.657-3.826Z" transform="translate(-2176.801 -556.986)" fill="#fff"/>
      <path id="Path_24" data-name="Path 24" d="M2305.8,568.607h-6.058v-3.581h16.333v3.581h-6.094V588.69H2305.8Z" transform="translate(-2176.801 -556.986)" fill="#fff"/>
      <path id="Path_25" data-name="Path 25" d="M2325.611,565.342a32.064,32.064,0,0,1,5.846-.492c2.941,0,4.961.387,6.519,1.545a5.127,5.127,0,0,1,2.233,4.389,5.46,5.46,0,0,1-3.827,5.126v.106a5.9,5.9,0,0,1,4.676,5.828,6.355,6.355,0,0,1-2.125,4.845c-1.594,1.474-4.287,2.212-8.4,2.212a38.4,38.4,0,0,1-4.925-.281Zm4.146,9.409h1.913c2.692,0,4.358-1.439,4.358-3.51,0-2.142-1.453-3.3-4.11-3.3a9.281,9.281,0,0,0-2.161.176Zm0,10.885a10.471,10.471,0,0,0,1.983.105c2.658,0,4.926-1.123,4.926-4,0-2.774-2.3-3.968-5.068-3.968h-1.841Z" transform="translate(-2176.801 -556.986)" fill="#fff"/>
      <path id="Path_26" data-name="Path 26" d="M2356.9,578.122h-8.008v7.092h8.964v3.476h-13.144V565.026h12.648V568.5h-8.468v6.214h8.008Zm-4.393-18.363,3.117,4h-2.941l-1.63-2.212h-.07l-1.63,2.212h-2.835l3.012-4Zm3.33-2.247,2.374,3.827h-2.268l-3.932-3.827Z" transform="translate(-2176.801 -556.986)" fill="#fff"/>
      <path id="Path_27" data-name="Path 27" d="M2361.466,588.69V565.026H2366l5.527,10.147a74.352,74.352,0,0,1,3.685,7.794h.071c-.248-3.124-.391-6.355-.391-10.147v-7.794h3.827V588.69H2374.5l-5.563-10.322a71.4,71.4,0,0,1-3.791-7.97l-.106.035c.177,2.949.248,6.144.248,10.357v7.9Z" transform="translate(-2176.801 -556.986)" fill="#fff"/>
      <path id="Path_28" data-name="Path 28" d="M2394.027,588.69l-7.016-23.664h4.571l2.87,10.709c.815,2.879,1.523,5.758,2.091,8.637h.07c.531-2.844,1.311-5.758,2.091-8.6l3.012-10.744h4.5l-7.441,23.664Z" transform="translate(-2176.801 -556.986)" fill="#fff"/>
      <path id="Path_29" data-name="Path 29" d="M2428.749,561.163a6.783,6.783,0,0,1,.673,2.88c0,1.861-1.063,3.124-3.3,3.3l-.5.035V579c0,6.916-3.366,10.041-8.645,10.041-5.173,0-8.326-3.019-8.326-9.971V565.026h4.181v14.36c0,4.389,1.736,6.25,4.25,6.25,2.694,0,4.359-1.861,4.359-6.25v-14.36h3.3c1.2,0,1.595-.386,1.595-1.229a4.658,4.658,0,0,0-.638-2.177Zm-15.519,2.388c-.071-2.493.921-3.932,2.481-3.932a3.859,3.859,0,0,1,2.054.667,3.571,3.571,0,0,0,1.559.632c.531,0,.815-.316.922-1.4h1.983c.071,2.668-.814,3.862-2.515,3.862a4.2,4.2,0,0,1-2.126-.632,3.1,3.1,0,0,0-1.488-.632c-.5,0-.78.491-.85,1.439Z" transform="translate(-2176.801 -556.986)" fill="#fff"/>
      <path id="Path_30" data-name="Path 30" d="M2431.548,588.69V565.026h4.535l5.527,10.147a74.3,74.3,0,0,1,3.685,7.794h.071c-.248-3.124-.391-6.355-.391-10.147v-7.794h3.827V588.69h-4.216l-5.563-10.322a71.575,71.575,0,0,1-3.791-7.97l-.106.035c.177,2.949.248,6.144.248,10.357v7.9Z" transform="translate(-2176.801 -556.986)" fill="#fff"/>
      <path id="Path_31" data-name="Path 31" d="M2470.734,587.777a21.791,21.791,0,0,1-6.767,1.159c-3.543,0-6.307-.913-8.362-2.914-2.09-1.966-3.26-5.2-3.26-8.953.037-7.935,5.28-12.289,12.224-12.289a14.142,14.142,0,0,1,5.527.983l-.885,3.406a10.749,10.749,0,0,0-4.606-.878c-4.5,0-7.866,2.774-7.866,8.637,0,5.723,3.083,8.6,7.3,8.6a7.17,7.17,0,0,0,2.692-.386V579h-3.72v-3.3h7.724Z" transform="translate(-2176.801 -556.986)" fill="#fff"/>
    </g>
  </g>
</svg>
