<svg id="Layer_1" data-name="Layer 1" xmlns="http://www.w3.org/2000/svg" viewBox="0 0 269.78 256.44"><path d="M21,220V50c.29-1.25.63-2.49.86-3.75,2-10.63,8-18,18.06-21.94C42.8,23.15,46,22.72,49,22H218c4.68,1.54,9.68,2.48,14,4.74,8.4,4.39,12,12.44,14,21.26V221c0,11.15-6.38,26.51-26,26H47C31.21,247.07,21.7,238.86,21,220Zm200.62,10.68c7.59-3.48,9.09-9.05,9.08-15.6q-.06-79.73,0-159.45c0-13.68-4.31-18.05-17.82-18.05H53.39c-12.34,0-16.8,4.49-16.81,17q0,80.46,0,160.94a25.18,25.18,0,0,0,.47,6c1,4.2,3.45,7.3,8.53,8.93V224.5c0-9.67-.18-19.34.14-29,.38-11.55,9.44-20.23,21-20.54,3-.08,5.91,0,9.36,0v-5.89c0-26.82-.07-53.65.13-80.47A10.86,10.86,0,0,1,79,81.78q15.45-16,31.44-31.44a11.61,11.61,0,0,1,7.25-3c20.66-.24,41.32-.14,62-.13,1.62,0,3.24.15,5.33.24V175h11.86c16.42,0,24.74,8.41,24.75,25C221.62,209.9,221.61,219.87,221.61,230.65Zm-48.93-56.31v-115h-51V92.74H88.31v81.6ZM57.28,231.27H209.91V200.46c0-10.75-2.9-13.71-13.53-13.71H71a43.7,43.7,0,0,0-5,.12c-4.94.57-8.43,3.58-8.61,8.27C57,207.07,57.28,219,57.28,231.27ZM109.6,80.61V68.74L97.23,80.61Z"/><path d="M104.06,114.34V103.25h52.69v11.09Z"/><path d="M156.81,125.4v11.28H104.19V125.4Z"/><path d="M104.29,147.71h52.6v11h-52.6Z"/><path d="M157.84,220.29c3.59-3.44,6.7-6.4,10.15-9.69-5.22-5-10.3-9.82-15.59-14.88,9.53-2.2,17.18-.45,22.9,8.63,5.71-8.9,13.43-10.88,22.32-8.87l-14,15L198,225.4c-9.26,2.35-16.78.52-21.93-7.6-.91.45-1.49.55-1.74.89-5,6.77-11.72,8.44-19.66,7.45-2.91-.36-5.91.4-7.8-3-.47-.85-2.64-1-4-1-5.33-.11-10.66,0-16-.05a12.67,12.67,0,0,0-7.9,2.69c-2.93,2-7.79,1.25-13.31,1.86,2.47-3.61,4.09-6,5.73-8.38q6.93-10.08,13.88-20.13c3.09-4.45,14.1-4.46,17.23,0C147.5,205.32,152.49,212.57,157.84,220.29Zm-18.6-8.4c-2-2.81-3.5-5-5.39-7.73l-5.37,7.73Z"/><path d="M111.61,195.31V205H95.92c-4.16,0-8.33-.14-12.47.08-1.11.07-2.17,1.23-3.25,1.89,1.12.81,2.21,2.27,3.36,2.31,6.14.23,12.31.1,18.46.13,1.29,0,2.59.17,4.19.28v9.39H80.5c-.21,2.38-.38,4.32-.59,6.64H69v-30.4Z"/></svg>