<svg xmlns="http://www.w3.org/2000/svg" xmlns:xlink="http://www.w3.org/1999/xlink" width="81.208" height="81.208" viewBox="0 0 81.208 81.208">
  <defs>
    <clipPath id="clip-path">
      <circle id="Ellipse_3" data-name="Ellipse 3" cx="40.604" cy="40.604" r="40.604" transform="translate(2073.286 515.227)" fill="none"/>
    </clipPath>
  </defs>
  <g id="Group_5" data-name="Group 5" transform="translate(-2073.286 -515.227)">
    <g id="Group_4" data-name="Group 4" clip-path="url(#clip-path)">
      <path id="Path_15" data-name="Path 15" d="M2071.9,588.36a14.1,14.1,0,0,0,14.126,14.079h62.56a14.1,14.1,0,0,0,14.127-14.079V526.008a14.1,14.1,0,0,0-14.127-14.079h-62.56a14.1,14.1,0,0,0-14.126,14.079Z" fill="#6eb02e"/>
      <path id="Path_16" data-name="Path 16" d="M2182.208,578.331l-50.137-50.137-3.775,3.6s-2.851,2.163-5.665,1.978c-3.437-.225-9.732-1.278-14.7,2.949s-4.348,12.735-4.348,12.735l2.382,2.383v6.509l-11.193,12.681,47.351,47.353Z" fill="#5a8e30"/>
      <rect id="Rectangle_2" data-name="Rectangle 2" width="70.779" height="70.779" rx="11.01" transform="translate(2074.18 511.907)" fill="none"/>
      <path id="Path_17" data-name="Path 17" d="M2124.378,547l-4.165.919v6.12l-4.6.646v-5.875l-4.165.918v5.541l-4.606.647v-5.3l-4.165.918V556.5l-8.549,1.2v11.773a2.234,2.234,0,0,0,2.228,2.228h28.932a2.234,2.234,0,0,0,2.228-2.228V553.015l-3.133.44Zm-12.295,16.705h-3.614v-5.082h3.614Zm6.181,0h-3.614v-5.082h3.614Zm6.181-5.082v5.082h-3.614v-5.082Zm7.6-30.468a.276.276,0,0,0-.387.045l0,.006a16.484,16.484,0,0,1-3.622,3.37,7.758,7.758,0,0,1-6.872,1.49c-.826-.149-1.681-.3-2.554-.374a15.8,15.8,0,0,0-2.637.013,17.272,17.272,0,0,0-2.593.482,14.212,14.212,0,0,0-4.793,2.232,12.576,12.576,0,0,0-3.462,3.988,15.428,15.428,0,0,0-1.534,10.045l.087.075.084-.088a16.928,16.928,0,0,1,2.379-9.43,12.12,12.12,0,0,1,3.279-3.434,13.107,13.107,0,0,1,4.357-1.9,17.375,17.375,0,0,1,4.765-.591c.81,0,1.626.069,2.467.145a10.568,10.568,0,0,0,2.653.021,12.012,12.012,0,0,0,4.7-2.213,18.068,18.068,0,0,0,1.97-1.636c.366-.339.715-.692,1.054-1.057a26.49,26.49,0,0,1-.908,2.977,25.581,25.581,0,0,1-1.7,3.761c-1.328,2.361-3.062,4.573-5.376,5.643a11.473,11.473,0,0,1-1.851.619,16.8,16.8,0,0,1-1.961.383,23.568,23.568,0,0,1-4.021.144c-1.364-.059-2.757-.2-4.239-.175a10.433,10.433,0,0,0-2.273.266c-.027.007-.054.017-.081.024a9.668,9.668,0,0,1,1.016-1.264,11.819,11.819,0,0,1,3.087-2.286,12.854,12.854,0,0,1,3.732-1.2,16.747,16.747,0,0,1,4.008-.154l.09-.067-.064-.1a15.051,15.051,0,0,0-4.109-.365,12.7,12.7,0,0,0-4.1.911,11.8,11.8,0,0,0-3.615,2.267,10.993,10.993,0,0,0-1.455,1.622,6.247,6.247,0,0,0-1.036,2.09.79.79,0,0,0,1.175.872l.049-.029a6.657,6.657,0,0,1,3.587-.811c1.32.016,2.718.192,4.153.235a20.188,20.188,0,0,0,4.36-.237,18.451,18.451,0,0,0,2.146-.493,12.841,12.841,0,0,0,2.1-.786,10.56,10.56,0,0,0,3.466-2.857,16.752,16.752,0,0,0,2.237-3.736,33.876,33.876,0,0,0,2.342-8.182A.276.276,0,0,0,2132.044,528.156Z" fill="#fffff5"/>
    </g>
  </g>
</svg>
