<svg xmlns="http://www.w3.org/2000/svg" xmlns:xlink="http://www.w3.org/1999/xlink" width="81.208" height="81.208" viewBox="0 0 81.208 81.208">
  <defs>
    <clipPath id="clip-path">
      <circle id="Ellipse_5" data-name="Ellipse 5" cx="40.604" cy="40.604" r="40.604" transform="translate(2581.972 515.227)" fill="none"/>
    </clipPath>
  </defs>
  <g id="Group_10" data-name="Group 10" transform="translate(-2581.972 -515.227)">
    <g id="Group_9" data-name="Group 9" clip-path="url(#clip-path)">
      <path id="Path_34" data-name="Path 34" d="M2580.584,588.36a14.1,14.1,0,0,0,14.126,14.079h62.56A14.1,14.1,0,0,0,2671.4,588.36V526.008a14.1,14.1,0,0,0-14.126-14.079h-62.56a14.1,14.1,0,0,0-14.126,14.079Z" fill="#6eb02e"/>
      <rect id="Rectangle_3" data-name="Rectangle 3" width="70.779" height="70.779" rx="11.01" transform="translate(2582.867 511.907)" fill="none"/>
      <path id="Path_35" data-name="Path 35" d="M2637.57,538.973s-9.74,1.688-17.276,5.718l-7.981-7.982a45.46,45.46,0,0,0-5.8,9.839c-2.555,5.9-.179,15.852-.179,15.852l3.255,3.254a53.08,53.08,0,0,0,.233,6.615l47.731,48.032,27.746-33.3Z" fill="#5a8e30"/>
      <path id="Path_36" data-name="Path 36" d="M2616.588,543.658a36.766,36.766,0,0,0-4.275-6.949s-7.878,6.344-9.163,15.116a13.987,13.987,0,0,0,3.186,10.575,21.784,21.784,0,0,1,6.067-15.3A29,29,0,0,1,2616.588,543.658Zm20.982-4.685s-14.613.555-23.677,9.619-4.069,23.677-4.069,23.677,13.318-.74,20.9-8.879S2637.57,538.973,2637.57,538.973Zm-14.355,16.6a25.738,25.738,0,0,1,3.239-.922,26.466,26.466,0,0,1,3.329-.506,16.092,16.092,0,0,1,3.45.045,16.023,16.023,0,0,1-3.119,1.474,26.307,26.307,0,0,1-3.238.924,25.764,25.764,0,0,1-3.329.508,19.162,19.162,0,0,1-2.291.052l-4.148,5.094q.684-.294,1.376-.549a29.7,29.7,0,0,1,3.739-1.064,30.3,30.3,0,0,1,3.843-.584,18.46,18.46,0,0,1,3.982.051,18.363,18.363,0,0,1-3.6,1.7,30.278,30.278,0,0,1-3.739,1.067,29.9,29.9,0,0,1-3.842.587,21.155,21.155,0,0,1-2.8.055c-1.529,1.857-3.063,3.726-4.74,5.667a16.481,16.481,0,0,1,.926-4.326,28.038,28.038,0,0,1,1.747-4.022c.091-.17.2-.331.288-.5a20.5,20.5,0,0,1-.893-2.778,20.76,20.76,0,0,1-.5-2.881,12.818,12.818,0,0,1,.022-3.01,12.751,12.751,0,0,1,1.421,2.654,20.946,20.946,0,0,1,.9,2.783c.1.408.185.821.262,1.235a34.881,34.881,0,0,1,3.366-4.378,16.47,16.47,0,0,1-1.379-4.279,10.471,10.471,0,0,1-.162-2.521,10.463,10.463,0,0,1,1.383,2.114,16.829,16.829,0,0,1,.941,2.261c.134.4.251.8.355,1.215,1.413-1.466,2.879-2.86,4.427-4.179a11.623,11.623,0,0,1-.4-1.1,10.712,10.712,0,0,1-.377-1.752.964.964,0,1,1,.965-.29,10.694,10.694,0,0,1,.653,1.669c.063.208.114.42.165.631a31.376,31.376,0,0,1,7.192-4.565c-1.842,2.235-3.562,4.452-5.34,6.626l-.4.486c.053-.02.106-.042.16-.061a20.448,20.448,0,0,1,2.557-.728,20.809,20.809,0,0,1,2.629-.4,12.626,12.626,0,0,1,2.724.035,12.68,12.68,0,0,1-2.463,1.164,20.817,20.817,0,0,1-2.557.729,20.429,20.429,0,0,1-2.628.4c-.464.034-.93.058-1.4.054l-3.689,4.506Q2622.716,555.758,2623.215,555.573Z" fill="#fffff5"/>
    </g>
  </g>
</svg>
