<svg xmlns="http://www.w3.org/2000/svg" xmlns:xlink="http://www.w3.org/1999/xlink" width="81.208" height="81.208" viewBox="0 0 81.208 81.208">
  <defs>
    <clipPath id="clip-path">
      <circle id="Ellipse_7" data-name="Ellipse 7" cx="40.604" cy="40.604" r="40.604" transform="translate(3152.511 515.227)" fill="none"/>
    </clipPath>
  </defs>
  <g id="Group_15" data-name="Group 15" transform="translate(-3152.511 -515.227)">
    <g id="Group_14" data-name="Group 14" clip-path="url(#clip-path)">
      <path id="Path_57" data-name="Path 57" d="M3151.122,588.36a14.1,14.1,0,0,0,14.127,14.079h62.56a14.1,14.1,0,0,0,14.126-14.079V526.008a14.1,14.1,0,0,0-14.126-14.079h-62.56a14.1,14.1,0,0,0-14.127,14.079Z" fill="#6eb02e"/>
      <rect id="Rectangle_4" data-name="Rectangle 4" width="70.779" height="70.779" rx="11.01" transform="translate(3153.406 511.907)" fill="none"/>
      <path id="Path_58" data-name="Path 58" d="M3261.15,592.107l-45.685-45.685-7.838-1.4-7.49,1.945-1.981-1.981-8.139.328-5.307,3.556-2.878-2.878-13.025-.095-1.722,14.839,62.712,62.715Z" fill="#5a8e30"/>
      <path id="Path_59" data-name="Path 59" d="M3217.522,549.512c-2.731-7.043-13.688-8.22-18.6-2.873-.154-3.053-5.262-3.353-7.422-3.216a10.236,10.236,0,0,0-8.1,4.648c-2.179-4.182-7.425-5.427-11.732-4.22a10.046,10.046,0,0,0-7.364,10.059,9.57,9.57,0,0,0,7.877,9.516,16.677,16.677,0,0,0,7.049-.185c1.7-.418,5.136-1.926,4-4.292a9.933,9.933,0,0,0,7.705,4.682c2.317.232,7.393-.028,8.191-2.895,3.45,3.45,9.723,3.839,13.949,1.7,4.669-2.365,6.294-8.17,4.455-12.922C3217.039,548.267,3218,550.758,3217.522,549.512Zm-46.725.392a4.4,4.4,0,0,1,5.051-2.854c2.28.437,3.349,2.574,3.471,4.722h-8.9a6.507,6.507,0,0,1,.381-1.868C3171.013,549.324,3170.583,550.484,3170.8,549.9Zm12.22,8.706c-.818-1.04-2.341-.1-3.307.2a12.991,12.991,0,0,1-4.459.7c-2.953-.119-4.7-2.039-4.815-4.962h10.928c.465,0,.51-.134.563.379a9.879,9.879,0,0,0,1.2,3.85c-.036-.057-.074-.112-.11-.169C3182.755,558.278,3183.059,558.664,3183.017,558.61Zm14.249-.264c-2.185,0-4.24,1.262-6.388.2a5.386,5.386,0,0,1-2.69-5.048c0-2.093.85-4.3,2.934-5.116a5.619,5.619,0,0,1,3.2-.179,7.539,7.539,0,0,0,3.247.359,11.23,11.23,0,0,0-.137,9.8l-.163-.013Zm14.171-2.142c-.631,2.722-3.387,5.013-6.183,3.287-2.613-1.608-2.641-5.74-2.113-8.384.555-2.775,3.351-5.2,6.193-3.434,2.627,1.64,2.722,5.854,2.1,8.531C3211.254,556.994,3211.62,555.415,3211.437,556.2Z" fill="#fffff5"/>
    </g>
  </g>
</svg>
