<svg xmlns="http://www.w3.org/2000/svg" width="240.296" height="140.755" viewBox="0 0 240.296 140.755">
  <g id="Group_5" data-name="Group 5" transform="translate(-28.386 -24.561)">
    <g id="Group_1" data-name="Group 1">
      <path id="Path_1" data-name="Path 1" d="M120.442,157.1a17.5,17.5,0,0,1-12.834,5.371V86.461a41.487,41.487,0,0,1,12.944-30.712,44,44,0,0,1,61.9-.005,41.379,41.379,0,0,1,13,30.7,41.139,41.139,0,0,1-12.941,30.59,42.912,42.912,0,0,1-31.036,12.613H125.806v14.591A17.565,17.565,0,0,1,120.442,157.1Zm31.034-44.672a24.325,24.325,0,0,0,18.146-7.638,25.406,25.406,0,0,0,7.419-18.356,25.782,25.782,0,0,0-7.419-18.47,25.123,25.123,0,0,0-36.29,0,25.78,25.78,0,0,0-7.417,18.47v25.994Z" fill="#f26311"/>
      <path id="Path_2" data-name="Path 2" d="M255.626,116.926a43.959,43.959,0,0,1-61.857,0,41.481,41.481,0,0,1-12.934-30.7,41.119,41.119,0,0,1,12.934-30.59,42.649,42.649,0,0,1,30.889-12.617h43.965V86.226A41.4,41.4,0,0,1,255.626,116.926Zm-31-56.7a24.348,24.348,0,0,0-18.162,7.636,25.409,25.409,0,0,0-7.421,18.364,25.774,25.774,0,0,0,7.421,18.472,25.181,25.181,0,0,0,36.328,0,25.769,25.769,0,0,0,7.433-18.472v-26Z" fill="#ff9d00"/>
    </g>
    <g id="Group_3" data-name="Group 3">
      <g id="Group_2" data-name="Group 2">
        <path id="Path_3" data-name="Path 3" d="M103.4,29.932a17.494,17.494,0,0,1,12.833-5.371v64.89a41.516,41.516,0,0,1-12.942,30.714,42.578,42.578,0,0,1-30.925,12.727,42.768,42.768,0,0,1-30.984-12.725,41.4,41.4,0,0,1-13-30.7A41.136,41.136,0,0,1,41.329,58.877,42.9,42.9,0,0,1,72.366,46.26h25.67V42.792A17.566,17.566,0,0,1,103.4,29.932ZM72.366,63.482A24.327,24.327,0,0,0,54.221,71.12,25.409,25.409,0,0,0,46.8,89.481a25.754,25.754,0,0,0,7.419,18.463,24.163,24.163,0,0,0,18.145,7.751,24.155,24.155,0,0,0,18.141-7.751,25.744,25.744,0,0,0,7.421-18.463v-26Z" fill="#f26311"/>
      </g>
    </g>
    <g id="Group_4" data-name="Group 4">
      <path id="Path_4" data-name="Path 4" d="M135.43,136.7a20.709,20.709,0,0,1,3.643-.293,7.629,7.629,0,0,1,5.11,1.465c1.336,1.1,2.124,2.838,2.124,5.383,0,3.021-1.044,4.779-2.124,5.75a8.377,8.377,0,0,1-5.7,1.72,24.21,24.21,0,0,1-3.057-.182Zm2.692,11.81a6.071,6.071,0,0,0,1.043.055c2.582.019,4.3-1.575,4.3-5.273,0-3.187-1.556-4.761-4.065-4.761a6.886,6.886,0,0,0-1.281.11Z" fill="#464648"/>
      <path id="Path_5" data-name="Path 5" d="M159.363,144.76c0,4.12-1.96,6.042-5.145,6.042-3.168,0-4.962-1.886-4.962-6.024V136.5h2.71v8.515c0,2.471.933,3.552,2.325,3.552,1.465,0,2.362-1.044,2.362-3.552V136.5h2.71Z" fill="#464648"/>
      <path id="Path_6" data-name="Path 6" d="M174.122,143.386c0,4.908-2.49,7.416-5.987,7.416-3.717,0-5.823-3.113-5.823-7.2,0-4.212,2.326-7.306,6.006-7.306C172.218,136.3,174.122,139.633,174.122,143.386Zm-8.972.165c0,2.764,1.08,5.036,3.077,5.036,2.014,0,3.057-2.253,3.057-5.091,0-2.582-.971-4.98-3.039-4.98C166.121,138.516,165.15,140.97,165.15,143.551Z" fill="#464648"/>
      <path id="Path_7" data-name="Path 7" d="M187.38,150.6h-2.71l-3.021-5.823a47.907,47.907,0,0,1-2.161-4.724h-.073c.109,1.739.165,3.716.165,6.225V150.6h-2.454V136.519h2.93l2.966,5.713a45.382,45.382,0,0,1,2.106,4.6h.037c-.165-1.795-.238-3.791-.238-6.08v-4.23h2.453Z" fill="#464648"/>
      <path id="Path_8" data-name="Path 8" d="M201.26,150.052a12.512,12.512,0,0,1-4.01.695,6.709,6.709,0,0,1-4.962-1.721,7.451,7.451,0,0,1-1.9-5.347c0-4.76,3.168-7.306,7.214-7.306a8.105,8.105,0,0,1,3.3.586l-.568,2.234a6.184,6.184,0,0,0-2.691-.512c-2.509,0-4.413,1.538-4.413,4.943,0,3.26,1.739,4.907,4.064,4.907a3.763,3.763,0,0,0,1.393-.2v-3.442h-2.034v-2.143h4.615Z" fill="#464648"/>
      <path id="Path_9" data-name="Path 9" d="M204.61,136.7a20.038,20.038,0,0,1,3.645-.293,6.032,6.032,0,0,1,4.01,1.116,4.086,4.086,0,0,1,1.354,3.151c0,3.863-3.223,4.723-5.328,4.723a5.186,5.186,0,0,1-.989-.073V150.6H204.61Zm2.692,6.5a4.571,4.571,0,0,0,.953.073,2.377,2.377,0,0,0,2.673-2.471,2.166,2.166,0,0,0-2.454-2.289,5.258,5.258,0,0,0-1.172.11Z" fill="#464648"/>
      <path id="Path_10" data-name="Path 10" d="M226.749,150.6h-2.71V144.54h-4.8V150.6h-2.71V136.519h2.71v5.623h4.8v-5.623h2.71Z" fill="#464648"/>
      <path id="Path_11" data-name="Path 11" d="M241.544,143.386c0,4.908-2.49,7.416-5.987,7.416-3.717,0-5.823-3.113-5.823-7.2,0-4.212,2.326-7.306,6.006-7.306C239.64,136.3,241.544,139.633,241.544,143.386Zm-8.972.165c0,2.764,1.08,5.036,3.076,5.036,2.015,0,3.058-2.253,3.058-5.091,0-2.582-.971-4.98-3.039-4.98C233.543,138.516,232.572,140.97,232.572,143.551Z" fill="#464648"/>
      <path id="Path_12" data-name="Path 12" d="M254.8,150.6h-2.71l-3.021-5.823a47.911,47.911,0,0,1-2.161-4.724h-.073c.109,1.739.165,3.716.165,6.225V150.6h-2.454V136.519h2.929l2.967,5.713a45.382,45.382,0,0,1,2.106,4.6h.037c-.165-1.795-.238-3.791-.238-6.08v-4.23H254.8Z" fill="#464648"/>
      <path id="Path_13" data-name="Path 13" d="M268.682,150.052a12.512,12.512,0,0,1-4.01.695,6.709,6.709,0,0,1-4.962-1.721,7.452,7.452,0,0,1-1.9-5.347c0-4.76,3.168-7.306,7.213-7.306a8.1,8.1,0,0,1,3.3.586l-.567,2.234a6.184,6.184,0,0,0-2.691-.512c-2.509,0-4.413,1.538-4.413,4.943,0,3.26,1.739,4.907,4.064,4.907a3.763,3.763,0,0,0,1.393-.2v-3.442h-2.034v-2.143h4.615Z" fill="#464648"/>
      <path id="Path_14" data-name="Path 14" d="M140.012,160.365a10.35,10.35,0,0,0,.108,1.764h-1.031l-.109-.949h-.04a2.57,2.57,0,0,1-2.184,1.112,2.049,2.049,0,0,1-2.156-2.1c0-1.777,1.545-2.74,4.286-2.726,0-.624,0-2.035-1.682-2.035a3.2,3.2,0,0,0-1.8.529l-.271-.773a4.206,4.206,0,0,1,2.252-.624c2.089,0,2.632,1.478,2.632,2.943ZM138.9,158.29c-1.4,0-3.147.2-3.147,1.764a1.231,1.231,0,0,0,1.275,1.37,1.808,1.808,0,0,0,1.872-1.737Z" fill="#464648"/>
      <path id="Path_15" data-name="Path 15" d="M154.946,160.3c0,.6.028,1.329.054,1.831h-1l-.055-1.262H153.9a2.613,2.613,0,0,1-2.414,1.425c-1.709,0-3.039-1.479-3.039-3.758,0-2.5,1.465-3.961,3.189-3.961a2.372,2.372,0,0,1,2.156,1.14h.027v-4.437h1.126Zm-1.126-2.605a2.045,2.045,0,0,0-1.994-2.211c-1.4,0-2.224,1.3-2.224,3,0,1.561.732,2.89,2.183,2.89a2.126,2.126,0,0,0,2.035-2.252Z" fill="#464648"/>
      <path id="Path_16" data-name="Path 16" d="M169.648,154.736l-2.807,7.393h-1.059l-2.726-7.406h1.208l1.478,4.3c.231.665.434,1.289.6,1.9h.041c.162-.611.379-1.235.61-1.9l1.465-4.286Z" fill="#464648"/>
      <path id="Path_17" data-name="Path 17" d="M182.955,161.817a5.372,5.372,0,0,1-2.319.461c-2.158,0-3.447-1.519-3.447-3.73,0-2.32,1.3-3.988,3.3-3.988,2.279,0,2.863,2.088,2.863,3.377,0,.258-.014.448-.028.624h-5.033c.014,2.048,1.181,2.822,2.51,2.822a4.672,4.672,0,0,0,1.94-.38Zm-.719-4.1c.013-1-.407-2.307-1.858-2.307-1.357,0-1.954,1.289-2.063,2.307Z" fill="#464648"/>
      <path id="Path_18" data-name="Path 18" d="M195.2,155.686a3.29,3.29,0,0,0-.407-.028c-1.221,0-1.845,1.207-1.845,2.455v4.016h-1.126v-5.182c0-.787-.014-1.506-.055-2.211h.991l.054,1.424h.041a2.214,2.214,0,0,1,2.008-1.587,3.014,3.014,0,0,1,.339.041Z" fill="#464648"/>
      <path id="Path_19" data-name="Path 19" d="M203.612,153.393l1.113-.38v1.723h1.912v.882h-1.912v4.273c0,.936.284,1.451,1,1.451a2.164,2.164,0,0,0,.759-.109l.069.869a2.857,2.857,0,0,1-1.1.176c-1.791,0-1.845-1.628-1.845-2.415v-4.245h-1.139v-.882h1.139Z" fill="#464648"/>
      <path id="Path_20" data-name="Path 20" d="M215.468,153.434a.732.732,0,0,1-.734-.774.74.74,0,0,1,.746-.76.768.768,0,0,1-.012,1.534Zm.569,8.695h-1.126v-7.393h1.126Z" fill="#464648"/>
      <path id="Path_21" data-name="Path 21" d="M228.53,155.862a2.648,2.648,0,0,0-1.437-.434,1.113,1.113,0,0,0-1.248,1.1c0,.638.42.937,1.37,1.343,1.193.488,1.886,1.112,1.886,2.225,0,1.316-1,2.184-2.619,2.184a3.921,3.921,0,0,1-1.94-.5l.312-.868a3.51,3.51,0,0,0,1.668.5c.991,0,1.479-.529,1.479-1.194,0-.692-.393-1.072-1.37-1.465-1.247-.5-1.885-1.193-1.885-2.089a2.184,2.184,0,0,1,2.414-2.1,3.274,3.274,0,0,1,1.7.447Z" fill="#464648"/>
      <path id="Path_22" data-name="Path 22" d="M238.174,153.434a.732.732,0,0,1-.734-.774.74.74,0,0,1,.746-.76.768.768,0,0,1-.012,1.534Zm.569,8.695h-1.126v-7.393h1.126Z" fill="#464648"/>
      <path id="Path_23" data-name="Path 23" d="M253.691,162.129h-1.126v-4.368c0-1.207-.433-2.266-1.722-2.266a2.015,2.015,0,0,0-1.94,2.1v4.53h-1.126v-5.494c0-.76-.027-1.316-.054-1.912h1l.068,1.207h.027a2.638,2.638,0,0,1,2.373-1.37c.923,0,2.5.556,2.5,3.065Z" fill="#464648"/>
      <path id="Path_24" data-name="Path 24" d="M268.681,154.723c-.041.528-.069,1.126-.069,2.034v4.314c0,1.288-.027,4.245-3.526,4.245a4.42,4.42,0,0,1-2.32-.583l.3-.881a4.068,4.068,0,0,0,2.076.556c1.356,0,2.346-.72,2.346-2.673v-.882h-.027a2.525,2.525,0,0,1-2.292,1.262c-1.764,0-3.025-1.559-3.025-3.636,0-2.563,1.6-3.919,3.2-3.919a2.378,2.378,0,0,1,2.238,1.275h.027l.055-1.112Zm-1.208,2.848a1.993,1.993,0,0,0-1.967-2.1c-1.3,0-2.211,1.152-2.211,2.943,0,1.573.76,2.808,2.2,2.808a2.025,2.025,0,0,0,1.981-2.17Z" fill="#464648"/>
    </g>
    <path id="Path_25" data-name="Path 25" d="M224.335,66.837a18.368,18.368,0,0,0-13.688,5.753,19.158,19.158,0,0,0-5.586,13.834,19.435,19.435,0,0,0,5.586,13.911,18.973,18.973,0,0,0,27.371,0,19.4,19.4,0,0,0,5.6-13.911V66.837Z" fill="#ff9d00"/>
  </g>
</svg>
