<svg xmlns="http://www.w3.org/2000/svg" width="38.772" height="16.764" viewBox="0 0 38.772 16.764">
  <defs>
    <style>
      .cls-1 {
        fill: #fff;
      }
    </style>
  </defs>
  <g id="Group_169" data-name="Group 169" transform="translate(-347.843 -1446.12)">
    <path id="Path_371" data-name="Path 371" class="cls-1" d="M348.439,1458.643l-.6.07V1446.12h36.078l.005,12.357-.6-.072,0-11.689H348.439Zm18.691-.748a8.192,8.192,0,0,0-1.871,0l-.908-.343h-.482l-.851-.206-.851.618h-.085v-.31c.181-.039.321-.308.321-.635,0-.354-.164-.64-.366-.64s-.366.286-.366.64c0,.327.14.6.321.635v.31h-1.286v-.309c.254-.04.453-.413.453-.867,0-.482-.223-.872-.5-.872s-.5.39-.5.872c0,.454.2.827.453.867v.309h-.292l-1.475-.893-1.475.928-.372.044h0a.611.611,0,0,1-.276.448,1.542,1.542,0,0,1-.939.3l-.112,0a2.169,2.169,0,0,1-1.241-.436l-.6.072a1.454,1.454,0,0,1-.209.2,1.657,1.657,0,0,1-1.043.386,1.729,1.729,0,0,1-.445-.06.954.954,0,0,1-.457-.274l-.1.012v.008a.154.154,0,0,1-.092.108v.015a.368.368,0,0,1-.146.3.841.841,0,0,1-.4.175.957.957,0,0,1-.194.019,1.313,1.313,0,0,1-.931-.412l-1.97.234v.687h14.012s4.169-1.924,5.275-1.924m6.155-.283,10.636,1.28v.927H362.649c4.16-2.2,5.086-1.9,5.086-1.9l.53-.432h.879l.568.461.458-.085.318.4.1.008v-.252h-.141v-.337h2.373v.337h-.142v.431l.039,0Zm-2.546.672.313.026v-.292h-.313v.266Zm.466.039.191.017.012-.056h.456l.02.1.221.019v-.382h-.293v-.26h-.348v.26H371.2v.305Zm1.053.09.266.023v-.418h-.266v.4Zm.767-.857a2.409,2.409,0,0,1-.843-1.819h-1.2a2.49,2.49,0,0,1-.787,1.86h2.875c-.005,0-.022-.018-.047-.041m-1.188.608h-.4l-.025.08h.449Zm0-.039-.021-.107h-.348l-.023.107Zm-16.971-4.568.041-.036v-1.891h-2.1v.668h1.372v.9a2.132,2.132,0,0,1-.5.256,1.976,1.976,0,0,1-.686.12,1.8,1.8,0,0,1-.7-.128,1.505,1.505,0,0,1-.52-.35,1.553,1.553,0,0,1-.332-.532,1.914,1.914,0,0,1-.118-.679,1.747,1.747,0,0,1,.121-.647,1.693,1.693,0,0,1,.33-.529,1.571,1.571,0,0,1,.5-.356,1.541,1.541,0,0,1,.641-.132,2.255,2.255,0,0,1,.412.035,1.781,1.781,0,0,1,.626.24,2.2,2.2,0,0,1,.256.19l.088.077.488-.551-.1-.078a3.409,3.409,0,0,0-.358-.253,2.191,2.191,0,0,0-.4-.192,2.477,2.477,0,0,0-.46-.117,3.421,3.421,0,0,0-.537-.039,2.39,2.39,0,0,0-.971.193,2.32,2.32,0,0,0-.75.517,2.349,2.349,0,0,0-.484.754,2.386,2.386,0,0,0-.173.9,2.543,2.543,0,0,0,.165.914,2.191,2.191,0,0,0,.484.751,2.286,2.286,0,0,0,.76.5,2.642,2.642,0,0,0,1,.181,2.763,2.763,0,0,0,1.079-.2,3.046,3.046,0,0,0,.808-.484m3.547.687a2.507,2.507,0,0,1-.983-.188,2.368,2.368,0,0,1-.762-.511,2.273,2.273,0,0,1-.492-.749,2.372,2.372,0,0,1-.173-.9,2.345,2.345,0,0,1,.176-.9,2.327,2.327,0,0,1,1.261-1.268,2.639,2.639,0,0,1,1.969,0,2.362,2.362,0,0,1,.763.511,2.273,2.273,0,0,1,.492.749,2.372,2.372,0,0,1,.173.9,2.346,2.346,0,0,1-.177.9h0a2.321,2.321,0,0,1-1.26,1.268,2.5,2.5,0,0,1-.987.191m-1.177-1.177a1.675,1.675,0,0,0,.526.358,1.645,1.645,0,0,0,.664.132,1.7,1.7,0,0,0,.665-.129,1.552,1.552,0,0,0,.518-.354,1.647,1.647,0,0,0,.34-.527,1.722,1.722,0,0,0,.123-.651,1.745,1.745,0,0,0-.123-.654,1.6,1.6,0,0,0-.345-.529,1.684,1.684,0,0,0-.526-.358,1.648,1.648,0,0,0-.665-.132,1.689,1.689,0,0,0-.664.129,1.556,1.556,0,0,0-.519.354,1.661,1.661,0,0,0-.339.527,1.714,1.714,0,0,0-.124.651,1.737,1.737,0,0,0,.124.654,1.579,1.579,0,0,0,.345.529m8.317-2.809a2.136,2.136,0,0,1,.521.726,2.219,2.219,0,0,1,.184.9,2.244,2.244,0,0,1-.184.9h0a2.128,2.128,0,0,1-.521.729,2.475,2.475,0,0,1-.8.48,2.849,2.849,0,0,1-1.011.174h-1.683v-4.56h1.683a2.885,2.885,0,0,1,1.01.171,2.433,2.433,0,0,1,.8.477m-.059,1.638a1.628,1.628,0,0,0-.123-.628,1.51,1.51,0,0,0-.346-.507,1.645,1.645,0,0,0-.55-.339,2.04,2.04,0,0,0-.73-.125H362.8v3.186h.938a2.086,2.086,0,0,0,.731-.122,1.6,1.6,0,0,0,.549-.336,1.529,1.529,0,0,0,.346-.5,1.572,1.572,0,0,0,.123-.627m5.484-1.6v-.681h-3.495v4.56h3.527v-.681h-2.782v-1.277h2.46v-.681h-2.46v-1.24Zm3.062,2.2h-1.111v1.68h-.745v-4.56h2.056a2.4,2.4,0,0,1,.708.1,1.67,1.67,0,0,1,.551.283,1.282,1.282,0,0,1,.488,1.029,1.362,1.362,0,0,1-.1.531,1.233,1.233,0,0,1-.282.41,1.557,1.557,0,0,1-.421.284,1.9,1.9,0,0,1-.329.118l1.417,1.807h-.925Zm-1.111-.669h1.269a1.553,1.553,0,0,0,.432-.057,1.059,1.059,0,0,0,.331-.158.706.706,0,0,0,.207-.242.694.694,0,0,0,.074-.324.629.629,0,0,0-.256-.54,1.291,1.291,0,0,0-.781-.2h-1.276Zm7.79-1.53v-.681h-3.494v4.56h3.527v-.681h-2.782v-1.277h2.46v-.681h-2.46v-1.24Zm-25.927,8.015a2.03,2.03,0,0,0,.9.246c.034,0,.067,0,.1,0a1.3,1.3,0,0,0,.8-.249.425.425,0,0,0,.177-.235.365.365,0,0,0-.135-.342,1.021,1.021,0,0,0-.674-.3c-.063,0-.127-.005-.19-.005-.221,0-.443.017-.664.018h-.026a1.237,1.237,0,0,1-1.087-.448.946.946,0,0,0,.152.7,1.875,1.875,0,0,0,.649.617m2.155-.584a.984.984,0,0,0-.112-.658,1.96,1.96,0,0,0-1.656-.944,1.458,1.458,0,0,0-.3.03,1.219,1.219,0,0,0-.566.254.335.335,0,0,0,.015.577,1.139,1.139,0,0,0,.345.158,1.446,1.446,0,0,0,.417.053c.162,0,.326-.017.489-.029.062,0,.122-.007.182-.007a1.382,1.382,0,0,1,1.19.566m-5.013.924a.78.78,0,0,0,.252.118,1.531,1.531,0,0,0,.395.054,1.46,1.46,0,0,0,.923-.345l.019-.016a1.009,1.009,0,0,0,.369-.58.42.42,0,0,0,.006-.148.214.214,0,0,0-.059-.119.243.243,0,0,0-.1-.059.983.983,0,0,0-.175-.018.8.8,0,0,0-.435.129c-.016.011-.032.022-.047.034-.106.084-.2.178-.3.273a1.929,1.929,0,0,1-.407.345.873.873,0,0,1-.394.142l-.03.005a.54.54,0,0,1-.068,0,.5.5,0,0,1-.136-.019.653.653,0,0,0,.186.2m0-.377.024,0a.9.9,0,0,0,.253-.08.609.609,0,0,0,.066-.035,1.748,1.748,0,0,0,.374-.318l.088-.092a1.571,1.571,0,0,1,.29-.238.994.994,0,0,1,.543-.162,1.143,1.143,0,0,1,.2.019l.029,0,.006,0a.522.522,0,0,0-.045-.065.749.749,0,0,0-.352-.254,1.214,1.214,0,0,0-.419-.071,1.493,1.493,0,0,0-1.159.542.929.929,0,0,0-.194.431.257.257,0,0,0,.152.306.3.3,0,0,0,.1.018l.046,0m-.505.379a.542.542,0,0,0-.085-.384,1.072,1.072,0,0,0-.88-.5l-.067,0a.745.745,0,0,0-.449.138.193.193,0,0,0-.1.227l.013.014a.636.636,0,0,0,.565.267c.027,0,.054,0,.082,0l.066,0c.068-.005.139-.01.211-.01a1,1,0,0,1,.3.039.811.811,0,0,1,.242.116.407.407,0,0,1,.1.1m-.137.075a.267.267,0,0,0-.056-.055.667.667,0,0,0-.2-.093.865.865,0,0,0-.251-.033c-.089,0-.178.009-.267.014-.031,0-.061,0-.092,0a.8.8,0,0,1-.69-.331l0,.015a.569.569,0,0,0,.063.362.925.925,0,0,0,.217.269,1.16,1.16,0,0,0,.734.28.884.884,0,0,0,.164-.015.7.7,0,0,0,.326-.142.2.2,0,0,0,.081-.221.184.184,0,0,0-.031-.054m-2.418,4.161a.855.855,0,0,0,.686-.3l-.234-.237a.6.6,0,0,1-.44.2.5.5,0,0,1-.486-.526v-.005a.5.5,0,0,1,.486-.521.619.619,0,0,1,.428.189l.234-.27a.864.864,0,0,0-.66-.258.85.85,0,0,0-.873.865v.005A.845.845,0,0,0,348.866,1462.884Zm2.615,0a.866.866,0,0,0,.892-.866v-.005a.89.89,0,0,0-1.779.005v.005A.858.858,0,0,0,351.481,1462.884Zm.005-.34a.508.508,0,0,1-.507-.526v-.005a.5.5,0,0,1,.5-.521.508.508,0,0,1,.507.526v.005A.5.5,0,0,1,351.486,1462.544Zm2.037.311h.368v-.648h.8v-.335h-.8v-.356h.906v-.335h-1.274Zm2.39,0h.368v-.648h.8v-.335h-.8v-.356h.907v-.335h-1.275Zm2.391,0h1.274v-.328h-.908v-.351h.789v-.328h-.789v-.339h.9v-.328H358.3Zm2.422,0H362v-.328h-.909v-.351h.79v-.328h-.79v-.339h.9v-.328h-1.262Zm3.963,0h.369v-.536h.289l.359.536h.43l-.409-.6a.519.519,0,0,0,.359-.519v0a.527.527,0,0,0-.144-.383.667.667,0,0,0-.488-.17h-.765Zm.369-.861v-.48h.365c.18,0,.29.081.29.239v.005c0,.141-.1.236-.283.236Zm2.995.89a.866.866,0,0,0,.892-.866v-.005a.89.89,0,0,0-1.779.005v.005A.858.858,0,0,0,368.053,1462.884Zm.005-.34a.509.509,0,0,1-.507-.526v-.005a.5.5,0,0,1,.5-.521.508.508,0,0,1,.507.526v.005A.5.5,0,0,1,368.058,1462.544Zm1.893.311h.375l.154-.375h.707l.153.375h.385l-.717-1.686h-.34Zm.66-.7.222-.542.223.542Zm2.788.725c.361,0,.614-.187.614-.519v-.005c0-.291-.191-.413-.531-.5-.289-.074-.361-.11-.361-.22v0c0-.082.075-.146.215-.146a.787.787,0,0,1,.436.165l.191-.278a.972.972,0,0,0-.622-.213.523.523,0,0,0-.585.505v.005c0,.332.217.425.554.511.28.072.337.12.337.213v.005c0,.1-.09.158-.241.158a.765.765,0,0,1-.5-.2l-.217.261A1.066,1.066,0,0,0,373.4,1462.879Zm2.144-.024h.368v-1.334h.509v-.34h-1.386v.34h.509Zm1.982,0H378.8v-.328h-.908v-.351h.788v-.328h-.788v-.339h.9v-.328h-1.262Zm2.421,0h.369v-.536h.289l.359.536h.43l-.409-.6a.519.519,0,0,0,.359-.519v0a.527.527,0,0,0-.144-.383.666.666,0,0,0-.487-.17h-.766Zm.369-.861v-.48h.365c.18,0,.29.081.29.239v.005c0,.141-.1.236-.282.236Zm2.673.885c.361,0,.614-.187.614-.519v-.005c0-.291-.191-.413-.531-.5-.289-.074-.361-.11-.361-.22v0c0-.082.074-.146.215-.146a.789.789,0,0,1,.436.165l.191-.278a.972.972,0,0,0-.622-.213.524.524,0,0,0-.586.505v.005c0,.332.218.425.555.511.28.072.337.12.337.213v.005c0,.1-.091.158-.241.158a.767.767,0,0,1-.5-.2l-.218.261A1.068,1.068,0,0,0,382.988,1462.879Zm2.616-16.715a1.011,1.011,0,1,1-1.011,1.011,1.012,1.012,0,0,1,1.011-1.011m0,1.744a.733.733,0,1,0-.733-.733.734.734,0,0,0,.733.733m.368-.865a.316.316,0,0,1-.146.28l.23.314h-.243l-.188-.258h-.173v.257h-.2v-.924h.342a.328.328,0,0,1,.374.33m-.374.141c.178,0,.178-.106.178-.141s0-.135-.178-.135h-.146v.276h.146"/>
  </g>
</svg>
