<svg xmlns="http://www.w3.org/2000/svg" width="54.637" height="35.052" viewBox="0 0 54.637 35.052">
  <g id="Group_22" data-name="Group 22" transform="translate(-260.299 -26.273)">
    <g id="Group_19" data-name="Group 19">
      <path id="Path_4" data-name="Path 4" d="M280.891,55.919a3.912,3.912,0,0,1-2.871,1.2v-17a9.278,9.278,0,0,1,2.9-6.87,9.84,9.84,0,0,1,13.846,0,9.548,9.548,0,0,1,.013,13.71,9.6,9.6,0,0,1-6.942,2.821h-5.742v3.264A3.927,3.927,0,0,1,280.891,55.919Zm6.942-9.992a5.44,5.44,0,0,0,4.059-1.709,5.681,5.681,0,0,0,1.659-4.106,5.766,5.766,0,0,0-1.659-4.131,5.62,5.62,0,0,0-8.118,0,5.766,5.766,0,0,0-1.659,4.131v5.815Z" fill="#f26311"/>
      <path id="Path_5" data-name="Path 5" d="M311.13,46.933a9.832,9.832,0,0,1-13.837,0,9.567,9.567,0,0,1,0-13.709A9.541,9.541,0,0,1,304.2,30.4h9.834v9.665A9.261,9.261,0,0,1,311.13,46.933ZM304.2,34.25a5.446,5.446,0,0,0-4.062,1.709,5.681,5.681,0,0,0-1.66,4.107,5.765,5.765,0,0,0,1.66,4.132,5.632,5.632,0,0,0,8.126,0,5.764,5.764,0,0,0,1.663-4.132V34.25Z" fill="#ff9d00"/>
    </g>
    <g id="Group_21" data-name="Group 21">
      <g id="Group_20" data-name="Group 20">
        <path id="Path_6" data-name="Path 6" d="M277.079,27.474a3.911,3.911,0,0,1,2.871-1.2V40.788a9.29,9.29,0,0,1-2.9,6.87,9.844,9.844,0,0,1-13.849,0,9.547,9.547,0,0,1-.011-13.709,9.591,9.591,0,0,1,6.942-2.823h5.742v-.775A3.931,3.931,0,0,1,277.079,27.474Zm-6.942,7.5a5.443,5.443,0,0,0-4.059,1.708,5.687,5.687,0,0,0-1.659,4.108,5.76,5.76,0,0,0,1.659,4.129,5.617,5.617,0,0,0,8.117,0,5.757,5.757,0,0,0,1.66-4.129V34.979Z" fill="#f26311"/>
      </g>
    </g>
    <text id="DUONGPHONG_advertising" data-name="DUONGPHONG
advertising" transform="translate(283.936 50.325)" fill="#1d1d1d" font-size="4.096" font-family="SegoeUI, Segoe UI"><tspan x="0" y="4">DUONGPHONG</tspan><tspan font-size="3.034"><tspan x="0" y="6.579">advertising</tspan></tspan></text>
    <path id="Path_7" data-name="Path 7" d="M304.13,35.729a4.107,4.107,0,0,0-3.061,1.287,4.283,4.283,0,0,0-1.25,3.1,4.343,4.343,0,0,0,1.25,3.111,4.242,4.242,0,0,0,6.122,0,4.338,4.338,0,0,0,1.253-3.111V35.729Z" fill="#ff9d00"/>
  </g>
</svg>
