<svg xmlns="http://www.w3.org/2000/svg" width="25.633" height="11.523" viewBox="0 0 25.633 11.523">
  <defs>
    <style>
      .cls-1 {
        fill: #e60019;
      }

      .cls-2 {
        fill: #fff;
      }
    </style>
  </defs>
  <g id="Group_125" data-name="Group 125" transform="translate(-244.129 -1415.088)">
    <path id="Path_22" data-name="Path 22" class="cls-1" d="M250.861,1415.286l1.072.433,1.352.99.474.386,1-.661,1.091-.715,1.762-.235,1.7.235,1.124.472h.639l.506-.508.6-.2s.794.2.794.4.362.113.578.553.216.638.811.638a6.146,6.146,0,0,1,1.26.117,22.965,22.965,0,0,0,2.395,0l.735.036s.389.236.381.438.19.8.19,1.2a13.68,13.68,0,0,1-.6,1.587c0,.2,0,1.083,0,1.335s0,1.046,0,1.245.094,1.414-.449,1.4-.344.186-1.336.186-3.572-.4-3.572-.4-.794,0-.992.2l-.6.6a8.765,8.765,0,0,1-1.389.794c-.4.2-.6.4-.993.4s-1.317.2-1.65,0a7.165,7.165,0,0,0-1.826-.229s-1.323-.448-1.3-.7-.569-.652-.569-.652l-1,.793s-1.224.97-1.7.882a12.141,12.141,0,0,0-2.067.11,7.851,7.851,0,0,1-1.608-.428,8.689,8.689,0,0,0-1.567-1.16,5.639,5.639,0,0,1-1.191-1.785c0-.2-.6-1.985-.6-1.985l.992-2.778.8-1.553,1.974-1.026,1.622-.4Z"/>
    <g id="Group_124" data-name="Group 124">
      <path id="Path_23" data-name="Path 23" class="cls-2" d="M253.987,1424.942a5.781,5.781,0,1,1-.02-8.186,5.868,5.868,0,0,1,6.964-.929,1.6,1.6,0,0,1,1.786-.469,2.577,2.577,0,0,1,.97.741,1.677,1.677,0,0,0,1.666.716,23,23,0,0,1,2.692-.1,1.63,1.63,0,0,1,1.641,2.148c-.243.85-.518,1.69-.764,2.539a.589.589,0,0,0,.041.4,1.956,1.956,0,0,1-1.813,2.907c-1.172-.1-2.36-.027-3.54-.039a1.708,1.708,0,0,1-.67-.095.469.469,0,0,0-.639.157A5.762,5.762,0,0,1,253.987,1424.942Zm8.46-1.345a2.179,2.179,0,0,0,1.679.443c.308-.01.616.017.925.02.791.007,1.585.049,2.373.006a1.31,1.31,0,0,0,.906-2.074c-.094-.139-.214-.347-.174-.478.279-.92.612-1.824.9-2.743a1.008,1.008,0,0,0-1.055-1.414c-1.179.02-2.358.061-3.537.107a.67.67,0,0,1-.644-.287,8.52,8.52,0,0,0-.923-1.007.993.993,0,0,0-1.44.059c-.129.134-.244.28-.368.424a5.283,5.283,0,0,0-7.127,1.033,5.284,5.284,0,0,0-3.794-1.955,5.014,5.014,0,0,0-3.957,1.544,5.1,5.1,0,0,0-.388,6.693,4.893,4.893,0,0,0,2.959,1.88,5.223,5.223,0,0,0,5.18-1.829A5.274,5.274,0,0,0,262.447,1423.6Z"/>
      <path id="Path_24" data-name="Path 24" class="cls-2" d="M253.292,1418.1l-1.553,1.651a2.235,2.235,0,0,0-2.159-1.009,2.064,2.064,0,0,0-1.41.847,2.112,2.112,0,0,0,.389,2.917,2.072,2.072,0,0,0,2.935-.337c-.528,0-1-.023-1.471.007-.377.025-.488-.108-.47-.476.029-.573.008-1.149.008-1.774h4.147a4.466,4.466,0,0,1,4.936-3.453,4.418,4.418,0,0,1,.748,8.593,4.47,4.47,0,0,1-5.429-2.5,4.509,4.509,0,0,1-2.455,2.377,4.319,4.319,0,0,1-3.4-.059,4.416,4.416,0,0,1,.747-8.342A4.332,4.332,0,0,1,253.292,1418.1Zm-.857,3.474a2.578,2.578,0,0,1-2.191,1.966,2.72,2.72,0,0,1-2.178-4.719,2.667,2.667,0,0,1,1.518-.675,2.775,2.775,0,0,1,2.145.692l.733-.7a3.753,3.753,0,1,0-1.291,6.24,3.642,3.642,0,0,0,2.4-3.846h-3.4v1.04Zm5.625,3.027a3.753,3.753,0,1,0-3.774-3.748A3.747,3.747,0,0,0,258.06,1424.6Z"/>
      <path id="Path_25" data-name="Path 25" class="cls-2" d="M263.913,1422.16h2.975c.121,0,.242,0,.363.005a.581.581,0,0,1,.609.572.545.545,0,0,1-.461.615.573.573,0,0,1-.7-.392c-.025-.061-.047-.123-.1-.259-.74,0-1.5-.005-2.267.009a.359.359,0,0,0-.238.186c-.206.4-.539.54-.882.349s-.384-.549-.144-.934a1.7,1.7,0,0,0,.288-1.4c-.209-.8-.366-1.621-.509-2.438a1.633,1.633,0,0,0-.534-1,.918.918,0,0,1-.266-.3,1.769,1.769,0,0,1-.067-.46c.167.009.406-.05.489.038.4.419.933.754.939,1.368.946,0,1.854.008,2.762,0,.589-.007,1.178-.047,1.768-.062.432-.01.547.129.432.528-.209.72-.442,1.434-.641,2.157-.089.322-.328.35-.583.386-.9.128-1.8.276-2.708.373C264.074,1421.545,263.961,1421.726,263.913,1422.16Zm.07-1.216c1-.138,1.957-.266,2.91-.405.1-.014.237-.073.261-.144.182-.538.341-1.084.53-1.7l-4.141.13Z"/>
      <path id="Path_26" data-name="Path 26" class="cls-2" d="M255.037,1420.853a3.017,3.017,0,1,1,6.033-.025,3.017,3.017,0,1,1-6.033.025Zm3.029,2.362a2.368,2.368,0,0,0,.007-4.735,2.368,2.368,0,1,0-.007,4.735Z"/>
      <path id="Path_27" data-name="Path 27" class="cls-2" d="M259.68,1420.852a1.627,1.627,0,1,1-3.253,0,1.648,1.648,0,0,1,1.633-1.64A1.621,1.621,0,0,1,259.68,1420.852Zm-1.626-.935a.932.932,0,1,0-.01,1.863.93.93,0,0,0,.958-.924A.946.946,0,0,0,258.054,1419.917Z"/>
    </g>
  </g>
</svg>
