<svg xmlns="http://www.w3.org/2000/svg" width="17.494" height="11.893" viewBox="0 0 17.494 11.893">
  <g id="Group_61" data-name="Group 61" transform="translate(-202.516 -1644.158)">
    <g id="Group_58" data-name="Group 58">
      <path id="Path_9" data-name="Path 9" d="M209.045,1653.557a1.24,1.24,0,0,1-.91.381v-5.39a2.94,2.94,0,0,1,.918-2.178,3.119,3.119,0,0,1,4.39,0,3.026,3.026,0,0,1,0,4.346,3.044,3.044,0,0,1-2.2.9h-1.821v1.034A1.247,1.247,0,0,1,209.045,1653.557Zm2.2-3.168a1.726,1.726,0,0,0,1.287-.541,1.8,1.8,0,0,0,.526-1.3,1.831,1.831,0,0,0-.526-1.31,1.783,1.783,0,0,0-2.574,0,1.827,1.827,0,0,0-.526,1.31v1.843Z" fill="#f26311"/>
      <path id="Path_10" data-name="Path 10" d="M218.632,1650.708a3.116,3.116,0,0,1-4.387,0,3.033,3.033,0,0,1,0-4.346,3.024,3.024,0,0,1,2.191-.9h3.118v3.064A2.936,2.936,0,0,1,218.632,1650.708Zm-2.2-4.021a1.726,1.726,0,0,0-1.288.542,1.8,1.8,0,0,0-.527,1.3,1.828,1.828,0,0,0,.527,1.31,1.785,1.785,0,0,0,2.576,0,1.828,1.828,0,0,0,.527-1.31v-1.844Z" fill="#ff9d00"/>
    </g>
    <g id="Group_60" data-name="Group 60">
      <g id="Group_59" data-name="Group 59">
        <path id="Path_11" data-name="Path 11" d="M207.836,1644.539a1.242,1.242,0,0,1,.91-.381v4.6a2.947,2.947,0,0,1-.917,2.178,3.121,3.121,0,0,1-4.391,0,3.026,3.026,0,0,1,0-4.346,3.042,3.042,0,0,1,2.2-.9h1.821v-.246A1.248,1.248,0,0,1,207.836,1644.539Zm-2.2,2.379a1.725,1.725,0,0,0-1.286.542,1.8,1.8,0,0,0-.527,1.3,1.828,1.828,0,0,0,.527,1.31,1.782,1.782,0,0,0,2.573,0,1.827,1.827,0,0,0,.526-1.31v-1.844Z" fill="#f26311"/>
      </g>
    </g>
    <text id="DUONGPHONG_advertising" data-name="DUONGPHONG
advertising" transform="translate(210.01 1652.051)" fill="#f8ece8" font-size="1.298" font-family="SegoeUI, Segoe UI"><tspan x="0" y="1">DUONGPHONG</tspan><tspan font-size="0.962"><tspan x="0" y="1.818">advertising</tspan></tspan></text>
    <path id="Path_12" data-name="Path 12" d="M216.413,1647.156a1.3,1.3,0,0,0-.971.408,1.358,1.358,0,0,0-.4.981,1.378,1.378,0,0,0,.4.987,1.347,1.347,0,0,0,1.941,0,1.375,1.375,0,0,0,.4-.987v-1.389Z" fill="#ff9d00"/>
  </g>
</svg>
