<svg xmlns="http://www.w3.org/2000/svg" width="241.671" height="157.409" viewBox="0 0 241.671 157.409">
  <g id="Group_4" data-name="Group 4" transform="translate(-171.886 -320.561)">
    <g id="Group_1" data-name="Group 1">
      <path id="Path_1" data-name="Path 1" d="M263.942,453.1a17.5,17.5,0,0,1-12.834,5.371V382.461a41.487,41.487,0,0,1,12.944-30.712,44,44,0,0,1,61.9-.005,42.687,42.687,0,0,1,.059,61.29,42.912,42.912,0,0,1-31.036,12.613H269.306v14.591A17.565,17.565,0,0,1,263.942,453.1Zm31.034-44.672a24.325,24.325,0,0,0,18.146-7.638,25.406,25.406,0,0,0,7.419-18.356,25.782,25.782,0,0,0-7.419-18.47,25.123,25.123,0,0,0-36.29,0,25.78,25.78,0,0,0-7.417,18.47v25.994Z" fill="#f26311"/>
      <path id="Path_2" data-name="Path 2" d="M399.126,412.926a43.959,43.959,0,0,1-61.857,0,42.771,42.771,0,0,1,0-61.29,42.649,42.649,0,0,1,30.889-12.617h43.965v43.207A41.4,41.4,0,0,1,399.126,412.926Zm-31-56.7a24.348,24.348,0,0,0-18.162,7.636,25.409,25.409,0,0,0-7.421,18.364,25.774,25.774,0,0,0,7.421,18.472,25.181,25.181,0,0,0,36.328,0,25.769,25.769,0,0,0,7.433-18.472v-26Z" fill="#ff9d00"/>
    </g>
    <g id="Group_3" data-name="Group 3">
      <g id="Group_2" data-name="Group 2">
        <path id="Path_3" data-name="Path 3" d="M246.9,325.932a17.494,17.494,0,0,1,12.833-5.371v64.89a41.516,41.516,0,0,1-12.942,30.714,44.01,44.01,0,0,1-61.909,0,42.69,42.69,0,0,1-.053-61.29,42.9,42.9,0,0,1,31.037-12.617h25.67v-3.468A17.566,17.566,0,0,1,246.9,325.932Zm-31.034,33.55a24.327,24.327,0,0,0-18.145,7.638,25.409,25.409,0,0,0-7.419,18.361,25.754,25.754,0,0,0,7.419,18.463,25.109,25.109,0,0,0,36.286,0,25.744,25.744,0,0,0,7.421-18.463v-26Z" fill="#f26311"/>
      </g>
    </g>
    <text id="DUONGPHONG_advertising" data-name="DUONGPHONG
advertising" transform="translate(277.557 425.97)" fill="#464648" font-size="18.309" font-family="SegoeUI, Segoe UI"><tspan x="0" y="20">DUONGPHONG</tspan><tspan font-size="13.563"><tspan x="0" y="31.528">advertising</tspan></tspan></text>
    <path id="Path_4" data-name="Path 4" d="M367.835,362.837a18.368,18.368,0,0,0-13.688,5.753,19.158,19.158,0,0,0-5.586,13.834,19.435,19.435,0,0,0,5.586,13.911,18.973,18.973,0,0,0,27.371,0,19.4,19.4,0,0,0,5.6-13.911V362.837Z" fill="#ff9d00"/>
  </g>
</svg>
