<svg xmlns="http://www.w3.org/2000/svg" xmlns:xlink="http://www.w3.org/1999/xlink" width="40.766" height="24.885" viewBox="0 0 40.766 24.885">
  <defs>
    <style>
      .cls-1 {
        fill: #fff;
      }

      .cls-2 {
        fill: url(#linear-gradient);
      }

      .cls-3 {
        fill: url(#linear-gradient-2);
      }

      .cls-4 {
        fill: url(#linear-gradient-3);
      }

      .cls-5 {
        fill: url(#radial-gradient);
      }

      .cls-6 {
        fill: url(#linear-gradient-4);
      }

      .cls-7 {
        fill: url(#linear-gradient-5);
      }

      .cls-8 {
        fill: url(#linear-gradient-6);
      }

      .cls-9 {
        fill: url(#linear-gradient-7);
      }

      .cls-10 {
        fill: url(#linear-gradient-8);
      }

      .cls-11 {
        fill: #040505;
      }

      .cls-12 {
        fill: none;
        stroke: #040505;
        stroke-miterlimit: 10;
        stroke-width: 0.25px;
      }

      .cls-13 {
        fill: url(#linear-gradient-9);
      }

      .cls-14 {
        fill: url(#linear-gradient-10);
      }

      .cls-15 {
        fill: url(#linear-gradient-11);
      }

      .cls-16 {
        fill: url(#linear-gradient-12);
      }

      .cls-17 {
        fill: url(#linear-gradient-13);
      }

      .cls-18 {
        fill: url(#linear-gradient-14);
      }

      .cls-19 {
        fill: url(#linear-gradient-15);
      }

      .cls-20 {
        fill: url(#linear-gradient-16);
      }
    </style>
    <linearGradient id="linear-gradient" x1="203.972" y1="-211.445" x2="204.874" y2="-211.445" gradientUnits="objectBoundingBox">
      <stop offset="0.017" stop-color="#bc2a1b"/>
      <stop offset="0.44" stop-color="#c1331b"/>
      <stop offset="0.747" stop-color="#d25717"/>
      <stop offset="0.944" stop-color="#db6a16"/>
    </linearGradient>
    <linearGradient id="linear-gradient-2" x1="183.868" y1="-212.04" x2="184.868" y2="-212.04" gradientUnits="objectBoundingBox">
      <stop offset="0.017" stop-color="#da6818"/>
      <stop offset="0.608" stop-color="#ffb200"/>
      <stop offset="0.74" stop-color="#ffc000"/>
      <stop offset="0.944" stop-color="#ffd300"/>
    </linearGradient>
    <linearGradient id="linear-gradient-3" x1="128.746" y1="-53.508" x2="128.363" y2="-52.834" gradientUnits="objectBoundingBox">
      <stop offset="0.117" stop-color="#ffbe00"/>
      <stop offset="0.211" stop-color="#f49f06"/>
      <stop offset="0.401" stop-color="#e26711"/>
      <stop offset="0.543" stop-color="#d64419"/>
      <stop offset="0.619" stop-color="#d2371c"/>
      <stop offset="0.734" stop-color="#af2819"/>
      <stop offset="0.912" stop-color="#7f1315"/>
      <stop offset="1" stop-color="#6d0b14"/>
    </linearGradient>
    <radialGradient id="radial-gradient" cx="0.5" cy="0.5" r="0.387" gradientTransform="translate(-479.065) scale(2.259 1)" gradientUnits="objectBoundingBox">
      <stop offset="0.017" stop-color="#ffb200"/>
      <stop offset="0.502" stop-color="#ffa600"/>
      <stop offset="0.944" stop-color="#fd9b00"/>
    </radialGradient>
    <linearGradient id="linear-gradient-4" x1="715.909" y1="-166.35" x2="713.772" y2="-164.268" gradientUnits="objectBoundingBox">
      <stop offset="0.017" stop-color="#f8880c"/>
      <stop offset="0.312" stop-color="#fca403"/>
      <stop offset="0.502" stop-color="#ffb200"/>
      <stop offset="0.695" stop-color="#f6a007"/>
      <stop offset="0.944" stop-color="#ed8e10"/>
    </linearGradient>
    <linearGradient id="linear-gradient-5" x1="987.691" y1="-1287.703" x2="988.692" y2="-1287.703" gradientUnits="objectBoundingBox">
      <stop offset="0.017" stop-color="#d96019"/>
      <stop offset="0.053" stop-color="#dc6a16"/>
      <stop offset="0.262" stop-color="#efa20a"/>
      <stop offset="0.418" stop-color="#fac502"/>
      <stop offset="0.502" stop-color="#ffd300"/>
      <stop offset="0.65" stop-color="#f1aa09"/>
      <stop offset="0.846" stop-color="#e07a13"/>
      <stop offset="0.944" stop-color="#da6818"/>
    </linearGradient>
    <linearGradient id="linear-gradient-6" x1="241.526" y1="-113.957" x2="241.526" y2="-114.799" gradientUnits="objectBoundingBox">
      <stop offset="0.081" stop-color="#6d0b14"/>
      <stop offset="0.665" stop-color="#a5141f"/>
    </linearGradient>
    <linearGradient id="linear-gradient-7" x1="165.222" y1="-405.654" x2="165.222" y2="-404.656" gradientUnits="objectBoundingBox">
      <stop offset="0" stop-color="#130c0c"/>
      <stop offset="0.435" stop-color="#7c0c15"/>
      <stop offset="0.954" stop-color="#100809"/>
      <stop offset="1" stop-color="#070808"/>
    </linearGradient>
    <linearGradient id="linear-gradient-8" x1="174.214" y1="-308.708" x2="174.441" y2="-309.306" gradientUnits="objectBoundingBox">
      <stop offset="0" stop-color="#8b1019"/>
      <stop offset="0.002" stop-color="#8b1018"/>
      <stop offset="0.29" stop-color="#b53f18"/>
      <stop offset="0.511" stop-color="#d05d18"/>
      <stop offset="0.637" stop-color="#da6818"/>
      <stop offset="1" stop-color="#da6818"/>
    </linearGradient>
    <linearGradient id="linear-gradient-9" x1="203.489" y1="-113.101" x2="204.339" y2="-113.806" gradientUnits="objectBoundingBox">
      <stop offset="0.268" stop-color="#d4421b"/>
      <stop offset="1" stop-color="#ffbe00"/>
    </linearGradient>
    <linearGradient id="linear-gradient-10" x1="303.946" y1="-220.357" x2="304.432" y2="-220.855" gradientUnits="objectBoundingBox">
      <stop offset="0" stop-color="#96261a"/>
      <stop offset="0.056" stop-color="#a73d15"/>
      <stop offset="0.221" stop-color="#d67b0a"/>
      <stop offset="0.342" stop-color="#f3a302"/>
      <stop offset="0.405" stop-color="#ffb200"/>
      <stop offset="0.481" stop-color="#feac00"/>
      <stop offset="0.754" stop-color="#fd9f00"/>
      <stop offset="1" stop-color="#fd9b00"/>
    </linearGradient>
    <linearGradient id="linear-gradient-11" x1="313.417" y1="-205.298" x2="313.894" y2="-205.796" gradientUnits="objectBoundingBox">
      <stop offset="0" stop-color="#f57210"/>
      <stop offset="0.218" stop-color="#fa8c05"/>
      <stop offset="0.383" stop-color="#fd9b00"/>
      <stop offset="0.478" stop-color="#fda200"/>
      <stop offset="0.706" stop-color="#feae00"/>
      <stop offset="0.939" stop-color="#ffb200"/>
    </linearGradient>
    <linearGradient id="linear-gradient-12" x1="561.885" y1="-233.466" x2="562.583" y2="-233.83" gradientUnits="objectBoundingBox">
      <stop offset="0" stop-color="#fb9206"/>
      <stop offset="0.03" stop-color="#fb9605"/>
      <stop offset="0.169" stop-color="#fda502"/>
      <stop offset="0.328" stop-color="#feaf00"/>
      <stop offset="0.555" stop-color="#ffb200"/>
      <stop offset="0.854" stop-color="#ffc700"/>
      <stop offset="1" stop-color="#ffd300"/>
    </linearGradient>
    <linearGradient id="linear-gradient-13" x1="732.181" y1="-225.383" x2="733.942" y2="-226.062" gradientUnits="objectBoundingBox">
      <stop offset="0" stop-color="#eb8510"/>
      <stop offset="0.147" stop-color="#f2a10a"/>
      <stop offset="0.354" stop-color="#fbc502"/>
      <stop offset="0.465" stop-color="#ffd300"/>
      <stop offset="0.591" stop-color="#fed000"/>
      <stop offset="0.659" stop-color="#fec800"/>
      <stop offset="0.712" stop-color="#fdbb02"/>
      <stop offset="0.759" stop-color="#fca703"/>
      <stop offset="0.796" stop-color="#fb9206"/>
    </linearGradient>
    <linearGradient id="linear-gradient-14" x1="583.59" y1="-221.785" x2="584.316" y2="-222.13" xlink:href="#linear-gradient-12"/>
    <linearGradient id="linear-gradient-15" x1="138787.969" y1="-41140.68" x2="138960.469" y2="-41204.512" gradientUnits="objectBoundingBox">
      <stop offset="0" stop-color="#f68d0b"/>
      <stop offset="0.03" stop-color="#f79109"/>
      <stop offset="0.169" stop-color="#faa004"/>
      <stop offset="0.328" stop-color="#fdaa00"/>
      <stop offset="0.555" stop-color="#fead00"/>
      <stop offset="0.88" stop-color="#fec200"/>
      <stop offset="1" stop-color="#ffcb00"/>
    </linearGradient>
    <linearGradient id="linear-gradient-16" x1="5449.396" y1="-3170.158" x2="5462.5" y2="-3179.675" gradientUnits="objectBoundingBox">
      <stop offset="0" stop-color="#e98011"/>
      <stop offset="0.136" stop-color="#f0990b"/>
      <stop offset="0.35" stop-color="#fbbd03"/>
      <stop offset="0.465" stop-color="#ffcb00"/>
      <stop offset="0.593" stop-color="#fec800"/>
      <stop offset="0.661" stop-color="#fec001"/>
      <stop offset="0.716" stop-color="#fdb303"/>
      <stop offset="0.763" stop-color="#fc9f06"/>
      <stop offset="0.796" stop-color="#fb8d0a"/>
    </linearGradient>
  </defs>
  <g id="Group_185" data-name="Group 185" transform="translate(-426.122 -1437.076)">
    <g id="Group_170" data-name="Group 170">
      <path id="Path_372" data-name="Path 372" class="cls-1" d="M429.435,1461.144v-2.013h.494v.186a.651.651,0,0,1,.269-.186.949.949,0,0,1,.349-.064.967.967,0,0,1,.347.065.854.854,0,0,1,.29.185l.033.03a.1.1,0,0,1,.024.028.768.768,0,0,1,.153.348,2.206,2.206,0,0,1,.024.378v1.043h-.536v-1.1a.388.388,0,0,0-.01-.1.456.456,0,0,0-.08-.229.384.384,0,0,0-.157-.13.475.475,0,0,0-.2-.045.511.511,0,0,0-.212.048.392.392,0,0,0-.162.128.458.458,0,0,0-.073.2c-.005.039-.009.078-.012.118s0,.087,0,.141v.974Z"/>
      <path id="Path_373" data-name="Path 373" class="cls-1" d="M434.809,1459.328v1.816h-.492v-.215a.533.533,0,0,1-.234.209.775.775,0,0,1-.341.071,1.07,1.07,0,0,1-.386-.069.94.94,0,0,1-.317-.2.671.671,0,0,1-.185-.313,1.118,1.118,0,0,1-.023-.149,2.033,2.033,0,0,1-.008-.207v-1.137h.535v.988a2,2,0,0,0,.012.228.469.469,0,0,0,.057.183.4.4,0,0,0,.157.151.459.459,0,0,0,.225.057.4.4,0,0,0,.384-.2.886.886,0,0,0,.081-.418v-.988h.3v-.243h.538v.44Z"/>
      <path id="Path_374" data-name="Path 374" class="cls-1" d="M437.835,1459.175v-.284h.536v.44h-.282a1.113,1.113,0,0,1,.291.362.985.985,0,0,1-.242,1.2,1.224,1.224,0,0,1-.843.312,1.2,1.2,0,0,1-.832-.314.992.992,0,0,1,0-1.516,1.242,1.242,0,0,1,.854-.312,1.317,1.317,0,0,1,.269.027A1.3,1.3,0,0,1,437.835,1459.175Zm-.54.364a.65.65,0,0,0-.122.012.608.608,0,0,0-.126.039.681.681,0,0,0-.212.13.542.542,0,0,0-.138.192.564.564,0,0,0-.047.23.554.554,0,0,0,.187.421.647.647,0,0,0,.458.175.665.665,0,0,0,.468-.172.551.551,0,0,0,.188-.424.561.561,0,0,0-.191-.428A.661.661,0,0,0,437.3,1459.539Zm-.36-.621-.2-.335.908-.483.213.378Z"/>
      <path id="Path_375" data-name="Path 375" class="cls-1" d="M439.76,1461.144v-2.013h.494v.186a.65.65,0,0,1,.269-.186.945.945,0,0,1,.349-.064.971.971,0,0,1,.347.065.84.84,0,0,1,.289.185l.034.03a.089.089,0,0,1,.023.028.758.758,0,0,1,.154.348,2.205,2.205,0,0,1,.024.378v1.043h-.536v-1.1a.386.386,0,0,0-.01-.1.466.466,0,0,0-.081-.229.375.375,0,0,0-.156-.13.475.475,0,0,0-.2-.045.515.515,0,0,0-.213.048.389.389,0,0,0-.161.128.458.458,0,0,0-.073.2c-.005.039-.009.078-.012.118s0,.087,0,.141v.974Z"/>
      <path id="Path_376" data-name="Path 376" class="cls-1" d="M444.9,1459.131h.492v1.708a1.2,1.2,0,0,1-.065.418.934.934,0,0,1-.246.357,1.259,1.259,0,0,1-.409.256,1.335,1.335,0,0,1-1.154-.089.983.983,0,0,1-.435-.485h.608a.685.685,0,0,0,.228.139.769.769,0,0,0,.272.055.869.869,0,0,0,.27-.044.681.681,0,0,0,.23-.125.481.481,0,0,0,.13-.151,1.209,1.209,0,0,0,.085-.306,1.075,1.075,0,0,1-.315.25.882.882,0,0,1-.408.095,1.163,1.163,0,0,1-.425-.086,1.217,1.217,0,0,1-.374-.229,1.062,1.062,0,0,1-.25-.359,1.163,1.163,0,0,1-.063-.209,1.033,1.033,0,0,1-.022-.218.933.933,0,0,1,.077-.373,1.081,1.081,0,0,1,.222-.328,1.182,1.182,0,0,1,.378-.25,1.222,1.222,0,0,1,.469-.09.988.988,0,0,1,.41.081.656.656,0,0,1,.295.259Zm-.012,1.014a.563.563,0,0,0-.19-.433.686.686,0,0,0-.479-.173.676.676,0,0,0-.244.046.629.629,0,0,0-.213.133.612.612,0,0,0-.134.186.6.6,0,0,0,.15.66.693.693,0,0,0,.482.174.619.619,0,0,0,.444-.177A.557.557,0,0,0,444.888,1460.145Z"/>
      <path id="Path_377" data-name="Path 377" class="cls-1" d="M450.724,1459.56h.593l-.512.81.528.517-.392.308-.408-.385a1.082,1.082,0,0,1-.319.282.834.834,0,0,1-.427.117,1.061,1.061,0,0,1-.695-.243.773.773,0,0,1-.142-1.069,1.165,1.165,0,0,1,.406-.309.958.958,0,0,1-.181-.22.539.539,0,0,1-.069-.266.649.649,0,0,1,.215-.493.769.769,0,0,1,.543-.2.8.8,0,0,1,.538.188.592.592,0,0,1,.224.473.642.642,0,0,1-.119.387.906.906,0,0,1-.348.273l.274.277Zm-.565.883-.465-.468a.7.7,0,0,0-.252.151.354.354,0,0,0-.11.259.316.316,0,0,0,.118.254.438.438,0,0,0,.29.1.4.4,0,0,0,.254-.091A.732.732,0,0,0,450.159,1460.443Zm-.339-1.046a.647.647,0,0,0,.243-.149.267.267,0,0,0,.041-.07.241.241,0,0,0,.014-.083.2.2,0,0,0-.069-.161.288.288,0,0,0-.189-.057.252.252,0,0,0-.174.06.2.2,0,0,0-.068.155.321.321,0,0,0,.1.2Z"/>
      <path id="Path_378" data-name="Path 378" class="cls-1" d="M454.68,1461.144v-2.684h.536v.882a.693.693,0,0,1,.311-.211,1.121,1.121,0,0,1,.386-.064,1.1,1.1,0,0,1,.8.323,1.021,1.021,0,0,1,.317.748,1.083,1.083,0,0,1-.078.39,1.058,1.058,0,0,1-.209.343,1.015,1.015,0,0,1-.364.249,1.2,1.2,0,0,1-.456.089,1.088,1.088,0,0,1-.425-.079.806.806,0,0,1-.333-.259v.273Zm1.178-1.605a.725.725,0,0,0-.475.163.507.507,0,0,0-.2.41.6.6,0,0,0,.187.447.677.677,0,0,0,.487.179.639.639,0,0,0,.46-.171.559.559,0,0,0,.179-.425.571.571,0,0,0-.175-.428A.639.639,0,0,0,455.858,1459.539Z"/>
      <path id="Path_379" data-name="Path 379" class="cls-1" d="M458.31,1458.9v-.438h.535v.438Zm0,2.246v-2.013h.535v2.013Z"/>
      <path id="Path_380" data-name="Path 380" class="cls-1" d="M462.509,1459.131v2.013h-.492v-.273a.889.889,0,0,1-.34.244,1.057,1.057,0,0,1-.426.094,1.2,1.2,0,0,1-.464-.086,1.037,1.037,0,0,1-.359-.252,1.017,1.017,0,0,1-.207-.336,1.158,1.158,0,0,1-.007-.79.956.956,0,0,1,.222-.331,1.08,1.08,0,0,1,.378-.262,1.181,1.181,0,0,1,.452-.085.989.989,0,0,1,.425.089.887.887,0,0,1,.326.258v-.283Zm-.51,1a.564.564,0,0,0-.179-.427.65.65,0,0,0-.465-.169.681.681,0,0,0-.479.174.575.575,0,0,0-.19.443.526.526,0,0,0,.193.413.682.682,0,0,0,.468.169.661.661,0,0,0,.469-.171A.563.563,0,0,0,462,1460.135Z"/>
    </g>
    <g id="Group_171" data-name="Group 171">
      <path id="Path_381" data-name="Path 381" class="cls-1" d="M426.226,1456.545q-.105-1.7-.1-6.9c0-.629,0-.943.011-.943a11.56,11.56,0,0,1,2.257-.178h.683c.239,0,.448,0,.625.011a4.479,4.479,0,0,1,.614.056,4.527,4.527,0,0,1,1.018.266,1.855,1.855,0,0,1,.7.577,2.4,2.4,0,0,1,.243,1.043,1.788,1.788,0,0,1-.637,1.631,2,2,0,0,1,1.076,1.853v.067a2.138,2.138,0,0,1-2.141,2.385,27.241,27.241,0,0,1-3.1.144Zm2.187-4.948a3.294,3.294,0,0,0,1.274-.156.59.59,0,0,0,.277-.565.468.468,0,0,0-.4-.489,3.165,3.165,0,0,0-.729-.066h-.474Zm1.517,1.853a2.349,2.349,0,0,0-1.065-.167h-.44l.035.8a2.437,2.437,0,0,0,.058.61.2.2,0,0,0,.219.122h.22q1.239,0,1.239-.821A.576.576,0,0,0,429.93,1453.45Z"/>
      <path id="Path_382" data-name="Path 382" class="cls-1" d="M437.025,1454.892l-.9.055a8.4,8.4,0,0,0-.938.078l-.139,1.442-2.592-.022.011-.033q.243-.71.706-2.763.5-2.2.787-3.583a15.226,15.226,0,0,1,.371-1.631,5.838,5.838,0,0,1,1.1-.089q.938-.045,1.875-.044a2.764,2.764,0,0,1,.764.044q.024.033.672,2.985.288,1.341.683,2.862.2.788.382,1.753l.057.377-2.65.122Zm-.973-4.26q-.15,0-.347,1.22-.2,1.264-.2,1.464c0,.037.162.056.487.056.462,0,.694-.026.694-.078s-.085-.469-.255-1.231q-.277-1.243-.3-1.309C436.11,1450.672,436.083,1450.632,436.052,1450.632Z"/>
    </g>
    <g id="Group_172" data-name="Group 172">
      <path id="Path_383" data-name="Path 383" class="cls-1" d="M457.431,1454.907l-.9.055a8.4,8.4,0,0,0-.938.078l-.139,1.442-2.592-.022.011-.033q.243-.711.706-2.763.5-2.2.787-3.584a15.39,15.39,0,0,1,.371-1.631,6.071,6.071,0,0,1,1.1-.089q.938-.043,1.875-.044a2.817,2.817,0,0,1,.764.044q.024.035.672,2.985.288,1.343.682,2.863.2.788.382,1.753l.058.377-2.65.122Zm-.973-4.261q-.15,0-.347,1.221-.2,1.265-.2,1.464,0,.055.486.056.695,0,.7-.078t-.255-1.232q-.277-1.242-.3-1.309C456.516,1450.687,456.489,1450.646,456.458,1450.646Z"/>
    </g>
    <g id="Group_173" data-name="Group 173">
      <path id="Path_384" data-name="Path 384" class="cls-1" d="M464.446,1451.317v-.033a1.133,1.133,0,0,0-.232-.733.7.7,0,0,0-.567-.288q-.533,0-.81.7a3.558,3.558,0,0,0-.231,1.365v.088q0,1.72.821,1.72a.868.868,0,0,0,.73-.3,1.687,1.687,0,0,0,.277-.7.337.337,0,0,1,.024-.111c.053.007.2.011.428.011l1.944-.045a3.29,3.29,0,0,1-1.1,2.674,3.68,3.68,0,0,1-2.431.788,3.264,3.264,0,0,1-2.488-.965,4.251,4.251,0,0,1-1.042-2.73c-.008-.066-.012-.2-.012-.41v-.322q.059-2.707,1.864-3.606a4.179,4.179,0,0,1,2.025-.477,3.526,3.526,0,0,1,2.165.7,2.434,2.434,0,0,1,1.018,1.831l.058.8Z"/>
    </g>
    <path id="Path_385" data-name="Path 385" class="cls-2" d="M453.51,1445.485a1.791,1.791,0,0,1-1.573,1.907c-1.124.281-1.9-.135-3.063-.465-1.2-.338-2.234,1.06-2.234,1.06a4.715,4.715,0,0,1,1.715-1.63,17.969,17.969,0,0,1,2.725-.559c1.534-.106,1.368-2.294,1.368-2.294A3.475,3.475,0,0,1,453.51,1445.485Z"/>
    <g id="Group_174" data-name="Group 174">
      <path id="Path_386" data-name="Path 386" class="cls-3" d="M453.425,1445.184c.036.657-.1,1.511-1.8,1.917-1.359.325-2.3-.112-3.829-.171a4,4,0,0,0-2.654,1.056,5.358,5.358,0,0,1,2.036-1.749,25.233,25.233,0,0,1,3.3-.659c1.864-.152,1.591-2.433,1.591-2.433S453.368,1444.139,453.425,1445.184Z"/>
      <path id="Path_387" data-name="Path 387" class="cls-4" d="M451.044,1442.31c.458,1.351-.066,3.093-.567,3.268a25.233,25.233,0,0,0-3.3.659,5.358,5.358,0,0,0-2.036,1.749,6.4,6.4,0,0,0-1.388,5.432c.58,2.782,4.653,2.731,4.994,2.722l-1.915.056c-3.154,0-6.686-2.5-7.235-5.673,0,0,.163-.059.363.186a1.56,1.56,0,0,1,.228.4c.291.7,1.293.311,1.315.064s-1-.22-1.692-1.27a3.36,3.36,0,0,1-.214-3.08,2,2,0,0,1,1.36-1.029,1.134,1.134,0,0,0,.164,1.932.926.926,0,0,0,.369.133.94.94,0,0,0,.449.2,1.4,1.4,0,0,0,1.342-1.982,2.576,2.576,0,0,1,.025-1.6,3.294,3.294,0,0,0,.256-2.015c-.152-.5-.481-.568-.541-.576a1.426,1.426,0,0,1,.791.38,1.622,1.622,0,0,1,.548,1.654,3.8,3.8,0,0,0-.126.371v0l0,.007c-.017.043-.1.246-.242.641a.841.841,0,0,0,.487,1.188,1.15,1.15,0,0,0,1.188-.476,2.04,2.04,0,0,0,.326-1.449c-.377-3.114-.011-3.746,1.253-4.574s.469-1.83.065-2.538a7.456,7.456,0,0,1,1.7,1.957c.418,1.126-.209,1.409-.209,1.409A3.568,3.568,0,0,1,451.044,1442.31Z"/>
      <path id="Path_388" data-name="Path 388" class="cls-5" d="M447.308,1437.093c.4.708,1.2,1.71-.065,2.538s-1.63,1.46-1.253,4.574a2.04,2.04,0,0,1-.326,1.449,1.15,1.15,0,0,1-1.188.476.841.841,0,0,1-.487-1.188c.144-.4.225-.6.242-.641-.245.9.078,1.37.67,1.154a1.016,1.016,0,0,0,.577-.651c.3-.857-.25-1.427-.21-3.093a2.726,2.726,0,0,1,1.082-2.232,2.658,2.658,0,0,0,.915-1.195A2.694,2.694,0,0,0,447.308,1437.093Z"/>
      <path id="Path_389" data-name="Path 389" class="cls-6" d="M443.562,1442.463a3.294,3.294,0,0,1-.256,2.015,2.576,2.576,0,0,0-.025,1.6,1.4,1.4,0,0,1-1.342,1.982.94.94,0,0,1-.449-.2c.581.077,1.249-.394.869-1.761a2.434,2.434,0,0,1,0-2.058c.387-1.088.966-1.555.592-2.132-.014-.017.021-.025.066-.024C443.081,1441.9,443.41,1441.96,443.562,1442.463Z"/>
      <path id="Path_390" data-name="Path 390" class="cls-7" d="M440.268,1450.951a1.136,1.136,0,0,0,1.235.225c-.022.247-1.024.633-1.315-.064a1.56,1.56,0,0,0-.228-.4A3.467,3.467,0,0,1,440.268,1450.951Z"/>
    </g>
    <path id="Path_391" data-name="Path 391" class="cls-8" d="M444.58,1453.362a7.514,7.514,0,0,1-.06-.858,6.948,6.948,0,0,1,.654-3.18,3.88,3.88,0,0,1,1.7-1.778,3.924,3.924,0,0,1,.921-.339,14.8,14.8,0,0,1,2.067-.088,3.668,3.668,0,0,0-3.046-.24,2.723,2.723,0,0,0-.946.4,4.466,4.466,0,0,0-1.68,1.782,6.454,6.454,0,0,0-.651,3.048,6.9,6.9,0,0,0,.06.823,3.325,3.325,0,0,0,1.272,2.219,2.821,2.821,0,0,0,1.009.505A3.389,3.389,0,0,1,444.58,1453.362Z"/>
    <path id="Path_392" data-name="Path 392" class="cls-9" d="M441.628,1454.028c2.443,2.132,5.669,3.177,8.36,2.122l.892-.539c-.31-.148-1.32.4-3.092.3l-.623-.057A12.023,12.023,0,0,1,441.628,1454.028Z"/>
    <g id="Group_175" data-name="Group 175">
      <path id="Path_393" data-name="Path 393" class="cls-10" d="M453.374,1444.83a2.17,2.17,0,0,1-.115,2.116c-.366.471-1.449,1.064-3.414.213a4.43,4.43,0,0,0-4.424.914l-.592.083a4.275,4.275,0,0,1,3-1.484c1.993-.141,4.489.7,5.171-.22A1.74,1.74,0,0,0,453.374,1444.83Z"/>
    </g>
    <path id="Path_394" data-name="Path 394" class="cls-11" d="M448.351,1449.7a.956.956,0,0,0-.6-.2,1.263,1.263,0,0,0-1.12.753,3.478,3.478,0,0,0-.374,1.6q0,1.194.591,1.541a1.157,1.157,0,0,0,.566.152,1.184,1.184,0,0,0,.121-.007,2.4,2.4,0,0,1-.289-1.307,3.73,3.73,0,0,1,.375-1.669,1.37,1.37,0,0,1,.852-.75A.771.771,0,0,0,448.351,1449.7Z"/>
    <path id="Path_395" data-name="Path 395" class="cls-11" d="M451.133,1449.366a6,6,0,0,1,.085.8l-1.024.092-.621.046a.633.633,0,0,1,.03.192v.194l1.6-.122,1.028-.1a6.828,6.828,0,0,0-.084-.834,2.77,2.77,0,0,0-1.647-2.262,2.646,2.646,0,0,0-.7-.229c-.277-.047-.5-.077-.668-.09a3.37,3.37,0,0,1,.366.142A2.66,2.66,0,0,1,451.133,1449.366Z"/>
    <path id="Path_396" data-name="Path 396" class="cls-11" d="M451.038,1451.785v.119a6.1,6.1,0,0,1-.109,1.02,5.9,5.9,0,0,1-.254,1.032,2.643,2.643,0,0,1-1.264,1.437,4.087,4.087,0,0,1-2.061.522,4.217,4.217,0,0,1-1.465-.255l.015.011a4.093,4.093,0,0,0,4.513.254,2.734,2.734,0,0,0,1.272-1.5,6.464,6.464,0,0,0,.254-1.076,6.655,6.655,0,0,0,.109-1.064v-.17l-.037-.338Z"/>
    <path id="Path_397" data-name="Path 397" class="cls-11" d="M449.411,1455.393a2.643,2.643,0,0,0,1.264-1.437,5.9,5.9,0,0,0,.254-1.032,6.1,6.1,0,0,0,.109-1.02v-.119l-.734.005a14.184,14.184,0,0,0-1.766.072c-.056.033-.085.263-.085.689v.642l.859.037a.708.708,0,0,1-.266.555.98.98,0,0,1-.641.218,1.133,1.133,0,0,1-.569-.158.948.948,0,0,1-.3-.3,1.184,1.184,0,0,1-.121.007,1.157,1.157,0,0,1-.566-.152q-.59-.347-.591-1.541a3.478,3.478,0,0,1,.374-1.6,1.263,1.263,0,0,1,1.12-.753.956.956,0,0,1,.6.2.771.771,0,0,1,.119.116,1.118,1.118,0,0,1,.273-.036.934.934,0,0,1,.606.206.667.667,0,0,1,.224.316l.621-.046,1.024-.092a6,6,0,0,0-.085-.8,2.66,2.66,0,0,0-1.638-2.167,3.37,3.37,0,0,0-.366-.142c-.063,0-.12-.007-.168-.007h-.024a5.058,5.058,0,0,0-1.137.157,5.141,5.141,0,0,0-.921.339,3.88,3.88,0,0,0-1.7,1.778,6.948,6.948,0,0,0-.654,3.18,7.514,7.514,0,0,0,.06.858,3.389,3.389,0,0,0,1.305,2.3,4.217,4.217,0,0,0,1.465.255A4.087,4.087,0,0,0,449.411,1455.393Z"/>
    <path id="Path_398" data-name="Path 398" class="cls-11" d="M451.379,1451.411l.632.367-.42.815-.373-1.073Z"/>
    <path id="Path_399" data-name="Path 399" class="cls-11" d="M449.038,1450.368l.564.322.459-.283.061-.12Z"/>
    <path id="Path_400" data-name="Path 400" class="cls-11" d="M447.921,1452.767l.532.426.189-.4Z"/>
    <path id="Path_401" data-name="Path 401" class="cls-12" d="M449.206,1442.96"/>
    <g id="Group_177" data-name="Group 177">
      <g id="Group_176" data-name="Group 176">
        <path id="Path_402" data-name="Path 402" class="cls-13" d="M451.591,1450.159l-1,.093-1.553.116v-.186a.6.6,0,0,0-.247-.486.915.915,0,0,0-.588-.2,1.23,1.23,0,0,0-1.093.754,3.516,3.516,0,0,0-.366,1.6q0,1.194.577,1.542a1.115,1.115,0,0,0,.553.151.967.967,0,0,0,.624-.209.678.678,0,0,0,.258-.533l-.835-.035v-.615c0-.408.027-.629.082-.66a13.754,13.754,0,0,1,1.717-.07l1.659-.011.036.324v.162a6.261,6.261,0,0,1-.106,1.02,6.027,6.027,0,0,1-.248,1.032,2.623,2.623,0,0,1-1.234,1.438,4.1,4.1,0,0,1-4.388-.244,3.234,3.234,0,0,1-1.283-2.214,7.063,7.063,0,0,1-.058-.823,6.581,6.581,0,0,1,.635-3.048,3.745,3.745,0,0,1,1.658-1.7,4.89,4.89,0,0,1,.9-.326,5.072,5.072,0,0,1,1.1-.15h.023a5.5,5.5,0,0,1,.813.093,2.545,2.545,0,0,1,.682.221,2.651,2.651,0,0,1,1.6,2.167A6.228,6.228,0,0,1,451.591,1450.159Z"/>
      </g>
    </g>
    <g id="Group_179" data-name="Group 179">
      <g id="Group_178" data-name="Group 178">
        <path id="Path_403" data-name="Path 403" class="cls-11" d="M456.32,1443.6c.04.032.552.5.553.5.015.018,1.662,1.168,1.66,2.056,0,.906-.482,1.514-2.766,1.606a18.654,18.654,0,0,0-3.054.3,16.67,16.67,0,0,1,1.946-.892,3.962,3.962,0,0,0,2-1.454C456.931,1445.167,456.3,1443.588,456.32,1443.6Z"/>
      </g>
    </g>
    <g id="Group_181" data-name="Group 181">
      <g id="Group_180" data-name="Group 180">
        <path id="Path_404" data-name="Path 404" class="cls-14" d="M456.461,1443.76h0a4.474,4.474,0,0,1,1.1,2.137c0,.906-.3,1.556-2.572,1.843a12.688,12.688,0,0,0-2.549.455h0a7.569,7.569,0,0,1,1.779-1.1,3.955,3.955,0,0,0,2-1.454A5.614,5.614,0,0,0,456.461,1443.76Z"/>
      </g>
    </g>
    <g id="Group_182" data-name="Group 182">
      <path id="Path_405" data-name="Path 405" class="cls-15" d="M456.163,1443.436s1.283,1.264,1.245,2.195-.222,1.5-2.483,1.942a10.6,10.6,0,0,0-2.482.623,6.15,6.15,0,0,1,1.627-1.22,4.142,4.142,0,0,0,1.982-1.622A5.512,5.512,0,0,0,456.163,1443.436Z"/>
    </g>
    <g id="Group_184" data-name="Group 184">
      <g id="Group_183" data-name="Group 183">
        <path id="Path_406" data-name="Path 406" class="cls-16" d="M446.694,1437.884c0,.038-.007.074-.011.109h0c-.013.028-.19.431-1.024.64a1.939,1.939,0,0,0-1.585,2.008,2.606,2.606,0,0,0,.469,1.637,2.744,2.744,0,0,1-.559-1.754,1.937,1.937,0,0,1,1.584-2.007A1.854,1.854,0,0,0,446.694,1437.884Z"/>
        <path id="Path_407" data-name="Path 407" class="cls-17" d="M446.683,1437.994c-.043.495-.055.634-.218.823a5.144,5.144,0,0,0-1.616,1.811,2.986,2.986,0,0,0-.038,1.921,3.042,3.042,0,0,1-.053-2.039,4.978,4.978,0,0,1,1.6-1.832A.925.925,0,0,0,446.683,1437.994Z"/>
        <path id="Path_408" data-name="Path 408" class="cls-18" d="M446.683,1437.994a.925.925,0,0,1-.326.684,4.978,4.978,0,0,0-1.6,1.832,3.042,3.042,0,0,0,.053,2.039l.007.018.01.031.007.022a2.685,2.685,0,0,1-.28-.324l-.012-.017a2.606,2.606,0,0,1-.469-1.637,1.939,1.939,0,0,1,1.585-2.008C446.493,1438.425,446.67,1438.022,446.683,1437.994Z"/>
        <path id="Path_409" data-name="Path 409" class="cls-19" d="M444.839,1442.623l0,0h0l-.007-.022Z"/>
        <path id="Path_410" data-name="Path 410" class="cls-20" d="M444.835,1442.62h0a2,2,0,0,1-.28-.325A2.685,2.685,0,0,0,444.835,1442.62Z"/>
      </g>
    </g>
  </g>
</svg>
