<svg xmlns="http://www.w3.org/2000/svg" width="6.847" height="5.691" viewBox="0 0 6.847 5.691">
  <g id="Group_16" data-name="Group 16" transform="translate(-299.787 -4.85)">
    <g id="Group_15" data-name="Group 15">
      <g id="Group_14" data-name="Group 14">
        <rect id="Rectangle_15" data-name="Rectangle 15" width="6.847" height="5.691" rx="1.676" transform="translate(299.787 4.85)" fill="#fff"/>
        <path id="Path_3" data-name="Path 3" d="M300.865,5.6A4.614,4.614,0,0,0,302.413,9a4.505,4.505,0,0,0,2.931,1.049.334.334,0,0,0,.182-.147.316.316,0,0,0,.026-.182,7.322,7.322,0,0,1-.005-.9.273.273,0,0,0-.091-.134.276.276,0,0,0-.164-.061,2.632,2.632,0,0,1-.416-.026,2.671,2.671,0,0,1-.486-.113.283.283,0,0,0-.33.078l-.537.547a3.911,3.911,0,0,1-1.717-1.717l.572-.572a.28.28,0,0,0,.044-.33,1.9,1.9,0,0,1-.1-.4,1.929,1.929,0,0,1-.018-.416.274.274,0,0,0-.208-.3,5.957,5.957,0,0,1-.615-.009c-.255-.017-.422-.045-.529.061A.313.313,0,0,0,300.865,5.6Z" fill="#b3803e"/>
      </g>
    </g>
  </g>
</svg>
