<svg xmlns="http://www.w3.org/2000/svg" width="6.847" height="6.86" viewBox="0 0 6.847 6.86">
  <g id="Group_55" data-name="Group 55" transform="translate(-227.234 -1639.599)">
    <g id="Group_54" data-name="Group 54">
      <g id="Group_53" data-name="Group 53">
        <path id="Path_8" data-name="Path 8" d="M227.234,1639.971a6.737,6.737,0,0,0,2.26,4.955,6.578,6.578,0,0,0,4.278,1.532.489.489,0,0,0,.266-.215.456.456,0,0,0,.038-.266,10.743,10.743,0,0,1-.007-1.31.4.4,0,0,0-.133-.2.406.406,0,0,0-.24-.089,4.059,4.059,0,0,1-1.317-.2.4.4,0,0,0-.253-.026.428.428,0,0,0-.228.139l-.784.8a5.724,5.724,0,0,1-2.507-2.506l.836-.836a.413.413,0,0,0,.114-.253.408.408,0,0,0-.051-.228,2.827,2.827,0,0,1-.177-1.19.411.411,0,0,0-.051-.253.42.42,0,0,0-.253-.19,8.7,8.7,0,0,1-.9-.012c-.371-.025-.616-.066-.773.088A.461.461,0,0,0,227.234,1639.971Z" fill="#f26311"/>
      </g>
    </g>
  </g>
</svg>
