<svg id="Layer_1" data-name="Layer 1" xmlns="http://www.w3.org/2000/svg" viewBox="0 0 247 247"><defs><style>.cls-1{fill:#f47b20;}.cls-2{fill:#fcaf17;}.cls-3{font-size:18.31px;fill:#59585a;font-family:KozGoPro-Bold-90ms-RKSJ-H, Kozuka Gothic Pro;}.cls-4{letter-spacing:0.05em;}.cls-5{font-size:13.56px;font-family:KozGoPro-Regular-90ms-RKSJ-H, Kozuka Gothic Pro;}.cls-6{letter-spacing:0.5em;}</style></defs><path class="cls-1" d="M95.69,185.69a17.48,17.48,0,0,1-12.83,5.37v-76A41.5,41.5,0,0,1,95.8,84.34a44,44,0,0,1,61.9,0,41.37,41.37,0,0,1,13,30.7,41.14,41.14,0,0,1-12.94,30.59,42.92,42.92,0,0,1-31,12.61H101.06v14.59A17.55,17.55,0,0,1,95.69,185.69Zm31-44.67a24.35,24.35,0,0,0,18.14-7.64A25.39,25.39,0,0,0,152.29,115a25.77,25.77,0,0,0-7.42-18.47,25.14,25.14,0,0,0-36.29,0A25.8,25.8,0,0,0,101.17,115v26Z"/><path class="cls-2" d="M230.88,145.52a44,44,0,0,1-61.86,0,41.49,41.49,0,0,1-12.94-30.7A41.11,41.11,0,0,1,169,84.23a42.63,42.63,0,0,1,30.89-12.62h44v43.21A41.43,41.43,0,0,1,230.88,145.52Zm-31-56.7a24.33,24.33,0,0,0-18.16,7.63,25.43,25.43,0,0,0-7.42,18.37,25.75,25.75,0,0,0,7.42,18.47,25.19,25.19,0,0,0,36.33,0,25.76,25.76,0,0,0,7.43-18.47v-26Z"/><path class="cls-1" d="M78.65,58.52a17.48,17.48,0,0,1,12.83-5.37V118a41.52,41.52,0,0,1-12.94,30.72,42.58,42.58,0,0,1-30.92,12.72,42.79,42.79,0,0,1-31-12.72,41.41,41.41,0,0,1-13-30.7A41.13,41.13,0,0,1,16.58,87.47a42.91,42.91,0,0,1,31-12.62H73.29V71.38A17.6,17.6,0,0,1,78.65,58.52Zm-31,33.55a24.35,24.35,0,0,0-18.15,7.64,25.43,25.43,0,0,0-7.42,18.36,25.8,25.8,0,0,0,7.42,18.47,24.2,24.2,0,0,0,18.15,7.75,24.19,24.19,0,0,0,18.14-7.75,25.75,25.75,0,0,0,7.42-18.47v-26Z"/><text class="cls-3" transform="translate(109.31 179.19)"><tspan class="cls-4">DUONGPHON</tspan><tspan x="123.07" y="0">G</tspan><tspan class="cls-5"><tspan class="cls-6" x="0" y="11.53">advertisin</tspan><tspan x="127.5" y="11.53">g</tspan></tspan></text><path class="cls-2" d="M199.58,95.43a18.37,18.37,0,0,0-13.68,5.75A19.18,19.18,0,0,0,180.31,115a19.45,19.45,0,0,0,5.59,13.91,19,19,0,0,0,27.37,0,19.41,19.41,0,0,0,5.6-13.91V95.43Z"/></svg>